<?xml version="1.0" encoding="UTF-8"?>
<svg width="199px" height="327px" viewBox="0 0 199 327" version="1.1" xmlns="http://www.w3.org/2000/svg" xmlns:xlink="http://www.w3.org/1999/xlink">
    <!-- Generator: Sketch 49.1 (51147) - http://www.bohemiancoding.com/sketch -->
    <title>Rectangle 18</title>
    <desc>Created with Sketch.</desc>
    <defs></defs>
    <g id="Page-1" stroke="none" stroke-width="1" fill="none" fill-rule="evenodd">
        <rect id="Rectangle-18" fill="#FEF2D0" x="0" y="0" width="199" height="327" rx="3"></rect>
        <path d="M28.3520508,156.42334 L28.3520508,161.70166 L27.9140625,161.70166 C27.5846338,160.324049 26.9707076,159.268396 26.0722656,158.534668 C25.1738236,157.80094 24.1556046,157.434082 23.0175781,157.434082 C22.066727,157.434082 21.1945027,157.707354 20.4008789,158.253906 C19.6072551,158.800458 19.0270201,159.515458 18.6601562,160.398926 C18.1884742,161.529465 17.9526367,162.787265 17.9526367,164.172363 C17.9526367,165.535 18.1248355,166.775955 18.4692383,167.895264 C18.813641,169.014573 19.3526982,169.860593 20.0864258,170.43335 C20.8201534,171.006106 21.7709903,171.29248 22.9389648,171.29248 C23.897303,171.29248 24.7751425,171.082847 25.5725098,170.663574 C26.369877,170.244301 27.210282,169.521815 28.09375,168.496094 L28.09375,169.810059 C27.2402301,170.701014 26.3511602,171.346759 25.4265137,171.747314 C24.5018671,172.14787 23.4218812,172.348145 22.1865234,172.348145 C20.5618408,172.348145 19.11874,172.022464 17.8571777,171.371094 C16.5956154,170.719723 15.6223179,169.78386 14.9372559,168.563477 C14.2521938,167.343093 13.909668,166.044115 13.909668,164.666504 C13.909668,163.214023 14.2896284,161.836432 15.0495605,160.533691 C15.8094927,159.230951 16.8351986,158.220218 18.126709,157.501465 C19.4182193,156.782711 20.7901946,156.42334 22.2426758,156.42334 C23.3133192,156.42334 24.4438417,156.655434 25.6342773,157.119629 C26.3230829,157.389162 26.7610668,157.523926 26.9482422,157.523926 C27.1878267,157.523926 27.3955883,157.435955 27.5715332,157.26001 C27.7474781,157.084065 27.8616534,156.805178 27.9140625,156.42334 L28.3520508,156.42334 Z M38.4931641,156.558105 C40.9189574,156.468261 42.889885,157.175774 44.4060059,158.680664 C45.9221267,160.185554 46.6801758,162.068511 46.6801758,164.32959 C46.6801758,166.26124 46.1149145,167.960767 44.984375,169.428223 C43.4869717,171.374847 41.3719212,172.348145 38.6391602,172.348145 C35.8989121,172.348145 33.7801182,171.419768 32.2827148,169.562988 C31.0997662,168.095533 30.5083008,166.354828 30.5083008,164.34082 C30.5083008,162.079741 31.2775802,160.194913 32.8161621,158.686279 C34.354744,157.177645 36.2470591,156.468261 38.4931641,156.558105 Z M38.6279297,157.276855 C37.2353446,157.276855 36.1759476,157.988111 35.449707,159.410645 C34.8582327,160.578619 34.5625,162.255686 34.5625,164.441895 C34.5625,167.039889 35.0192012,168.96028 35.9326172,170.203125 C36.5690136,171.071619 37.4599552,171.505859 38.6054688,171.505859 C39.3766315,171.505859 40.0205052,171.318687 40.5371094,170.944336 C41.1959668,170.465167 41.7088198,169.699631 42.0756836,168.647705 C42.4425474,167.595779 42.6259766,166.223804 42.6259766,164.531738 C42.6259766,162.517731 42.438804,161.010991 42.0644531,160.011475 C41.6901023,159.011958 41.2128121,158.306317 40.6325684,157.894531 C40.0523246,157.482745 39.3841184,157.276855 38.6279297,157.276855 Z M58.4609375,166.811523 L62.59375,156.771484 L68.7929688,156.771484 L68.7929688,157.187012 L68.2988281,157.187012 C67.8496071,157.187012 67.4902357,157.265624 67.2207031,157.422852 C67.0335277,157.52767 66.8837896,157.703612 66.7714844,157.950684 C66.6891272,158.130372 66.6479492,158.598304 66.6479492,159.354492 L66.6479492,169.394531 C66.6479492,170.173181 66.6891272,170.65983 66.7714844,170.854492 C66.8538416,171.049155 67.0222969,171.219482 67.2768555,171.365479 C67.531414,171.511475 67.8720682,171.584473 68.2988281,171.584473 L68.7929688,171.584473 L68.7929688,172 L60.8417969,172 L60.8417969,171.584473 L61.3359375,171.584473 C61.7851585,171.584473 62.1445299,171.50586 62.4140625,171.348633 C62.6012379,171.243815 62.750976,171.064129 62.8632812,170.80957 C62.9456384,170.629882 62.9868164,170.158207 62.9868164,169.394531 L62.9868164,158.10791 L57.1469727,172 L56.8774414,172 L50.9477539,158.208984 L50.9477539,168.934082 C50.9477539,169.682784 50.9664712,170.143228 51.0039062,170.31543 C51.1012375,170.689781 51.3127425,170.994872 51.6384277,171.230713 C51.964113,171.466554 52.4750942,171.584473 53.1713867,171.584473 L53.1713867,172 L47.9604492,172 L47.9604492,171.584473 L48.1176758,171.584473 C48.4545915,171.59196 48.7690415,171.53768 49.0610352,171.421631 C49.3530288,171.305582 49.5738925,171.150229 49.7236328,170.955566 C49.8733731,170.760904 49.9894202,170.487632 50.0717773,170.135742 C50.0867514,170.053385 50.0942383,169.671553 50.0942383,168.990234 L50.0942383,159.354492 C50.0942383,158.583329 50.0530603,158.102296 49.9707031,157.911377 C49.8883459,157.720458 49.7198906,157.552003 49.465332,157.406006 C49.2107735,157.260009 48.8701193,157.187012 48.4433594,157.187012 L47.9604492,157.187012 L47.9604492,156.771484 L54.1821289,156.771484 L58.4609375,166.811523 Z M80.1694336,166.811523 L84.3022461,156.771484 L90.5014648,156.771484 L90.5014648,157.187012 L90.0073242,157.187012 C89.5581032,157.187012 89.1987318,157.265624 88.9291992,157.422852 C88.7420238,157.52767 88.5922857,157.703612 88.4799805,157.950684 C88.3976233,158.130372 88.3564453,158.598304 88.3564453,159.354492 L88.3564453,169.394531 C88.3564453,170.173181 88.3976233,170.65983 88.4799805,170.854492 C88.5623377,171.049155 88.730793,171.219482 88.9853516,171.365479 C89.2399101,171.511475 89.5805643,171.584473 90.0073242,171.584473 L90.5014648,171.584473 L90.5014648,172 L82.550293,172 L82.550293,171.584473 L83.0444336,171.584473 C83.4936546,171.584473 83.853026,171.50586 84.1225586,171.348633 C84.309734,171.243815 84.4594721,171.064129 84.5717773,170.80957 C84.6541345,170.629882 84.6953125,170.158207 84.6953125,169.394531 L84.6953125,158.10791 L78.8554688,172 L78.5859375,172 L72.65625,158.208984 L72.65625,168.934082 C72.65625,169.682784 72.6749673,170.143228 72.7124023,170.31543 C72.8097336,170.689781 73.0212386,170.994872 73.3469238,171.230713 C73.6726091,171.466554 74.1835903,171.584473 74.8798828,171.584473 L74.8798828,172 L69.6689453,172 L69.6689453,171.584473 L69.8261719,171.584473 C70.1630876,171.59196 70.4775376,171.53768 70.7695312,171.421631 C71.0615249,171.305582 71.2823886,171.150229 71.4321289,170.955566 C71.5818692,170.760904 71.6979163,170.487632 71.7802734,170.135742 C71.7952475,170.053385 71.8027344,169.671553 71.8027344,168.990234 L71.8027344,159.354492 C71.8027344,158.583329 71.7615564,158.102296 71.6791992,157.911377 C71.596842,157.720458 71.4283867,157.552003 71.1738281,157.406006 C70.9192696,157.260009 70.5786154,157.187012 70.1518555,157.187012 L69.6689453,157.187012 L69.6689453,156.771484 L75.890625,156.771484 L80.1694336,166.811523 Z M91.4560547,156.771484 L99.3173828,156.771484 L99.3173828,157.187012 L98.9243164,157.187012 C98.3328421,157.187012 97.9266775,157.248779 97.7058105,157.372314 C97.4849436,157.49585 97.3277186,157.666177 97.2341309,157.883301 C97.1405432,158.100424 97.09375,158.643225 97.09375,159.511719 L97.09375,166.96875 C97.09375,168.331387 97.1966949,169.233559 97.4025879,169.675293 C97.6084808,170.117027 97.9472633,170.483885 98.4189453,170.775879 C98.8906274,171.067873 99.4858362,171.213867 100.20459,171.213867 C101.028162,171.213867 101.730059,171.028566 102.310303,170.657959 C102.890547,170.287352 103.324787,169.77637 103.613037,169.125 C103.901287,168.47363 104.04541,167.339364 104.04541,165.722168 L104.04541,159.511719 C104.04541,158.8304 103.974285,158.343751 103.832031,158.051758 C103.689778,157.759764 103.510092,157.557618 103.292969,157.445312 C102.956053,157.273111 102.480635,157.187012 101.866699,157.187012 L101.866699,156.771484 L107.133789,156.771484 L107.133789,157.187012 L106.819336,157.187012 C106.392576,157.187012 106.036948,157.273111 105.752441,157.445312 C105.467935,157.617514 105.262045,157.875812 105.134766,158.220215 C105.037434,158.459799 104.98877,158.890296 104.98877,159.511719 L104.98877,165.29541 C104.98877,167.084807 104.870851,168.376298 104.63501,169.169922 C104.399169,169.963546 103.824549,170.693519 102.911133,171.359863 C101.997717,172.026208 100.751147,172.359375 99.1713867,172.359375 C97.8536718,172.359375 96.8354528,172.183433 96.1166992,171.831543 C95.1359,171.352374 94.4433614,170.738448 94.0390625,169.989746 C93.6347636,169.241044 93.4326172,168.234056 93.4326172,166.96875 L93.4326172,159.511719 C93.4326172,158.635738 93.3839523,158.091066 93.2866211,157.877686 C93.1892899,157.664306 93.0208345,157.493979 92.78125,157.366699 C92.5416655,157.23942 92.0999381,157.179525 91.4560547,157.187012 L91.4560547,156.771484 Z M113.254395,156.771484 L120.767578,166.216309 L120.767578,159.668945 C120.767578,158.755529 120.636557,158.13786 120.374512,157.815918 C120.015135,157.381671 119.412439,157.172038 118.566406,157.187012 L118.566406,156.771484 L123.597656,156.771484 L123.597656,157.187012 C122.953773,157.269369 122.521404,157.376057 122.300537,157.50708 C122.07967,157.638103 121.907471,157.85148 121.783936,158.147217 C121.6604,158.442954 121.598633,158.950192 121.598633,159.668945 L121.598633,172.348145 L121.216797,172.348145 L110.918457,159.668945 L110.918457,169.349609 C110.918457,170.22559 111.118732,170.817056 111.519287,171.124023 C111.919842,171.430991 112.378415,171.584473 112.89502,171.584473 L113.254395,171.584473 L113.254395,172 L107.852539,172 L107.852539,171.584473 C108.691085,171.576986 109.275063,171.404787 109.604492,171.067871 C109.933921,170.730955 110.098633,170.158207 110.098633,169.349609 L110.098633,158.602051 L109.772949,158.197754 C109.451008,157.793455 109.166505,157.52767 108.919434,157.400391 C108.672362,157.273111 108.316734,157.201986 107.852539,157.187012 L107.852539,156.771484 L113.254395,156.771484 Z M132.55957,171.584473 L132.55957,172 L124.597168,172 L124.597168,171.584473 L125.102539,171.584473 C125.544273,171.584473 125.899901,171.50586 126.169434,171.348633 C126.364096,171.243815 126.513834,171.064129 126.618652,170.80957 C126.70101,170.629882 126.742187,170.158207 126.742187,169.394531 L126.742187,159.376953 C126.742187,158.598303 126.70101,158.111655 126.618652,157.916992 C126.536295,157.72233 126.369712,157.552003 126.118896,157.406006 C125.868081,157.260009 125.529299,157.187012 125.102539,157.187012 L124.597168,157.187012 L124.597168,156.771484 L132.55957,156.771484 L132.55957,157.187012 L132.054199,157.187012 C131.612465,157.187012 131.256837,157.265624 130.987305,157.422852 C130.792642,157.52767 130.639161,157.707355 130.526855,157.961914 C130.444498,158.141602 130.40332,158.613277 130.40332,159.376953 L130.40332,169.394531 C130.40332,170.173181 130.44637,170.65983 130.532471,170.854492 C130.618571,171.049155 130.787027,171.219482 131.037842,171.365479 C131.288657,171.511475 131.627439,171.584473 132.054199,171.584473 L132.55957,171.584473 Z M147.597168,156.771484 L147.597168,160.893066 L147.192871,160.893066 C146.953287,159.942215 146.687501,159.259035 146.395508,158.843506 C146.103514,158.427976 145.702965,158.096681 145.193848,157.849609 C144.909341,157.714843 144.411462,157.647461 143.700195,157.647461 L142.565918,157.647461 L142.565918,169.394531 C142.565918,170.173181 142.608968,170.65983 142.695068,170.854492 C142.781169,171.049155 142.949624,171.219482 143.200439,171.365479 C143.451255,171.511475 143.79378,171.584473 144.228027,171.584473 L144.733398,171.584473 L144.733398,172 L136.759766,172 L136.759766,171.584473 L137.265137,171.584473 C137.706871,171.584473 138.062499,171.50586 138.332031,171.348633 C138.526694,171.243815 138.680175,171.064129 138.79248,170.80957 C138.874838,170.629882 138.916016,170.158207 138.916016,169.394531 L138.916016,157.647461 L137.81543,157.647461 C136.789708,157.647461 136.044761,157.864581 135.580566,158.298828 C134.929196,158.905276 134.517416,159.770014 134.345215,160.893066 L133.918457,160.893066 L133.918457,156.771484 L147.597168,156.771484 Z M156.851074,171.584473 L156.851074,172 L148.888672,172 L148.888672,171.584473 L149.394043,171.584473 C149.835777,171.584473 150.191405,171.50586 150.460938,171.348633 C150.6556,171.243815 150.805338,171.064129 150.910156,170.80957 C150.992513,170.629882 151.033691,170.158207 151.033691,169.394531 L151.033691,159.376953 C151.033691,158.598303 150.992513,158.111655 150.910156,157.916992 C150.827799,157.72233 150.661215,157.552003 150.4104,157.406006 C150.159585,157.260009 149.820803,157.187012 149.394043,157.187012 L148.888672,157.187012 L148.888672,156.771484 L156.851074,156.771484 L156.851074,157.187012 L156.345703,157.187012 C155.903969,157.187012 155.548341,157.265624 155.278809,157.422852 C155.084146,157.52767 154.930665,157.707355 154.818359,157.961914 C154.736002,158.141602 154.694824,158.613277 154.694824,159.376953 L154.694824,169.394531 C154.694824,170.173181 154.737874,170.65983 154.823975,170.854492 C154.910075,171.049155 155.078531,171.219482 155.329346,171.365479 C155.580161,171.511475 155.918943,171.584473 156.345703,171.584473 L156.851074,171.584473 Z M163.645508,157.647461 L163.645508,163.84668 L163.94873,163.84668 C164.914556,163.84668 165.614581,163.54346 166.048828,162.937012 C166.483075,162.330563 166.760091,161.435878 166.879883,160.25293 L167.306641,160.25293 L167.306641,168.226562 L166.879883,168.226562 C166.790039,167.358069 166.600994,166.646813 166.312744,166.092773 C166.024494,165.538734 165.689455,165.166261 165.307617,164.975342 C164.925779,164.784423 164.371748,164.688965 163.645508,164.688965 L163.645508,168.979004 C163.645508,169.81755 163.681071,170.330403 163.752197,170.517578 C163.823324,170.704754 163.956216,170.858235 164.150879,170.978027 C164.345541,171.09782 164.659991,171.157715 165.094238,171.157715 L166.003906,171.157715 C167.426439,171.157715 168.566321,170.828291 169.423584,170.169434 C170.280847,169.510576 170.896645,168.507331 171.270996,167.159668 L171.686523,167.159668 L171.001465,172 L157.839355,172 L157.839355,171.584473 L158.344727,171.584473 C158.786461,171.584473 159.142088,171.50586 159.411621,171.348633 C159.606284,171.243815 159.756022,171.064129 159.86084,170.80957 C159.943197,170.629882 159.984375,170.158207 159.984375,169.394531 L159.984375,159.376953 C159.984375,158.688148 159.965658,158.265138 159.928223,158.10791 C159.853352,157.845865 159.714845,157.643718 159.512695,157.501465 C159.228189,157.291828 158.83887,157.187012 158.344727,157.187012 L157.839355,157.187012 L157.839355,156.771484 L170.585938,156.771484 L170.585938,161.274902 L170.15918,161.274902 C169.942056,160.174311 169.636965,159.384442 169.243896,158.905273 C168.850828,158.426104 168.294925,158.07422 167.576172,157.849609 C167.156899,157.714843 166.370774,157.647461 165.217773,157.647461 L163.645508,157.647461 Z M183.523438,156.42334 L183.646973,161.499512 L183.186523,161.499512 C182.9694,160.226719 182.435958,159.202885 181.586182,158.427979 C180.736405,157.653072 179.817388,157.265625 178.829102,157.265625 C178.065426,157.265625 177.460858,157.469643 177.015381,157.877686 C176.569903,158.285728 176.347168,158.755531 176.347168,159.287109 C176.347168,159.624025 176.42578,159.923501 176.583008,160.185547 C176.800131,160.537437 177.148272,160.885578 177.627441,161.22998 C177.979331,161.477052 178.79166,161.915036 180.064453,162.543945 C181.846363,163.419926 183.048011,164.247229 183.669434,165.025879 C184.283369,165.804529 184.590332,166.69547 184.590332,167.69873 C184.590332,168.971523 184.094325,170.066483 183.102295,170.983643 C182.110265,171.900802 180.850594,172.359375 179.323242,172.359375 C178.844073,172.359375 178.391115,172.31071 177.964355,172.213379 C177.537596,172.116048 177.002282,171.932619 176.358398,171.663086 C175.999022,171.513346 175.703289,171.438477 175.471191,171.438477 C175.276529,171.438477 175.070639,171.513346 174.853516,171.663086 C174.636392,171.812826 174.46045,172.041177 174.325684,172.348145 L173.910156,172.348145 L173.910156,166.598145 L174.325684,166.598145 C174.655112,168.21534 175.289627,169.448808 176.229248,170.298584 C177.168869,171.14836 178.181472,171.573242 179.26709,171.573242 C180.105636,171.573242 180.773842,171.344892 181.271729,170.888184 C181.769615,170.431476 182.018555,169.899905 182.018555,169.293457 C182.018555,168.93408 181.923097,168.585939 181.732178,168.249023 C181.541259,167.912108 181.251141,167.592043 180.861816,167.288818 C180.472492,166.985594 179.783696,166.59066 178.79541,166.104004 C177.410312,165.422685 176.414554,164.84245 175.808105,164.363281 C175.201657,163.884112 174.735597,163.348799 174.409912,162.757324 C174.084227,162.16585 173.921387,161.514489 173.921387,160.803223 C173.921387,159.590326 174.366858,158.557133 175.257812,157.703613 C176.148767,156.850093 177.271803,156.42334 178.626953,156.42334 C179.121096,156.42334 179.600258,156.483235 180.064453,156.603027 C180.416343,156.692872 180.844968,156.859455 181.350342,157.102783 C181.855715,157.346111 182.209472,157.467773 182.411621,157.467773 C182.606284,157.467773 182.759765,157.407878 182.87207,157.288086 C182.984376,157.168294 183.089192,156.880048 183.186523,156.42334 L183.523438,156.42334 Z" id="COMMUNITIES" fill="#CAAF61"></path>
    </g>
</svg>