<?xml version="1.0" encoding="UTF-8"?>
<svg width="199px" height="327px" viewBox="0 0 199 327" version="1.1" xmlns="http://www.w3.org/2000/svg" xmlns:xlink="http://www.w3.org/1999/xlink">
    <!-- Generator: Sketch 49.1 (51147) - http://www.bohemiancoding.com/sketch -->
    <title>Rectangle 18</title>
    <desc>Created with Sketch.</desc>
    <defs></defs>
    <g id="Page-1" stroke="none" stroke-width="1" fill="none" fill-rule="evenodd">
        <rect id="Rectangle-18" fill="#DFECBA" x="0" y="0" width="199" height="327" rx="3"></rect>
        <path d="M30.1005859,165.005859 L30.1005859,170.513672 C30.1005859,171.587896 30.1665032,172.264159 30.2983398,172.54248 C30.4301764,172.820802 30.6645491,173.042968 31.0014648,173.208984 C31.3383806,173.375001 31.9560502,173.458008 32.8544922,173.458008 L32.8544922,174 L22.7617188,174 L22.7617188,173.458008 C23.6796921,173.458008 24.3022445,173.372559 24.6293945,173.20166 C24.9565446,173.030761 25.1860345,172.808595 25.3178711,172.535156 C25.4497077,172.261717 25.515625,171.587896 25.515625,170.513672 L25.515625,157.623047 C25.515625,156.548823 25.4497077,155.87256 25.3178711,155.594238 C25.1860345,155.315917 24.9541032,155.093751 24.6220703,154.927734 C24.2900374,154.761718 23.6699264,154.678711 22.7617188,154.678711 L22.7617188,154.136719 L31.4189453,154.136719 C34.2705221,154.136719 36.3164,154.644526 37.5566406,155.660156 C38.7968812,156.675786 39.4169922,157.945305 39.4169922,159.46875 C39.4169922,160.757819 39.0166056,161.861324 38.2158203,162.779297 C37.4150351,163.69727 36.3115305,164.322264 34.9052734,164.654297 C33.9580031,164.888673 32.3564566,165.005859 30.1005859,165.005859 Z M30.1005859,155.279297 L30.1005859,163.863281 C30.4228532,163.882813 30.6669914,163.892578 30.8330078,163.892578 C32.02442,163.892578 32.9423796,163.538578 33.5869141,162.830566 C34.2314485,162.122555 34.5537109,161.026375 34.5537109,159.541992 C34.5537109,158.067375 34.2314485,156.988285 33.5869141,156.304688 C32.9423796,155.62109 31.9804751,155.279297 30.7011719,155.279297 L30.1005859,155.279297 Z M51.9121094,153.858398 C55.0761877,153.74121 57.6469628,154.664053 59.6245117,156.626953 C61.6020607,158.589854 62.5908203,161.045884 62.5908203,163.995117 C62.5908203,166.514661 61.853523,168.731436 60.3789062,170.645508 C58.4257715,173.184583 55.66701,174.454102 52.1025391,174.454102 C48.5283024,174.454102 45.7646582,173.243176 43.8115234,170.821289 C42.268547,168.907217 41.4970703,166.636732 41.4970703,164.009766 C41.4970703,161.060532 42.5004782,158.602061 44.5073242,156.634277 C46.5141702,154.666494 48.9824072,153.74121 51.9121094,153.858398 Z M52.0878906,154.795898 C50.2714753,154.795898 48.8896532,155.723624 47.9423828,157.579102 C47.1708946,159.102547 46.7851562,161.290025 46.7851562,164.141602 C46.7851562,167.53029 47.3808534,170.035148 48.5722656,171.65625 C49.4023479,172.789068 50.5644457,173.355469 52.0585938,173.355469 C53.0644582,173.355469 53.9042935,173.111331 54.578125,172.623047 C55.4375043,171.998044 56.1064429,170.999519 56.5849609,169.627441 C57.063479,168.255364 57.3027344,166.465831 57.3027344,164.258789 C57.3027344,161.631823 57.0585962,159.66651 56.5703125,158.362793 C56.0820288,157.059076 55.4594764,156.138675 54.7026367,155.601562 C53.945797,155.06445 53.0742237,154.795898 52.0878906,154.795898 Z M64.0556641,174 L64.0556641,173.458008 L64.7148438,173.458008 C65.2910185,173.458008 65.7329086,173.367677 66.0405273,173.187012 C66.3481461,173.006347 66.5751946,172.759767 66.7216797,172.447266 C66.8095708,172.242186 66.8535156,171.626958 66.8535156,170.601562 L66.8535156,157.535156 C66.8535156,156.519526 66.7998052,155.884767 66.6923828,155.630859 C66.5849604,155.376952 66.3676774,155.154786 66.0405273,154.964355 C65.7133773,154.773925 65.2714872,154.678711 64.7148438,154.678711 L64.0556641,154.678711 L64.0556641,154.136719 L72.9472656,154.136719 C75.3203244,154.136719 77.229485,154.458981 78.6748047,155.103516 C80.4423917,155.894535 81.7827103,157.090812 82.6958008,158.692383 C83.6088913,160.293953 84.0654297,162.105459 84.0654297,164.126953 C84.0654297,165.523444 83.8408226,166.810053 83.3916016,167.986816 C82.9423806,169.16358 82.3613317,170.13525 81.6484375,170.901855 C80.9355433,171.668461 80.1127976,172.283689 79.1801758,172.747559 C78.2475539,173.211428 77.1074286,173.570311 75.7597656,173.824219 C75.1640595,173.941407 74.2265689,174 72.9472656,174 L64.0556641,174 Z M71.6289062,155.264648 L71.6289062,170.762695 C71.6289062,171.583012 71.6679684,172.085937 71.7460938,172.271484 C71.8242191,172.457032 71.9560538,172.598632 72.1416016,172.696289 C72.4052748,172.842774 72.7861303,172.916016 73.2841797,172.916016 C74.9150472,172.916016 76.160152,172.359381 77.0195312,171.246094 C78.1914121,169.74218 78.7773438,167.408219 78.7773438,164.244141 C78.7773438,161.6953 78.3769571,159.659187 77.5761719,158.135742 C76.9414031,156.94433 76.1259815,156.133791 75.1298828,155.704102 C74.4267543,155.401366 73.2597738,155.254883 71.6289062,155.264648 Z M105.349609,153.682617 L105.349609,160.567383 L104.77832,160.567383 C104.348631,158.770499 103.547857,157.393559 102.375977,156.436523 C101.204096,155.479487 99.875984,155.000977 98.3916016,155.000977 C97.151361,155.000977 96.0136771,155.357418 94.9785156,156.070312 C93.9433542,156.783207 93.1865258,157.715815 92.7080078,158.868164 C92.0927704,160.342781 91.7851562,161.983389 91.7851562,163.790039 C91.7851562,165.567392 92.0097634,167.186028 92.4589844,168.645996 C92.9082054,170.105964 93.6113233,171.209469 94.5683594,171.956543 C95.5253954,172.703617 96.7656174,173.077148 98.2890625,173.077148 C99.5390688,173.077148 100.684077,172.803714 101.724121,172.256836 C102.764165,171.709958 103.860346,170.767585 105.012695,169.429688 L105.012695,171.143555 C103.899408,172.30567 102.739752,173.147947 101.533691,173.67041 C100.327631,174.192874 98.9189534,174.454102 97.3076172,174.454102 C95.188466,174.454102 93.3061606,174.029301 91.6606445,173.179688 C90.0151285,172.330074 88.7456099,171.109383 87.8520508,169.517578 C86.9584916,167.925773 86.5117188,166.231454 86.5117188,164.43457 C86.5117188,162.54003 87.0073193,160.743173 87.9985352,159.043945 C88.989751,157.344718 90.3276283,156.026372 92.012207,155.088867 C93.6967858,154.151362 95.4863187,153.682617 97.3808594,153.682617 C98.7773507,153.682617 100.251945,153.985349 101.804688,154.59082 C102.703129,154.942385 103.274413,155.118164 103.518555,155.118164 C103.831056,155.118164 104.10205,155.003419 104.331543,154.773926 C104.561036,154.544432 104.709961,154.180667 104.77832,153.682617 L105.349609,153.682617 Z M119.470703,168.345703 L112.454102,168.345703 L111.619141,170.279297 C111.345702,170.923831 111.208984,171.456053 111.208984,171.875977 C111.208984,172.43262 111.433592,172.842772 111.882812,173.106445 C112.146486,173.262696 112.795893,173.379882 113.831055,173.458008 L113.831055,174 L107.224609,174 L107.224609,173.458008 C107.937504,173.350585 108.523435,173.055178 108.982422,172.571777 C109.441409,172.088376 110.007809,171.089851 110.681641,169.576172 L117.786133,153.726562 L118.064453,153.726562 L125.227539,170.015625 C125.911136,171.558601 126.472654,172.530271 126.912109,172.930664 C127.244142,173.2334 127.712888,173.409179 128.318359,173.458008 L128.318359,174 L118.708984,174 L118.708984,173.458008 L119.104492,173.458008 C119.87598,173.458008 120.417967,173.350587 120.730469,173.135742 C120.945314,172.979491 121.052734,172.754884 121.052734,172.461914 C121.052734,172.286132 121.023438,172.10547 120.964844,171.919922 C120.945312,171.832031 120.798829,171.465824 120.525391,170.821289 L119.470703,168.345703 Z M118.972656,167.261719 L116.013672,160.420898 L112.966797,167.261719 L118.972656,167.261719 Z M142.74707,153.682617 L142.908203,160.303711 L142.307617,160.303711 C142.024413,158.643546 141.328619,157.308111 140.220215,156.297363 C139.111811,155.286616 137.913092,154.78125 136.624023,154.78125 C135.627925,154.78125 134.839358,155.047361 134.258301,155.57959 C133.677243,156.111819 133.386719,156.724606 133.386719,157.417969 C133.386719,157.857424 133.489257,158.248045 133.694336,158.589844 C133.97754,159.04883 134.431637,159.502927 135.056641,159.952148 C135.515627,160.274416 136.575187,160.845699 138.235352,161.666016 C140.559582,162.808599 142.126949,163.88769 142.9375,164.90332 C143.738285,165.91895 144.138672,167.081048 144.138672,168.389648 C144.138672,170.049813 143.491706,171.478021 142.197754,172.674316 C140.903802,173.870611 139.260752,174.46875 137.268555,174.46875 C136.643552,174.46875 136.052737,174.405274 135.496094,174.27832 C134.93945,174.151367 134.241215,173.912111 133.401367,173.560547 C132.932615,173.365233 132.546877,173.267578 132.244141,173.267578 C131.990233,173.267578 131.721681,173.365233 131.438477,173.560547 C131.155272,173.75586 130.925782,174.053709 130.75,174.454102 L130.208008,174.454102 L130.208008,166.954102 L130.75,166.954102 C131.17969,169.063487 132.007318,170.672358 133.23291,171.780762 C134.458502,172.889166 135.77929,173.443359 137.195312,173.443359 C138.289068,173.443359 139.160641,173.145511 139.810059,172.549805 C140.459476,171.954099 140.78418,171.260746 140.78418,170.469727 C140.78418,170.000974 140.659669,169.546877 140.410645,169.107422 C140.16162,168.667967 139.783206,168.25049 139.275391,167.85498 C138.767576,167.459471 137.869147,166.944339 136.580078,166.30957 C134.773428,165.420894 133.474613,164.664066 132.683594,164.039062 C131.892574,163.414059 131.28467,162.715824 130.859863,161.944336 C130.435056,161.172848 130.222656,160.323247 130.222656,159.395508 C130.222656,157.813469 130.803705,156.465826 131.96582,155.352539 C133.127935,154.239252 134.592765,153.682617 136.360352,153.682617 C137.004886,153.682617 137.62988,153.760741 138.235352,153.916992 C138.694338,154.03418 139.253415,154.251463 139.912598,154.568848 C140.571781,154.886232 141.033202,155.044922 141.296875,155.044922 C141.550783,155.044922 141.750976,154.966798 141.897461,154.810547 C142.043946,154.654296 142.180663,154.278323 142.307617,153.682617 L142.74707,153.682617 Z M164.265625,154.136719 L164.265625,159.512695 L163.738281,159.512695 C163.42578,158.272455 163.079103,157.38135 162.698242,156.839355 C162.317381,156.297361 161.794925,155.865236 161.130859,155.542969 C160.759764,155.367187 160.110356,155.279297 159.182617,155.279297 L157.703125,155.279297 L157.703125,170.601562 C157.703125,171.617193 157.759277,172.251952 157.871582,172.505859 C157.983887,172.759767 158.203612,172.981933 158.530762,173.172363 C158.857912,173.362794 159.304685,173.458008 159.871094,173.458008 L160.530273,173.458008 L160.530273,174 L150.129883,174 L150.129883,173.458008 L150.789062,173.458008 C151.365237,173.458008 151.8291,173.35547 152.180664,173.150391 C152.434572,173.013671 152.634765,172.779299 152.78125,172.447266 C152.888672,172.212889 152.942383,171.597661 152.942383,170.601562 L152.942383,155.279297 L151.506836,155.279297 C150.168939,155.279297 149.197269,155.562497 148.591797,156.128906 C147.742183,156.919926 147.205079,158.047844 146.980469,159.512695 L146.423828,159.512695 L146.423828,154.136719 L164.265625,154.136719 Z M179.441406,153.682617 L179.602539,160.303711 L179.001953,160.303711 C178.718749,158.643546 178.022955,157.308111 176.914551,156.297363 C175.806147,155.286616 174.607428,154.78125 173.318359,154.78125 C172.322261,154.78125 171.533694,155.047361 170.952637,155.57959 C170.371579,156.111819 170.081055,156.724606 170.081055,157.417969 C170.081055,157.857424 170.183593,158.248045 170.388672,158.589844 C170.671876,159.04883 171.125973,159.502927 171.750977,159.952148 C172.209963,160.274416 173.269523,160.845699 174.929687,161.666016 C177.253918,162.808599 178.821285,163.88769 179.631836,164.90332 C180.432621,165.91895 180.833008,167.081048 180.833008,168.389648 C180.833008,170.049813 180.186042,171.478021 178.89209,172.674316 C177.598138,173.870611 175.955088,174.46875 173.962891,174.46875 C173.337887,174.46875 172.747073,174.405274 172.19043,174.27832 C171.633786,174.151367 170.935551,173.912111 170.095703,173.560547 C169.626951,173.365233 169.241212,173.267578 168.938477,173.267578 C168.684569,173.267578 168.416017,173.365233 168.132812,173.560547 C167.849608,173.75586 167.620118,174.053709 167.444336,174.454102 L166.902344,174.454102 L166.902344,166.954102 L167.444336,166.954102 C167.874026,169.063487 168.701654,170.672358 169.927246,171.780762 C171.152838,172.889166 172.473626,173.443359 173.889648,173.443359 C174.983404,173.443359 175.854977,173.145511 176.504395,172.549805 C177.153812,171.954099 177.478516,171.260746 177.478516,170.469727 C177.478516,170.000974 177.354005,169.546877 177.10498,169.107422 C176.855956,168.667967 176.477542,168.25049 175.969727,167.85498 C175.461912,167.459471 174.563483,166.944339 173.274414,166.30957 C171.467764,165.420894 170.168949,164.664066 169.37793,164.039062 C168.58691,163.414059 167.979006,162.715824 167.554199,161.944336 C167.129392,161.172848 166.916992,160.323247 166.916992,159.395508 C166.916992,157.813469 167.498041,156.465826 168.660156,155.352539 C169.822271,154.239252 171.287101,153.682617 173.054687,153.682617 C173.699222,153.682617 174.324216,153.760741 174.929687,153.916992 C175.388674,154.03418 175.947751,154.251463 176.606934,154.568848 C177.266117,154.886232 177.727538,155.044922 177.991211,155.044922 C178.245118,155.044922 178.445312,154.966798 178.591797,154.810547 C178.738282,154.654296 178.874999,154.278323 179.001953,153.682617 L179.441406,153.682617 Z" id="PODCASTS" fill="#A3B56E"></path>
    </g>
</svg>