<?xml version="1.0" encoding="UTF-8"?>
<svg width="199px" height="327px" viewBox="0 0 199 327" version="1.1" xmlns="http://www.w3.org/2000/svg" xmlns:xlink="http://www.w3.org/1999/xlink">
    <!-- Generator: Sketch 49.1 (51147) - http://www.bohemiancoding.com/sketch -->
    <title>Rectangle 18</title>
    <desc>Created with Sketch.</desc>
    <defs></defs>
    <g id="Page-1" stroke="none" stroke-width="1" fill="none" fill-rule="evenodd">
        <rect id="Rectangle-18" fill="#CBF8FF" x="0" y="0" width="199" height="327" rx="3"></rect>
        <path d="M60.3447266,160.467773 C62.2295016,160.907229 63.5527306,161.43945 64.3144531,162.064453 C65.4082086,162.953129 65.9550781,164.105462 65.9550781,165.521484 C65.9550781,167.015632 65.3544982,168.250972 64.1533203,169.227539 C62.6787036,170.409186 60.5351703,171 57.7226562,171 L47.6298828,171 L47.6298828,170.458008 C48.5478562,170.458008 49.1704085,170.372559 49.4975586,170.20166 C49.8247087,170.030761 50.0541986,169.808595 50.1860352,169.535156 C50.3178718,169.261717 50.3837891,168.587896 50.3837891,167.513672 L50.3837891,154.623047 C50.3837891,153.548823 50.3178718,152.87256 50.1860352,152.594238 C50.0541986,152.315917 49.8222673,152.093751 49.4902344,151.927734 C49.1582015,151.761718 48.5380905,151.678711 47.6298828,151.678711 L47.6298828,151.136719 L57.1513672,151.136719 C59.4267692,151.136719 61.0380812,151.339353 61.9853516,151.744629 C62.9326219,152.149904 63.6796848,152.755367 64.2265625,153.561035 C64.7734402,154.366703 65.046875,155.223628 65.046875,156.131836 C65.046875,157.088872 64.7001988,157.940914 64.0068359,158.687988 C63.3134731,159.435062 62.0927822,160.028318 60.3447266,160.467773 Z M55.0126953,160.072266 C56.399421,160.072266 57.42236,159.916017 58.081543,159.603516 C58.740726,159.291014 59.246092,158.851565 59.5976562,158.285156 C59.9492205,157.718747 60.125,156.996098 60.125,156.117188 C60.125,155.238277 59.9516619,154.518069 59.6049805,153.956543 C59.258299,153.395017 58.7626985,152.967775 58.1181641,152.674805 C57.4736296,152.381834 56.4384837,152.240234 55.0126953,152.25 L55.0126953,160.072266 Z M55.0126953,161.214844 L55.0126953,167.586914 L54.9980469,168.319336 C54.9980469,168.846682 55.1323229,169.244628 55.4008789,169.513184 C55.6694349,169.78174 56.0673802,169.916016 56.5947266,169.916016 C57.3759805,169.916016 58.0961881,169.742678 58.7553711,169.395996 C59.4145541,169.049315 59.9199201,168.54639 60.2714844,167.887207 C60.6230486,167.228024 60.7988281,166.493168 60.7988281,165.682617 C60.7988281,164.754878 60.5839865,163.922367 60.1542969,163.185059 C59.7246072,162.44775 59.1337928,161.932619 58.3818359,161.639648 C57.6298791,161.346678 56.5068434,161.205078 55.0126953,161.214844 Z M78.5966797,150.858398 C81.760758,150.74121 84.3315331,151.664053 86.309082,153.626953 C88.286631,155.589854 89.2753906,158.045884 89.2753906,160.995117 C89.2753906,163.514661 88.5380933,165.731436 87.0634766,167.645508 C85.1103418,170.184583 82.3515803,171.454102 78.7871094,171.454102 C75.2128728,171.454102 72.4492285,170.243176 70.4960938,167.821289 C68.9531173,165.907217 68.1816406,163.636732 68.1816406,161.009766 C68.1816406,158.060532 69.1850486,155.602061 71.1918945,153.634277 C73.1987405,151.666494 75.6669775,150.74121 78.5966797,150.858398 Z M78.7724609,151.795898 C76.9560456,151.795898 75.5742235,152.723624 74.6269531,154.579102 C73.8554649,156.102547 73.4697266,158.290025 73.4697266,161.141602 C73.4697266,164.53029 74.0654237,167.035148 75.2568359,168.65625 C76.0869182,169.789068 77.249016,170.355469 78.7431641,170.355469 C79.7490285,170.355469 80.5888638,170.111331 81.2626953,169.623047 C82.1220746,168.998044 82.7910132,167.999519 83.2695312,166.627441 C83.7480493,165.255364 83.9873047,163.465831 83.9873047,161.258789 C83.9873047,158.631823 83.7431665,156.66651 83.2548828,155.362793 C82.7665991,154.059076 82.1440468,153.138675 81.387207,152.601562 C80.6303673,152.06445 79.758794,151.795898 78.7724609,151.795898 Z M101.931641,150.858398 C105.095719,150.74121 107.666494,151.664053 109.644043,153.626953 C111.621592,155.589854 112.610352,158.045884 112.610352,160.995117 C112.610352,163.514661 111.873054,165.731436 110.398438,167.645508 C108.445303,170.184583 105.686541,171.454102 102.12207,171.454102 C98.5478337,171.454102 95.7841895,170.243176 93.8310547,167.821289 C92.2880782,165.907217 91.5166016,163.636732 91.5166016,161.009766 C91.5166016,158.060532 92.5200095,155.602061 94.5268555,153.634277 C96.5337014,151.666494 99.0019385,150.74121 101.931641,150.858398 Z M102.107422,151.795898 C100.291007,151.795898 98.9091844,152.723624 97.9619141,154.579102 C97.1904258,156.102547 96.8046875,158.290025 96.8046875,161.141602 C96.8046875,164.53029 97.4003847,167.035148 98.5917969,168.65625 C99.4218792,169.789068 100.583977,170.355469 102.078125,170.355469 C103.083989,170.355469 103.923825,170.111331 104.597656,169.623047 C105.457036,168.998044 106.125974,167.999519 106.604492,166.627441 C107.08301,165.255364 107.322266,163.465831 107.322266,161.258789 C107.322266,158.631823 107.078127,156.66651 106.589844,155.362793 C106.10156,154.059076 105.479008,153.138675 104.722168,152.601562 C103.965328,152.06445 103.093755,151.795898 102.107422,151.795898 Z M126.174805,158.739258 L133.162109,167.484375 C134.148442,168.71485 134.998043,169.549802 135.710938,169.989258 C136.228518,170.301759 136.775388,170.458008 137.351562,170.458008 L137.351562,171 L127.009766,171 L127.009766,170.458008 C127.664066,170.399414 128.086425,170.296876 128.276855,170.150391 C128.467286,170.003906 128.5625,169.823243 128.5625,169.608398 C128.5625,169.19824 128.113286,168.426763 127.214844,167.293945 L122.65918,161.566406 L121.926758,162.181641 L121.926758,167.601562 C121.926758,168.636724 121.985351,169.281249 122.102539,169.535156 C122.219727,169.789064 122.444334,170.006347 122.776367,170.187012 C123.1084,170.367677 123.640621,170.458008 124.373047,170.458008 L124.373047,171 L114.353516,171 L114.353516,170.458008 L115.012695,170.458008 C115.58887,170.458008 116.052733,170.35547 116.404297,170.150391 C116.658204,170.013671 116.853515,169.779299 116.990234,169.447266 C117.097657,169.212889 117.151367,168.597661 117.151367,167.601562 L117.151367,154.535156 C117.151367,153.519526 117.097657,152.884767 116.990234,152.630859 C116.882812,152.376952 116.665529,152.154786 116.338379,151.964355 C116.011229,151.773925 115.569339,151.678711 115.012695,151.678711 L114.353516,151.678711 L114.353516,151.136719 L124.241211,151.136719 L124.241211,151.678711 C123.567379,151.678711 123.054689,151.776366 122.703125,151.97168 C122.449217,152.108399 122.249024,152.337889 122.102539,152.660156 C121.985351,152.904298 121.926758,153.529292 121.926758,154.535156 L121.926758,160.716797 L129.294922,154.754883 C130.320318,153.924801 130.833008,153.260745 130.833008,152.762695 C130.833008,152.3916 130.623049,152.098634 130.203125,151.883789 C129.98828,151.776367 129.456059,151.708008 128.606445,151.678711 L128.606445,151.136719 L136.355469,151.136719 L136.355469,151.678711 C135.662106,151.727539 135.117678,151.85205 134.722168,152.052246 C134.326658,152.252442 133.416023,152.928705 131.990234,154.081055 L126.174805,158.739258 Z M151.106445,150.682617 L151.267578,157.303711 L150.666992,157.303711 C150.383788,155.643546 149.687994,154.308111 148.57959,153.297363 C147.471186,152.286616 146.272467,151.78125 144.983398,151.78125 C143.9873,151.78125 143.198733,152.047361 142.617676,152.57959 C142.036618,153.111819 141.746094,153.724606 141.746094,154.417969 C141.746094,154.857424 141.848632,155.248045 142.053711,155.589844 C142.336915,156.04883 142.791012,156.502927 143.416016,156.952148 C143.875002,157.274416 144.934562,157.845699 146.594727,158.666016 C148.918957,159.808599 150.486324,160.88769 151.296875,161.90332 C152.09766,162.91895 152.498047,164.081048 152.498047,165.389648 C152.498047,167.049813 151.851081,168.478021 150.557129,169.674316 C149.263177,170.870611 147.620127,171.46875 145.62793,171.46875 C145.002927,171.46875 144.412112,171.405274 143.855469,171.27832 C143.298825,171.151367 142.60059,170.912111 141.760742,170.560547 C141.29199,170.365233 140.906252,170.267578 140.603516,170.267578 C140.349608,170.267578 140.081056,170.365233 139.797852,170.560547 C139.514647,170.75586 139.285157,171.053709 139.109375,171.454102 L138.567383,171.454102 L138.567383,163.954102 L139.109375,163.954102 C139.539065,166.063487 140.366693,167.672358 141.592285,168.780762 C142.817877,169.889166 144.138665,170.443359 145.554688,170.443359 C146.648443,170.443359 147.520016,170.145511 148.169434,169.549805 C148.818851,168.954099 149.143555,168.260746 149.143555,167.469727 C149.143555,167.000974 149.019044,166.546877 148.77002,166.107422 C148.520995,165.667967 148.142581,165.25049 147.634766,164.85498 C147.126951,164.459471 146.228522,163.944339 144.939453,163.30957 C143.132803,162.420894 141.833988,161.664066 141.042969,161.039062 C140.251949,160.414059 139.644045,159.715824 139.219238,158.944336 C138.794431,158.172848 138.582031,157.323247 138.582031,156.395508 C138.582031,154.813469 139.16308,153.465826 140.325195,152.352539 C141.48731,151.239252 142.95214,150.682617 144.719727,150.682617 C145.364261,150.682617 145.989255,150.760741 146.594727,150.916992 C147.053713,151.03418 147.61279,151.251463 148.271973,151.568848 C148.931156,151.886232 149.392577,152.044922 149.65625,152.044922 C149.910158,152.044922 150.110351,151.966798 150.256836,151.810547 C150.403321,151.654296 150.540038,151.278323 150.666992,150.682617 L151.106445,150.682617 Z" id="BOOKS" fill="#6FC3D0"></path>
    </g>
</svg>