<?xml version="1.0" encoding="UTF-8"?>
<svg width="199px" height="327px" viewBox="0 0 199 327" version="1.1" xmlns="http://www.w3.org/2000/svg" xmlns:xlink="http://www.w3.org/1999/xlink">
    <!-- Generator: Sketch 49.1 (51147) - http://www.bohemiancoding.com/sketch -->
    <title>Rectangle 18</title>
    <desc>Created with Sketch.</desc>
    <defs></defs>
    <g id="Page-1" stroke="none" stroke-width="1" fill="none" fill-rule="evenodd">
        <path d="M175.302282,305.773351 C174.109141,304.621547 172.916,303.469744 171.722859,302.31794" id="Path-134" stroke="#FFD4E9"></path>
        <rect id="Rectangle-18" fill="#E5D4FF" x="0" y="0" width="199" height="327" rx="3"></rect>
        <path d="M27.9936997,148.496525 C25.8291566,147.032361 23.6646135,145.568198 21.5000704,144.104034" id="Path-175" stroke="#AE88E9" stroke-linecap="round"></path>
        <g id="Group-87" transform="translate(133.500000, 149.500000) scale(-1, 1) translate(-133.500000, -149.500000) translate(113.000000, 126.000000)">
            <path d="M8.07857725,19.7472884 C4.57864193,23.2660406 -7.52389506,42.6615269 6.91539407,40.2901202 C11.3695478,39.5586014 18.3693496,28.9452035 14.5051796,30.7561832 C9.41146016,33.143403 12.8764689,38.6024012 17.1402581,39.4644377 C18.6142441,39.7624426 36.364578,37.0631503 29.4599544,31.1561615 C22.2088748,24.9527754 22.8185023,30.3522069 25.0454935,36.746056 C27.4688864,43.7037879 29.9826016,43.7661281 35.5723319,46.5341904" id="Path-42" stroke="#D5BAFE" stroke-width="2" transform="translate(17.786166, 33.140739) scale(-1, 1) translate(-17.786166, -33.140739) "></path>
            <path d="M32.9441694,-1.14783745 L32.9441694,-1.14783745 C33.4891753,-1.21652701 33.9866739,-0.830396267 34.0553634,-0.285390292 C34.0590697,-0.255983947 34.0614596,-0.226426636 34.0625261,-0.196806851 L34.6920885,17.2879641 C34.6984399,17.464361 34.6736073,17.6404945 34.6187332,17.8082593 C34.0130999,19.659844 33.6391018,20.5645193 33.4967386,20.5222852 C33.3533558,20.4797485 32.9625276,19.5068377 32.3242541,17.6035526 L32.3242555,17.6035521 C32.2760642,17.4598492 32.2499313,17.3096722 32.2467472,17.1581374 L31.8878049,0.0756944013 C31.8748167,-0.54242654 32.3307647,-1.07052728 32.9441694,-1.14783745 Z" id="Rectangle-54" fill="#A67BE8" transform="translate(33.290297, 9.683974) rotate(35.000000) translate(-33.290297, -9.683974) "></path>
            <rect id="Rectangle-55" fill="#A67BE8" transform="translate(35.105008, 2.786996) rotate(34.000000) translate(-35.105008, -2.786996) " x="34.6050082" y="-0.213004437" width="1" height="6"></rect>
        </g>
        <g id="Group-61" transform="translate(165.000000, 164.000000)">
            <g id="Group-56">
                <path d="M13.5090034,17.9302105 C16.9175429,17.9302105 22.4695833,16.409757 24.8464088,14.8064276 C27.6721221,12.900293 29,12.1195307 29,9 C29,3.25650173 21.002574,0 13.5417574,0 C6.0809408,0 0,1.78718867 0,7.53068695 C0,9.78658472 0.933063157,11.8747164 2.51830308,13.5788494 C2.98838566,14.0841882 0.992719555,17.4980434 1.57017522,17.9302105 C2.2542336,18.442159 5.53158835,15.9565274 6.34386902,16.3485089 C8.42075826,17.3507512 10.8769774,17.9302105 13.5090034,17.9302105 Z" id="Oval-7" fill="#BF9DF3"></path>
                <path d="M4.14285714,11.5120955 C4.38674201,9.57528773 5.49240681,3.04460488 9.45502132,5.35223681 C12.2761957,6.9951501 9.26165359,12.5334615 9.07572921,12.1424563 C7.69120558,9.23075662 12.7951748,4.08489444 15.0942688,6.89745449 C15.8912139,7.87238465 16.4881102,11.6262369 15.8442092,10.5512122 L15.0769811,11.7839177 C13.2817784,8.7867377 17.7365323,4.91541437 20.6581419,6.7336941 C21.0050167,6.94957358 21.8268216,10.687631 20.8752754,11.058169 C20.4954494,11.2060756 20.2846,7.40890416 22.5843373,6.62529873 C23.6424276,6.26476827 24.7900172,6.22529202 25.8928571,6.02528867" id="Path-44" stroke="#F0E6FF"></path>
            </g>
        </g>
        <g id="Group-61" transform="translate(85.000000, 86.000000)">
            <g id="Group-56">
                <path d="M13.5090034,17.9302105 C16.9175429,17.9302105 22.4695833,16.409757 24.8464088,14.8064276 C27.6721221,12.900293 29,12.1195307 29,9 C29,3.25650173 21.002574,0 13.5417574,0 C6.0809408,0 0,1.78718867 0,7.53068695 C0,9.78658472 0.933063157,11.8747164 2.51830308,13.5788494 C2.98838566,14.0841882 0.992719555,17.4980434 1.57017522,17.9302105 C2.2542336,18.442159 5.53158835,15.9565274 6.34386902,16.3485089 C8.42075826,17.3507512 10.8769774,17.9302105 13.5090034,17.9302105 Z" id="Oval-7" fill="#BF9DF3"></path>
                <path d="M4.14285714,11.5120955 C4.38674201,9.57528773 5.49240681,3.04460488 9.45502132,5.35223681 C12.2761957,6.9951501 9.26165359,12.5334615 9.07572921,12.1424563 C7.69120558,9.23075662 12.7951748,4.08489444 15.0942688,6.89745449 C15.8912139,7.87238465 16.4881102,11.6262369 15.8442092,10.5512122 L15.0769811,11.7839177 C13.2817784,8.7867377 17.7365323,4.91541437 20.6581419,6.7336941 C21.0050167,6.94957358 21.8268216,10.687631 20.8752754,11.058169 C20.4954494,11.2060756 20.2846,7.40890416 22.5843373,6.62529873 C23.6424276,6.26476827 24.7900172,6.22529202 25.8928571,6.02528867" id="Path-44" stroke="#F0E6FF"></path>
            </g>
        </g>
        <rect id="Rectangle-66" fill="#C5ADEA" x="28" y="170" width="84" height="147"></rect>
        <rect id="Rectangle-66" fill="#CEB7F1" x="21" y="175" width="84" height="147"></rect>
        <rect id="Rectangle-66" fill="#DCC7FC" x="15" y="179" width="84" height="147"></rect>
        <path d="M25.5,196.5 L82,196.5" id="Line-17" stroke="#CAB0F1" stroke-width="4" stroke-linecap="round"></path>
        <path d="M25.5,202.5 L58.515148,202.5" id="Line-17" stroke="#CAB0F1" stroke-width="3" stroke-linecap="round"></path>
        <path d="M25.5,238.5 L58.515148,238.5" id="Line-17" stroke="#CAB0F1" stroke-width="3" stroke-linecap="round"></path>
        <path d="M25.5,308.5 L58.515148,308.5" id="Line-17" stroke="#CAB0F1" stroke-width="3" stroke-linecap="round"></path>
        <path d="M25.5,248.5 L89.0177141,248.5" id="Line-17" stroke="#CAB0F1" stroke-width="2" stroke-linecap="round"></path>
        <path d="M25.5,255.5 L89.0177141,255.5" id="Line-17" stroke="#CAB0F1" stroke-width="2" stroke-linecap="round"></path>
        <path d="M25.5,263.5 L89.0177141,263.5" id="Line-17" stroke="#CAB0F1" stroke-width="2" stroke-linecap="round"></path>
        <rect id="Rectangle-67" fill="#BF9DF3" x="24" y="209" width="66" height="23"></rect>
        <path d="M24.5,209.5 L90.5,231.5" id="Line-18" stroke="#B08BE9" stroke-linecap="square"></path>
        <path d="M24.5250629,231.574905 L90.4749371,209.425095" id="Line-18" stroke="#B08BE9" stroke-linecap="square"></path>
        <circle id="Oval-23" fill="#B08BE9" cx="24.5" cy="209.5" r="1.5"></circle>
        <circle id="Oval-23" fill="#B08BE9" cx="24.5" cy="231.5" r="1.5"></circle>
        <circle id="Oval-23" fill="#B08BE9" cx="89.5" cy="231.5" r="1.5"></circle>
        <circle id="Oval-23" fill="#B08BE9" cx="89.5" cy="209.5" r="1.5"></circle>
        <rect id="Rectangle-67" fill="#BF9DF3" x="24" y="276" width="66" height="23"></rect>
        <path d="M24.5,276.5 L90.5,298.5" id="Line-18" stroke="#B08BE9" stroke-linecap="square"></path>
        <path d="M24.5250629,298.574905 L90.4749371,276.425095" id="Line-18" stroke="#B08BE9" stroke-linecap="square"></path>
        <circle id="Oval-23" fill="#B08BE9" cx="24.5" cy="276.5" r="1.5"></circle>
        <circle id="Oval-23" fill="#B08BE9" cx="24.5" cy="298.5" r="1.5"></circle>
        <circle id="Oval-23" fill="#B08BE9" cx="89.5" cy="298.5" r="1.5"></circle>
        <circle id="Oval-23" fill="#B08BE9" cx="89.5" cy="276.5" r="1.5"></circle>
        <path d="M28.6196674,320.510757 C49.1244495,320.052868 49.2127698,321.145054 71.0037298,315.28789 C72.3078424,314.93736 82.0733885,308.136888 78.3243053,305.780418 C71.2657455,301.34379 70.244438,326.182407 84.9046178,319.390552 C96.7932544,313.882714 100.110395,299.870032 113.195146,296.943641 C122.243385,294.920012 118.440486,326.191999 135.26033,313.272235 C140.022316,309.614428 142.118869,303.332415 146.371408,299.093079 C155.044207,290.447209 155.236073,311.60296 161.566419,317.723778 C165.761147,321.779663 176.700483,312.779588 179.998964,307.387591" id="Path-146" stroke="#BF9DF3" stroke-width="2"></path>
        <g id="Group-59" transform="translate(103.637878, 295.473147) scale(-1, 1) rotate(28.000000) translate(-103.637878, -295.473147) translate(94.637878, 290.973147)">
            <path d="M0,0.574575332 C0.38062525,2.21870594 5.57813729,10.4825411 7.86445693,3.58163965 C8.34405605,2.13404404 5.92568202,1.19387988 4.95629456,0" id="Path-89" fill="#9960F3"></path>
            <path d="M1.29545455,3.86252113 L2.59090909,8.26858522 L17.7486187,2.66169111 L17.7486187,1.57359432 L7.26362193,1.57359432 C6.82756353,2.78784889 6.2031741,3.5508245 5.39045363,3.86252113 C4.57773316,4.17421776 3.21273347,4.17421776 1.29545455,3.86252113 Z" id="Line-5" fill="#BF9DF3"></path>
        </g>
        <g id="Group-33" transform="translate(165.785147, 308.690911) scale(-1, 1) rotate(77.000000) translate(-165.785147, -308.690911) translate(155.785147, 303.690911)">
            <path d="M0.107353605,0.662816993 C0.489489273,2.34663352 5.70762636,10.8099405 8.0030187,3.74246562 C8.48452099,2.25992805 6.05655023,1.29707027 5.083316,0.0743726013" id="Path-89" fill="#9960F3"></path>
            <path d="M2.72362185,4.78203102 L4.02421708,9.29444839 L19.2420763,3.55221545 L19.2420763,2.43785426 L8.71547244,2.43785426 C8.27768365,3.68141843 7.65081647,4.46281068 6.83487093,4.78203102 C6.01892538,5.10125137 4.64850902,5.10125137 2.72362185,4.78203102 Z" id="Line-5" fill="#BF9DF3"></path>
        </g>
        <path d="M95.5446429,194.057057 C95.8586163,192.732982 96.6474215,191.565389 96.937906,190.620175 C98.1277965,186.748362 98.5802711,187.614537 98.3313472,188.473121 C97.9579884,189.760903 97.5817599,190.666783 98.3313472,190.150554 C99.4046105,189.411415 99.5469186,188.473121 99.8898079,187.620898 C99.9790917,187.39899 100.12924,186.440415 100.559224,186.440415 C100.989207,186.440415 100.055185,188.792093 100.336922,188.869891 C100.440279,188.898431 100.588389,188.69226 100.754953,188.3222 C101.03744,187.694592 101.363126,186.755085 101.541824,186.8485 C101.904305,187.037989 101.353544,189.131272 101.541824,189.248368 C101.751844,189.378986 102.128698,188.391655 102.363115,188.473121 C102.619582,188.56225 102.15649,189.404185 102.363115,189.586769 C102.559066,189.75992 102.87276,189.191747 103.102255,189.248368 C103.563659,189.362207 101.792452,192.11624 101.541824,192.268151 C99.5005358,193.505416 99.7114953,193.653891 97.9572215,195.787565" id="Path-78" fill="#9960F3" transform="translate(99.361607, 191.113990) scale(-1, 1) translate(-99.361607, -191.113990) "></path>
        <path d="M164.25,187.25913 C164.563973,185.935055 165.352779,184.767462 165.643263,183.822247 C166.833154,179.950434 167.285628,180.81661 167.036704,181.675193 C166.663346,182.962976 166.287117,183.868855 167.036704,183.352626 C168.109968,182.613487 168.252276,181.675193 168.595165,180.82297 C168.684449,180.601063 168.834597,179.642487 169.264581,179.642487 C169.694565,179.642487 168.760542,181.994166 169.042279,182.071963 C169.145636,182.100504 169.293747,181.894333 169.46031,181.524273 C169.742797,180.896664 170.068483,179.957158 170.247181,180.050573 C170.609662,180.240062 170.058901,182.333344 170.247181,182.450441 C170.457201,182.581059 170.834055,181.593727 171.068472,181.675193 C171.324939,181.764323 170.861847,182.606257 171.068472,182.788841 C171.264423,182.961993 171.578117,182.393819 171.807613,182.450441 C172.269016,182.564279 170.497809,185.318313 170.247181,185.470223 C168.205893,186.707489 168.416852,186.855963 166.662579,188.989637" id="Path-78" fill="#9960F3"></path>
        <path d="M105.194434,246.942401 C112.329206,254.96243 110.528808,251.046642 119.854936,257.176381 C121.249449,258.092946 122.231833,259.534666 123.235908,260.866838 C123.609875,261.363004 123.410355,262.264142 123.937652,262.593188 C125.065202,263.296809 126.692227,262.918888 127.77012,263.696304 C133.818154,268.058372 138.422779,293.723851 150.025247,291.812124 C150.033605,291.810747 151.199698,291.211651 150.86612,290.257919 C149.119876,285.265243 141.907717,269.326303 137.883285,263.878118 C136.89529,262.540591 136.186722,261.013512 135.222433,259.65883 C134.233966,258.270182 133.186799,256.916511 132.033959,255.660689 C130.978336,254.510768 129.516415,253.734408 128.614488,252.460604 C126.951781,250.11234 122.180011,240.76317 121.4471,240.959077 C120.02219,241.339956 117.70904,246.652148 116.235966,246.576153 C113.10299,246.414523 110.058273,245.466004 106.947044,245.063957 C105.98359,244.939455 105.00456,245.020835 104.033318,244.999274" id="Path-48" fill="#CAAFF2" transform="translate(127.479712, 266.434849) scale(-1, 1) translate(-127.479712, -266.434849) "></path>
        <path d="M131.061734,250.180286 C138.196507,258.200315 136.396108,254.284527 145.722237,260.414266 C147.116749,261.330831 153.769152,266.180674 155.20038,268.918775 C159.912735,277.934042 166.993026,296.516374 175.892547,295.050009 C175.900906,295.048632 177.066998,294.449536 176.73342,293.495804 C174.987177,288.503128 169.644738,271.574612 165.620306,266.126426 C164.632311,264.7889 163.78236,261.864228 162.818071,260.509546 C161.829604,259.120898 159.396821,258.527355 158.243982,257.271534 C157.188358,256.121612 148.047311,244.001055 147.314401,244.196962 C145.88949,244.577841 143.576341,249.890033 142.103267,249.814038 C138.97029,249.652408 135.925574,248.703889 132.814344,248.301842 C131.85089,248.17734 130.871861,248.25872 129.900619,248.237159" id="Path-48" fill="#CAAFF2" transform="translate(153.347012, 269.663285) scale(-1, 1) rotate(-300.000000) translate(-153.347012, -269.663285) "></path>
        <g id="Group-27" transform="translate(125.687500, 185.740933)">
            <g id="Group-24" transform="translate(11.221291, 13.700619) scale(-1, 1) rotate(-25.000000) translate(-11.221291, -13.700619) translate(4.221291, 2.700619)">
                <path d="M1.88849671,12.6902423 C4.21819947,8.33931736 1.88849671,7.99857491 2.91466181,4.94705904 C4.04933759,1.57286405 10.9283225,1.84170383 11.9542896,4.92489141 C12.3501217,6.11442708 11.9689647,7.55783194 12.6060552,8.63356614 C12.8069869,8.97284131 13.0779824,9.66336371 13.0586283,10.080377 C13.0413421,10.4528366 12.557617,9.95065794 12.2175048,10.2192296 C11.6214282,10.6899252 12.4508881,12.5665912 11.8691988,13.0555527 C10.9998633,13.7863063 9.58631685,13.426847 8.6217162,14.021211 C4.24103042,16.7204857 3.89310292,25.1331386 0.00481882467,18.7623327 L1.88849671,12.6902423 Z" id="Path-55" fill="#9960F3"></path>
                <path d="M12.4456433,5.89467372 C12.4456433,2.99972111 10.2103561,0.652898327 7.45298957,0.652898327 C4.69562307,0.652898327 2.46033586,2.99972111 2.46033586,5.89467372" id="Oval-8" fill="#553BFF" transform="translate(7.452990, 3.273786) rotate(-5.000000) translate(-7.452990, -3.273786) "></path>
            </g>
        </g>
        <path d="M99.7857143,246.877804 C106.532854,246.877804 111.574708,248.653935 114.750132,248.456127 C117.925555,248.258319 116.316505,226.56273 120.19877,222.200731 C120.780471,221.54715 128.268724,218.21791 132.767297,220.430052 C137.968139,222.98753 154.564642,202.445731 149.842916,193.39164 C147.020808,187.980141 145.51516,205.933866 136.462083,212.219361 C130.36827,216.450257 115.476303,209.407834 114.750132,208.976544 C113.96076,208.507718 106.383297,207.595856 105.29035,208.976544 C103.162642,211.664415 102.534152,214.922222 102.534152,218.321347 C102.534152,220.680236 100.923765,224.365612 100.441975,226.29036 C100.036628,227.909716 100.004468,229.600001 99.7857143,231.254822 L99.7857143,246.877804 Z" id="Path-50" fill="#AE88E9" transform="translate(125.232143, 220.430052) scale(-1, 1) translate(-125.232143, -220.430052) "></path>
        <path d="M130.321429,222.129534 C132.311219,218.875538 131.995321,218.138261 135.410714,217.880829" id="Path-58" stroke="#E5D4FF" stroke-linecap="round"></path>
        <path d="M169.010191,208.281584 C162.460696,206.036625 158.615119,202.372614 155.228499,196.081334 C150.807891,187.869228 153.377698,187.924642 148.624933,184.250101 C148.402971,184.078493 148.089634,183.786032 147.849045,183.92966 C144.857773,185.71541 143.801917,189.072767 145.6747,192.089537 C153.20948,204.226924 157.809997,209.049328 169.339286,216.181347" id="Path-79" stroke="#E5D4FF" fill="#AE88E9" transform="translate(157.040179, 200.036269) scale(-1, 1) translate(-157.040179, -200.036269) "></path>
        <path d="M123.535714,260.367876 C124.317772,263.754215 122.77126,258.862442 127.104848,261.29836 C128.105348,261.860743 127.963911,263.557728 128.771269,264.389734 C129.14142,264.771185 129.804709,264.538671 130.321429,264.61314" id="Path-85" stroke="#E5D4FF" transform="translate(126.928571, 262.492228) scale(-1, 1) translate(-126.928571, -262.492228) "></path>
        <path d="M30.3413654,35.888564 C34.7125474,32.5308982 38.9453923,31.6620417 43.0399002,33.2819946 C47.134408,34.9019475 57.9544413,38.5831551 75.5,44.3256175 L75.5,57.9576208 L55.5,72.8816972 L67.1647935,49.1110665" id="Line-19" fill="#BF9DF3"></path>
        <polygon id="Line-20" fill="#C8AAF6" points="67.5 48.5 30.5 35.5 18.132709 54.044416 56.0090068 71.8059453"></polygon>
        <polygon id="Rectangle-68" fill="#BF9DF3" points="37 25.1838996 71 35.9547132 71 42 37 30.3083216"></polygon>
        <ellipse id="Oval-24" fill="#9E76DA" cx="71" cy="39" rx="2" ry="3"></ellipse>
        <ellipse id="Oval-24" fill="#BF9DF3" cx="38" cy="28" rx="2" ry="3"></ellipse>
        <path d="M38.5395379,32.2688015 C25.7125971,-0.141629288 89.2012181,25.8792297 90.7285257,26.2970386 C109.032263,31.3041927 122.029545,9.43908141 141.692045,6.44977167 C154.423286,4.51422809 158.609917,12.5529863 168.691787,18.9229131 C177.630162,24.5703571 189.567042,20.9137687 198.59003,18.4785475 L198.59003,28.354492 C194.847071,33.0720453 187.019515,34.3768151 175.10736,32.2688015 C157.239129,29.106781 163.279879,17.8036678 146.930249,19.2126089 C130.580618,20.6215501 130.942373,35.4328069 117.709719,37.2150845 C108.88795,38.4032695 96.0032604,35.4497386 79.0556497,28.354492 C75.0221882,28.0797452 71.9857482,29.384515 69.9463295,32.2688015 C67.9069108,35.153088 67.9069108,38.142661 69.9463295,41.2375206 L38.5395379,32.2688015 Z" id="Path-148" fill="#BC99F3"></path>
        <path d="M40.6876888,28.29188 C48.3314013,30.7801662 55.9751137,33.2684524 63.6188262,35.7567386" id="Path-147" stroke="#CAB0F1"></path>
        <path d="M103.689162,27.9881308 C106.894141,29.3396902 110.099121,30.6912496 113.304101,32.0428091" id="Path-151" stroke="#CAB0F1"></path>
        <path d="M110.528334,25.3301264 C114.257025,26.8012543 117.985716,28.2723823 121.714407,29.7435102" id="Path-154" stroke="#CAB0F1"></path>
        <path d="M115.417585,21.4943518 C119.423998,22.7505119 123.430412,24.006672 127.436825,25.2628321" id="Path-155" stroke="#CAB0F1"></path>
        <path d="M121.728027,18.1961305 C125.380077,19.5193178 129.032127,20.8425052 132.684178,22.1656925" id="Path-156" stroke="#CAB0F1"></path>
        <path d="M128.656935,14.6936229 C130.890732,15.8224045 133.124528,16.9511861 135.358325,18.0799677" id="Path-157" stroke="#CAB0F1"></path>
        <path d="M96.8373729,29.4782765 C99.1796185,30.4627881 101.521864,31.4472996 103.86411,32.4318112" id="Path-152" stroke="#CAB0F1"></path>
        <path d="M91.6897838,28.3143574 C92.0688379,28.8549812 92.447892,29.395605 92.8269462,29.9362288" id="Path-153" stroke="#CAB0F1"></path>
        <path d="M44.1456291,24.4428262 C48.9531033,26.0808913 53.7605775,27.7189563 58.5680516,29.3570214" id="Path-149" stroke="#CAB0F1"></path>
        <path d="M54.5309795,21.6402893 C56.1205619,22.5889539 57.7101442,23.5376186 59.2997266,24.4862832" id="Path-150" stroke="#CAB0F1"></path>
        <path d="M3.20500272,95.5305192 C4.69255337,89.2572873 5.90469526,69.7142376 7.28095955,65.235978 C12.9184504,46.8920104 15.0621954,50.9957989 13.8828381,55.0636157 C12.1139299,61.1648999 10.3314258,65.456797 13.8828381,63.0109968 C18.96777,59.5090866 19.6420006,55.0636157 21.2665492,51.0259336 C21.68956,49.9745749 22.4009364,45.4330117 24.4381233,45.4330117 C26.4753102,45.4330117 22.0500774,56.5748489 23.3848955,56.9434404 C23.8745826,57.0786607 24.5763051,56.1018592 25.3654555,54.3485806 C26.7038269,51.3750818 28.6493336,43.0488995 29.4959741,43.4914847 C31.2133466,44.389249 28.2014728,58.1818174 29.0935089,58.7366013 C30.088547,59.3554452 31.9962579,49.5462778 33.1068846,49.9322511 C34.3219818,50.3545308 32.005689,59.4748318 32.9846396,60.339881 C33.9130207,61.1602444 34.4497755,55.9948798 35.5370865,56.2631436 C37.7231346,56.8024904 27.9454526,75.1143626 26.7580219,75.834088 C17.0867598,81.6960327 21.132277,81.7303758 12.8208377,91.839346 L3.20500272,95.5305192 Z" id="Path-78" fill="#A67BE8" transform="translate(19.529773, 69.502508) scale(-1, 1) rotate(291.000000) translate(-19.529773, -69.502508) "></path>
        <g id="Group-85" transform="translate(139.000000, 44.000000)" stroke="#D5BAFE" stroke-width="2">
            <path d="M5,1 C3.33333333,9.66666667 1.66666667,18.3333333 0,27" id="Path-158"></path>
            <path d="M5,2 C6.66666667,10 8.33333333,18 10,26" id="Path-159"></path>
            <path d="M1,17 C3.33333333,17.0840399 5.66666667,17.1680798 8,17.2521197" id="Path-160"></path>
            <path d="M16.7328615,15 C12.4351138,15.3554955 11.7880068,29.5994323 15.10598,27.8514013 C16.3441831,27.1990701 17.1234747,25.6997603 17.3888872,24.3240225 C20.0700962,10.4262574 16.5119746,19.7172394 23,26.3230258" id="Path-161"></path>
            <polyline id="Path-162" points="34 1 34 4.42600477 34 8.77631131 34 10.001703 34 14.9641519 34 15.4866315 34 18.297173 34 18.8196526 34 20.3804496 34 20.7667745 34 22.0774012 34 23.1157187 34 24.0754428 34 24.9300068 34 25.2377384 34 25.3838556 34 25.4524864 34 25.5189033 34 25.8996935 34 26.3845368 34 26.5461512 34 26.8538828 34 27"></polyline>
            <path d="M34.5557521,0.707225326 C48.2317113,-2.78837039 39.8344149,7.55965729 38.4115515,12.4072724 C38.2068818,13.1045705 40.3414701,11.8179361 40.5376264,12.5178066 L42.0099386,14.4875264 C44.6005145,23.7304996 42.1674326,25.3976117 34,27" id="Path-163"></path>
            <path d="M47.231719,3 C47.2106305,10.1854326 47.2186002,17.3710127 47.1684535,24.5562978 C47.1604816,25.6985549 46.8392467,22.2401697 47.105188,21.1300394 C47.2778266,20.4093869 47.7252087,19.5896717 48.4168928,19.3448852 C49.5232786,18.9533361 50.9686392,18.7465989 51.932346,19.4217119 C57.9958267,23.6694094 48.9370512,25.7565054 47.4752912,26" id="Path-164"></path>
        </g>
        <g id="Group-86" transform="translate(52.000000, 112.000000)">
            <path d="M24.4569136,10.1103994 C26.7777406,5.91315947 24.4569136,5.58445286 25.4791692,2.64072377 C26.609522,-0.614286638 33.4622991,-0.354942916 34.4843574,2.61933916 C34.8786814,3.7668576 34.4989766,5.15927798 35.1336399,6.19701469 C35.333806,6.52430585 35.6037691,7.19043736 35.5844888,7.59272071 C35.5672684,7.95202418 35.0853862,7.46758367 34.7465698,7.72666873 C34.1527642,8.18073826 34.979064,9.99111597 34.3995908,10.4628061 C33.5335673,11.1677478 32.1254063,10.8209855 31.1644806,11.3943552 C29.9835575,12.098994 28.0665725,10.9054054 27.812314,11.9430348 C26.8813899,15.7421381 24.5080977,15.6717689 21.8906612,14.9613621 L24.4569136,10.1103994 Z" id="Path-55" fill="#9960F3"></path>
            <path d="M12.9803921,45.5804938 C18.4995969,45.5804938 22.6238677,47.0260818 25.221385,46.8650866 C27.8189023,46.7040914 26.5026892,29.0461103 29.6784079,25.4958912 C30.1542425,24.9639433 41.2874741,32.8649912 44.2466659,29.4404324 C47.4218153,25.7659542 62.0115929,28.6717936 63.0475349,28.7173044 C64.3881929,28.7762018 63.0334331,24.8945713 62.223063,23.6931482 C61.4126929,22.4917252 43.3431636,25.840214 37.9290385,22.3384715 C34.8251567,20.3309459 33.3799446,18.9642857 31.4568819,17.9881342 C29.0571483,16.7700234 26.1587735,12.8274167 24.6822837,11.9549008 C24.0365726,11.5733247 15.2286322,19.5719331 15.2286322,22.3384715 C15.2286322,24.2583644 13.9113254,27.2578819 13.5172176,28.8244296 C13.1856416,30.1424185 13.1593339,31.5181373 12.9803921,32.8649912 L12.9803921,45.5804938 Z" id="Path-50" fill="#AE88E9"></path>
            <path d="M63.25,28.2591296 C63.5639734,26.9350549 64.3527786,25.767462 64.6432631,24.8222475 C65.8331536,20.9504341 66.2856283,21.81661 66.0367044,22.6751935 C65.6633455,23.9629756 65.2871171,24.8688551 66.0367044,24.3526265 C67.1099677,23.6134874 67.2522758,22.6751935 67.595165,21.8229705 C67.6844488,21.6010629 67.8345972,20.642487 68.2645809,20.642487 C68.6945646,20.642487 67.7605423,22.9941655 68.0422788,23.0719632 C68.1456358,23.1005038 68.2937465,22.8943328 68.4603105,22.5242729 C68.742797,21.8966643 69.0684828,20.9571576 69.247181,21.0505729 C69.6096623,21.2400617 69.0589012,23.3333442 69.247181,23.450441 C69.4572011,23.5810588 69.8340547,22.5937271 70.0684718,22.6751935 C70.3249392,22.764323 69.8618472,23.6062574 70.0684718,23.788841 C70.2644227,23.961993 70.5781167,23.3938192 70.8076125,23.450441 C71.269016,23.5642795 69.4978089,26.3183128 69.247181,26.4702234 C67.2058929,27.7074887 67.4168524,27.8559633 65.6625786,29.9896373" id="Path-78" fill="#9960F3" transform="translate(67.066964, 25.316062) rotate(44.000000) translate(-67.066964, -25.316062) "></path>
            <g id="Group-84" transform="translate(10.500000, 57.000000) rotate(134.000000) translate(-10.500000, -57.000000) translate(1.000000, 52.000000)">
                <path d="M0,0.588444392 C0.382135668,2.27226092 5.60027276,10.7355679 7.89566509,3.66809302 C8.37716739,2.18555545 5.94919663,1.22269767 4.9759624,0" id="Path-89" fill="#9960F3"></path>
                <path d="M1.71437348,5.42505791 L3.01496871,9.93747528 L18.232828,4.19524234 L18.232828,3.08088115 L7.70622407,3.08088115 C7.26843528,4.32444531 6.64156811,5.10583757 5.82562256,5.42505791 C5.00967701,5.74427825 3.63926065,5.74427825 1.71437348,5.42505791 Z" id="Line-5" fill="#BF9DF3"></path>
            </g>
            <path d="M39.0170856,43.2232587 C57.0242505,43.8934095 57.4687221,54.256446 53.0122461,56.7795115 C51.2539856,57.7749632 49.2631699,57.7107968 46.4840494,55.106025 C43.2130227,52.0402068 41.2936294,47.7947344 38.6984194,44.1390892" id="Path-167" fill="#BE9FEB"></path>
            <path d="M12.7861824,46.9079226 C12.7861824,48.8292407 16.6531095,49.4427462 16.6531095,51.3025345 C16.6531095,53.3353977 16.6265835,54.646985 16.6531095,56.832149 C16.6700785,58.2300215 32.7568301,58.8187759 39.2954195,58.6337155 C42.5895433,58.5404826 47.3261775,57.9399604 53.505322,56.832149 C55.4639822,48.4408526 43.7131382,42.2049155 37.2755845,42.7104041 C29.6082527,43.3124571 20.3578781,41.9979823 12.7861824,43.3470069 L12.7861824,46.9079226 Z" id="Path-165" fill="#CAAFF2"></path>
            <path d="M16.130102,51.5268933 C17.443682,51.4986671 18.7653189,49.9386374 20.0788988,49.9104112 C21.211046,49.8860836 21.8217482,51.4974062 22.9536124,51.5268933 C23.5673823,51.5428831 24.1848207,49.9066347 24.8063142,49.9104112 C25.4626113,49.9143992 26.2137477,51.5017293 26.8769077,51.5268933 C27.5004632,51.5505544 28.7683998,49.3279289 29.3944904,49.3314797 C29.922972,49.334477 31.1946655,51.4915356 31.7116127,51.5268933 C32.2995686,51.5671078 33.9673521,49.3262095 34.5205477,49.3314797 C35.320205,49.3390979 36.45999,51.3963509 37.1294374,51.5268933 C39.4696956,51.9832442 40.8345962,50.9960435 43.7919189,50.9324966" id="Path-166" stroke="#E5D4FF"></path>
        </g>
        <path d="M75.4861605,108.506585 C73.0444863,107.983082 63.6759912,111.504872 57.9881375,114.104402 C54.751834,115.583496 49.033327,112.057309 47.3699568,115.202874 C46.1488795,117.512028 54.1150784,125.152575 61.4805862,123.134398 C64.148487,122.403383 76.2481603,116.45849 74.3804038,114.104402 C73.7134654,113.447418 77.6337276,112.981477 77.7664497,112.302981 C78.1150522,110.52087 76.2528147,108.670959 75.4861605,108.506585 Z" id="Path-176" fill="#553BFF"></path>
        <path d="M29.8893014,169.865212 C29.0949737,155.466604 28.300646,141.067997 27.5063184,126.669389" id="Path-168" stroke="#AE88E9"></path>
        <path d="M27.4712119,131.554504 C31.3696364,128.476368 36.2744057,129.398858 35.8769486,130.522097 C35.3809087,131.923936 28.8846237,134.207838 27.9726958,135.999494" id="Path-169" stroke="#AE88E9"></path>
        <path d="M27.4712119,142.554504 C31.3696364,139.476368 36.2744057,140.398858 35.8769486,141.522097 C35.3809087,142.923936 28.8846237,145.207838 27.9726958,146.999494" id="Path-169" stroke="#AE88E9"></path>
        <path d="M27.3510016,130.135149 C25.7613268,129.243066 24.171652,128.350983 22.5819772,127.4589" id="Path-173" stroke="#AE88E9"></path>
        <path d="M28.40637,144.223419 C29.8841036,143.493533 31.3618371,142.763647 32.8395707,142.033761" id="Path-174" stroke="#AE88E9" stroke-linecap="round"></path>
        <path d="M28.8807889,148.106327 C27.5283735,147.459658 24.6865554,143.684559 22.6947368,142.481371 C20.4628035,141.133139 19.1261315,142.388414 18.7367165,142.481371 C17.321985,142.819082 19.5824692,145.526097 22.6947368,147.403683 C24.9462917,148.762014 27.9441813,149.242009 28.8807889,150.20241" id="Path-170" stroke="#AE88E9"></path>
        <path d="M29.2244066,156.429017 C31.2941755,152.162943 36.1050667,151.948142 36.4086928,152.884453 C36.783677,154.040816 32.2004001,157.231734 30.0484288,160.055221" id="Path-171" stroke="#AE88E9"></path>
        <path d="M26.9882323,127.013007 C13.9789713,118.15545 21.2175346,130.614876 27.729723,132.751315" id="Path-172" stroke="#AE88E9"></path>
        <g id="Group-88" transform="translate(37.000000, 132.000000)" stroke="#AE88E9">
            <path d="M8,21 C6.33333333,19.6666667 4.66666667,18.3333333 3,17" id="Path-175" stroke-linecap="round"></path>
            <path d="M10,38 C9.33333333,26 8.66666667,14 8,2" id="Path-168"></path>
            <path d="M8,5.60011968 C11.2377306,3.24571695 15.3112535,3.95131105 14.9811563,4.81045251 C14.5691838,5.88269017 9.1738708,7.62959913 8.41649384,9" id="Path-169"></path>
            <path d="M8,14.6001197 C11.2377306,12.245717 15.3112535,12.9513111 14.9811563,13.8104525 C14.5691838,14.8826902 9.1738708,16.6295991 8.41649384,18" id="Path-169"></path>
            <path d="M8,5 C6.66666667,4.33333333 5.33333333,3.66666667 4,3" id="Path-173"></path>
            <path d="M9,17 C10.3333333,16.3333333 11.6666667,15.6666667 13,15" id="Path-174" stroke-linecap="round"></path>
            <path d="M9,20.2410035 C7.84903808,19.6983303 5.43053225,16.5303323 3.73541154,15.5206385 C1.83594315,14.3892255 0.698379529,15.4426303 0.366971097,15.5206385 C-0.837024504,15.8040397 1.08674193,18.0757191 3.73541154,19.6513571 C5.65157867,20.7912448 8.20290781,21.1940479 9,22" id="Path-170"></path>
            <path d="M9,26.1463805 C10.7233777,22.7892195 14.7291305,22.6201832 14.9819425,23.3570075 C15.2941703,24.2669999 11.4779389,26.778074 9.68611603,29" id="Path-171"></path>
            <path d="M7.34938739,2.47689959 C-4.06544124,-4.50488239 2.28595414,5.31599695 8,7" id="Path-172"></path>
        </g>
        <path d="M77.0723658,119.290791 C84.1334742,119.032686 74.9406912,120.135245 82.4873743,115.277553 C84.1091749,114.233623 86.4949113,114.96013 88.1078332,113.902534 C94.6077001,109.640558 70.6905553,102.551696 76.3088823,119.189136 L77.0723658,119.290791 Z" id="Path-177" fill="#553BFF"></path>
        <circle id="Oval-25" fill="#BF9DF3" cx="135.5" cy="95.5" r="7.5"></circle>
        <path d="M148.5,91.5 L188.612342,91.5" id="Line-21" stroke="#CAB0F1" stroke-width="2" stroke-linecap="round"></path>
        <path d="M148.5,99.5 L170,99.5" id="Line-21" stroke="#CAB0F1" stroke-width="2" stroke-linecap="round"></path>
        <circle id="Oval-25" fill="#BF9DF3" cx="135.5" cy="117.5" r="7.5"></circle>
        <path d="M148.5,113.5 L188.612342,113.5" id="Line-21" stroke="#CAB0F1" stroke-width="2" stroke-linecap="round"></path>
        <path d="M148.5,121.5 L170,121.5" id="Line-21" stroke="#CAB0F1" stroke-width="2" stroke-linecap="round"></path>
        <path d="M16.1144015,102.400433 C26.9254036,101.796129 30.1069098,101.039195 34.1639033,90.2367442 C34.3672663,89.6952548 34.4133957,88.7939474 33.9033398,88.5211649 C28.4190015,85.5880915 29.1676792,93.5710799 30.6876939,95.6988371 C37.3185434,104.980877 50.0458395,95.8794825 55.302422,91.4470252" id="Path-178" stroke="#D5BAFE" stroke-width="2"></path>
    </g>
</svg>