<?xml version="1.0" encoding="UTF-8"?>
<svg width="199px" height="327px" viewBox="0 0 199 327" version="1.1" xmlns="http://www.w3.org/2000/svg" xmlns:xlink="http://www.w3.org/1999/xlink">
    <!-- Generator: Sketch 49.1 (51147) - http://www.bohemiancoding.com/sketch -->
    <title>Rectangle 18</title>
    <desc>Created with Sketch.</desc>
    <defs></defs>
    <g id="Page-1" stroke="none" stroke-width="1" fill="none" fill-rule="evenodd">
        <rect id="Rectangle-18" fill="#FFEAB8" x="0" y="0" width="199" height="327" rx="3"></rect>
        <path d="M8.5,121.5 L29.523796,121.5" id="Line-52" stroke="#FFD97D" stroke-width="2" stroke-linecap="round"></path>
        <path d="M8.5,125.5 L29.523796,125.5" id="Line-52" stroke="#FFD97D" stroke-width="2" stroke-linecap="round"></path>
        <path d="M8.5,152.5 L39.0040981,152.5" id="Line-52" stroke="#FFD97D" stroke-width="2" stroke-linecap="round"></path>
        <g id="Group-112" transform="translate(7.000000, 104.000000)">
            <rect id="Rectangle-80" fill="#FFD97D" x="1" y="1" width="31" height="11" rx="2"></rect>
            <path d="M2.3,2.29411765 L31.7,11.7058824" id="Line-34" stroke="#FDB406" stroke-linecap="square"></path>
            <path d="M2,11 L32,2" id="Line-34" stroke="#FDB406" stroke-linecap="square"></path>
            <circle id="Oval-36" fill="#FDB406" cx="31.5" cy="1.5" r="1.5"></circle>
            <circle id="Oval-36" fill="#FDB406" cx="1.5" cy="1.5" r="1.5"></circle>
            <circle id="Oval-36" fill="#FDB406" cx="1.5" cy="11.5" r="1.5"></circle>
            <circle id="Oval-36" fill="#FDB406" cx="31.5" cy="11.5" r="1.5"></circle>
        </g>
        <path d="M8.5,35.5 L29.523796,35.5" id="Line-52" stroke="#FFD97D" stroke-width="2" stroke-linecap="round"></path>
        <path d="M8.5,39.5 L29.523796,39.5" id="Line-52" stroke="#FFD97D" stroke-width="2" stroke-linecap="round"></path>
        <g id="Group-112" transform="translate(7.000000, 18.000000)">
            <rect id="Rectangle-80" fill="#FFD97D" x="1" y="1" width="31" height="11" rx="2"></rect>
            <path d="M2.3,2.29411765 L31.7,11.7058824" id="Line-34" stroke="#FDB406" stroke-linecap="square"></path>
            <path d="M2,11 L32,2" id="Line-34" stroke="#FDB406" stroke-linecap="square"></path>
            <circle id="Oval-36" fill="#FDB406" cx="31.5" cy="1.5" r="1.5"></circle>
            <circle id="Oval-36" fill="#FDB406" cx="1.5" cy="1.5" r="1.5"></circle>
            <circle id="Oval-36" fill="#FDB406" cx="1.5" cy="11.5" r="1.5"></circle>
            <circle id="Oval-36" fill="#FDB406" cx="31.5" cy="11.5" r="1.5"></circle>
        </g>
        <g id="Group-112" transform="translate(7.000000, 135.000000)">
            <rect id="Rectangle-80" fill="#FFD97D" x="1" y="1" width="31" height="11" rx="2"></rect>
            <path d="M2.3,2.29411765 L31.7,11.7058824" id="Line-34" stroke="#FDB406" stroke-linecap="square"></path>
            <path d="M2,11 L32,2" id="Line-34" stroke="#FDB406" stroke-linecap="square"></path>
            <circle id="Oval-36" fill="#FDB406" cx="31.5" cy="1.5" r="1.5"></circle>
            <circle id="Oval-36" fill="#FDB406" cx="1.5" cy="1.5" r="1.5"></circle>
            <circle id="Oval-36" fill="#FDB406" cx="1.5" cy="11.5" r="1.5"></circle>
            <circle id="Oval-36" fill="#FDB406" cx="31.5" cy="11.5" r="1.5"></circle>
        </g>
        <g id="Group-118" transform="translate(178.000000, 58.000000)" fill="#FFC806">
            <g id="Group-18">
                <g id="Group-19">
                    <polygon id="Rectangle-22" points="11.7241379 0.586206897 13.9224138 1.96579901 16.1206897 0.586206897 15.0793363 2.78448276 16.1206897 4.98275862 13.9224138 3.63350994 11.7241379 4.98275862 12.6437005 2.78448276"></polygon>
                    <polygon id="Rectangle-22" points="0 12.3103448 2.19827586 13.6899369 4.39655172 12.3103448 3.35519841 14.5086207 4.39655172 16.7068966 2.19827586 15.3576479 0 16.7068966 0.919562557 14.5086207"></polygon>
                    <polygon id="Rectangle-22" transform="translate(8.500000, 8.500000) rotate(-315.000000) translate(-8.500000, -8.500000) " points="2.63793103 2.63793103 8.5 6.31684333 14.362069 2.63793103 11.5851268 8.5 14.362069 14.362069 8.5 10.7640725 2.63793103 14.362069 5.09009785 8.5"></polygon>
                </g>
            </g>
        </g>
        <g id="Group-118" transform="translate(163.000000, 35.000000)" fill="#FFC806">
            <g id="Group-18">
                <g id="Group-19">
                    <polygon id="Rectangle-22" points="7.5862069 0.379310345 9.00862069 1.27198759 10.4310345 0.379310345 9.75721763 1.80172414 10.4310345 3.22413793 9.00862069 2.35109467 7.5862069 3.22413793 8.18121796 1.80172414"></polygon>
                    <polygon id="Rectangle-22" points="0 7.96551724 1.42241379 8.85819449 2.84482759 7.96551724 2.17101074 9.38793103 2.84482759 10.8103448 1.42241379 9.93730157 0 10.8103448 0.595011066 9.38793103"></polygon>
                    <polygon id="Rectangle-22" transform="translate(5.500000, 5.500000) rotate(-315.000000) translate(-5.500000, -5.500000) " points="1.70689655 1.70689655 5.5 4.08736921 9.29310345 1.70689655 7.49625852 5.5 9.29310345 9.29310345 5.5 6.96498809 1.70689655 9.29310345 3.29359273 5.5"></polygon>
                </g>
            </g>
        </g>
        <g id="Group-118" transform="translate(65.000000, 138.000000)" fill="#FFC806">
            <g id="Group-18">
                <g id="Group-19">
                    <polygon id="Rectangle-22" points="11.7241379 0.586206897 13.9224138 1.96579901 16.1206897 0.586206897 15.0793363 2.78448276 16.1206897 4.98275862 13.9224138 3.63350994 11.7241379 4.98275862 12.6437005 2.78448276"></polygon>
                    <polygon id="Rectangle-22" points="0 12.3103448 2.19827586 13.6899369 4.39655172 12.3103448 3.35519841 14.5086207 4.39655172 16.7068966 2.19827586 15.3576479 0 16.7068966 0.919562557 14.5086207"></polygon>
                    <polygon id="Rectangle-22" transform="translate(8.500000, 8.500000) rotate(-315.000000) translate(-8.500000, -8.500000) " points="2.63793103 2.63793103 8.5 6.31684333 14.362069 2.63793103 11.5851268 8.5 14.362069 14.362069 8.5 10.7640725 2.63793103 14.362069 5.09009785 8.5"></polygon>
                </g>
            </g>
        </g>
        <path d="M64.2705558,99.5044812 C64.2279128,106.725136 65.1002612,114.009448 64.1426269,121.166444 C63.3024456,127.445642 54.9083051,124.871665 57.7431828,119.667277 C65.7557209,104.957525 72.087119,130.690431 72.5019819,133.265721" id="Path-226" stroke="#FFCF83" stroke-dasharray="4"></path>
        <path d="M76.9325652,94.0691646 C86.7739956,100.293103 95.3452128,107.070034 106.755749,99.5549242 C110.16875,97.3070827 121.504117,83.0971059 115.489037,80.4912433 C103.326842,75.2223171 112.628679,111.490454 130.617089,92.0543763 C134.534259,87.8219608 136.704773,82.2151559 140.382528,77.7731199 C142.063269,75.743101 144.121441,73.8565765 146.543692,72.8180356 C153.403921,69.8767103 174.644691,85.0336755 175.139214,71.8341282" id="Path-225" stroke="#FFCF83" stroke-dasharray="4"></path>
        <polygon id="Rectangle-89" fill="#FDB406" transform="translate(169.298437, 108.130090) rotate(-311.000000) translate(-169.298437, -108.130090) " points="161.491262 101.343417 180.647233 95.0747938 177.125048 113.854314 157.949641 121.185387"></polygon>
        <path d="M167.016034,99.6463486 C172.132417,102.165926 168.979986,101.697213 166.595374,105.433348 C165.950713,106.443383 170.360069,108.936534 170.693207,110.593301 C171.121277,112.722179 163.019354,115.110764 168.984734,117.12373" id="Path-209" stroke="#FFEAB8" transform="translate(168.620398, 108.385039) rotate(-86.000000) translate(-168.620398, -108.385039) "></path>
        <rect id="Rectangle-77" fill="#FFCF83" x="141" y="149" width="29" height="8" rx="4"></rect>
        <path d="M146.346154,153.5 L163.667687,153.5" id="Line-32" stroke="#FFEAB8" stroke-linecap="round"></path>
        <path d="M24.6881854,188.625879 C22.5236423,187.161715 20.3590992,185.697552 18.1945561,184.233389" id="Path-175" stroke="#FFCB4F" stroke-linecap="round"></path>
        <path d="M26.5837871,209.994566 C25.7894594,195.595958 24.9951317,181.197351 24.2008041,166.798743" id="Path-168" stroke="#FFCB4F"></path>
        <path d="M24.1656976,171.683858 C28.0641221,168.605722 32.9688914,169.528213 32.5714343,170.651451 C32.0753944,172.05329 25.5791094,174.337192 24.6671815,176.128848" id="Path-169" stroke="#FFCB4F"></path>
        <path d="M24.1656976,182.683858 C28.0641221,179.605722 32.9688914,180.528213 32.5714343,181.651451 C32.0753944,183.05329 25.5791094,185.337192 24.6671815,187.128848" id="Path-169" stroke="#FFCB4F"></path>
        <path d="M24.0454873,170.264503 C22.4558125,169.37242 20.8661377,168.480337 19.2764629,167.588254" id="Path-173" stroke="#FFCB4F"></path>
        <path d="M25.1008557,184.352774 C26.5785893,183.622887 28.0563228,182.893001 29.5340564,182.163115" id="Path-174" stroke="#FFCB4F" stroke-linecap="round"></path>
        <path d="M25.5752746,188.235681 C24.2228592,187.589012 21.3810411,183.813913 19.3892225,182.610725 C17.1572892,181.262493 15.8206173,182.517768 15.4312022,182.610725 C14.0164707,182.948436 16.2769549,185.655451 19.3892225,187.533037 C21.6407774,188.891368 24.638667,189.371363 25.5752746,190.331764" id="Path-170" stroke="#FFCB4F"></path>
        <path d="M25.9188923,196.558371 C27.9886612,192.292297 32.7995524,192.077496 33.1031785,193.013807 C33.4781627,194.17017 28.8948858,197.361088 26.7429146,200.184576" id="Path-171" stroke="#FFCB4F"></path>
        <path d="M23.682718,167.142361 C10.673457,158.284804 17.9120204,170.74423 24.4242087,172.880669" id="Path-172" stroke="#FFCB4F"></path>
        <g id="Group-88" transform="translate(33.694486, 172.129354)" stroke="#FFCB4F">
            <path d="M8,21 C6.33333333,19.6666667 4.66666667,18.3333333 3,17" id="Path-175" stroke-linecap="round"></path>
            <path d="M10,38 C9.33333333,26 8.66666667,14 8,2" id="Path-168"></path>
            <path d="M8,5.60011968 C11.2377306,3.24571695 15.3112535,3.95131105 14.9811563,4.81045251 C14.5691838,5.88269017 9.1738708,7.62959913 8.41649384,9" id="Path-169"></path>
            <path d="M8,14.6001197 C11.2377306,12.245717 15.3112535,12.9513111 14.9811563,13.8104525 C14.5691838,14.8826902 9.1738708,16.6295991 8.41649384,18" id="Path-169"></path>
            <path d="M8,5 C6.66666667,4.33333333 5.33333333,3.66666667 4,3" id="Path-173"></path>
            <path d="M9,17 C10.3333333,16.3333333 11.6666667,15.6666667 13,15" id="Path-174" stroke-linecap="round"></path>
            <path d="M9,20.2410035 C7.84903808,19.6983303 5.43053225,16.5303323 3.73541154,15.5206385 C1.83594315,14.3892255 0.698379529,15.4426303 0.366971097,15.5206385 C-0.837024504,15.8040397 1.08674193,18.0757191 3.73541154,19.6513571 C5.65157867,20.7912448 8.20290781,21.1940479 9,22" id="Path-170"></path>
            <path d="M9,26.1463805 C10.7233777,22.7892195 14.7291305,22.6201832 14.9819425,23.3570075 C15.2941703,24.2669999 11.4779389,26.778074 9.68611603,29" id="Path-171"></path>
            <path d="M7.34938739,2.47689959 C-4.06544124,-4.50488239 2.28595414,5.31599695 8,7" id="Path-172"></path>
        </g>
        <g id="Group-110" transform="translate(18.000000, 209.000000)">
            <g id="Group-53">
                <g id="Group-57">
                    <rect id="Rectangle-56" fill="#FFCB4F" x="0" y="0" width="63" height="115" rx="7"></rect>
                    <rect id="Rectangle-57" fill="#FFEAB8" x="3.66990291" y="7" width="56.2718447" height="93.9125"></rect>
                </g>
                <ellipse id="Oval-14" fill="#FFEAB8" cx="31.2683824" cy="107.834906" rx="3.9375" ry="3.92924528"></ellipse>
            </g>
        </g>
        <g id="Group-61" transform="translate(167.000000, 192.000000)">
            <g id="Group-56">
                <path d="M13.5090034,17.9302105 C16.9175429,17.9302105 22.4695833,16.409757 24.8464088,14.8064276 C27.6721221,12.900293 29,12.1195307 29,9 C29,3.25650173 21.002574,0 13.5417574,0 C6.0809408,0 0,1.78718867 0,7.53068695 C0,9.78658472 0.933063157,11.8747164 2.51830308,13.5788494 C2.98838566,14.0841882 0.992719555,17.4980434 1.57017522,17.9302105 C2.2542336,18.442159 5.53158835,15.9565274 6.34386902,16.3485089 C8.42075826,17.3507512 10.8769774,17.9302105 13.5090034,17.9302105 Z" id="Oval-7" fill="#FFCF83"></path>
                <path d="M4.14285714,11.5120955 C4.38674201,9.57528773 5.49240681,3.04460488 9.45502132,5.35223681 C12.2761957,6.9951501 9.26165359,12.5334615 9.07572921,12.1424563 C7.69120558,9.23075662 12.7951748,4.08489444 15.0942688,6.89745449 C15.8912139,7.87238465 16.4881102,11.6262369 15.8442092,10.5512122 L15.0769811,11.7839177 C13.2817784,8.7867377 17.7365323,4.91541437 20.6581419,6.7336941 C21.0050167,6.94957358 21.8268216,10.687631 20.8752754,11.058169 C20.4954494,11.2060756 20.2846,7.40890416 22.5843373,6.62529873 C23.6424276,6.26476827 24.7900172,6.22529202 25.8928571,6.02528867" id="Path-44" stroke="#FFEAB8"></path>
            </g>
        </g>
        <g id="Group-61" transform="translate(157.000000, 242.000000)">
            <g id="Group-56">
                <path d="M13.5090034,17.9302105 C16.9175429,17.9302105 22.4695833,16.409757 24.8464088,14.8064276 C27.6721221,12.900293 29,12.1195307 29,9 C29,3.25650173 21.002574,0 13.5417574,0 C6.0809408,0 0,1.78718867 0,7.53068695 C0,9.78658472 0.933063157,11.8747164 2.51830308,13.5788494 C2.98838566,14.0841882 0.992719555,17.4980434 1.57017522,17.9302105 C2.2542336,18.442159 5.53158835,15.9565274 6.34386902,16.3485089 C8.42075826,17.3507512 10.8769774,17.9302105 13.5090034,17.9302105 Z" id="Oval-7" fill="#FFCF83"></path>
                <path d="M4.14285714,11.5120955 C4.38674201,9.57528773 5.49240681,3.04460488 9.45502132,5.35223681 C12.2761957,6.9951501 9.26165359,12.5334615 9.07572921,12.1424563 C7.69120558,9.23075662 12.7951748,4.08489444 15.0942688,6.89745449 C15.8912139,7.87238465 16.4881102,11.6262369 15.8442092,10.5512122 L15.0769811,11.7839177 C13.2817784,8.7867377 17.7365323,4.91541437 20.6581419,6.7336941 C21.0050167,6.94957358 21.8268216,10.687631 20.8752754,11.058169 C20.4954494,11.2060756 20.2846,7.40890416 22.5843373,6.62529873 C23.6424276,6.26476827 24.7900172,6.22529202 25.8928571,6.02528867" id="Path-44" stroke="#FFEAB8"></path>
            </g>
        </g>
        <g id="Group-61" transform="translate(167.000000, 292.000000)">
            <g id="Group-56">
                <path d="M13.5090034,17.9302105 C16.9175429,17.9302105 22.4695833,16.409757 24.8464088,14.8064276 C27.6721221,12.900293 29,12.1195307 29,9 C29,3.25650173 21.002574,0 13.5417574,0 C6.0809408,0 0,1.78718867 0,7.53068695 C0,9.78658472 0.933063157,11.8747164 2.51830308,13.5788494 C2.98838566,14.0841882 0.992719555,17.4980434 1.57017522,17.9302105 C2.2542336,18.442159 5.53158835,15.9565274 6.34386902,16.3485089 C8.42075826,17.3507512 10.8769774,17.9302105 13.5090034,17.9302105 Z" id="Oval-7" fill="#FFCF83"></path>
                <path d="M4.14285714,11.5120955 C4.38674201,9.57528773 5.49240681,3.04460488 9.45502132,5.35223681 C12.2761957,6.9951501 9.26165359,12.5334615 9.07572921,12.1424563 C7.69120558,9.23075662 12.7951748,4.08489444 15.0942688,6.89745449 C15.8912139,7.87238465 16.4881102,11.6262369 15.8442092,10.5512122 L15.0769811,11.7839177 C13.2817784,8.7867377 17.7365323,4.91541437 20.6581419,6.7336941 C21.0050167,6.94957358 21.8268216,10.687631 20.8752754,11.058169 C20.4954494,11.2060756 20.2846,7.40890416 22.5843373,6.62529873 C23.6424276,6.26476827 24.7900172,6.22529202 25.8928571,6.02528867" id="Path-44" stroke="#FFEAB8"></path>
            </g>
        </g>
        <path d="M170,241 C174.935451,247.859572 175.709976,253.642176 170.69947,260.611592" id="Path-120" stroke="#FDB406"></path>
        <path d="M180,191 C184.935451,197.859572 185.709976,203.642176 180.69947,210.611592" id="Path-120" stroke="#FDB406"></path>
        <path d="M181,291 C185.935451,297.859572 186.709976,303.642176 181.69947,310.611592" id="Path-120" stroke="#FDB406"></path>
        <path d="M181,290.372544 C185.857269,284.789708 189.046223,290.530026 182.09582,292.657051" id="Path-121" stroke="#FDB406"></path>
        <path d="M180.575324,290.348965 C173.980955,284.986705 174.842469,290.217248 181.060218,292.145924" id="Path-123" stroke="#FDB406"></path>
        <path d="M180,189.372544 C184.857269,183.789708 188.046223,189.530026 181.09582,191.657051" id="Path-121" stroke="#FDB406"></path>
        <path d="M179.575324,189.348965 C172.980955,183.986705 173.842469,189.217248 180.060218,191.145924" id="Path-123" stroke="#FDB406"></path>
        <path d="M170,240.372544 C174.857269,234.789708 178.046223,240.530026 171.09582,242.657051" id="Path-121" stroke="#FDB406"></path>
        <path d="M169.575324,240.348965 C162.980955,234.986705 163.842469,240.217248 170.060218,242.145924" id="Path-123" stroke="#FDB406"></path>
        <g id="Group-65" transform="translate(120.000000, 264.500000) scale(-1, 1) translate(-120.000000, -264.500000) translate(65.000000, 192.000000)">
            <g id="Group-32" transform="translate(70.500000, 128.000000) rotate(58.000000) translate(-70.500000, -128.000000) translate(61.000000, 123.000000)">
                <path d="M0.207454914,0.925708451 C0.61345518,2.7914673 6.15746802,12.1692645 8.59620897,4.33812399 C9.10778137,2.695393 6.5281824,1.62849504 5.49416911,0.273680565" id="Path-89" fill="#EEB226"></path>
                <path d="M1.38181818,4.74033049 L2.76363636,9.74033049 L18.9318599,3.377629 L18.9318599,2.14285714 L7.7478634,2.14285714 C7.28273443,3.52079281 6.61671904,4.38661726 5.74981721,4.74033049 C4.88291538,5.09404371 3.4269157,5.09404371 1.38181818,4.74033049 Z" id="Line-5" fill="#F1B72E"></path>
            </g>
            <path d="M70.0884495,86.0669412 C74.6094009,87.7114126 76.4889863,88.225163 81.5450291,92.599139 C88.5328105,98.6442594 78.5898307,112.09848 76.5643159,116.781207 C75.5490285,119.128419 74.8426776,121.613223 73.9070248,123.99729 C73.6578232,124.632262 73.4343681,125.306944 73.0130068,125.830033 C72.876923,125.998971 72.4813628,126.083134 72.386255,125.885214 L68.3849483,120.454833 C65.9384602,115.363668 76.0494916,106.454401 73.5987722,99.6596297 C68.6847476,86.0351922 61.5963668,90.3768932 61.0656558,81.496945" id="Path-49" fill="#F6BF69"></path>
            <g id="Group-74" transform="translate(55.248411, 72.521520) scale(-1, 1) rotate(-345.000000) translate(-55.248411, -72.521520) translate(15.748411, 9.021520)">
                <path d="M72,7.33376278 C72.2879008,6.05886381 73.0112028,4.93463499 73.2775652,4.02452541 C74.3686461,0.296509983 74.7835468,1.13051641 74.5552938,1.95721235 C74.2129391,3.19716667 73.8679529,4.0694021 74.5552938,3.57234602 C75.5394324,2.86065836 75.669923,1.95721235 75.9843384,1.13664065 C76.066208,0.922974685 76.2038879,2.84837902e-14 76.5981654,2.84217094e-14 C76.9924429,2.84217094e-14 76.1359826,2.26433788 76.3943235,2.33924615 C76.4890976,2.36672676 76.6249091,2.16821294 76.7776414,1.81189692 C77.03667,1.20759747 77.3353105,0.302983834 77.4991695,0.392929719 C77.83155,0.575380928 77.3265246,2.59091955 77.4991695,2.7036674 C77.6917493,2.82943406 78.0373087,1.87877162 78.2522595,1.95721235 C78.4874296,2.04303158 78.0627933,2.85369682 78.2522595,3.02949939 C78.4319385,3.19622054 78.719583,2.64914857 78.9300213,2.7036674 C79.3531094,2.81327799 77.728985,5.46502734 77.4991695,5.61129599 C75.6273919,6.80260971 75.8208331,6.94557002 74.2122358,9" id="Path-78" fill="#EEB226"></path>
                <g id="Group-73" transform="translate(0.000000, 4.000000)">
                    <g id="Group-72" transform="translate(47.500000, 14.500000) scale(-1, 1) translate(-47.500000, -14.500000) translate(36.000000, -0.000000)">
                        <g id="Group-27" transform="translate(0.687500, 3.961877)" fill="#EEB226">
                            <g id="Group-24" transform="translate(10.882391, 12.680467) scale(-1, 1) rotate(-25.000000) translate(-10.882391, -12.680467) translate(3.882391, 2.680467)">
                                <path d="M1.88849671,10.9101442 C4.21819947,6.46971926 1.88849671,6.12196763 2.91466181,3.00768105 C4.04933759,-0.435922278 10.9283225,-0.161552371 11.9542896,2.98505742 C12.3501217,4.19906224 11.9689647,5.67215843 12.6060552,6.77002085 C12.8069869,7.11627502 13.0779824,7.8210017 13.0586283,8.24659305 C13.0413421,8.6267143 12.557617,8.11420566 12.2175048,8.38830192 C11.6214282,8.8686799 12.4508881,10.7839496 11.8691988,11.2829691 C10.9998633,12.0287546 9.58631685,11.6619011 8.6217162,12.2684914 C4.24103042,15.0232911 3.89310292,23.6089951 0.00481882467,17.1071395 L1.88849671,10.9101442 Z" id="Path-55"></path>
                            </g>
                        </g>
                        <path d="M9.59088127,8.4302916 C9.61344397,8.03158651 10.9814788,2.14573928 12.5505003,0.794689274 C13.7566901,-0.243934232 15.1152497,2.20425096 15.8673474,6.9548251 C16.1766488,8.90850641 20.0974093,10.8456602 18.6932553,12.2105473 C17.9540738,16.6342458 17.1334311,18.554709 16.2313271,17.9719369 C14.8066266,17.0515601 15.0018891,14.9344916 13.9712422,12.7284347 C12.9854972,10.6184886 10.7675799,8.42547298 9.70007518,7.19182097" id="Path-122" fill="#C5972B"></path>
                    </g>
                    <g id="Group-59" transform="translate(10.597816, 113.830613) scale(-1, 1) rotate(28.000000) translate(-10.597816, -113.830613) translate(1.597816, 109.330613)">
                        <path d="M0,0.586394541 C0.38062525,2.26434548 5.57813729,10.6981705 7.86445693,3.65531519 C8.34405605,2.17794205 5.92568202,1.2184384 4.95629456,0" id="Path-89" fill="#A67400"></path>
                        <path d="M1.29545455,3.9419745 L2.59090909,8.43867282 L17.7486187,2.716443 L17.7486187,1.60596369 L7.26362193,1.60596369 C6.82756353,2.84519589 6.2031741,3.62386616 5.39045363,3.9419745 C4.57773316,4.26008283 3.21273347,4.26008283 1.29545455,3.9419745 Z" id="Line-5" fill="#F2B72F"></path>
                    </g>
                    <path d="M2.54464286,10.4079265 C2.85861629,9.05661511 3.64742145,7.86500448 3.93790596,6.90034653 C5.12779645,2.94888865 5.58027111,3.83288211 5.33134723,4.70912693 C4.95798839,6.02339919 4.58175991,6.94791295 5.33134723,6.42106531 C6.40461053,5.66672191 6.54691863,4.70912693 6.88980786,3.83937341 C6.97909166,3.61290116 7.12924003,2.63460703 7.55922375,2.63460703 C7.98920746,2.63460703 7.05518513,5.03466035 7.3369217,5.11405832 C7.44027867,5.143186 7.58838941,4.93277405 7.75495333,4.55510187 C8.03743989,3.9145831 8.36312563,2.95575052 8.54182384,3.0510874 C8.90430516,3.24447401 8.35354409,5.38081602 8.54182384,5.50032154 C8.75184392,5.63362615 9.12869757,4.62598477 9.36311464,4.70912693 C9.61958204,4.80008983 9.15649009,5.65934312 9.36311464,5.8456826 C9.5590656,6.02239636 9.87275951,5.44253506 10.1022554,5.50032154 C10.5636589,5.61650174 8.79245173,8.42718644 8.54182384,8.58222185 C6.50053579,9.84493819 6.71149528,9.99646697 4.95722149,12.1740313" id="Path-78" fill="#EEB226" transform="translate(6.361607, 7.404319) scale(-1, 1) translate(-6.361607, -7.404319) "></path>
                    <g id="Group-29" transform="translate(34.151786, 83.927380) scale(-1, 1) translate(-34.151786, -83.927380) translate(10.151786, 57.427380)" fill="#F6BF69">
                        <path d="M1.38679623,6.95376039 C8.5215688,15.1387642 6.72117017,11.1424268 16.0472987,17.398257 C17.4418112,18.3336756 18.4241955,19.8050522 19.4282705,21.1646275 C19.8022373,21.6710002 19.6027179,22.590674 20.1300146,22.9264895 C21.2575649,23.644584 22.8845898,23.258889 23.9624826,24.0522971 C30.0105169,28.5040935 34.6151419,54.6975205 46.2176096,52.7464686 C46.2259678,52.7450631 47.3920607,52.1336433 47.0584824,51.1602927 C45.3122391,46.0649163 38.1000797,29.798107 34.0756481,24.2378501 C33.0876527,22.8728106 32.3790844,21.3143183 31.4147953,19.9317701 C30.4263284,18.514557 29.3791615,17.133041 28.2263219,15.8513868 C27.1706983,14.6778111 25.7087775,13.8854806 24.8068505,12.5854744 C23.1441434,10.188906 18.3723734,0.647419995 17.6394627,0.847357292 C16.2145524,1.23607143 13.9014031,6.6575367 12.428329,6.57997801 C9.29535232,6.41502394 6.25063604,5.44699285 3.13940658,5.03667606 C2.17595222,4.90961326 1.19692282,4.99266668 0.225680934,4.97066198" id="Path-48"></path>
                    </g>
                    <path d="M6.78571429,64.315214 C13.5328535,64.315214 18.5747084,66.1278804 21.7501316,65.9260036 C24.9255548,65.7241269 23.3165054,43.5822519 27.1987705,39.1305251 C27.7804706,38.4634995 35.2687239,35.0657764 39.7672966,37.3234227 C44.9681393,39.9335091 61.5646417,18.9691587 56.8429157,9.72882201 C54.0208082,4.20600626 52.51516,22.5290452 43.4620826,28.9438352 C37.3682699,33.2617624 22.4763031,26.0744738 21.7501316,25.634312 C20.9607601,25.1558422 13.3832971,24.225223 12.2903501,25.634312 C10.1626419,28.3774736 9.53415176,31.7022953 9.53415176,35.1713412 C9.53415176,37.5787529 7.92376525,41.3399383 7.44197486,43.3042797 C7.03662849,44.9569458 7.00446781,46.682001 6.78571429,48.3708617 L6.78571429,64.315214 Z" id="Path-50" fill="#FDB406" transform="translate(32.232143, 37.323423) scale(-1, 1) translate(-32.232143, -37.323423) "></path>
                    <path d="M37.3214286,39.0578635 C39.3112192,35.7369323 38.9953211,34.9844892 42.4107143,34.7217615" id="Path-58" stroke="#FED0D0" stroke-linecap="round"></path>
                    <path d="M76.0101915,24.9250566 C69.4606959,22.6339179 65.6151193,18.894537 62.2284992,12.4738439 C57.8078907,4.09281193 60.3776981,4.14936574 55.624933,0.399237983 C55.4029705,0.224100454 55.0896336,-0.0743770385 54.8490449,0.072205746 C51.8577735,1.89468918 50.8019169,5.32110841 52.6747,8.39993373 C60.2094796,20.7869907 64.809997,25.7085934 76.3392857,32.9873207" id="Path-79" stroke="#FFEAB8" fill="#FDB406" transform="translate(64.040179, 16.510133) scale(-1, 1) translate(-64.040179, -16.510133) "></path>
                    <path d="M30.5357143,78.0827811 C31.3177722,81.5387781 29.7712604,76.5463805 34.1048482,79.0324056 C35.1053481,79.6063568 34.9639113,81.3382499 35.7712694,82.1873705 C36.1414202,82.5766683 36.8047088,82.3393712 37.3214286,82.4153716" id="Path-85" stroke="#FFEAB8" transform="translate(33.928571, 80.250832) scale(-1, 1) translate(-33.928571, -80.250832) "></path>
                </g>
            </g>
        </g>
        <path d="M181.79453,310 C179.456798,312.800703 177.673272,316.178231 174.781335,318.402109 C172.918005,319.834995 170.416762,320.609841 168.066801,320.55652 C164.537781,320.476446 170.756045,313.950442 172.40462,318.706568 C173.262973,321.182909 173.159808,323.893651 173.537402,326.487193" id="Path-125" stroke="#FDB406"></path>
        <circle id="Oval-40" fill="#FFD97D" cx="62" cy="84" r="15"></circle>
        <circle id="Oval-40" fill="#FDB406" cx="62" cy="84" r="12"></circle>
        <path d="M45.5,285.5 L54.5,285.5" id="Line-48" stroke="#F6BF69" stroke-width="2" stroke-linecap="round"></path>
        <path d="M41.5,291.5 L59.5,291.5" id="Line-48" stroke="#F6BF69" stroke-width="2" stroke-linecap="round"></path>
        <g id="Group-120" transform="translate(34.000000, 246.000000)">
            <circle id="Oval-39" fill="#FFCB4F" cx="15.5" cy="15.5" r="15.5"></circle>
            <path d="M0,15.5 C0,24.0604136 6.93958638,31 15.5,31 C24.0604136,31 31,24.0604136 31,15.5 C31,6.93958638 24.0604136,0 15.5,0" id="Oval-39" stroke="#EFB019" stroke-width="2"></path>
            <path d="M12,11.6845422 L12,20.3154578 C12,20.8677426 12.4477153,21.3154578 13,21.3154578 C13.167319,21.3154578 13.3319635,21.2734744 13.4788521,21.1933534 L21.3905248,16.8778956 C21.8753731,16.6134328 22.054031,16.0059962 21.7895682,15.5211479 C21.6976229,15.3525814 21.5590913,15.2140498 21.3905248,15.1221044 L13.4788521,10.8066466 C12.9940038,10.5421839 12.3865672,10.7208417 12.1221044,11.2056901 C12.0419834,11.3525787 12,11.5172232 12,11.6845422 Z" id="Line-47" stroke="#FFEAB8" stroke-linecap="square"></path>
        </g>
        <path d="M59.5,81.2116439 L59.5,86.7883561 C59.5,87.3406408 59.9477153,87.7883561 60.5,87.7883561 C60.6720469,87.7883561 60.8411839,87.7439678 60.9910585,87.6594827 L65.9375383,84.8711266 C66.4186483,84.5999224 66.5888105,83.9900514 66.3176064,83.5089415 C66.2279768,83.3499406 66.0965392,83.218503 65.9375383,83.1288734 L60.9910585,80.3405173 C60.5099486,80.0693132 59.9000776,80.2394755 59.6288734,80.7205854 C59.5443883,80.8704601 59.5,81.039597 59.5,81.2116439 Z" id="Line-47" stroke="#FFEAB8" stroke-linecap="square"></path>
        <path d="M26.5,222.5 L30.5,222.5" id="Line-49" stroke="#FFCB4F" stroke-linecap="square"></path>
        <polyline id="Line-50" stroke="#FFCB4F" stroke-linecap="square" points="27.5 220.5 25.5 222.5 27.5 224.842003"></polyline>
        <polyline id="Line-51" stroke="#FFCF83" stroke-width="2" stroke-linecap="round" points="102.5 196.5 102.5 152.5 137.381087 152.5"></polyline>
        <polyline id="Line-51" stroke="#FFCF83" stroke-width="2" stroke-linecap="round" transform="translate(181.500000, 130.500000) rotate(-180.000000) translate(-181.500000, -130.500000) " points="173.5 152.5 173.5 108.5 189.5 108.5"></polyline>
        <g id="Group-117" transform="translate(93.000000, 144.000000)">
            <circle id="Oval-38" fill="#FDB406" cx="9.5" cy="9.5" r="9.5"></circle>
            <path d="M8.08671423,3.83960605 C11.608056,5.57370076 9.43840075,5.25110992 7.79719564,7.82249856 C7.35350867,8.51765337 10.3882401,10.23356 10.6175222,11.3738268 C10.9121405,12.8390237 5.33600638,14.4829626 9.44166874,15.8683831" id="Path-209" stroke="#FFEAB8" transform="translate(9.190915, 9.853995) rotate(-86.000000) translate(-9.190915, -9.853995) "></path>
        </g>
        <path d="M76.0724674,75.3668922 C88.0920052,74.1291732 97.1573518,68.599434 102.172851,56.8463416 C102.339883,56.4549275 105.200395,49.2640677 101.888993,48.0418619 C89.3237842,43.4041679 88.8989128,65.1457107 101.27748,68.6061938 C115.125983,72.4776038 122.629905,60.644321 126.438698,48.7847602 C127.471795,45.5679703 130.299898,40.3856725 127.376242,38.6923739 L126.415989,36.6696794 C122.324974,34.3002797 119.644871,38.9273377 119.509306,42.2576367 C119.016717,54.3586385 132.193193,63.0376959 143.919515,57.2323892 C149.829812,54.3064006 153.834558,48.5338833 158.792079,44.1846304" id="Path-227" stroke="#FFCF83" stroke-dasharray="4"></path>
        <path d="M40.6154404,79.9062072 C43.0831614,69.4994447 60.7181252,43.575189 63.0012316,36.1461342 C72.3533533,5.71503964 75.9096454,12.5228785 73.953191,19.2710433 C71.0187216,29.3925592 68.0616977,36.5124543 73.953191,32.4550782 C82.388664,26.6457046 83.5071557,19.2710433 86.2021447,12.5728696 C86.9038841,10.8287542 88.0839976,3.29468395 91.4635187,3.29468395 C94.8430398,3.29468395 87.501952,21.7780517 89.7163026,22.389514 C90.5286522,22.613833 92.6302175,19.3839344 93.9393514,16.4753932 C96.1595967,11.5426095 96.7144927,-1.14022914 98.1189979,-0.406017658 C99.6536326,0.396219621 100.059621,5.90160128 99.1864106,12.5728696 C98.4385479,18.2864922 96.4195197,25.3227581 97.1022138,25.7473459 C98.7528979,26.7739557 103.799032,8.98106302 105.641468,9.62136012 C107.657212,10.3218865 102.158943,29.301183 103.782939,30.7362266 C105.323045,32.0971403 107.302798,18.8260163 109.106555,19.2710433 C110.63008,19.6469307 111.109992,24.8433149 109.106555,30.7362266 C106.34118,38.8703062 92.6058089,49.886375 91.4635187,50.5787399 C75.4197109,60.3032116 65.8386489,63.1362785 52.0506724,79.9062072 L40.6154404,79.9062072 Z" id="Path-78" fill="#EEB226" transform="translate(75.525336, 39.734804) scale(-1, -1) translate(-75.525336, -39.734804) "></path>
        <g id="Group-119" transform="translate(49.000000, 10.000000)" stroke="#FDB406">
            <path d="M5.91900527,3.61046715 C-7.80020793,-1.39163428 6.411862,13.6183123 7.99582326,12.9801686 C9.57978452,12.3420248 14.8706331,-8.0916834 5.95455732,3.61046715 L5.91900527,3.61046715 Z" id="Path-228"></path>
            <path d="M9,3 C8.84555116,5.02504088 9,3.78916148 9,6 C9,7.85166384 8,7.88116587 8,9" id="Path-229"></path>
        </g>
        <path d="M45.5170583,74.8548534 C40.9075715,71.4964299 36.2980847,68.1380065 31.6885979,64.779583" id="Path-230" stroke="#FDB406" stroke-linecap="round"></path>
        <path d="M43.0741087,81.8521591 C36.4930654,81.7439207 29.9120222,81.6356824 23.330979,81.527444" id="Path-231" stroke="#FDB406" stroke-linecap="round"></path>
        <path d="M42.0453386,87.6446809 C38.085029,89.669092 34.1247193,91.6935032 30.1644097,93.7179143" id="Path-232" stroke="#FDB406" stroke-linecap="round"></path>
    </g>
</svg>