<?xml version="1.0" encoding="UTF-8"?>
<svg width="199px" height="327px" viewBox="0 0 199 327" version="1.1" xmlns="http://www.w3.org/2000/svg" xmlns:xlink="http://www.w3.org/1999/xlink">
    <!-- Generator: Sketch 49.1 (51147) - http://www.bohemiancoding.com/sketch -->
    <title>Rectangle 18</title>
    <desc>Created with Sketch.</desc>
    <defs></defs>
    <g id="Page-1" stroke="none" stroke-width="1" fill="none" fill-rule="evenodd">
        <rect id="Rectangle-18" fill="#CFDFFF" x="0" y="0" width="199" height="327" rx="3"></rect>
        <path d="M74.1261476,208.907246 C75.4321562,210.083028 76.7381649,211.25881 78.0441735,212.434593 L89.4940059,202.864687 L84.3641837,200.656745 L74.1261476,208.907246 Z" id="Path-186" fill="#153D9A"></path>
        <path d="M156.126148,269.907246 C157.432156,271.083028 158.738165,272.25881 160.044174,273.434593 L171.494006,263.864687 L166.364184,261.656745 L156.126148,269.907246 Z" id="Path-186" fill="#153D9A"></path>
        <path d="M168.138745,270.042526 C171.99557,272.664327 175.852396,275.286129 179.709221,277.90793" id="Path-193" stroke="#8FB1F6"></path>
        <path d="M166.509161,273.2617 C168.466364,275.39959 170.423567,277.53748 172.380771,279.67537" id="Path-194" stroke="#8FB1F6"></path>
        <path d="M163.90608,275.764367 C164.264333,279.104377 164.622587,282.444387 164.98084,285.784398" id="Path-195" stroke="#8FB1F6"></path>
        <path d="M69.1261476,205.907246 C70.4321562,207.083028 72.4573846,207.311419 73.7633933,208.487201 L83.5104357,200.691229 L81.0336212,196.621752 L69.1261476,205.907246 Z" id="Path-186" fill="#153D9A"></path>
        <g id="Group-90" transform="translate(179.500000, 144.500000) rotate(26.000000) translate(-179.500000, -144.500000) translate(169.000000, 136.000000)" fill="#3F6ACD">
            <path d="M5.12614756,12.9072455 C6.43215622,14.0830279 7.73816488,15.2588102 9.04417354,16.4345925 L20.4940059,6.86468658 L15.3641837,4.6567454 L5.12614756,12.9072455 Z" id="Path-186"></path>
            <path d="M0.12614756,9.90724552 C1.43215622,11.0830279 3.45738462,11.3114188 4.76339328,12.4872011 L14.5104357,4.69122872 L12.0336212,0.621752481 L0.12614756,9.90724552 Z" id="Path-186"></path>
        </g>
        <g id="Group-90" transform="translate(129.500000, 174.500000) rotate(26.000000) translate(-129.500000, -174.500000) translate(119.000000, 166.000000)" fill="#3F6ACD">
            <path d="M5.12614756,12.9072455 C6.43215622,14.0830279 7.73816488,15.2588102 9.04417354,16.4345925 L20.4940059,6.86468658 L15.3641837,4.6567454 L5.12614756,12.9072455 Z" id="Path-186"></path>
            <path d="M0.12614756,9.90724552 C1.43215622,11.0830279 3.45738462,11.3114188 4.76339328,12.4872011 L14.5104357,4.69122872 L12.0336212,0.621752481 L0.12614756,9.90724552 Z" id="Path-186"></path>
        </g>
        <g id="Group-90" transform="translate(179.500000, 194.500000) rotate(26.000000) translate(-179.500000, -194.500000) translate(169.000000, 186.000000)" fill="#3F6ACD">
            <path d="M5.12614756,12.9072455 C6.43215622,14.0830279 7.73816488,15.2588102 9.04417354,16.4345925 L20.4940059,6.86468658 L15.3641837,4.6567454 L5.12614756,12.9072455 Z" id="Path-186"></path>
            <path d="M0.12614756,9.90724552 C1.43215622,11.0830279 3.45738462,11.3114188 4.76339328,12.4872011 L14.5104357,4.69122872 L12.0336212,0.621752481 L0.12614756,9.90724552 Z" id="Path-186"></path>
        </g>
        <path d="M46.4569136,202.110399 C48.7777406,197.913159 46.4569136,197.584453 47.4791692,194.640724 C48.609522,191.385713 55.4622991,191.645057 56.4843574,194.619339 C56.8786814,195.766858 56.4989766,197.159278 57.1336399,198.197015 C57.333806,198.524306 57.6037691,199.190437 57.5844888,199.592721 C57.5672684,199.952024 57.0853862,199.467584 56.7465698,199.726669 C56.1527642,200.180738 56.979064,201.991116 56.3995908,202.462806 C55.5335673,203.167748 54.1254063,202.820985 53.1644806,203.394355 C51.9835575,204.098994 50.0665725,202.905405 49.812314,203.943035 C48.8813899,207.742138 46.5080977,207.671769 43.8906612,206.961362 L46.4569136,202.110399 Z" id="Path-55" fill="#3177DC"></path>
        <path d="M34.9803921,237.580494 C40.4995969,237.580494 44.6238677,239.026082 47.221385,238.865087 C49.8189023,238.704091 48.5026892,221.04611 51.6784079,217.495891 C52.1542425,216.963943 57.4227092,227.706554 61.8113933,225.431135 C66.2863807,223.110969 77.9466031,216.391772 78.9825452,216.437282 C80.3232032,216.49618 75.6090188,214.69034 74.7986488,213.488917 C73.9882787,212.287494 65.7112898,222.945181 60.2971646,219.443438 C57.1932829,217.435912 55.3799446,210.964286 53.4568819,209.988134 C51.0571483,208.770023 48.1587735,204.827417 46.6822837,203.954901 C46.0365726,203.573325 37.2286322,211.571933 37.2286322,214.338471 C37.2286322,216.258364 35.9113254,219.257882 35.5172176,220.82443 C35.1856416,222.142419 35.1593339,223.518137 34.9803921,224.864991 L34.9803921,237.580494 Z" id="Path-50" fill="#6EA9FF"></path>
        <path d="M76.25,215.25913 C76.5639734,213.935055 77.3527786,212.767462 77.6432631,211.822247 C78.8331536,207.950434 79.2856283,208.81661 79.0367044,209.675193 C78.6633455,210.962976 78.2871171,211.868855 79.0367044,211.352626 C80.1099677,210.613487 80.2522758,209.675193 80.595165,208.82297 C80.6844488,208.601063 80.8345972,207.642487 81.2645809,207.642487 C81.6945646,207.642487 80.7605423,209.994166 81.0422788,210.071963 C81.1456358,210.100504 81.2937465,209.894333 81.4603105,209.524273 C81.742797,208.896664 82.0684828,207.957158 82.247181,208.050573 C82.6096623,208.240062 82.0589012,210.333344 82.247181,210.450441 C82.4572011,210.581059 82.8340547,209.593727 83.0684718,209.675193 C83.3249392,209.764323 82.8618472,210.606257 83.0684718,210.788841 C83.2644227,210.961993 83.5781167,210.393819 83.8076125,210.450441 C84.269016,210.564279 82.4978089,213.318313 82.247181,213.470223 C80.2058929,214.707489 80.4168524,214.855963 78.6625786,216.989637" id="Path-78" fill="#3177DC" transform="translate(80.066964, 212.316062) rotate(-345.000000) translate(-80.066964, -212.316062) "></path>
        <g id="Group-84" transform="translate(32.500000, 249.000000) rotate(134.000000) translate(-32.500000, -249.000000) translate(23.000000, 244.000000)">
            <path d="M0,0.588444392 C0.382135668,2.27226092 5.60027276,10.7355679 7.89566509,3.66809302 C8.37716739,2.18555545 5.94919663,1.22269767 4.9759624,0" id="Path-89" fill="#3177DC"></path>
            <path d="M1.71437348,5.42505791 L3.01496871,9.93747528 L18.232828,4.19524234 L18.232828,3.08088115 L7.70622407,3.08088115 C7.26843528,4.32444531 6.64156811,5.10583757 5.82562256,5.42505791 C5.00967701,5.74427825 3.63926065,5.74427825 1.71437348,5.42505791 Z" id="Line-5" fill="#123DA2"></path>
        </g>
        <path d="M61.0170856,235.223259 C79.0242505,235.89341 79.4687221,246.256446 75.0122461,248.779512 C73.2539856,249.774963 71.2631699,249.710797 68.4840494,247.106025 C65.2130227,244.040207 63.2936294,239.794734 60.6984194,236.139089" id="Path-167" fill="#173F9D"></path>
        <path d="M34.7861824,238.907923 C34.7861824,240.829241 38.6531095,241.442746 38.6531095,243.302534 C38.6531095,245.335398 38.6265835,246.646985 38.6531095,248.832149 C38.6700785,250.230022 54.7568301,250.818776 61.2954195,250.633716 C64.5895433,250.540483 69.3261775,249.93996 75.505322,248.832149 C77.4639822,240.440853 65.7131382,234.204915 59.2755845,234.710404 C51.6082527,235.312457 42.3578781,233.997982 34.7861824,235.347007 L34.7861824,238.907923 Z" id="Path-165" fill="#2658CF"></path>
        <path d="M107.553828,56.1897307 C109.393105,55.1147026 111.232381,54.0396745 113.071658,52.9646465" id="Path-181" stroke="#979797"></path>
        <g id="Group-61" transform="translate(45.000000, 164.000000)">
            <g id="Group-56">
                <path d="M13.5090034,17.9302105 C16.9175429,17.9302105 22.4695833,16.409757 24.8464088,14.8064276 C27.6721221,12.900293 29,12.1195307 29,9 C29,3.25650173 21.002574,0 13.5417574,0 C6.0809408,0 0,1.78718867 0,7.53068695 C0,9.78658472 0.933063157,11.8747164 2.51830308,13.5788494 C2.98838566,14.0841882 0.992719555,17.4980434 1.57017522,17.9302105 C2.2542336,18.442159 5.53158835,15.9565274 6.34386902,16.3485089 C8.42075826,17.3507512 10.8769774,17.9302105 13.5090034,17.9302105 Z" id="Oval-7" fill="#153D9A"></path>
                <path d="M4.14285714,11.5120955 C4.38674201,9.57528773 5.49240681,3.04460488 9.45502132,5.35223681 C12.2761957,6.9951501 9.26165359,12.5334615 9.07572921,12.1424563 C7.69120558,9.23075662 12.7951748,4.08489444 15.0942688,6.89745449 C15.8912139,7.87238465 16.4881102,11.6262369 15.8442092,10.5512122 L15.0769811,11.7839177 C13.2817784,8.7867377 17.7365323,4.91541437 20.6581419,6.7336941 C21.0050167,6.94957358 21.8268216,10.687631 20.8752754,11.058169 C20.4954494,11.2060756 20.2846,7.40890416 22.5843373,6.62529873 C23.6424276,6.26476827 24.7900172,6.22529202 25.8928571,6.02528867" id="Path-44" stroke="#CFDFFF"></path>
            </g>
        </g>
        <g id="Group-61" transform="translate(85.000000, 4.000000)">
            <g id="Group-56">
                <path d="M13.5090034,17.9302105 C16.9175429,17.9302105 22.4695833,16.409757 24.8464088,14.8064276 C27.6721221,12.900293 29,12.1195307 29,9 C29,3.25650173 21.002574,0 13.5417574,0 C6.0809408,0 0,1.78718867 0,7.53068695 C0,9.78658472 0.933063157,11.8747164 2.51830308,13.5788494 C2.98838566,14.0841882 0.992719555,17.4980434 1.57017522,17.9302105 C2.2542336,18.442159 5.53158835,15.9565274 6.34386902,16.3485089 C8.42075826,17.3507512 10.8769774,17.9302105 13.5090034,17.9302105 Z" id="Oval-7" fill="#6EA9FF"></path>
                <path d="M4.14285714,11.5120955 C4.38674201,9.57528773 5.49240681,3.04460488 9.45502132,5.35223681 C12.2761957,6.9951501 9.26165359,12.5334615 9.07572921,12.1424563 C7.69120558,9.23075662 12.7951748,4.08489444 15.0942688,6.89745449 C15.8912139,7.87238465 16.4881102,11.6262369 15.8442092,10.5512122 L15.0769811,11.7839177 C13.2817784,8.7867377 17.7365323,4.91541437 20.6581419,6.7336941 C21.0050167,6.94957358 21.8268216,10.687631 20.8752754,11.058169 C20.4954494,11.2060756 20.2846,7.40890416 22.5843373,6.62529873 C23.6424276,6.26476827 24.7900172,6.22529202 25.8928571,6.02528867" id="Path-44" stroke="#CFDFFF"></path>
            </g>
        </g>
        <g id="Group-33" transform="translate(87.801664, 323.690911) scale(1, -1) rotate(189.000000) translate(-87.801664, -323.690911) translate(77.801664, 318.690911)">
            <path d="M0.107353605,0.662816993 C0.489489273,2.34663352 5.70762636,10.8099405 8.0030187,3.74246562 C8.48452099,2.25992805 6.05655023,1.29707027 5.083316,0.0743726013" id="Path-89" fill="#3177DC"></path>
            <path d="M2.72362185,4.78203102 L4.02421708,9.29444839 L19.2420763,3.55221545 L19.2420763,2.43785426 L8.71547244,2.43785426 C8.27768365,3.68141843 7.65081647,4.46281068 6.83487093,4.78203102 C6.01892538,5.10125137 4.64850902,5.10125137 2.72362185,4.78203102 Z" id="Line-5" fill="#123DA2"></path>
        </g>
        <path d="M99.0314154,298.317482 C106.166188,306.337511 104.365789,302.421723 113.691918,308.551462 C115.08643,309.468027 128.111613,311.44926 129.542841,314.187361 C132.262224,319.389849 129.951792,325.214914 130.661745,330.031947 C131.182052,333.562235 127.740094,340.02292 131.503922,339.402758 C131.51228,339.401381 136.268148,343.698608 135.93457,342.744876 C134.188326,337.752201 146.352851,316.875844 142.32842,311.427658 C141.340424,310.090132 136.749795,303.86097 135.785505,302.506288 C134.797038,301.11764 129.144631,299.738301 127.991791,298.48248 C126.936167,297.332558 112.494372,290.771879 111.761462,290.967787 C110.336551,291.348666 107.502694,293.486488 106.02962,293.410493 C102.896643,293.248864 103.895255,296.841085 100.784026,296.439038 C99.8205714,296.314536 98.841542,296.395916 97.8703001,296.374355" id="Path-48" fill="#173F9D" transform="translate(120.510041, 316.923253) scale(-1, 1) rotate(-60.000000) translate(-120.510041, -316.923253) "></path>
        <path d="M172.401595,312.055081 C174.722422,307.857841 172.401595,307.529134 173.423851,304.585405 C174.554203,301.330395 181.406981,301.589739 182.429039,304.564021 C182.823363,305.711539 182.443658,307.103959 183.078321,308.141696 C183.278487,308.468987 183.54845,309.135119 183.52917,309.537402 C183.51195,309.896706 183.030068,309.412265 182.691251,309.67135 C182.097446,310.12542 182.923745,311.935797 182.344272,312.407488 C181.478249,313.112429 180.070088,312.765667 179.109162,313.339037 C177.928239,314.043675 176.011254,312.850087 175.756995,313.887716 C174.826071,317.68682 172.452779,317.61645 169.835343,316.906044 L172.401595,312.055081 Z" id="Path-55" fill="#3177DC" transform="translate(176.682745, 309.761936) scale(-1, 1) rotate(-90.000000) translate(-176.682745, -309.761936) "></path>
        <path d="M129.503527,318.918649 C135.022732,318.918649 139.147003,317.549217 141.74452,317.388222 C144.342037,317.227227 143.025824,299.569245 146.201543,296.019026 C146.677378,295.487078 157.810609,303.388126 160.769801,299.963567 C163.94495,296.289089 178.534728,299.194929 179.57067,299.240439 C180.911328,299.299337 179.556568,295.417706 178.746198,294.216283 C177.935828,293.01486 159.866299,296.363349 154.452174,292.861607 C151.348292,290.854081 149.90308,289.487421 147.980017,288.511269 C145.580283,287.293159 142.681909,283.350552 141.205419,282.478036 C140.559708,282.09646 131.751767,290.095068 131.751767,292.861607 C131.751767,294.7815 130.43446,297.781017 130.040353,299.347565 C129.708777,300.665554 128.704651,304.485359 128.52571,305.832213 L129.503527,318.918649 Z" id="Path-50" fill="#6EA9FF" transform="translate(154.331391, 300.691744) scale(-1, 1) rotate(-90.000000) translate(-154.331391, -300.691744) "></path>
        <path d="M155.366974,274.376103 C155.680947,273.052028 156.469752,271.884436 156.760237,270.939221 C157.950127,267.067408 158.402602,267.933584 158.153678,268.792167 C157.780319,270.079949 157.404091,270.985829 158.153678,270.4696 C159.226941,269.730461 159.369249,268.792167 159.712139,267.939944 C159.801422,267.718036 159.951571,266.759461 160.381554,266.759461 C160.811538,266.759461 159.877516,269.111139 160.159252,269.188937 C160.262609,269.217477 160.41072,269.011306 160.577284,268.641246 C160.859771,268.013638 161.185456,267.074131 161.364155,267.167546 C161.726636,267.357035 161.175875,269.450318 161.364155,269.567415 C161.574175,269.698032 161.951028,268.710701 162.185445,268.792167 C162.441913,268.881296 161.978821,269.723231 162.185445,269.905815 C162.381396,270.078967 162.69509,269.510793 162.924586,269.567415 C163.38599,269.681253 161.614782,272.435286 161.364155,272.587197 C159.322866,273.824462 159.533826,273.972937 157.779552,276.106611" id="Path-78" fill="#3177DC" transform="translate(159.183938, 271.433036) scale(-1, 1) rotate(-46.000000) translate(-159.183938, -271.433036) "></path>
        <path d="M177.237902,313.456326 C184.29901,313.198222 175.106227,314.30078 182.65291,309.443089 C184.274711,308.399159 186.660447,309.125665 188.273369,308.068069 C194.773236,303.806094 170.856091,296.717231 176.474418,313.354671 L177.237902,313.456326 Z" id="Path-177" fill="#153D9A" transform="translate(182.507485, 308.158051) scale(-1, 1) rotate(-90.000000) translate(-182.507485, -308.158051) "></path>
        <path d="M162.553638,313.111854 C161.421937,311.235889 160.290237,309.359924 159.158537,307.48396" id="Path-190" stroke="#CFDFFF" transform="translate(160.856087, 310.297907) scale(-1, 1) rotate(-90.000000) translate(-160.856087, -310.297907) "></path>
        <path d="M102.512915,307.880279 C103.903842,306.291891 104.908886,304.255556 106.685694,303.115114 C107.245816,302.755601 108.10466,303.501477 108.433824,304.079956 C111.32402,309.159241 103.498303,306.417343 108.9652,304.309727 C110.3454,303.777627 111.906793,304.624944 113.37759,304.782553" id="Path-191" stroke="#979797"></path>
        <path d="M136.705357,26.6166425 C137.019331,25.2925678 137.808136,24.124975 138.09862,23.1797604 C139.288511,19.307947 139.740985,20.174123 139.492062,21.0327064 C139.118703,22.3204886 138.742474,23.2263681 139.492062,22.7101394 C140.565325,21.9710004 140.707633,21.0327064 141.050522,20.1804834 C141.139806,19.9585759 141.289954,19 141.719938,19 C142.149922,19 141.215899,21.3516785 141.497636,21.4294761 C141.600993,21.4580167 141.749104,21.2518458 141.915668,20.8817859 C142.198154,20.2541772 142.52384,19.3146706 142.702538,19.4080859 C143.065019,19.5975747 142.514258,21.6908571 142.702538,21.8079539 C142.912558,21.9385717 143.289412,20.9512401 143.523829,21.0327064 C143.780296,21.1218359 143.317204,21.9637703 143.523829,22.146354 C143.71978,22.319506 144.033474,21.7513322 144.26297,21.8079539 C144.724373,21.9217924 142.953166,24.6758257 142.702538,24.8277363 C140.66125,26.0650017 140.87221,26.2134763 139.117936,28.3471503" id="Path-78" fill="#3177DC"></path>
        <rect id="Rectangle-70" stroke="#1483D9" x="0.5" y="27.5" width="198" height="27"></rect>
        <rect id="Rectangle-70" stroke="#1483D9" x="0.5" y="54.5" width="198" height="27"></rect>
        <rect id="Rectangle-70" stroke="#1483D9" x="0.5" y="81.5" width="198" height="27"></rect>
        <rect id="Rectangle-70" stroke="#1483D9" x="0.5" y="81.5" width="68" height="27"></rect>
        <rect id="Rectangle-70" stroke="#1483D9" x="80.5" y="54.5" width="68" height="27"></rect>
        <rect id="Rectangle-70" stroke="#1483D9" x="10.5" y="27.5" width="68" height="27"></rect>
        <rect id="Rectangle-70" stroke="#1483D9" x="120.5" y="27.5" width="23" height="27"></rect>
        <rect id="Rectangle-71" fill="#2850AE" x="12" y="30" width="5" height="24"></rect>
        <rect id="Rectangle-71" fill="#2850AE" x="54" y="30" width="5" height="24"></rect>
        <rect id="Rectangle-71" fill="#4269C4" x="60" y="30" width="5" height="24"></rect>
        <rect id="Rectangle-71" fill="#4269C4" x="66" y="30" width="5" height="24"></rect>
        <rect id="Rectangle-71" fill="#2850AE" x="72" y="30" width="5" height="24"></rect>
        <rect id="Rectangle-71" fill="#2850AE" x="18" y="34" width="4" height="20"></rect>
        <rect id="Rectangle-71" fill="#456BC4" x="23" y="34" width="4" height="20"></rect>
        <rect id="Rectangle-71" fill="#456BC4" x="30" y="34" width="4" height="20"></rect>
        <rect id="Rectangle-71" fill="#456BC4" x="13" y="61" width="4" height="20"></rect>
        <rect id="Rectangle-71" fill="#456BC4" x="18" y="61" width="4" height="20"></rect>
        <rect id="Rectangle-71" fill="#456BC4" x="20" y="88" width="4" height="20"></rect>
        <rect id="Rectangle-71" fill="#456BC4" x="25" y="88" width="4" height="20"></rect>
        <rect id="Rectangle-71" fill="#456BC4" x="29" y="61" width="4" height="20"></rect>
        <rect id="Rectangle-71" fill="#456BC4" x="34" y="61" width="4" height="20"></rect>
        <rect id="Rectangle-71" fill="#456BC4" transform="translate(64.000000, 64.000000) rotate(-270.000000) translate(-64.000000, -64.000000) " x="62" y="54" width="4" height="20"></rect>
        <rect id="Rectangle-71" fill="#2850AE" x="35" y="34" width="4" height="20"></rect>
        <rect id="Rectangle-71" fill="#2850AE" x="2" y="61" width="4" height="20"></rect>
        <rect id="Rectangle-71" fill="#2850AE" x="28" y="35" width="1" height="19"></rect>
        <rect id="Rectangle-71" fill="#2850AE" x="7" y="62" width="1" height="19"></rect>
        <rect id="Rectangle-71" fill="#2850AE" x="9" y="62" width="1" height="19"></rect>
        <rect id="Rectangle-71" fill="#2850AE" x="11" y="62" width="1" height="19"></rect>
        <rect id="Rectangle-71" fill="#2850AE" x="39" y="62" width="1" height="19"></rect>
        <rect id="Rectangle-71" fill="#2850AE" x="41" y="62" width="1" height="19"></rect>
        <rect id="Rectangle-71" fill="#2850AE" x="44" y="62" width="1" height="19"></rect>
        <rect id="Rectangle-71" fill="#2850AE" x="46" y="62" width="1" height="19"></rect>
        <rect id="Rectangle-71" fill="#2850AE" x="49" y="62" width="1" height="19"></rect>
        <rect id="Rectangle-71" fill="#2850AE" x="51" y="62" width="1" height="19"></rect>
        <rect id="Rectangle-71" fill="#2850AE" x="83" y="62" width="1" height="19"></rect>
        <rect id="Rectangle-71" fill="#2850AE" x="85" y="62" width="1" height="19"></rect>
        <rect id="Rectangle-71" fill="#2850AE" x="88" y="62" width="1" height="19"></rect>
        <rect id="Rectangle-71" fill="#2850AE" x="90" y="62" width="1" height="19"></rect>
        <rect id="Rectangle-71" fill="#2850AE" x="93" y="62" width="1" height="19"></rect>
        <rect id="Rectangle-71" fill="#2850AE" x="95" y="62" width="1" height="19"></rect>
        <rect id="Rectangle-71" fill="#2850AE" x="98" y="62" width="1" height="19"></rect>
        <rect id="Rectangle-71" fill="#2850AE" x="100" y="62" width="1" height="19"></rect>
        <rect id="Rectangle-71" fill="#456BC4" x="88" y="34" width="4" height="20"></rect>
        <rect id="Rectangle-71" fill="#2850AE" x="82" y="35" width="1" height="19"></rect>
        <rect id="Rectangle-71" fill="#2850AE" x="84" y="35" width="1" height="19"></rect>
        <rect id="Rectangle-71" fill="#2850AE" x="86" y="35" width="1" height="19"></rect>
        <rect id="Rectangle-71" fill="#2850AE" x="2" y="89" width="1" height="19"></rect>
        <rect id="Rectangle-71" fill="#2850AE" x="4" y="89" width="1" height="19"></rect>
        <rect id="Rectangle-71" fill="#2850AE" x="6" y="89" width="1" height="19"></rect>
        <rect id="Rectangle-71" fill="#2850AE" x="8" y="89" width="1" height="19"></rect>
        <rect id="Rectangle-71" fill="#2850AE" x="10" y="89" width="1" height="19"></rect>
        <rect id="Rectangle-71" fill="#2850AE" x="12" y="89" width="1" height="19"></rect>
        <rect id="Rectangle-71" fill="#2850AE" x="14" y="89" width="1" height="19"></rect>
        <rect id="Rectangle-71" fill="#2850AE" x="16" y="89" width="1" height="19"></rect>
        <rect id="Rectangle-71" fill="#2850AE" x="18" y="89" width="1" height="19"></rect>
        <rect id="Rectangle-71" fill="#2850AE" x="30" y="89" width="1" height="19"></rect>
        <rect id="Rectangle-71" fill="#2850AE" x="32" y="89" width="1" height="19"></rect>
        <rect id="Rectangle-71" fill="#2850AE" x="34" y="89" width="1" height="19"></rect>
        <rect id="Rectangle-71" fill="#2850AE" x="36" y="89" width="1" height="19"></rect>
        <rect id="Rectangle-71" fill="#2850AE" x="38" y="89" width="1" height="19"></rect>
        <rect id="Rectangle-71" fill="#2850AE" x="40" y="89" width="1" height="19"></rect>
        <rect id="Rectangle-71" fill="#2850AE" x="42" y="89" width="1" height="19"></rect>
        <rect id="Rectangle-71" fill="#2850AE" x="44" y="89" width="1" height="19"></rect>
        <rect id="Rectangle-71" fill="#2850AE" x="46" y="89" width="1" height="19"></rect>
        <rect id="Rectangle-71" fill="#2850AE" x="48" y="89" width="1" height="19"></rect>
        <rect id="Rectangle-71" fill="#2850AE" x="50" y="89" width="1" height="19"></rect>
        <rect id="Rectangle-71" fill="#2850AE" x="52" y="89" width="1" height="19"></rect>
        <rect id="Rectangle-71" fill="#2850AE" x="54" y="89" width="1" height="19"></rect>
        <rect id="Rectangle-71" fill="#2850AE" x="56" y="89" width="1" height="19"></rect>
        <rect id="Rectangle-71" fill="#2850AE" x="58" y="89" width="1" height="19"></rect>
        <rect id="Rectangle-71" fill="#2850AE" x="60" y="89" width="1" height="19"></rect>
        <path d="M56.2979962,32.7105507 C58.5172135,33.6535224 55.5464932,37.7847525 55.2730957,40.5134472 C55.0686614,42.5538414 59.4182401,49.635183 55.6262976,50.987596" id="Path-179" stroke="#CFDFFF" stroke-linecap="round"></path>
        <path d="M14.2979962,32.7105507 C16.5172135,33.6535224 13.5464932,37.7847525 13.2730957,40.5134472 C13.0686614,42.5538414 17.4182401,49.635183 13.6262976,50.987596" id="Path-179" stroke="#CFDFFF" stroke-linecap="round"></path>
        <rect id="Rectangle-71" fill="#2850AE" x="4" y="30" width="5" height="24"></rect>
        <path d="M6.29799624,32.7105507 C8.51721348,33.6535224 5.54649321,37.7847525 5.27309567,40.5134472 C5.06866139,42.5538414 9.41824015,49.635183 5.62629758,50.987596" id="Path-179" stroke="#CFDFFF" stroke-linecap="round"></path>
        <rect id="Rectangle-71" fill="#2850AE" x="23" y="57" width="5" height="24"></rect>
        <path d="M50.9280067,40.0406525 C50.8408272,53.7967492 55.0437011,53.2071723 47.6239225,52.3365349" id="Path-180" stroke="#1483D9"></path>
        <path d="M25.2979962,59.7105507 C27.5172135,60.6535224 24.5464932,64.7847525 24.2730957,67.5134472 C24.0686614,69.5538414 28.4182401,76.635183 24.6262976,77.987596" id="Path-179" stroke="#CFDFFF" stroke-linecap="round"></path>
        <rect id="Rectangle-71" fill="#2850AE" x="62" y="84" width="5" height="24"></rect>
        <path d="M64.2979962,86.7105507 C66.5172135,87.6535224 63.5464932,91.7847525 63.2730957,94.5134472 C63.0686614,96.5538414 67.4182401,103.635183 63.6262976,104.987596" id="Path-179" stroke="#CFDFFF" stroke-linecap="round"></path>
        <rect id="Rectangle-71" fill="#2850AE" x="72" y="84" width="5" height="24"></rect>
        <path d="M74.2979962,86.7105507 C76.5172135,87.6535224 73.5464932,91.7847525 73.2730957,94.5134472 C73.0686614,96.5538414 77.4182401,103.635183 73.6262976,104.987596" id="Path-179" stroke="#CFDFFF" stroke-linecap="round"></path>
        <rect id="Rectangle-71" fill="#2850AE" x="78" y="84" width="5" height="24"></rect>
        <path d="M80.2979962,86.7105507 C82.5172135,87.6535224 79.5464932,91.7847525 79.2730957,94.5134472 C79.0686614,96.5538414 83.4182401,103.635183 79.6262976,104.987596" id="Path-179" stroke="#CFDFFF" stroke-linecap="round"></path>
        <g id="Group-91" transform="translate(65.500000, 77.000000) rotate(-270.000000) translate(-65.500000, -77.000000) translate(63.000000, 65.000000)">
            <rect id="Rectangle-71" fill="#2850AE" x="0" y="0" width="5" height="24"></rect>
            <path d="M2.29799624,2.71055071 C4.51721348,3.65352238 1.54649321,7.78475248 1.27309567,10.5134472 C1.06866139,12.5538414 5.41824015,19.635183 1.62629758,20.987596" id="Path-179" stroke="#CFDFFF" stroke-linecap="round"></path>
        </g>
        <g id="Group-91" transform="translate(65.500000, 70.000000) rotate(-270.000000) translate(-65.500000, -70.000000) translate(63.000000, 58.000000)">
            <rect id="Rectangle-71" fill="#2850AE" x="0" y="0" width="5" height="24"></rect>
            <path d="M2.29799624,2.71055071 C4.51721348,3.65352238 1.54649321,7.78475248 1.27309567,10.5134472 C1.06866139,12.5538414 5.41824015,19.635183 1.62629758,20.987596" id="Path-179" stroke="#CFDFFF" stroke-linecap="round"></path>
        </g>
        <path d="M62.2979962,32.7105507 C64.5172135,33.6535224 61.5464932,37.7847525 61.2730957,40.5134472 C61.0686614,42.5538414 65.4182401,49.635183 61.6262976,50.987596" id="Path-179" stroke="#CFDFFF" stroke-linecap="round"></path>
        <path d="M68.2979962,32.7105507 C70.5172135,33.6535224 67.5464932,37.7847525 67.2730957,40.5134472 C67.0686614,42.5538414 71.4182401,49.635183 67.6262976,50.987596" id="Path-179" stroke="#CFDFFF" stroke-linecap="round" transform="translate(68.225053, 41.849073) rotate(-180.000000) translate(-68.225053, -41.849073) "></path>
        <path d="M74.2979962,32.7105507 C76.5172135,33.6535224 73.5464932,37.7847525 73.2730957,40.5134472 C73.0686614,42.5538414 77.4182401,49.635183 73.6262976,50.987596" id="Path-179" stroke="#CFDFFF" stroke-linecap="round"></path>
        <rect id="Rectangle-71" fill="#2850AE" x="94" y="30" width="5" height="24"></rect>
        <rect id="Rectangle-71" fill="#4269C4" x="100" y="30" width="5" height="24"></rect>
        <rect id="Rectangle-71" fill="#2850AE" x="112" y="30" width="5" height="24"></rect>
        <path d="M96.2979962,32.7105507 C98.5172135,33.6535224 95.5464932,37.7847525 95.2730957,40.5134472 C95.0686614,42.5538414 99.4182401,49.635183 95.6262976,50.987596" id="Path-179" stroke="#CFDFFF" stroke-linecap="round"></path>
        <path d="M102.297996,32.7105507 C104.517213,33.6535224 101.546493,37.7847525 101.273096,40.5134472 C101.068661,42.5538414 105.41824,49.635183 101.626298,50.987596" id="Path-179" stroke="#CFDFFF" stroke-linecap="round"></path>
        <path d="M114.297996,32.7105507 C116.517213,33.6535224 113.546493,37.7847525 113.273096,40.5134472 C113.068661,42.5538414 117.41824,49.635183 113.626298,50.987596" id="Path-179" stroke="#CFDFFF" stroke-linecap="round"></path>
        <path d="M166.5,41.5 L177.5,41.5" id="Line-23" stroke="#456BC4" stroke-width="2" stroke-linecap="round"></path>
        <path d="M166.5,69.5 L177.5,69.5" id="Line-23" stroke="#456BC4" stroke-width="2" stroke-linecap="round"></path>
        <path d="M135.5,95.5 L146.5,95.5" id="Line-23" stroke="#456BC4" stroke-width="2" stroke-linecap="round"></path>
        <path d="M120.5,67.5 L131.5,67.5" id="Line-23" stroke="#456BC4" stroke-width="2" stroke-linecap="round"></path>
        <path d="M124,0.752688172 L124,139.247312" id="Line-24" stroke="#9CC6FF" stroke-width="2" stroke-linecap="square"></path>
        <path d="M138,0.752688172 L138,139.247312" id="Line-24" stroke="#9CC6FF" stroke-width="2" stroke-linecap="square"></path>
        <path d="M123.5,11.5 L137.535669,11.5" id="Line-25" stroke="#9CC6FF" stroke-linecap="square"></path>
        <path d="M123.5,21.5 L137.535669,21.5" id="Line-25" stroke="#9CC6FF" stroke-linecap="square"></path>
        <path d="M123.5,31.5 L137.535669,31.5" id="Line-25" stroke="#9CC6FF" stroke-linecap="square"></path>
        <path d="M123.5,41.5 L137.535669,41.5" id="Line-25" stroke="#9CC6FF" stroke-linecap="square"></path>
        <path d="M123.5,51.5 L137.535669,51.5" id="Line-25" stroke="#9CC6FF" stroke-linecap="square"></path>
        <path d="M123.5,61.5 L137.535669,61.5" id="Line-25" stroke="#9CC6FF" stroke-linecap="square"></path>
        <path d="M123.5,71.5 L137.535669,71.5" id="Line-25" stroke="#9CC6FF" stroke-linecap="square"></path>
        <path d="M123.5,81.5 L137.535669,81.5" id="Line-25" stroke="#9CC6FF" stroke-linecap="square"></path>
        <path d="M123.5,91.5 L137.535669,91.5" id="Line-25" stroke="#9CC6FF" stroke-linecap="square"></path>
        <path d="M123.5,101.5 L137.535669,101.5" id="Line-25" stroke="#9CC6FF" stroke-linecap="square"></path>
        <path d="M123.5,111.5 L137.535669,111.5" id="Line-25" stroke="#9CC6FF" stroke-linecap="square"></path>
        <path d="M123.5,121.5 L137.535669,121.5" id="Line-25" stroke="#9CC6FF" stroke-linecap="square"></path>
        <g id="Group-92" transform="translate(83.000000, 25.000000)">
            <g id="Group-29" transform="translate(38.000000, 69.000000) scale(-1, 1) translate(-38.000000, -69.000000) translate(1.000000, 40.000000)">
                <path d="M9.87385351,12.5745362 C15.9893729,19.3975461 14.446174,16.0662038 22.4399985,21.2810567 C23.6352949,22.0608205 29.337355,26.1868067 30.5641219,28.5162357 C34.603283,36.18594 40.6721041,51.9947902 48.300265,50.7472855 C48.3074292,50.7461139 49.3069373,50.236435 49.0210131,49.4250511 C47.5242331,45.1775511 42.9449997,30.7756792 39.4954869,26.1406554 C38.6486337,25.0027601 37.9201045,22.5146065 37.0935709,21.3621159 C36.2463136,20.1807287 34.161071,19.675774 33.1729228,18.6073885 C32.2681025,17.6290971 24.4329196,7.31757808 23.8047105,7.48424558 C22.5833588,7.80827724 20.6006594,12.3276045 19.3380244,12.2629517 C16.6526159,12.1254461 14.0428591,11.3184965 11.376091,10.9764569 C10.5502729,10.8705375 9.71110487,10.9397707 8.87861183,10.9214277" id="Path-48" fill="#2850AE" transform="translate(28.975520, 29.149625) rotate(-300.000000) translate(-28.975520, -29.149625) "></path>
                <path d="M34.0458253,13.8199177 C40.1613447,20.6429276 38.6181459,17.3115853 46.6119703,22.5264382 C47.8072667,23.306202 48.6493105,24.5327399 49.5099461,25.6660803 C49.8304891,26.088192 49.6594725,26.8548311 50.1114411,27.1347665 C51.0779128,27.7333693 52.4725055,27.4118543 53.3964136,28.0732384 C58.580443,31.7842508 62.5272645,53.6190616 72.4722368,51.992667 C72.479401,51.9914954 73.4789091,51.4818165 73.1929849,50.6704326 C71.696205,46.4229326 65.514354,32.862939 62.0648412,28.2279152 C61.217988,27.0900198 60.6106438,25.7908624 59.7841103,24.6383718 C58.9368529,23.4569846 58.0392813,22.3053544 57.0511331,21.2369689 C56.1463128,20.2586776 54.8932378,19.5981918 54.1201576,18.5145081 C52.69498,16.5167315 46.363154,8.78769369 45.7349449,8.95436119 C44.5135932,9.27839286 44.7726312,13.572986 43.5099963,13.5083332 C40.8245877,13.3708276 38.2148309,12.563878 35.5480628,12.2218384 C34.7222448,12.115919 33.8830767,12.1851523 33.0505837,12.1668092" id="Path-48" fill="#2658CF"></path>
            </g>
            <path d="M0,53.6359918 C5.70074081,53.6359918 9.96066587,55.1561392 12.6436199,54.9868403 C15.326574,54.8175414 13.9670684,36.2488108 17.2472419,32.5154813 C17.7387274,31.9560969 24.0656446,29.1066813 27.8665439,31 C32.2607998,33.1888838 46.2833885,15.6076548 42.2939442,7.85847716 C39.909511,3.22690564 38.6373702,18.5930647 30.988314,23.9726682 C25.8395768,27.5937901 13.2571712,21.5663499 12.6436199,21.1972192 C11.9766703,20.7959624 5.57437872,20.0155218 4.65093437,21.1972192 C2.85320764,23.4977032 2.32218858,26.2859819 2.32218858,29.1952106 C2.32218858,31.2141263 0.961553234,34.3683506 0.554482622,36.0156964 C0.212000491,37.4016636 0.184827541,38.8483381 0,40.2646589 L0,53.6359918 Z" id="Path-50" fill="#6EA9FF" transform="translate(21.500000, 31.000000) scale(-1, 1) translate(-21.500000, -31.000000) "></path>
            <path d="M58.7190455,20.3944694 C53.1276068,18.5173061 49.8445592,15.4535767 46.9533322,10.1930092 C43.179368,3.32630749 45.3732653,3.37264285 41.3157323,0.300108481 C41.1262384,0.156615749 40.8587362,-0.0879312143 40.6533407,0.0321661991 C38.0996309,1.52535346 37.1982245,4.33266871 38.7970578,6.85519521 C45.2296537,17.0040917 49.1572098,21.0364326 59,27" id="Path-79" stroke="#CFDFFF" fill="#6EA9FF" transform="translate(48.500000, 13.500000) scale(-1, 1) translate(-48.500000, -13.500000) "></path>
        </g>
        <path d="M104.724646,58.7676478 C106.729285,57.4051955 108.733925,56.0427431 110.738564,54.6802908" id="Path-182" stroke="#CFDFFF" transform="translate(107.731605, 56.723969) rotate(23.000000) translate(-107.731605, -56.723969) "></path>
        <path d="M99.9758379,89.2247347 C102.878523,86.5846995 103.742617,89.3730147 105.147652,86.3981921" id="Path-183" stroke="#CFDFFF"></path>
        <g id="Group-33" transform="translate(139.222183, 125.095104) scale(-1, 1) rotate(77.000000) translate(-139.222183, -125.095104) translate(131.722183, 121.595104)">
            <path d="M0.0800897401,0.49448587 C0.365177012,1.75067497 4.25809932,8.06461346 5.97054648,2.79201709 C6.32976491,1.6859895 4.51840937,0.96766216 3.79234082,0.0554846977" id="Path-89" fill="#3177DC"></path>
            <path d="M2.03192213,3.56757114 L3.00221405,6.93400056 L14.3552971,2.65008346 L14.3552971,1.818729 L6.50206319,1.818729 C6.17545664,2.74647363 5.70779066,3.32942101 5.09906525,3.56757114 C4.49033985,3.80572126 3.46795881,3.80572126 2.03192213,3.56757114 Z" id="Line-5" fill="#123DA2"></path>
        </g>
        <g id="Group-93" transform="translate(82.500000, 121.500000) rotate(63.000000) translate(-82.500000, -121.500000) translate(77.000000, 113.000000)">
            <g id="Group-33" transform="translate(5.222183, 8.095104) scale(-1, 1) rotate(77.000000) translate(-5.222183, -8.095104) translate(-2.277817, 4.595104)">
                <path d="M0.0800897401,0.49448587 C0.365177012,1.75067497 4.25809932,8.06461346 5.97054648,2.79201709 C6.32976491,1.6859895 4.51840937,0.96766216 3.79234082,0.0554846977" id="Path-89" fill="#3177DC"></path>
                <path d="M2.03192213,3.56757114 L3.00221405,6.93400056 L14.3552971,2.65008346 L14.3552971,1.818729 L6.50206319,1.818729 C6.17545664,2.74647363 5.70779066,3.32942101 5.09906525,3.56757114 C4.49033985,3.80572126 3.46795881,3.80572126 2.03192213,3.56757114 Z" id="Line-5" fill="#123DA2"></path>
            </g>
        </g>
        <g id="Group-27" transform="translate(102.000000, 27.000000)" fill="#3177DC">
            <g id="Group-24" transform="translate(10.077382, 10.906308) scale(-1, 1) rotate(-25.000000) translate(-10.077382, -10.906308) translate(3.577382, 1.906308)">
                <path d="M1.75360409,9.53658389 C3.91689951,5.5811976 1.75360409,5.27143174 2.70647168,2.4973264 C3.76009919,-0.570123588 10.1477281,-0.325723786 11.1004118,2.47717401 C11.4679701,3.55857007 11.1140386,4.87075631 11.7056227,5.84869649 C11.8922021,6.15712847 12.1438408,6.7848761 12.1258692,7.16397905 C12.1098177,7.50257871 11.6606443,7.04605267 11.3448259,7.29020871 C10.7913262,7.71811381 11.561539,9.42417383 11.0213989,9.86868424 C10.2141588,10.5330057 8.90157993,10.2062245 8.00587933,10.7465555 C3.93809968,13.2004416 3.61502414,20.8483078 0.00447462291,15.0566661 L1.75360409,9.53658389 Z" id="Path-55"></path>
            </g>
        </g>
        <path d="M113.727899,23.5097987 C114.649775,23.448564 114.085411,25.8293787 114.920917,27.4393726 C115.772602,29.0805404 117.743256,30.9702267 118.537263,32.5400579 C119.177315,33.8055051 118.776399,34.8182126 118.537263,35.6711785 C117.715923,38.6007764 114.081627,38.0925317 111.960161,35.6711785 C111.631728,35.2963183 112.637191,32.8882519 112.32373,32.5400579 C111.293863,31.3960761 109.65367,31.241684 109.573891,30.8375766 C109.150618,27.4522774 112.625066,23.5830534 113.727899,23.5097987 Z" id="Path-184" stroke="#2850AE" fill="#153D9A"></path>
        <path d="M78,33.41457 C78.3139734,32.0904953 79.1027786,30.9229024 79.3932631,29.9776879 C80.5831536,26.1058745 81.0356283,26.9720504 80.7867044,27.8306339 C80.4133455,29.118416 80.0371171,30.0242956 80.7867044,29.5080669 C81.8599677,28.7689279 82.0022758,27.8306339 82.345165,26.9784109 C82.4344488,26.7565034 82.5845972,25.7979275 83.0145809,25.7979275 C83.4445646,25.7979275 82.5105423,28.149606 82.7922788,28.2274036 C82.8956358,28.2559442 83.0437465,28.0497733 83.2103105,27.6797133 C83.492797,27.0521047 83.8184828,26.1125981 83.997181,26.2060134 C84.3596623,26.3955021 83.8089012,28.4887846 83.997181,28.6058814 C84.2072011,28.7364992 84.5840547,27.7491675 84.8184718,27.8306339 C85.0749392,27.9197634 84.6118472,28.7616978 84.8184718,28.9442815 C85.0144227,29.1174334 85.3281167,28.5492597 85.5576125,28.6058814 C86.019016,28.7197199 84.2478089,31.4737532 83.997181,31.6256638 C81.9558929,32.8629291 82.1668524,33.0114038 80.4125786,35.1450777" id="Path-78" fill="#3177DC" transform="translate(81.816964, 30.471503) scale(-1, 1) translate(-81.816964, -30.471503) "></path>
        <path d="M50.7034719,199.037075 C50.8887164,201.322062 49.6093739,199.796908 47.8176719,200.124007 C46.9303706,200.285995 46.0088872,203.23154 44.8970371,202.726347 C44.2663704,202.439791 43.9854335,199.334742 43.2936601,199.037075 C42.7507455,198.803461 40.7409201,201.979451 40.2231011,201.647599 C39.7454431,201.341485 39.8370485,197.968884 39.3855662,197.647833 C38.4702221,196.996928 35.9020868,199.993143 35.3336456,199.037075 C34.9751934,198.434189 37.3597171,195.372898 37.1352662,194.700738 C36.6204165,193.158923 33.7236041,193.824794 34.4895914,191.737919 C34.6873736,191.199076 35.7549193,190.681919 36.1617882,189.484253 C36.4330341,188.685808 39.4903659,188.949399 45.3337836,190.275025 C48.3889457,185.642162 57.3058894,187.838585 57.95591,188.719495 C58.6059307,189.600406 56.4504509,191.112748 56.7552131,191.737919 C57.0599754,192.363091 59.0471973,190.567597 59.4273485,191.737919 C59.8074998,192.908241 58.9087635,194.252005 57.95591,195.434348 C57.0030565,196.616691 56.7933094,196.860068 55.0502312,197.169242 C53.8881791,197.375357 52.621906,197.193457 51.2514119,196.62354 L50.7034719,199.037075 Z" id="Path-185" fill="#153D9A"></path>
        <path d="M38,243.195423 C39.3135799,243.167197 40.6352169,241.607167 41.9487968,241.578941 C43.080944,241.554613 43.6916462,243.165936 44.8235103,243.195423 C45.4372803,243.211413 46.0547187,241.575164 46.6762121,241.578941 C47.3325093,241.582929 48.0836457,243.170259 48.7468056,243.195423 C49.3703612,243.219084 50.6382978,240.996458 51.2643883,241.000009 C51.7928699,241.003007 53.0645634,243.160065 53.5815107,243.195423 C54.1694665,243.235637 55.83725,240.994739 56.3904457,241.000009 C57.190103,241.007627 58.3298879,243.06488 58.9993354,243.195423 C61.3395935,243.651774 62.7044942,242.664573 65.6618169,242.601026" id="Path-166" stroke="#CFDFFF"></path>
        <path d="M44.4669988,253.479603 C68.2928858,253.240994 76.8755053,257.474551 92.6698822,242.158055 C96.5659736,238.379846 93.2579091,237.967796 90.7647826,238.253397 C77.0333437,239.826403 77.1637946,250.22544 84.5753209,255.659759 C85.9695504,256.682043 87.7155295,257.245129 89.426167,257.49545 C91.4638673,257.79363 93.8748852,258.397282 95.6003676,257.273074 C100.462215,254.105421 103.356,248.454947 108.201667,245.262597 C113.274903,241.920323 119.133359,239.867817 124.903839,237.967796 C126.240359,237.527726 127.90283,237.648587 129.104998,238.379846 C133.789133,241.229123 137.413195,245.624648 142.118347,248.439083 C144.390225,249.798031 147.108768,250.324577 149.72709,250.715166 C152.142911,251.075547 154.782804,251.564443 157.054593,250.667202 C162.2239,248.625592 167.032441,245.603527 171.393476,242.158055 C174.00698,240.093235 174.780804,236.04222 177.667964,234.38144 C179.761235,233.177328 182.734895,233.3378 184.912621,234.38144 C191.329636,237.456692 192.983438,242.716178 199.428559,245.732081" id="Path-187" stroke="#8FB1F6" stroke-width="2"></path>
        <path d="M134.085669,149.575011 C144.557647,149.237296 152.537885,152.497931 159.221531,143.724113 C159.744912,143.037056 158.8082,141.854981 158.073209,141.40137 C157.195633,140.859761 155.696895,140.360809 154.992802,141.11429 C147.189317,149.465132 165.678825,149.344207 169.242437,147.678811" id="Path-188" stroke="#8FB1F6" stroke-width="2" stroke-linecap="round" stroke-dasharray="4"></path>
        <g id="Group-90" transform="translate(99.500000, 134.500000) rotate(26.000000) translate(-99.500000, -134.500000) translate(89.000000, 126.000000)" fill="#3F6ACD">
            <path d="M5.12614756,12.9072455 C6.43215622,14.0830279 7.73816488,15.2588102 9.04417354,16.4345925 L20.4940059,6.86468658 L15.3641837,4.6567454 L5.12614756,12.9072455 Z" id="Path-186"></path>
            <path d="M0.12614756,9.90724552 C1.43215622,11.0830279 3.45738462,11.3114188 4.76339328,12.4872011 L14.5104357,4.69122872 L12.0336212,0.621752481 L0.12614756,9.90724552 Z" id="Path-186"></path>
        </g>
        <path d="M54.0856694,139.575011 C64.5576466,139.237296 72.537885,142.497931 79.2215311,133.724113 C79.744912,133.037056 78.8082003,131.854981 78.0732088,131.40137 C77.1956327,130.859761 75.6968951,130.360809 74.9928016,131.11429 C67.1893173,139.465132 85.6788247,139.344207 89.2424374,137.678811" id="Path-188" stroke="#8FB1F6" stroke-width="2" stroke-linecap="round" stroke-dasharray="4"></path>
        <g id="Group-90" transform="translate(49.500000, 154.500000) rotate(26.000000) translate(-49.500000, -154.500000) translate(39.000000, 146.000000)" fill="#3F6ACD">
            <path d="M5.12614756,12.9072455 C6.43215622,14.0830279 7.73816488,15.2588102 9.04417354,16.4345925 L20.4940059,6.86468658 L15.3641837,4.6567454 L5.12614756,12.9072455 Z" id="Path-186"></path>
            <path d="M0.12614756,9.90724552 C1.43215622,11.0830279 3.45738462,11.3114188 4.76339328,12.4872011 L14.5104357,4.69122872 L12.0336212,0.621752481 L0.12614756,9.90724552 Z" id="Path-186"></path>
        </g>
        <path d="M4.08566939,159.575011 C14.5576466,159.237296 22.537885,162.497931 29.2215311,153.724113 C29.744912,153.037056 28.8082003,151.854981 28.0732088,151.40137 C27.1956327,150.859761 25.6968951,150.360809 24.9928016,151.11429 C17.1893173,159.465132 35.6788247,159.344207 39.2424374,157.678811" id="Path-188" stroke="#8FB1F6" stroke-width="2" stroke-linecap="round" stroke-dasharray="4"></path>
        <path d="M84.0856694,179.575011 C94.5576466,179.237296 102.537885,182.497931 109.221531,173.724113 C109.744912,173.037056 108.8082,171.854981 108.073209,171.40137 C107.195633,170.859761 105.696895,170.360809 104.992802,171.11429 C97.1893173,179.465132 115.678825,179.344207 119.242437,177.678811" id="Path-188" stroke="#8FB1F6" stroke-width="2" stroke-linecap="round" stroke-dasharray="4"></path>
        <path d="M135.085669,198.575011 C145.557647,198.237296 153.537885,201.497931 160.221531,192.724113 C160.744912,192.037056 159.8082,190.854981 159.073209,190.40137 C158.195633,189.859761 156.696895,189.360809 155.992802,190.11429 C148.189317,198.465132 166.678825,198.344207 170.242437,196.678811" id="Path-188" stroke="#8FB1F6" stroke-width="2" stroke-linecap="round" stroke-dasharray="4"></path>
        <g id="Group-90" transform="translate(139.500000, 224.500000) rotate(26.000000) translate(-139.500000, -224.500000) translate(129.000000, 216.000000)" fill="#3F6ACD">
            <path d="M5.12614756,12.9072455 C6.43215622,14.0830279 7.73816488,15.2588102 9.04417354,16.4345925 L20.4940059,6.86468658 L15.3641837,4.6567454 L5.12614756,12.9072455 Z" id="Path-186"></path>
            <path d="M0.12614756,9.90724552 C1.43215622,11.0830279 3.45738462,11.3114188 4.76339328,12.4872011 L14.5104357,4.69122872 L12.0336212,0.621752481 L0.12614756,9.90724552 Z" id="Path-186"></path>
        </g>
        <path d="M95.0856694,228.575011 C105.557647,228.237296 113.537885,231.497931 120.221531,222.724113 C120.744912,222.037056 119.8082,220.854981 119.073209,220.40137 C118.195633,219.859761 116.696895,219.360809 115.992802,220.11429 C108.189317,228.465132 126.678825,228.344207 130.242437,226.678811" id="Path-188" stroke="#8FB1F6" stroke-width="2" stroke-linecap="round" stroke-dasharray="4"></path>
        <g id="Group-33" transform="translate(77.801664, 323.690911) scale(1, -1) rotate(189.000000) translate(-77.801664, -323.690911) translate(67.801664, 318.690911)">
            <path d="M0.107353605,0.662816993 C0.489489273,2.34663352 5.70762636,10.8099405 8.0030187,3.74246562 C8.48452099,2.25992805 6.05655023,1.29707027 5.083316,0.0743726013" id="Path-89" fill="#3177DC"></path>
            <path d="M2.72362185,4.78203102 L4.02421708,9.29444839 L19.2420763,3.55221545 L19.2420763,2.43785426 L8.71547244,2.43785426 C8.27768365,3.68141843 7.65081647,4.46281068 6.83487093,4.78203102 C6.01892538,5.10125137 4.64850902,5.10125137 2.72362185,4.78203102 Z" id="Line-5" fill="#123DA2"></path>
        </g>
        <path d="M89.0314154,298.317482 C96.1661879,306.337511 94.3657893,302.421723 103.691918,308.551462 C105.08643,309.468027 118.111613,311.44926 119.542841,314.187361 C122.262224,319.389849 119.951792,325.214914 120.661745,330.031947 C121.182052,333.562235 117.740094,340.02292 121.503922,339.402758 C121.51228,339.401381 126.268148,343.698608 125.93457,342.744876 C124.188326,337.752201 136.352851,316.875844 132.32842,311.427658 C131.340424,310.090132 126.749795,303.86097 125.785505,302.506288 C124.797038,301.11764 119.144631,299.738301 117.991791,298.48248 C116.936167,297.332558 102.494372,290.771879 101.761462,290.967787 C100.336551,291.348666 97.5026938,293.486488 96.0296196,293.410493 C92.896643,293.248864 93.8952552,296.841085 90.7840257,296.439038 C89.8205714,296.314536 88.841542,296.395916 87.8703001,296.374355" id="Path-48" fill="#2658CF" transform="translate(110.510041, 316.923253) scale(-1, 1) rotate(-60.000000) translate(-110.510041, -316.923253) "></path>
        <path d="M169.314318,325.394096 C185.530261,314.753467 190.565061,316.145694 196.765556,316.145694" id="Path-189" stroke="#8FB1F6" stroke-width="2" stroke-linecap="round"></path>
        <path d="M102.185234,307.133401 C103.689799,305.592759 110.601479,304.091716 114.795085,304.401734" id="Path-192" stroke="#CFDFFF"></path>
        <path d="M15.9936997,304.496525 C13.8291566,303.032361 11.6646135,301.568198 9.50007044,300.104034" id="Path-175" stroke="#8FB1F6" stroke-linecap="round"></path>
        <path d="M17.8893014,325.865212 C17.0949737,311.466604 16.300646,297.067997 15.5063184,282.669389" id="Path-168" stroke="#8FB1F6"></path>
        <path d="M15.4712119,287.554504 C19.3696364,284.476368 24.2744057,285.398858 23.8769486,286.522097 C23.3809087,287.923936 16.8846237,290.207838 15.9726958,291.999494" id="Path-169" stroke="#8FB1F6"></path>
        <path d="M15.4712119,298.554504 C19.3696364,295.476368 24.2744057,296.398858 23.8769486,297.522097 C23.3809087,298.923936 16.8846237,301.207838 15.9726958,302.999494" id="Path-169" stroke="#8FB1F6"></path>
        <path d="M15.3510016,286.135149 C13.7613268,285.243066 12.171652,284.350983 10.5819772,283.4589" id="Path-173" stroke="#8FB1F6"></path>
        <path d="M16.40637,300.223419 C17.8841036,299.493533 19.3618371,298.763647 20.8395707,298.033761" id="Path-174" stroke="#8FB1F6" stroke-linecap="round"></path>
        <path d="M16.8807889,304.106327 C15.5283735,303.459658 12.6865554,299.684559 10.6947368,298.481371 C8.46280351,297.133139 7.12613155,298.388414 6.73671653,298.481371 C5.32198496,298.819082 7.58246922,301.526097 10.6947368,303.403683 C12.9462917,304.762014 15.9441813,305.242009 16.8807889,306.20241" id="Path-170" stroke="#8FB1F6"></path>
        <path d="M17.2244066,312.429017 C19.2941755,308.162943 24.1050667,307.948142 24.4086928,308.884453 C24.783677,310.040816 20.2004001,313.231734 18.0484288,316.055221" id="Path-171" stroke="#8FB1F6"></path>
        <path d="M14.9882323,283.013007 C1.97897127,274.15545 9.21753465,286.614876 15.729723,288.751315" id="Path-172" stroke="#8FB1F6"></path>
        <g id="Group-88" transform="translate(25.000000, 288.000000)" stroke="#8FB1F6">
            <path d="M8,21 C6.33333333,19.6666667 4.66666667,18.3333333 3,17" id="Path-175" stroke-linecap="round"></path>
            <path d="M10,38 C9.33333333,26 8.66666667,14 8,2" id="Path-168"></path>
            <path d="M8,5.60011968 C11.2377306,3.24571695 15.3112535,3.95131105 14.9811563,4.81045251 C14.5691838,5.88269017 9.1738708,7.62959913 8.41649384,9" id="Path-169"></path>
            <path d="M9,15.6001197 C12.2377306,13.245717 16.3112535,13.9513111 15.9811563,14.8104525 C15.5691838,15.8826902 10.1738708,17.6295991 9.41649384,19" id="Path-169"></path>
            <path d="M8,5 C6.66666667,4.33333333 5.33333333,3.66666667 4,3" id="Path-173"></path>
            <path d="M9,17 C10.3333333,16.3333333 11.6666667,15.6666667 13,15" id="Path-174" stroke-linecap="round"></path>
            <path d="M9,20.2410035 C7.84903808,19.6983303 5.43053225,16.5303323 3.73541154,15.5206385 C1.83594315,14.3892255 0.698379529,15.4426303 0.366971097,15.5206385 C-0.837024504,15.8040397 1.08674193,18.0757191 3.73541154,19.6513571 C5.65157867,20.7912448 8.20290781,21.1940479 9,22" id="Path-170"></path>
            <path d="M9,26.1463805 C10.7233777,22.7892195 14.7291305,22.6201832 14.9819425,23.3570075 C15.2941703,24.2669999 11.4779389,26.778074 9.68611603,29" id="Path-171"></path>
            <path d="M7.34938739,2.47689959 C-4.06544124,-4.50488239 2.28595414,5.31599695 8,7" id="Path-172"></path>
        </g>
    </g>
</svg>