<?xml version="1.0" encoding="UTF-8"?>
<svg width="199px" height="327px" viewBox="0 0 199 327" version="1.1" xmlns="http://www.w3.org/2000/svg" xmlns:xlink="http://www.w3.org/1999/xlink">
    <!-- Generator: Sketch 49.1 (51147) - http://www.bohemiancoding.com/sketch -->
    <title>Rectangle 18</title>
    <desc>Created with Sketch.</desc>
    <defs></defs>
    <g id="Page-1" stroke="none" stroke-width="1" fill="none" fill-rule="evenodd">
        <rect id="Rectangle-18" fill="#FABCCA" x="0" y="0" width="199" height="327" rx="3"></rect>
        <path d="M60.3447266,161.467773 C62.2295016,161.907229 63.5527306,162.43945 64.3144531,163.064453 C65.4082086,163.953129 65.9550781,165.105462 65.9550781,166.521484 C65.9550781,168.015632 65.3544982,169.250972 64.1533203,170.227539 C62.6787036,171.409186 60.5351703,172 57.7226562,172 L47.6298828,172 L47.6298828,171.458008 C48.5478562,171.458008 49.1704085,171.372559 49.4975586,171.20166 C49.8247087,171.030761 50.0541986,170.808595 50.1860352,170.535156 C50.3178718,170.261717 50.3837891,169.587896 50.3837891,168.513672 L50.3837891,155.623047 C50.3837891,154.548823 50.3178718,153.87256 50.1860352,153.594238 C50.0541986,153.315917 49.8222673,153.093751 49.4902344,152.927734 C49.1582015,152.761718 48.5380905,152.678711 47.6298828,152.678711 L47.6298828,152.136719 L57.1513672,152.136719 C59.4267692,152.136719 61.0380812,152.339353 61.9853516,152.744629 C62.9326219,153.149904 63.6796848,153.755367 64.2265625,154.561035 C64.7734402,155.366703 65.046875,156.223628 65.046875,157.131836 C65.046875,158.088872 64.7001988,158.940914 64.0068359,159.687988 C63.3134731,160.435062 62.0927822,161.028318 60.3447266,161.467773 Z M55.0126953,161.072266 C56.399421,161.072266 57.42236,160.916017 58.081543,160.603516 C58.740726,160.291014 59.246092,159.851565 59.5976562,159.285156 C59.9492205,158.718747 60.125,157.996098 60.125,157.117188 C60.125,156.238277 59.9516619,155.518069 59.6049805,154.956543 C59.258299,154.395017 58.7626985,153.967775 58.1181641,153.674805 C57.4736296,153.381834 56.4384837,153.240234 55.0126953,153.25 L55.0126953,161.072266 Z M55.0126953,162.214844 L55.0126953,168.586914 L54.9980469,169.319336 C54.9980469,169.846682 55.1323229,170.244628 55.4008789,170.513184 C55.6694349,170.78174 56.0673802,170.916016 56.5947266,170.916016 C57.3759805,170.916016 58.0961881,170.742678 58.7553711,170.395996 C59.4145541,170.049315 59.9199201,169.54639 60.2714844,168.887207 C60.6230486,168.228024 60.7988281,167.493168 60.7988281,166.682617 C60.7988281,165.754878 60.5839865,164.922367 60.1542969,164.185059 C59.7246072,163.44775 59.1337928,162.932619 58.3818359,162.639648 C57.6298791,162.346678 56.5068434,162.205078 55.0126953,162.214844 Z M85.9501953,165.027344 L85.203125,172 L67.5664062,172 L67.5664062,171.458008 L68.2255859,171.458008 C68.8017607,171.458008 69.2656232,171.35547 69.6171875,171.150391 C69.871095,171.013671 70.0664056,170.779299 70.203125,170.447266 C70.3105474,170.212889 70.3642578,169.597661 70.3642578,168.601562 L70.3642578,155.535156 C70.3642578,154.519526 70.3105474,153.884767 70.203125,153.630859 C70.0957026,153.376952 69.8784196,153.154786 69.5512695,152.964355 C69.2241195,152.773925 68.7822293,152.678711 68.2255859,152.678711 L67.5664062,152.678711 L67.5664062,152.136719 L78.1572266,152.136719 L78.1572266,152.678711 L77.2929688,152.678711 C76.716794,152.678711 76.2529314,152.781249 75.9013672,152.986328 C75.6474597,153.123048 75.4472664,153.35742 75.3007812,153.689453 C75.1933588,153.923829 75.1396484,154.539058 75.1396484,155.535156 L75.1396484,168.191406 C75.1396484,169.207036 75.1982416,169.854003 75.3154297,170.132324 C75.4326178,170.410646 75.6621077,170.618163 76.0039062,170.754883 C76.2480481,170.842774 76.8388625,170.886719 77.7763672,170.886719 L79.4316406,170.886719 C80.4863334,170.886719 81.3652309,170.701174 82.0683594,170.330078 C82.7714879,169.958983 83.379392,169.373051 83.8920898,168.572266 C84.4047877,167.77148 84.8906227,166.589852 85.3496094,165.027344 L85.9501953,165.027344 Z M98.6064453,151.858398 C101.770524,151.74121 104.341299,152.664053 106.318848,154.626953 C108.296397,156.589854 109.285156,159.045884 109.285156,161.995117 C109.285156,164.514661 108.547859,166.731436 107.073242,168.645508 C105.120107,171.184583 102.361346,172.454102 98.796875,172.454102 C95.2226384,172.454102 92.4589941,171.243176 90.5058594,168.821289 C88.9628829,166.907217 88.1914062,164.636732 88.1914062,162.009766 C88.1914062,159.060532 89.1948142,156.602061 91.2016602,154.634277 C93.2085061,152.666494 95.6767432,151.74121 98.6064453,151.858398 Z M98.7822266,152.795898 C96.9658112,152.795898 95.5839891,153.723624 94.6367188,155.579102 C93.8652305,157.102547 93.4794922,159.290025 93.4794922,162.141602 C93.4794922,165.53029 94.0751894,168.035148 95.2666016,169.65625 C96.0966838,170.789068 97.2587816,171.355469 98.7529297,171.355469 C99.7587941,171.355469 100.598629,171.111331 101.272461,170.623047 C102.13184,169.998044 102.800779,168.999519 103.279297,167.627441 C103.757815,166.255364 103.99707,164.465831 103.99707,162.258789 C103.99707,159.631823 103.752932,157.66651 103.264648,156.362793 C102.776365,155.059076 102.153812,154.138675 101.396973,153.601562 C100.640133,153.06445 99.7685596,152.795898 98.7822266,152.795898 Z M131.052734,151.682617 L131.052734,158.68457 L130.510742,158.68457 C129.856442,156.770498 128.875007,155.315435 127.566406,154.319336 C126.257806,153.323237 124.827156,152.825195 123.274414,152.825195 C121.790032,152.825195 120.554692,153.242672 119.568359,154.077637 C118.582026,154.912602 117.883791,156.077141 117.473633,157.571289 C117.063475,159.065437 116.858398,160.598625 116.858398,162.170898 C116.858398,164.075205 117.083006,165.74511 117.532227,167.180664 C117.981448,168.616218 118.706538,169.670895 119.70752,170.344727 C120.708501,171.018558 121.897454,171.355469 123.274414,171.355469 C123.752932,171.355469 124.24365,171.3042 124.746582,171.20166 C125.249514,171.099121 125.764646,170.950196 126.291992,170.754883 L126.291992,166.624023 C126.291992,165.84277 126.238282,165.337403 126.130859,165.10791 C126.023437,164.878417 125.801271,164.670899 125.464355,164.485352 C125.12744,164.299804 124.719729,164.207031 124.241211,164.207031 L123.728516,164.207031 L123.728516,163.665039 L133.381836,163.665039 L133.381836,164.207031 C132.64941,164.25586 132.139162,164.355956 131.851074,164.507324 C131.562987,164.658692 131.340821,164.910154 131.18457,165.261719 C131.096679,165.447267 131.052734,165.901364 131.052734,166.624023 L131.052734,170.754883 C129.783197,171.321292 128.462409,171.748534 127.090332,172.036621 C125.718255,172.324708 124.294929,172.46875 122.820312,172.46875 C120.935537,172.46875 119.370612,172.212405 118.125488,171.699707 C116.880365,171.187009 115.781743,170.513188 114.82959,169.678223 C113.877437,168.843258 113.132815,167.903326 112.595703,166.858398 C111.912106,165.510735 111.570312,164.001961 111.570312,162.332031 C111.570312,159.343735 112.620107,156.819346 114.719727,154.758789 C116.819346,152.698232 119.460922,151.667969 122.644531,151.667969 C123.630864,151.667969 124.519527,151.746093 125.310547,151.902344 C125.740237,151.980469 126.43603,152.202635 127.397949,152.568848 C128.359868,152.93506 128.92871,153.118164 129.104492,153.118164 C129.377931,153.118164 129.631835,153.018067 129.866211,152.817871 C130.100587,152.617675 130.315429,152.239261 130.510742,151.682617 L131.052734,151.682617 Z M147.78125,151.682617 L147.942383,158.303711 L147.341797,158.303711 C147.058592,156.643546 146.362799,155.308111 145.254395,154.297363 C144.145991,153.286616 142.947272,152.78125 141.658203,152.78125 C140.662104,152.78125 139.873538,153.047361 139.29248,153.57959 C138.711423,154.111819 138.420898,154.724606 138.420898,155.417969 C138.420898,155.857424 138.523436,156.248045 138.728516,156.589844 C139.01172,157.04883 139.465817,157.502927 140.09082,157.952148 C140.549807,158.274416 141.609367,158.845699 143.269531,159.666016 C145.593762,160.808599 147.161129,161.88769 147.97168,162.90332 C148.772465,163.91895 149.172852,165.081048 149.172852,166.389648 C149.172852,168.049813 148.525885,169.478021 147.231934,170.674316 C145.937982,171.870611 144.294932,172.46875 142.302734,172.46875 C141.677731,172.46875 141.086917,172.405274 140.530273,172.27832 C139.97363,172.151367 139.275395,171.912111 138.435547,171.560547 C137.966795,171.365233 137.581056,171.267578 137.27832,171.267578 C137.024413,171.267578 136.755861,171.365233 136.472656,171.560547 C136.189452,171.75586 135.959962,172.053709 135.78418,172.454102 L135.242188,172.454102 L135.242188,164.954102 L135.78418,164.954102 C136.213869,167.063487 137.041498,168.672358 138.26709,169.780762 C139.492682,170.889166 140.813469,171.443359 142.229492,171.443359 C143.323248,171.443359 144.194821,171.145511 144.844238,170.549805 C145.493656,169.954099 145.818359,169.260746 145.818359,168.469727 C145.818359,168.000974 145.693849,167.546877 145.444824,167.107422 C145.1958,166.667967 144.817385,166.25049 144.30957,165.85498 C143.801755,165.459471 142.903327,164.944339 141.614258,164.30957 C139.807608,163.420894 138.508793,162.664066 137.717773,162.039062 C136.926754,161.414059 136.31885,160.715824 135.894043,159.944336 C135.469236,159.172848 135.256836,158.323247 135.256836,157.395508 C135.256836,155.813469 135.837885,154.465826 137,153.352539 C138.162115,152.239252 139.626944,151.682617 141.394531,151.682617 C142.039066,151.682617 142.664059,151.760741 143.269531,151.916992 C143.728518,152.03418 144.287594,152.251463 144.946777,152.568848 C145.60596,152.886232 146.067381,153.044922 146.331055,153.044922 C146.584962,153.044922 146.785156,152.966798 146.931641,152.810547 C147.078126,152.654296 147.214843,152.278323 147.341797,151.682617 L147.78125,151.682617 Z" id="BLOGS" fill="#E28A9E"></path>
    </g>
</svg>