<?xml version="1.0" encoding="UTF-8"?>
<svg width="200px" height="327px" viewBox="0 0 200 327" version="1.1" xmlns="http://www.w3.org/2000/svg" xmlns:xlink="http://www.w3.org/1999/xlink">
    <!-- Generator: Sketch 49.1 (51147) - http://www.bohemiancoding.com/sketch -->
    <title>Group 108</title>
    <desc>Created with Sketch.</desc>
    <defs></defs>
    <g id="Page-1" stroke="none" stroke-width="1" fill="none" fill-rule="evenodd">
        <g id="Group-108">
            <rect id="Rectangle-18" fill="#C5D5F6" x="1" y="0" width="199" height="327" rx="3"></rect>
            <g id="Group-61" transform="translate(160.000000, 26.000000)">
                <g id="Group-56">
                    <path d="M13.5090034,17.9302105 C16.9175429,17.9302105 22.4695833,16.409757 24.8464088,14.8064276 C27.6721221,12.900293 29,12.1195307 29,9 C29,3.25650173 21.002574,0 13.5417574,0 C6.0809408,0 0,1.78718867 0,7.53068695 C0,9.78658472 0.933063157,11.8747164 2.51830308,13.5788494 C2.98838566,14.0841882 0.992719555,17.4980434 1.57017522,17.9302105 C2.2542336,18.442159 5.53158835,15.9565274 6.34386902,16.3485089 C8.42075826,17.3507512 10.8769774,17.9302105 13.5090034,17.9302105 Z" id="Oval-7" fill="#3177DC"></path>
                    <path d="M4.14285714,11.5120955 C4.38674201,9.57528773 5.49240681,3.04460488 9.45502132,5.35223681 C12.2761957,6.9951501 9.26165359,12.5334615 9.07572921,12.1424563 C7.69120558,9.23075662 12.7951748,4.08489444 15.0942688,6.89745449 C15.8912139,7.87238465 16.4881102,11.6262369 15.8442092,10.5512122 L15.0769811,11.7839177 C13.2817784,8.7867377 17.7365323,4.91541437 20.6581419,6.7336941 C21.0050167,6.94957358 21.8268216,10.687631 20.8752754,11.058169 C20.4954494,11.2060756 20.2846,7.40890416 22.5843373,6.62529873 C23.6424276,6.26476827 24.7900172,6.22529202 25.8928571,6.02528867" id="Path-44" stroke="#C5D5F6"></path>
                </g>
            </g>
            <polyline id="Line-46" stroke="#3177DC" stroke-linecap="square" points="55.5 143.5 58.6622777 146.662278 62.0211162 143.5"></polyline>
            <path d="M58.5,118.5 L58.5,145.518512" id="Line-45" stroke="#3177DC" stroke-linecap="square"></path>
            <g id="Group-114" transform="translate(114.500000, 93.500000) scale(-1, 1) translate(-114.500000, -93.500000) translate(100.000000, 74.000000)" stroke-width="2">
                <g id="Group-28" transform="translate(14.207110, 19.476688) scale(-1, 1) rotate(-19.000000) translate(-14.207110, -19.476688) translate(5.207110, 1.976688)">
                    <polyline id="Line-4" stroke="#3177DC" stroke-linecap="square" points="0.169951187 8.61962 3 31.3613861 16.0588235 34.8267327"></polyline>
                    <path d="M5.54294629,12.8262106 C9.65819184,8.58363686 13.7734374,4.34106317 17.8886829,0.098489477" id="Path-71" stroke="#084091" stroke-linecap="round"></path>
                    <path d="M7.57454812,20.1120757 C11.0377394,19.6333074 14.5009306,19.1545392 17.9641218,18.6757709" id="Path-72" stroke="#084091" stroke-linecap="round"></path>
                    <path d="M8.51983008,24.7456077 C11.0508592,25.0618523 13.5818882,25.378097 16.1129173,25.6943417" id="Path-73" stroke="#084091" stroke-linecap="round"></path>
                </g>
            </g>
            <g id="Group-113" transform="translate(155.500000, 111.000000) scale(-1, 1) translate(-155.500000, -111.000000) translate(123.000000, 54.000000)">
                <g id="Group-32" transform="translate(38.840501, 90.356344) rotate(58.000000) translate(-38.840501, -90.356344) translate(24.340501, 69.356344)">
                    <path d="M0.0555030097,32.4556277 C0.461503276,34.3213866 6.00551612,43.6991838 8.44425707,35.8680433 C8.95582946,34.2253123 6.3762305,33.1584143 5.34221721,31.8035998" id="Path-89" fill="#9CC6FF"></path>
                    <path d="M1.22986628,36.2702498 L2.61168446,41.2702498 L18.779908,34.9075483 L18.779908,33.6727764 L7.59591149,33.6727764 C7.13078253,35.0507121 6.46476713,35.9165365 5.5978653,36.2702498 C4.73096347,36.623963 3.2749638,36.623963 1.22986628,36.2702498 Z" id="Line-5" fill="#2850AE"></path>
                    <path d="M13.7352518,8.70912981 L15.11707,13.7091298 L31.2852936,7.34642832 L31.2852936,6.11165647 L20.101297,6.11165647 C19.6361681,7.48959213 18.9701527,8.35541658 18.1032508,8.70912981 C17.236349,9.06284304 15.7803493,9.06284304 13.7352518,8.70912981 Z" id="Line-5" fill="#2850AE" transform="translate(22.510273, 9.910393) rotate(-75.000000) translate(-22.510273, -9.910393) "></path>
                </g>
                <path d="M39.4402643,84.947509 C39.8724268,87.0382832 45.7736902,97.547067 48.3695811,88.7714707 C48.9141187,86.9306221 46.168293,85.7350534 45.0676489,84.2168448" id="Path-89" fill="#9CC6FF"></path>
                <path d="M22.5287138,51.2837861 C27.0496651,52.9282575 28.9292506,53.4420079 33.9852934,57.8159838 C40.9730747,63.8611042 31.030095,77.3153245 29.0045802,81.9980514 C27.9892927,84.3452641 27.2829419,86.8300679 26.347289,89.2141352 C26.0980874,89.8491072 25.8746323,90.5237886 25.4532711,91.0468776 C25.3171872,91.2158157 24.921627,91.299979 24.8265192,91.1020589 L20.8252125,85.6716776 C18.3787245,80.580513 28.4897559,71.6712459 26.0390364,64.8764745 C21.1250118,51.252037 14.036631,55.593738 13.50592,46.7137898" id="Path-49" fill="#053172"></path>
                <path d="M0.397443065,52.3147886 C9.25569554,62.1279688 3.50480773,57.0338477 15.0837614,64.5340994 C16.8151332,65.6555932 18.0348229,67.4196588 19.2814427,69.0496833 C19.7457453,69.6567846 19.4980298,70.7594018 20.1527006,71.1620183 C21.5526227,72.0229575 23.5726726,71.5605393 24.9109418,72.5117736 C32.4199428,77.8491298 32.0341006,87.1869685 46.4392674,84.8478098 C46.5039683,84.8373034 43.4181023,80.6739917 37.4670496,72.7342372 C36.2403934,71.0976615 35.360663,69.229151 34.1634396,67.5715836 C32.9361981,65.8724559 31.6360769,64.2161261 30.2047567,62.6795228 C28.894136,61.2724972 27.0790728,60.3225549 25.9592758,58.763949 C23.8949241,55.8906508 15.7925246,48.2850615 15.0837614,48.4403026 C14.1642776,48.641698 15.3578664,50.4926848 14.4479135,50.732394 C12.6788009,51.1984319 12.419502,51.6568148 10.5905912,51.563828 C6.70081085,51.366061 5.4061178,48.3221459 1.5433379,47.8302081 C0.745879914,47.7286492 0.363914969,49.2235093 0.397443065,52.3147886 Z" id="Path-48" fill="#084091"></path>
                <path d="M20.4402643,66.2168448 C21.5916734,73.3550281 21.4339281,65.0383195 25.4402643,70.2168448" id="Path-86" stroke="#C5D5F6"></path>
                <g id="Group-67" transform="translate(0.440264, 0.216845)">
                    <path d="M2.15847479,36.8973655 C3.2784255,40.867676 -1.35275958,48.6812211 0.982883602,50.9537186 C5.95394514,55.790384 10.6694992,51.9114728 12.9954219,51.7672684 C17.927561,51.4614816 17.5675115,42.6365056 18.9234017,36.8973655 C19.8298463,33.0606145 20.8356933,33.1959986 21.4824208,30.1816321 C21.7738884,28.8231154 24.1502542,26.5143506 24.7895645,25.7994367 C27.0768979,23.2416074 32.3510859,35.5012434 39.4034061,39.1092396 C46.4557262,42.7172357 50.6442099,45.5059369 52.2276106,42.9032871 C53.7780497,40.3548167 53.6826356,38.471232 52.2276106,37.7677656 C51.2119569,37.2767237 41.8444322,33.0657661 41.5327415,32.7998184 C39.4034061,30.9829798 35.8208728,25.4613961 33.9905651,24.1701678 C26.8350751,19.1221798 25.1403902,15.3041656 18.9234017,11.6292117 C18.0735414,11.1268467 16.8853982,10.7644888 15.9910143,11.1836114 C14.2747093,11.9878995 12.9478513,13.5014102 11.7711528,14.9808703 C9.48040048,17.8610277 7.4161496,20.9391594 5.66207036,24.1701678 C4.64635762,26.0411074 4.03753441,28.1191899 3.5188249,30.1816321 C3.08241722,31.9168337 3.04779211,33.7280396 2.81227571,35.5012434 L2.15847479,36.8973655 Z" id="Path-50" fill="#3177DC"></path>
                    <path d="M26,25 C19.2404729,23.1792872 22.2934772,24.7656582 17,20" id="Path-54" stroke="#C5D5F6" stroke-linecap="round"></path>
                    <path d="M17.3156169,11.1157336 C19.9609077,6.36332137 17.3156169,5.99113646 18.4807892,2.65803797 C19.7691713,-1.02751529 27.5800028,-0.733867965 28.7449502,2.63382479 C29.1944028,3.93312642 28.7616132,5.50972336 29.4850058,6.68472234 C29.7131562,7.05530457 30.0208615,7.80954583 29.9988857,8.26503952 C29.9792578,8.67186835 29.4300059,8.12335051 29.0438213,8.41670496 C28.3669985,8.93083462 29.3088193,10.9806725 28.6483328,11.5147535 C27.6612346,12.3129383 26.0562052,11.9203095 24.9609371,12.5695192 C19.9868314,15.517873 21.4150019,18.8343097 17,11.8756293 L17.3156169,11.1157336 Z" id="Path-55" fill="#9CC6FF"></path>
                    <path d="M54,45.1486253 C54.2879008,43.7320709 55.0112028,42.4829278 55.2775652,41.4716949 C56.3686461,37.3294555 56.7835468,38.2561293 56.5552938,39.1746804 C56.2129391,40.5524074 55.8679529,41.5215579 56.5552938,40.9692734 C57.5394324,40.1785093 57.669923,39.1746804 57.9843384,38.2629341 C58.066208,38.0255274 58.2038879,37 58.5981654,37 C58.9924429,37 58.1359826,39.515931 58.3943235,39.5991624 C58.4890976,39.6296964 58.6249091,39.4091255 58.7776414,39.0132188 C59.03667,38.341775 59.3353105,37.3366487 59.4991695,37.4365886 C59.83155,37.6393121 59.3265246,39.8787995 59.4991695,40.0040749 C59.6917493,40.1438156 60.0373087,39.087524 60.2522595,39.1746804 C60.4874296,39.2700351 60.0627933,40.1707742 60.2522595,40.3661104 C60.4319385,40.5513562 60.719583,39.9434984 60.9300213,40.0040749 C61.3531094,40.1258644 59.728985,43.0722526 59.4991695,43.2347733 C57.6273919,44.5584552 57.8208331,44.7173 56.2122358,47" id="Path-78" fill="#9CC6FF" transform="translate(57.500000, 42.000000) rotate(-300.000000) translate(-57.500000, -42.000000) "></path>
                </g>
            </g>
            <path d="M54.1038189,229.626292 C60.5405315,229.526989 66.9772441,229.427685 73.4139566,229.328382" id="Path-216" stroke="#979797"></path>
            <rect id="Rectangle-76" fill="#1483D9" x="78" y="171" width="120" height="6"></rect>
            <circle id="Oval-33" fill="#C5D5F6" cx="81" cy="174" r="1"></circle>
            <circle id="Oval-33" fill="#C5D5F6" cx="85" cy="174" r="1"></circle>
            <circle id="Oval-33" fill="#C5D5F6" cx="89" cy="174" r="1"></circle>
            <path d="M100.5,213.5 L136.996575,213.5" id="Line-31" stroke="#90ADE8" stroke-width="4" stroke-linecap="round"></path>
            <path d="M100.5,223.5 L160,223.5" id="Line-31" stroke="#90ADE8" stroke-width="4" stroke-linecap="round"></path>
            <rect id="Rectangle-77" fill="#1483D9" x="98" y="234" width="41" height="11" rx="5.5"></rect>
            <path d="M105.5,239.5 L130.519992,239.5" id="Line-32" stroke="#C5D5F6" stroke-linecap="round"></path>
            <polyline id="Line-33" stroke="#1483D9" stroke-linecap="square" points="78.5 176.5 78.5 277.5 197.342107 277.5"></polyline>
            <g id="Group-109" transform="translate(154.500000, 175.000000) scale(-1, 1) translate(-154.500000, -175.000000) translate(111.000000, 112.000000)">
                <path d="M0.465679685,125.732637 C12.4917877,121.639928 48.5087209,99.4560153 32.2362556,82.3718517 C22.0740962,71.7027865 17.9825374,115.480367 41.5813742,105.621546 C54.1804628,100.358059 53.9453109,68.7480525 55.3290193,64.0237503 C55.8988844,62.0780984 57.9795391,60.3457598 59.9945097,60.1217038 C64.0448212,59.6713267 67.9742832,62.2600493 72.0484404,62.1646231 C73.0330144,62.1415621 73.532823,60.7408748 73.8170854,59.7979471 C74.6878411,56.90956 83.7285002,49.2839574 84.2713936,46.3164228 C84.814287,43.3488881 72.0484404,37.7963762 78.6071796,32.3869387 C82.9796724,28.780647 85.5211104,25.6530042 86.2314934,23.0040102 L82.2616525,12.653807" id="Path-207" stroke="#91B0F0" stroke-dasharray="4"></path>
                <polygon id="Line-30" fill="#1483D9" points="81.5 8.5 77.5 11.5 81.5 0.922264629 86.0012962 11.5"></polygon>
            </g>
            <g id="Group-110" transform="translate(36.000000, 196.000000)">
                <g id="Group-53">
                    <g id="Group-57">
                        <rect id="Rectangle-56" fill="#1483D9" x="0" y="0" width="63" height="115" rx="7"></rect>
                        <rect id="Rectangle-57" fill="#C5D5F6" x="3.66990291" y="7" width="56.2718447" height="93.9125"></rect>
                    </g>
                    <ellipse id="Oval-14" fill="#2F65D4" cx="31.2683824" cy="107.834906" rx="3.9375" ry="3.92924528"></ellipse>
                </g>
            </g>
            <path d="M79.5,279.5 L91.5,264.5" id="Line-42" stroke="#1483D9" stroke-linecap="square"></path>
            <path d="M80.5,282.5 L92.5,267.5" id="Line-42" stroke="#1483D9" stroke-linecap="square"></path>
            <path d="M83.5,282.5 L92.5,272.5" id="Line-42" stroke="#1483D9" stroke-linecap="square"></path>
            <rect id="Rectangle-88" fill="#90ADE8" x="47" y="219" width="42" height="57"></rect>
            <path d="M60.5,228.5 L75.5,228.5" id="Line-43" stroke="#C5D5F6" stroke-width="2" stroke-linecap="round"></path>
            <path d="M56.5,233.5 L80,233.5" id="Line-43" stroke="#C5D5F6" stroke-width="2" stroke-linecap="round"></path>
            <g id="Group-111" transform="translate(58.000000, 262.000000)">
                <rect id="Rectangle-77" fill="#1483D9" x="0" y="0" width="22" height="6" rx="3"></rect>
                <path d="M4.26923077,3 L17.7415342,3" id="Line-32" stroke="#C5D5F6" stroke-linecap="round"></path>
            </g>
            <g id="Group-112" transform="translate(52.000000, 242.000000)">
                <rect id="Rectangle-80" fill="#5F89E0" x="1" y="1" width="31" height="11" rx="2"></rect>
                <path d="M2.3,2.29411765 L31.7,11.7058824" id="Line-34" stroke="#1483D9" stroke-linecap="square"></path>
                <path d="M2,11 L32,2" id="Line-34" stroke="#1483D9" stroke-linecap="square"></path>
                <circle id="Oval-36" fill="#1483D9" cx="31.5" cy="2.5" r="1.5"></circle>
                <circle id="Oval-36" fill="#1483D9" cx="1.5" cy="1.5" r="1.5"></circle>
                <circle id="Oval-36" fill="#1483D9" cx="1.5" cy="11.5" r="1.5"></circle>
                <circle id="Oval-36" fill="#1483D9" cx="31.5" cy="11.5" r="1.5"></circle>
            </g>
            <circle id="Oval-38" fill="#90ADE8" cx="171.5" cy="158.5" r="9.5"></circle>
            <path d="M162,158.5 C162,163.746705 166.253295,168 171.5,168 C176.746705,168 181,163.746705 181,158.5 C181,153.253295 176.746705,149 171.5,149" id="Oval-38" stroke="#1483D9"></path>
            <circle id="Oval-38" fill="#90ADE8" cx="185.5" cy="124.5" r="9.5"></circle>
            <circle id="Oval-38" fill="#3177DC" cx="19.5" cy="188.5" r="9.5"></circle>
            <path d="M176,124.5 C176,129.746705 180.253295,134 185.5,134 C190.746705,134 195,129.746705 195,124.5 C195,119.253295 190.746705,115 185.5,115" id="Oval-38" stroke="#1483D9"></path>
            <path d="M170.194734,56.7462317 C170.194734,53.851279 167.959447,51.5044563 165.202081,51.5044563 C162.444714,51.5044563 160.209427,53.851279 160.209427,56.7462317" id="Oval-8" fill="#1658B7" transform="translate(165.202081, 54.125344) rotate(20.000000) translate(-165.202081, -54.125344) "></path>
            <rect id="Rectangle-87" fill="#7997D5" x="19" y="16" width="60" height="51" rx="4"></rect>
            <path d="M41.5,21.5 L56.5,21.5" id="Line-43" stroke="#C5D5F6" stroke-width="2" stroke-linecap="round"></path>
            <path d="M37.5,26.5 L61,26.5" id="Line-43" stroke="#C5D5F6" stroke-width="2" stroke-linecap="round"></path>
            <g id="Group-111" transform="translate(38.000000, 55.000000)">
                <rect id="Rectangle-77" fill="#1483D9" x="0" y="0" width="22" height="6" rx="3"></rect>
                <path d="M4.26923077,3 L17.7415342,3" id="Line-32" stroke="#C5D5F6" stroke-linecap="round"></path>
            </g>
            <g id="Group-112" transform="translate(33.000000, 35.000000)">
                <rect id="Rectangle-80" fill="#5F89E0" x="1" y="1" width="31" height="11" rx="2"></rect>
                <path d="M2.3,2.29411765 L31.7,11.7058824" id="Line-34" stroke="#1483D9" stroke-linecap="square"></path>
                <path d="M2,11 L32,2" id="Line-34" stroke="#1483D9" stroke-linecap="square"></path>
                <circle id="Oval-36" fill="#1483D9" cx="31.5" cy="2.5" r="1.5"></circle>
                <circle id="Oval-36" fill="#1483D9" cx="1.5" cy="1.5" r="1.5"></circle>
                <circle id="Oval-36" fill="#1483D9" cx="1.5" cy="11.5" r="1.5"></circle>
                <circle id="Oval-36" fill="#1483D9" cx="31.5" cy="11.5" r="1.5"></circle>
            </g>
            <rect id="Rectangle-87" fill="#90ADE8" x="22" y="14" width="60" height="51" rx="4"></rect>
            <path d="M44.5,19.5 L59.5,19.5" id="Line-43" stroke="#C5D5F6" stroke-width="2" stroke-linecap="round"></path>
            <path d="M40.5,24.5 L64,24.5" id="Line-43" stroke="#C5D5F6" stroke-width="2" stroke-linecap="round"></path>
            <g id="Group-111" transform="translate(41.000000, 53.000000)">
                <rect id="Rectangle-77" fill="#1483D9" x="0" y="0" width="22" height="6" rx="3"></rect>
                <path d="M4.26923077,3 L17.7415342,3" id="Line-32" stroke="#C5D5F6" stroke-linecap="round"></path>
                <g id="Group-115" transform="translate(3.000000, 96.000000)">
                    <rect id="Rectangle-77" fill="#90ADE8" x="0" y="0" width="29" height="8" rx="4"></rect>
                    <path d="M5.34615385,4.5 L22.6676868,4.5" id="Line-32" stroke="#C5D5F6" stroke-linecap="round"></path>
                </g>
            </g>
            <g id="Group-112" transform="translate(36.000000, 33.000000)">
                <rect id="Rectangle-80" fill="#5F89E0" x="1" y="1" width="31" height="11" rx="2"></rect>
                <path d="M2.3,2.29411765 L31.7,11.7058824" id="Line-34" stroke="#1483D9" stroke-linecap="square"></path>
                <path d="M2,11 L32,2" id="Line-34" stroke="#1483D9" stroke-linecap="square"></path>
                <circle id="Oval-36" fill="#1483D9" cx="31.5" cy="2.5" r="1.5"></circle>
                <circle id="Oval-36" fill="#1483D9" cx="1.5" cy="1.5" r="1.5"></circle>
                <circle id="Oval-36" fill="#1483D9" cx="1.5" cy="11.5" r="1.5"></circle>
                <circle id="Oval-36" fill="#1483D9" cx="31.5" cy="11.5" r="1.5"></circle>
            </g>
            <path d="M81.0387572,12.2751969 C81.803565,9.0189764 82.5683729,5.76275589 83.3331807,2.50653538" id="Path-217" stroke="#9CB8F0"></path>
            <path d="M83.4325831,14.0344819 C85.8649898,11.997869 88.2973965,9.96125599 90.7298032,7.92464303" id="Path-218" stroke="#9CB8F0"></path>
            <polyline id="Path-219" stroke="#9CB8F0" points="83.5646656 17.1499959 86.1926997 17.1499959 89.3436173 17.1499959 90.294067 17.1499959 90.8196738 17.1499959 90.902736 17.1499959"></polyline>
            <path d="M84.146127,65.9840776 C86.5729869,68.4316105 88.9998468,70.8791435 91.4267067,73.3266765" id="Path-220" stroke="#9CB8F0"></path>
            <path d="M82.1846146,69.7709032 C82.2750087,73.4304474 82.3654029,77.0899916 82.455797,80.7495357" id="Path-221" stroke="#9CB8F0"></path>
            <polyline id="Path-222" stroke="#9CB8F0" points="86.1842515 64.508991 87.3614022 64.508991 88.2868275 64.508991 91.4668368 64.508991 96.0404563 64.508991 97.8134787 64.508991 98.0712844 64.508991"></polyline>
            <path d="M0.5,105.5 L38.5,105.5" id="Line-44" stroke="#1483D9" stroke-linecap="square"></path>
            <polyline id="Line-44" stroke="#1483D9" stroke-linecap="square" points="19.5 176.838932 19.5 153.5 38.5 153.5"></polyline>
            <polygon id="Rectangle-89" fill="#3177DC" transform="translate(57.541185, 105.438839) rotate(-311.000000) translate(-57.541185, -105.438839) " points="49.7340097 98.652165 68.8899807 92.3835422 65.3677956 111.163062 46.1923885 118.494135"></polygon>
            <path d="M55.2587814,96.9550969 C60.3751645,99.4746743 57.2227334,99.0059614 54.8381213,102.742097 C54.19346,103.752132 58.6028159,106.245282 58.9359545,107.902049 C59.3640243,110.030928 51.2621016,112.419512 57.2274817,114.432478" id="Path-209" stroke="#C5D5F6" transform="translate(56.863146, 105.693788) rotate(-86.000000) translate(-56.863146, -105.693788) "></path>
            <path d="M18.0867142,182.839606 C21.608056,184.573701 19.4384008,184.25111 17.7971956,186.822499 C17.3535087,187.517653 20.3882401,189.23356 20.6175222,190.373827 C20.9121405,191.839024 15.3360064,193.482963 19.4416687,194.868383" id="Path-209" stroke="#C5D5F6" transform="translate(19.190915, 188.853995) rotate(-86.000000) translate(-19.190915, -188.853995) "></path>
            <path d="M17.877417,201.839606 C29.7412351,219.738839 22.4314093,216.409074 16.9019945,242.95081 C15.4071605,250.12616 25.6315307,267.837657 26.4040094,279.60743 C27.3966132,294.731114 8.60995595,311.699763 22.4424195,326" id="Path-209" stroke="#3177DC" transform="translate(21.597601, 263.919803) rotate(-360.000000) translate(-21.597601, -263.919803) "></path>
        </g>
    </g>
</svg>