<?xml version="1.0" encoding="UTF-8"?>
<svg width="199px" height="327px" viewBox="0 0 199 327" version="1.1" xmlns="http://www.w3.org/2000/svg" xmlns:xlink="http://www.w3.org/1999/xlink">
    <!-- Generator: Sketch 49.1 (51147) - http://www.bohemiancoding.com/sketch -->
    <title>Rectangle 18</title>
    <desc>Created with Sketch.</desc>
    <defs></defs>
    <g id="Page-1" stroke="none" stroke-width="1" fill="none" fill-rule="evenodd">
        <rect id="Rectangle-18" fill="#D0E4FE" x="0" y="0" width="199" height="327" rx="3"></rect>
        <path d="M75.6982422,152.682617 L75.6982422,159.68457 L75.15625,159.68457 C74.5019499,157.770498 73.5205144,156.315435 72.2119141,155.319336 C70.9033138,154.323237 69.472664,153.825195 67.9199219,153.825195 C66.4355395,153.825195 65.2002002,154.242672 64.2138672,155.077637 C63.2275341,155.912602 62.5292989,157.077141 62.1191406,158.571289 C61.7089823,160.065437 61.5039062,161.598625 61.5039062,163.170898 C61.5039062,165.075205 61.7285134,166.74511 62.1777344,168.180664 C62.6269554,169.616218 63.3520458,170.670895 64.3530273,171.344727 C65.3540089,172.018558 66.5429619,172.355469 67.9199219,172.355469 C68.3984399,172.355469 68.8891576,172.3042 69.3920898,172.20166 C69.895022,172.099121 70.4101536,171.950196 70.9375,171.754883 L70.9375,167.624023 C70.9375,166.84277 70.8837896,166.337403 70.7763672,166.10791 C70.6689448,165.878417 70.446779,165.670899 70.1098633,165.485352 C69.7729475,165.299804 69.3652368,165.207031 68.8867188,165.207031 L68.3740234,165.207031 L68.3740234,164.665039 L78.0273438,164.665039 L78.0273438,165.207031 C77.2949182,165.25586 76.7846694,165.355956 76.496582,165.507324 C76.2084947,165.658692 75.9863289,165.910154 75.8300781,166.261719 C75.7421871,166.447267 75.6982422,166.901364 75.6982422,167.624023 L75.6982422,171.754883 C74.4287046,172.321292 73.107917,172.748534 71.7358398,173.036621 C70.3637627,173.324708 68.9404371,173.46875 67.4658203,173.46875 C65.5810453,173.46875 64.0161195,173.212405 62.7709961,172.699707 C61.5258727,172.187009 60.4272509,171.513188 59.4750977,170.678223 C58.5229445,169.843258 57.778323,168.903326 57.2412109,167.858398 C56.5576138,166.510735 56.2158203,165.001961 56.2158203,163.332031 C56.2158203,160.343735 57.2656145,157.819346 59.3652344,155.758789 C61.4648542,153.698232 64.1064294,152.667969 67.2900391,152.667969 C68.2763721,152.667969 69.1650351,152.746093 69.9560547,152.902344 C70.3857443,152.980469 71.0815382,153.202635 72.043457,153.568848 C73.0053759,153.93506 73.5742179,154.118164 73.75,154.118164 C74.0234389,154.118164 74.2773426,154.018067 74.5117188,153.817871 C74.7460949,153.617675 74.9609365,153.239261 75.15625,152.682617 L75.6982422,152.682617 Z M86.5087891,154.279297 L86.5087891,162.365234 L86.9042969,162.365234 C88.1640688,162.365234 89.0771456,161.969731 89.6435547,161.178711 C90.2099638,160.387691 90.5712883,159.220711 90.7275391,157.677734 L91.2841797,157.677734 L91.2841797,168.078125 L90.7275391,168.078125 C90.610351,166.945307 90.3637714,166.017582 89.987793,165.294922 C89.6118145,164.572262 89.1748072,164.086427 88.6767578,163.837402 C88.1787084,163.588378 87.4560594,163.463867 86.5087891,163.463867 L86.5087891,169.05957 C86.5087891,170.153326 86.5551753,170.822264 86.6479492,171.066406 C86.7407231,171.310548 86.9140612,171.510741 87.1679688,171.666992 C87.4218763,171.823243 87.8320284,171.901367 88.3984375,171.901367 L89.5849609,171.901367 C91.440439,171.901367 92.9272405,171.471684 94.0454102,170.612305 C95.1635798,169.752925 95.9667944,168.444345 96.4550781,166.686523 L96.9970703,166.686523 L96.1035156,173 L78.9355469,173 L78.9355469,172.458008 L79.5947266,172.458008 C80.1709013,172.458008 80.6347639,172.35547 80.9863281,172.150391 C81.2402356,172.013671 81.4355462,171.779299 81.5722656,171.447266 C81.679688,171.212889 81.7333984,170.597661 81.7333984,169.601562 L81.7333984,156.535156 C81.7333984,155.636714 81.7089846,155.084962 81.6601562,154.879883 C81.5624995,154.538084 81.3818373,154.274415 81.1181641,154.088867 C80.7470685,153.815428 80.239261,153.678711 79.5947266,153.678711 L78.9355469,153.678711 L78.9355469,153.136719 L95.5615234,153.136719 L95.5615234,159.010742 L95.0048828,159.010742 C94.7216783,157.575188 94.323733,156.544925 93.8110352,155.919922 C93.2983373,155.294919 92.5732469,154.835939 91.6357422,154.542969 C91.0888645,154.367187 90.0634841,154.279297 88.5595703,154.279297 L86.5087891,154.279297 Z M110.825195,167.345703 L103.808594,167.345703 L102.973633,169.279297 C102.700194,169.923831 102.563477,170.456053 102.563477,170.875977 C102.563477,171.43262 102.788084,171.842772 103.237305,172.106445 C103.500978,172.262696 104.150385,172.379882 105.185547,172.458008 L105.185547,173 L98.5791016,173 L98.5791016,172.458008 C99.2919958,172.350585 99.8779274,172.055178 100.336914,171.571777 C100.795901,171.088376 101.362301,170.089851 102.036133,168.576172 L109.140625,152.726562 L109.418945,152.726562 L116.582031,169.015625 C117.265628,170.558601 117.827146,171.530271 118.266602,171.930664 C118.598634,172.2334 119.06738,172.409179 119.672852,172.458008 L119.672852,173 L110.063477,173 L110.063477,172.458008 L110.458984,172.458008 C111.230473,172.458008 111.772459,172.350587 112.084961,172.135742 C112.299806,171.979491 112.407227,171.754884 112.407227,171.461914 C112.407227,171.286132 112.37793,171.10547 112.319336,170.919922 C112.299805,170.832031 112.153322,170.465824 111.879883,169.821289 L110.825195,167.345703 Z M110.327148,166.261719 L107.368164,159.420898 L104.321289,166.261719 L110.327148,166.261719 Z M127.978516,163.947266 L127.978516,169.513672 C127.978516,170.587896 128.044433,171.264159 128.17627,171.54248 C128.308106,171.820802 128.540037,172.042968 128.87207,172.208984 C129.204103,172.375001 129.824214,172.458008 130.732422,172.458008 L130.732422,173 L120.566406,173 L120.566406,172.458008 C121.48438,172.458008 122.106932,172.372559 122.434082,172.20166 C122.761232,172.030761 122.990722,171.808595 123.122559,171.535156 C123.254395,171.261717 123.320312,170.587896 123.320312,169.513672 L123.320312,156.623047 C123.320312,155.548823 123.254395,154.87256 123.122559,154.594238 C122.990722,154.315917 122.758791,154.093751 122.426758,153.927734 C122.094725,153.761718 121.474614,153.678711 120.566406,153.678711 L120.566406,153.136719 L129.794922,153.136719 C132.197278,153.136719 133.955073,153.302733 135.068359,153.634766 C136.181646,153.966799 137.08984,154.579585 137.792969,155.473145 C138.496097,156.366704 138.847656,157.414056 138.847656,158.615234 C138.847656,160.080085 138.320318,161.291011 137.265625,162.248047 C136.591794,162.853519 135.64942,163.307616 134.438477,163.610352 L139.213867,170.333984 C139.83887,171.203129 140.283202,171.745116 140.546875,171.959961 C140.947268,172.262697 141.41113,172.428711 141.938477,172.458008 L141.938477,173 L135.683594,173 L129.282227,163.947266 L127.978516,163.947266 Z M127.978516,154.206055 L127.978516,162.907227 L128.813477,162.907227 C130.170905,162.907227 131.18652,162.782716 131.860352,162.533691 C132.534183,162.284667 133.063963,161.835452 133.449707,161.186035 C133.835451,160.536618 134.02832,159.689458 134.02832,158.644531 C134.02832,157.130852 133.67432,156.012699 132.966309,155.290039 C132.258297,154.567379 131.118172,154.206055 129.545898,154.206055 L127.978516,154.206055 Z" id="GEAR" fill="#8DB3E4"></path>
    </g>
</svg>