<?xml version="1.0" encoding="UTF-8"?>
<svg width="199px" height="327px" viewBox="0 0 199 327" version="1.1" xmlns="http://www.w3.org/2000/svg" xmlns:xlink="http://www.w3.org/1999/xlink">
    <!-- Generator: Sketch 49.1 (51147) - http://www.bohemiancoding.com/sketch -->
    <title>Rectangle 18</title>
    <desc>Created with Sketch.</desc>
    <defs></defs>
    <g id="Page-1" stroke="none" stroke-width="1" fill="none" fill-rule="evenodd">
        <rect id="Rectangle-18" fill="#BAECE7" x="0" y="0" width="199" height="327" rx="3"></rect>
        <path d="M41.9257812,152.136719 L41.9257812,157.512695 L41.3984375,157.512695 C41.0859359,156.272455 40.7392597,155.38135 40.3583984,154.839355 C39.9775372,154.297361 39.4550814,153.865236 38.7910156,153.542969 C38.41992,153.367187 37.7705125,153.279297 36.8427734,153.279297 L35.3632812,153.279297 L35.3632812,168.601562 C35.3632812,169.617193 35.419433,170.251952 35.5317383,170.505859 C35.6440435,170.759767 35.8637679,170.981933 36.190918,171.172363 C36.518068,171.362794 36.9648409,171.458008 37.53125,171.458008 L38.1904297,171.458008 L38.1904297,172 L27.7900391,172 L27.7900391,171.458008 L28.4492188,171.458008 C29.0253935,171.458008 29.4892561,171.35547 29.8408203,171.150391 C30.0947278,171.013671 30.2949211,170.779299 30.4414062,170.447266 C30.5488287,170.212889 30.6025391,169.597661 30.6025391,168.601562 L30.6025391,153.279297 L29.1669922,153.279297 C27.8290949,153.279297 26.8574249,153.562497 26.2519531,154.128906 C25.4023395,154.919926 24.8652355,156.047844 24.640625,157.512695 L24.0839844,157.512695 L24.0839844,152.136719 L41.9257812,152.136719 Z M50.9785156,162.947266 L50.9785156,168.513672 C50.9785156,169.587896 51.0444329,170.264159 51.1762695,170.54248 C51.3081061,170.820802 51.5400374,171.042968 51.8720703,171.208984 C52.2041032,171.375001 52.8242142,171.458008 53.7324219,171.458008 L53.7324219,172 L43.5664062,172 L43.5664062,171.458008 C44.4843796,171.458008 45.106932,171.372559 45.434082,171.20166 C45.7612321,171.030761 45.990722,170.808595 46.1225586,170.535156 C46.2543952,170.261717 46.3203125,169.587896 46.3203125,168.513672 L46.3203125,155.623047 C46.3203125,154.548823 46.2543952,153.87256 46.1225586,153.594238 C45.990722,153.315917 45.7587907,153.093751 45.4267578,152.927734 C45.0947249,152.761718 44.4746139,152.678711 43.5664062,152.678711 L43.5664062,152.136719 L52.7949219,152.136719 C55.1972776,152.136719 56.9550726,152.302733 58.0683594,152.634766 C59.1816462,152.966799 60.0898402,153.579585 60.7929688,154.473145 C61.4960973,155.366704 61.8476562,156.414056 61.8476562,157.615234 C61.8476562,159.080085 61.3203178,160.291011 60.265625,161.248047 C59.5917935,161.853519 58.6494201,162.307616 57.4384766,162.610352 L62.2138672,169.333984 C62.8388703,170.203129 63.2832018,170.745116 63.546875,170.959961 C63.9472676,171.262697 64.4111302,171.428711 64.9384766,171.458008 L64.9384766,172 L58.6835938,172 L52.2822266,162.947266 L50.9785156,162.947266 Z M50.9785156,153.206055 L50.9785156,161.907227 L51.8134766,161.907227 C53.1709052,161.907227 54.1865201,161.782716 54.8603516,161.533691 C55.5341831,161.284667 56.0639629,160.835452 56.449707,160.186035 C56.8354511,159.536618 57.0283203,158.689458 57.0283203,157.644531 C57.0283203,156.130852 56.6743199,155.012699 55.9663086,154.290039 C55.2582972,153.567379 54.1181719,153.206055 52.5458984,153.206055 L50.9785156,153.206055 Z M77.1552734,166.345703 L70.1386719,166.345703 L69.3037109,168.279297 C69.0302721,168.923831 68.8935547,169.456053 68.8935547,169.875977 C68.8935547,170.43262 69.1181618,170.842772 69.5673828,171.106445 C69.831056,171.262696 70.4804636,171.379882 71.515625,171.458008 L71.515625,172 L64.9091797,172 L64.9091797,171.458008 C65.6220739,171.350585 66.2080055,171.055178 66.6669922,170.571777 C67.1259789,170.088376 67.6923794,169.089851 68.3662109,167.576172 L75.4707031,151.726562 L75.7490234,151.726562 L82.9121094,168.015625 C83.5957065,169.558601 84.1572244,170.530271 84.5966797,170.930664 C84.9287126,171.2334 85.3974579,171.409179 86.0029297,171.458008 L86.0029297,172 L76.3935547,172 L76.3935547,171.458008 L76.7890625,171.458008 C77.5605507,171.458008 78.1025375,171.350587 78.4150391,171.135742 C78.6298839,170.979491 78.7373047,170.754884 78.7373047,170.461914 C78.7373047,170.286132 78.7080081,170.10547 78.6494141,169.919922 C78.6298827,169.832031 78.4833998,169.465824 78.2099609,168.821289 L77.1552734,166.345703 Z M76.6572266,165.261719 L73.6982422,158.420898 L70.6513672,165.261719 L76.6572266,165.261719 Z M97.3261719,171.458008 L97.3261719,172 L86.9404297,172 L86.9404297,171.458008 L87.5996094,171.458008 C88.1757841,171.458008 88.6396467,171.35547 88.9912109,171.150391 C89.2451185,171.013671 89.440429,170.779299 89.5771484,170.447266 C89.6845708,170.212889 89.7382812,169.597661 89.7382812,168.601562 L89.7382812,155.535156 C89.7382812,154.519526 89.6845708,153.884767 89.5771484,153.630859 C89.469726,153.376952 89.252443,153.154786 88.925293,152.964355 C88.5981429,152.773925 88.1562528,152.678711 87.5996094,152.678711 L86.9404297,152.678711 L86.9404297,152.136719 L97.3261719,152.136719 L97.3261719,152.678711 L96.6669922,152.678711 C96.0908174,152.678711 95.6269549,152.781249 95.2753906,152.986328 C95.0214831,153.123048 94.8212898,153.35742 94.6748047,153.689453 C94.5673823,153.923829 94.5136719,154.539058 94.5136719,155.535156 L94.5136719,168.601562 C94.5136719,169.617193 94.5698237,170.251952 94.6821289,170.505859 C94.7944342,170.759767 95.0141585,170.981933 95.3413086,171.172363 C95.6684587,171.362794 96.1103488,171.458008 96.6669922,171.458008 L97.3261719,171.458008 Z M105.485352,152.136719 L115.285156,164.456055 L115.285156,155.916016 C115.285156,154.724603 115.11426,153.918947 114.772461,153.499023 C114.303709,152.932614 113.517584,152.65918 112.414062,152.678711 L112.414062,152.136719 L118.976562,152.136719 L118.976562,152.678711 C118.136715,152.786133 117.572755,152.925292 117.284668,153.096191 C116.996581,153.267091 116.771973,153.545408 116.61084,153.931152 C116.449706,154.316896 116.369141,154.978511 116.369141,155.916016 L116.369141,172.454102 L115.871094,172.454102 L102.438477,155.916016 L102.438477,168.542969 C102.438477,169.685553 102.699704,170.457029 103.222168,170.857422 C103.744632,171.257815 104.34277,171.458008 105.016602,171.458008 L105.485352,171.458008 L105.485352,172 L98.4394531,172 L98.4394531,171.458008 C99.5332086,171.448242 100.29492,171.223635 100.724609,170.78418 C101.154299,170.344724 101.369141,169.597662 101.369141,168.542969 L101.369141,154.524414 L100.944336,153.99707 C100.524412,153.469724 100.153322,153.123048 99.8310547,152.957031 C99.5087875,152.791015 99.0449249,152.698242 98.4394531,152.678711 L98.4394531,152.136719 L105.485352,152.136719 Z M130.666016,171.458008 L130.666016,172 L120.280273,172 L120.280273,171.458008 L120.939453,171.458008 C121.515628,171.458008 121.97949,171.35547 122.331055,171.150391 C122.584962,171.013671 122.780273,170.779299 122.916992,170.447266 C123.024415,170.212889 123.078125,169.597661 123.078125,168.601562 L123.078125,155.535156 C123.078125,154.519526 123.024415,153.884767 122.916992,153.630859 C122.80957,153.376952 122.592287,153.154786 122.265137,152.964355 C121.937987,152.773925 121.496097,152.678711 120.939453,152.678711 L120.280273,152.678711 L120.280273,152.136719 L130.666016,152.136719 L130.666016,152.678711 L130.006836,152.678711 C129.430661,152.678711 128.966799,152.781249 128.615234,152.986328 C128.361327,153.123048 128.161134,153.35742 128.014648,153.689453 C127.907226,153.923829 127.853516,154.539058 127.853516,155.535156 L127.853516,168.601562 C127.853516,169.617193 127.909667,170.251952 128.021973,170.505859 C128.134278,170.759767 128.354002,170.981933 128.681152,171.172363 C129.008302,171.362794 129.450193,171.458008 130.006836,171.458008 L130.666016,171.458008 Z M138.825195,152.136719 L148.625,164.456055 L148.625,155.916016 C148.625,154.724603 148.454103,153.918947 148.112305,153.499023 C147.643552,152.932614 146.857427,152.65918 145.753906,152.678711 L145.753906,152.136719 L152.316406,152.136719 L152.316406,152.678711 C151.476558,152.786133 150.912599,152.925292 150.624512,153.096191 C150.336424,153.267091 150.111817,153.545408 149.950684,153.931152 C149.78955,154.316896 149.708984,154.978511 149.708984,155.916016 L149.708984,172.454102 L149.210938,172.454102 L135.77832,155.916016 L135.77832,168.542969 C135.77832,169.685553 136.039548,170.457029 136.562012,170.857422 C137.084475,171.257815 137.682614,171.458008 138.356445,171.458008 L138.825195,171.458008 L138.825195,172 L131.779297,172 L131.779297,171.458008 C132.873052,171.448242 133.634763,171.223635 134.064453,170.78418 C134.494143,170.344724 134.708984,169.597662 134.708984,168.542969 L134.708984,154.524414 L134.28418,153.99707 C133.864256,153.469724 133.493166,153.123048 133.170898,152.957031 C132.848631,152.791015 132.384769,152.698242 131.779297,152.678711 L131.779297,152.136719 L138.825195,152.136719 Z M173.717773,151.682617 L173.717773,158.68457 L173.175781,158.68457 C172.521481,156.770498 171.540046,155.315435 170.231445,154.319336 C168.922845,153.323237 167.492195,152.825195 165.939453,152.825195 C164.455071,152.825195 163.219731,153.242672 162.233398,154.077637 C161.247065,154.912602 160.54883,156.077141 160.138672,157.571289 C159.728514,159.065437 159.523438,160.598625 159.523438,162.170898 C159.523438,164.075205 159.748045,165.74511 160.197266,167.180664 C160.646487,168.616218 161.371577,169.670895 162.372559,170.344727 C163.37354,171.018558 164.562493,171.355469 165.939453,171.355469 C166.417971,171.355469 166.908689,171.3042 167.411621,171.20166 C167.914553,171.099121 168.429685,170.950196 168.957031,170.754883 L168.957031,166.624023 C168.957031,165.84277 168.903321,165.337403 168.795898,165.10791 C168.688476,164.878417 168.46631,164.670899 168.129395,164.485352 C167.792479,164.299804 167.384768,164.207031 166.90625,164.207031 L166.393555,164.207031 L166.393555,163.665039 L176.046875,163.665039 L176.046875,164.207031 C175.314449,164.25586 174.804201,164.355956 174.516113,164.507324 C174.228026,164.658692 174.00586,164.910154 173.849609,165.261719 C173.761718,165.447267 173.717773,165.901364 173.717773,166.624023 L173.717773,170.754883 C172.448236,171.321292 171.127448,171.748534 169.755371,172.036621 C168.383294,172.324708 166.959968,172.46875 165.485352,172.46875 C163.600577,172.46875 162.035651,172.212405 160.790527,171.699707 C159.545404,171.187009 158.446782,170.513188 157.494629,169.678223 C156.542476,168.843258 155.797854,167.903326 155.260742,166.858398 C154.577145,165.510735 154.235352,164.001961 154.235352,162.332031 C154.235352,159.343735 155.285146,156.819346 157.384766,154.758789 C159.484385,152.698232 162.125961,151.667969 165.30957,151.667969 C166.295903,151.667969 167.184566,151.746093 167.975586,151.902344 C168.405276,151.980469 169.101069,152.202635 170.062988,152.568848 C171.024907,152.93506 171.593749,153.118164 171.769531,153.118164 C172.04297,153.118164 172.296874,153.018067 172.53125,152.817871 C172.765626,152.617675 172.980468,152.239261 173.175781,151.682617 L173.717773,151.682617 Z" id="TRAINING" fill="#73C7BF"></path>
    </g>
</svg>