<?xml version="1.0" encoding="UTF-8"?>
<svg width="199px" height="327px" viewBox="0 0 199 327" version="1.1" xmlns="http://www.w3.org/2000/svg" xmlns:xlink="http://www.w3.org/1999/xlink">
    <!-- Generator: Sketch 49.1 (51147) - http://www.bohemiancoding.com/sketch -->
    <title>Rectangle 18</title>
    <desc>Created with Sketch.</desc>
    <defs></defs>
    <g id="Page-1" stroke="none" stroke-width="1" fill="none" fill-rule="evenodd">
        <rect id="Rectangle-18" fill="#DEDDDD" x="0" y="0" width="199" height="327" rx="3"></rect>
        <path d="M45.203125,163.449219 L45.203125,169.601562 C45.203125,170.617193 45.2592768,171.251952 45.371582,171.505859 C45.4838873,171.759767 45.7036116,171.981933 46.0307617,172.172363 C46.3579118,172.362794 46.7998019,172.458008 47.3564453,172.458008 L48.015625,172.458008 L48.015625,173 L37.6298828,173 L37.6298828,172.458008 L38.2890625,172.458008 C38.8652373,172.458008 39.3290998,172.35547 39.6806641,172.150391 C39.9345716,172.013671 40.1298821,171.779299 40.2666016,171.447266 C40.374024,171.212889 40.4277344,170.597661 40.4277344,169.601562 L40.4277344,156.535156 C40.4277344,155.519526 40.374024,154.884767 40.2666016,154.630859 C40.1591792,154.376952 39.9418962,154.154786 39.6147461,153.964355 C39.287596,153.773925 38.8457059,153.678711 38.2890625,153.678711 L37.6298828,153.678711 L37.6298828,153.136719 L48.015625,153.136719 L48.015625,153.678711 L47.3564453,153.678711 C46.7802706,153.678711 46.316408,153.781249 45.9648438,153.986328 C45.7109362,154.123048 45.5107429,154.35742 45.3642578,154.689453 C45.2568354,154.923829 45.203125,155.539058 45.203125,156.535156 L45.203125,162.160156 L52.2197266,162.160156 L52.2197266,156.535156 C52.2197266,155.519526 52.1660162,154.884767 52.0585938,154.630859 C51.9511713,154.376952 51.731447,154.154786 51.3994141,153.964355 C51.0673812,153.773925 50.6230497,153.678711 50.0664062,153.678711 L49.421875,153.678711 L49.421875,153.136719 L59.7929688,153.136719 L59.7929688,153.678711 L59.1484375,153.678711 C58.5624971,153.678711 58.0986345,153.781249 57.7568359,153.986328 C57.5029284,154.123048 57.3027351,154.35742 57.15625,154.689453 C57.0488276,154.923829 56.9951172,155.539058 56.9951172,156.535156 L56.9951172,169.601562 C56.9951172,170.617193 57.0488276,171.251952 57.15625,171.505859 C57.2636724,171.759767 57.4833968,171.981933 57.8154297,172.172363 C58.1474626,172.362794 58.5917941,172.458008 59.1484375,172.458008 L59.7929688,172.458008 L59.7929688,173 L49.421875,173 L49.421875,172.458008 L50.0664062,172.458008 C50.6523467,172.458008 51.1162092,172.35547 51.4580078,172.150391 C51.7119153,172.013671 51.9121086,171.779299 52.0585938,171.447266 C52.1660162,171.212889 52.2197266,170.597661 52.2197266,169.601562 L52.2197266,163.449219 L45.203125,163.449219 Z M68.5087891,154.279297 L68.5087891,162.365234 L68.9042969,162.365234 C70.1640688,162.365234 71.0771456,161.969731 71.6435547,161.178711 C72.2099638,160.387691 72.5712883,159.220711 72.7275391,157.677734 L73.2841797,157.677734 L73.2841797,168.078125 L72.7275391,168.078125 C72.610351,166.945307 72.3637714,166.017582 71.987793,165.294922 C71.6118145,164.572262 71.1748072,164.086427 70.6767578,163.837402 C70.1787084,163.588378 69.4560594,163.463867 68.5087891,163.463867 L68.5087891,169.05957 C68.5087891,170.153326 68.5551753,170.822264 68.6479492,171.066406 C68.7407231,171.310548 68.9140612,171.510741 69.1679688,171.666992 C69.4218763,171.823243 69.8320284,171.901367 70.3984375,171.901367 L71.5849609,171.901367 C73.440439,171.901367 74.9272405,171.471684 76.0454102,170.612305 C77.1635798,169.752925 77.9667944,168.444345 78.4550781,166.686523 L78.9970703,166.686523 L78.1035156,173 L60.9355469,173 L60.9355469,172.458008 L61.5947266,172.458008 C62.1709013,172.458008 62.6347639,172.35547 62.9863281,172.150391 C63.2402356,172.013671 63.4355462,171.779299 63.5722656,171.447266 C63.679688,171.212889 63.7333984,170.597661 63.7333984,169.601562 L63.7333984,156.535156 C63.7333984,155.636714 63.7089846,155.084962 63.6601562,154.879883 C63.5624995,154.538084 63.3818373,154.274415 63.1181641,154.088867 C62.7470685,153.815428 62.239261,153.678711 61.5947266,153.678711 L60.9355469,153.678711 L60.9355469,153.136719 L77.5615234,153.136719 L77.5615234,159.010742 L77.0048828,159.010742 C76.7216783,157.575188 76.323733,156.544925 75.8110352,155.919922 C75.2983373,155.294919 74.5732469,154.835939 73.6357422,154.542969 C73.0888645,154.367187 72.0634841,154.279297 70.5595703,154.279297 L68.5087891,154.279297 Z M92.8251953,167.345703 L85.8085938,167.345703 L84.9736328,169.279297 C84.7001939,169.923831 84.5634766,170.456053 84.5634766,170.875977 C84.5634766,171.43262 84.7880837,171.842772 85.2373047,172.106445 C85.5009779,172.262696 86.1503854,172.379882 87.1855469,172.458008 L87.1855469,173 L80.5791016,173 L80.5791016,172.458008 C81.2919958,172.350585 81.8779274,172.055178 82.3369141,171.571777 C82.7959007,171.088376 83.3623013,170.089851 84.0361328,168.576172 L91.140625,152.726562 L91.4189453,152.726562 L98.5820312,169.015625 C99.2656284,170.558601 99.8271462,171.530271 100.266602,171.930664 C100.598634,172.2334 101.06738,172.409179 101.672852,172.458008 L101.672852,173 L92.0634766,173 L92.0634766,172.458008 L92.4589844,172.458008 C93.2304726,172.458008 93.7724594,172.350587 94.0849609,172.135742 C94.2998058,171.979491 94.4072266,171.754884 94.4072266,171.461914 C94.4072266,171.286132 94.37793,171.10547 94.3193359,170.919922 C94.2998046,170.832031 94.1533217,170.465824 93.8798828,169.821289 L92.8251953,167.345703 Z M92.3271484,166.261719 L89.3681641,159.420898 L86.3212891,166.261719 L92.3271484,166.261719 Z M120.950195,166.027344 L120.203125,173 L102.566406,173 L102.566406,172.458008 L103.225586,172.458008 C103.801761,172.458008 104.265623,172.35547 104.617188,172.150391 C104.871095,172.013671 105.066406,171.779299 105.203125,171.447266 C105.310547,171.212889 105.364258,170.597661 105.364258,169.601562 L105.364258,156.535156 C105.364258,155.519526 105.310547,154.884767 105.203125,154.630859 C105.095703,154.376952 104.87842,154.154786 104.55127,153.964355 C104.224119,153.773925 103.782229,153.678711 103.225586,153.678711 L102.566406,153.678711 L102.566406,153.136719 L113.157227,153.136719 L113.157227,153.678711 L112.292969,153.678711 C111.716794,153.678711 111.252931,153.781249 110.901367,153.986328 C110.64746,154.123048 110.447266,154.35742 110.300781,154.689453 C110.193359,154.923829 110.139648,155.539058 110.139648,156.535156 L110.139648,169.191406 C110.139648,170.207036 110.198242,170.854003 110.31543,171.132324 C110.432618,171.410646 110.662108,171.618163 111.003906,171.754883 C111.248048,171.842774 111.838862,171.886719 112.776367,171.886719 L114.431641,171.886719 C115.486333,171.886719 116.365231,171.701174 117.068359,171.330078 C117.771488,170.958983 118.379392,170.373051 118.89209,169.572266 C119.404788,168.77148 119.890623,167.589852 120.349609,166.027344 L120.950195,166.027344 Z M138.191406,153.136719 L138.191406,158.512695 L137.664062,158.512695 C137.351561,157.272455 137.004885,156.38135 136.624023,155.839355 C136.243162,155.297361 135.720706,154.865236 135.056641,154.542969 C134.685545,154.367187 134.036137,154.279297 133.108398,154.279297 L131.628906,154.279297 L131.628906,169.601562 C131.628906,170.617193 131.685058,171.251952 131.797363,171.505859 C131.909669,171.759767 132.129393,171.981933 132.456543,172.172363 C132.783693,172.362794 133.230466,172.458008 133.796875,172.458008 L134.456055,172.458008 L134.456055,173 L124.055664,173 L124.055664,172.458008 L124.714844,172.458008 C125.291019,172.458008 125.754881,172.35547 126.106445,172.150391 C126.360353,172.013671 126.560546,171.779299 126.707031,171.447266 C126.814454,171.212889 126.868164,170.597661 126.868164,169.601562 L126.868164,154.279297 L125.432617,154.279297 C124.09472,154.279297 123.12305,154.562497 122.517578,155.128906 C121.667965,155.919926 121.13086,157.047844 120.90625,158.512695 L120.349609,158.512695 L120.349609,153.136719 L138.191406,153.136719 Z M147.478516,163.449219 L147.478516,169.601562 C147.478516,170.617193 147.534667,171.251952 147.646973,171.505859 C147.759278,171.759767 147.979002,171.981933 148.306152,172.172363 C148.633302,172.362794 149.075193,172.458008 149.631836,172.458008 L150.291016,172.458008 L150.291016,173 L139.905273,173 L139.905273,172.458008 L140.564453,172.458008 C141.140628,172.458008 141.60449,172.35547 141.956055,172.150391 C142.209962,172.013671 142.405273,171.779299 142.541992,171.447266 C142.649415,171.212889 142.703125,170.597661 142.703125,169.601562 L142.703125,156.535156 C142.703125,155.519526 142.649415,154.884767 142.541992,154.630859 C142.43457,154.376952 142.217287,154.154786 141.890137,153.964355 C141.562987,153.773925 141.121097,153.678711 140.564453,153.678711 L139.905273,153.678711 L139.905273,153.136719 L150.291016,153.136719 L150.291016,153.678711 L149.631836,153.678711 C149.055661,153.678711 148.591799,153.781249 148.240234,153.986328 C147.986327,154.123048 147.786134,154.35742 147.639648,154.689453 C147.532226,154.923829 147.478516,155.539058 147.478516,156.535156 L147.478516,162.160156 L154.495117,162.160156 L154.495117,156.535156 C154.495117,155.519526 154.441407,154.884767 154.333984,154.630859 C154.226562,154.376952 154.006838,154.154786 153.674805,153.964355 C153.342772,153.773925 152.89844,153.678711 152.341797,153.678711 L151.697266,153.678711 L151.697266,153.136719 L162.068359,153.136719 L162.068359,153.678711 L161.423828,153.678711 C160.837888,153.678711 160.374025,153.781249 160.032227,153.986328 C159.778319,154.123048 159.578126,154.35742 159.431641,154.689453 C159.324218,154.923829 159.270508,155.539058 159.270508,156.535156 L159.270508,169.601562 C159.270508,170.617193 159.324218,171.251952 159.431641,171.505859 C159.539063,171.759767 159.758787,171.981933 160.09082,172.172363 C160.422853,172.362794 160.867185,172.458008 161.423828,172.458008 L162.068359,172.458008 L162.068359,173 L151.697266,173 L151.697266,172.458008 L152.341797,172.458008 C152.927737,172.458008 153.3916,172.35547 153.733398,172.150391 C153.987306,172.013671 154.187499,171.779299 154.333984,171.447266 C154.441407,171.212889 154.495117,170.597661 154.495117,169.601562 L154.495117,163.449219 L147.478516,163.449219 Z" id="HEALTH" fill="#BAB7B7"></path>
    </g>
</svg>