<?xml version="1.0" encoding="UTF-8"?>
<svg width="201px" height="327px" viewBox="0 0 201 327" version="1.1" xmlns="http://www.w3.org/2000/svg" xmlns:xlink="http://www.w3.org/1999/xlink">
    <!-- Generator: Sketch 49.1 (51147) - http://www.bohemiancoding.com/sketch -->
    <title>Group 108</title>
    <desc>Created with Sketch.</desc>
    <defs></defs>
    <g id="Page-1" stroke="none" stroke-width="1" fill="none" fill-rule="evenodd">
        <g id="Group-108">
            <rect id="Rectangle-18" fill="#B3EEEC" x="1" y="0" width="199" height="327" rx="3"></rect>
            <path d="M123,248.844045 C133.471977,248.50633 141.452216,251.766965 148.135862,242.993147 C148.659243,242.306089 147.722531,241.124015 146.987539,240.670404 C146.109963,240.128795 144.611226,239.629843 143.907132,240.383323 C136.103648,248.734166 154.593155,248.61324 158.156768,246.947845" id="Path-188" stroke="#4BCCC7" stroke-linecap="round" stroke-dasharray="4"></path>
            <path d="M53,269.844045 C63.4719773,269.50633 71.4522156,272.766965 78.1358617,263.993147 C78.6592426,263.306089 77.7225309,262.124015 76.9875394,261.670404 C76.1099633,261.128795 74.6112257,260.629843 73.9071322,261.383323 C66.1036479,269.734166 84.5931553,269.61324 88.1567681,267.947845" id="Path-188" stroke="#4BCCC7" stroke-linecap="round" stroke-dasharray="4"></path>
            <path d="M104,288.844045 C114.471977,288.50633 122.452216,291.766965 129.135862,282.993147 C129.659243,282.306089 128.722531,281.124015 127.987539,280.670404 C127.109963,280.128795 125.611226,279.629843 124.907132,280.383323 C117.103648,288.734166 135.593155,288.61324 139.156768,286.947845" id="Path-188" stroke="#4BCCC7" stroke-linecap="round" stroke-dasharray="4"></path>
            <path d="M64,318.844045 C74.4719773,318.50633 82.4522156,321.766965 89.1358617,312.993147 C89.6592426,312.306089 88.7225309,311.124015 87.9875394,310.670404 C87.1099633,310.128795 85.6112257,309.629843 84.9071322,310.383323 C77.1036479,318.734166 95.5931553,318.61324 99.1567681,316.947845" id="Path-188" stroke="#4BCCC7" stroke-linecap="round" stroke-dasharray="4"></path>
            <g id="Group-105" transform="translate(27.000000, 116.000000) rotate(-180.000000) translate(-27.000000, -116.000000) translate(0.000000, 70.000000)">
                <path d="M30.5,44.5 L52.5227155,44.5" id="Line-39" stroke="#26B9B4" stroke-linecap="square"></path>
                <path d="M29.5,90.5 L52.5227155,90.5" id="Line-39" stroke="#26B9B4" stroke-linecap="square"></path>
                <path d="M15.5,0.5 L15.5,30.6798624" id="Line-38" stroke="#26B9B4" stroke-linecap="square"></path>
                <rect id="Rectangle-81" fill="#6AD5D1" transform="translate(15.500000, 44.500000) rotate(-315.000000) translate(-15.500000, -44.500000) " x="5" y="34" width="21" height="21"></rect>
                <path d="M13.9630119,35.5791905 C19.079395,38.0987678 15.9269638,37.6300549 13.5423517,41.3661903 C12.8976905,42.3762253 17.3070463,44.869376 17.640185,46.5261428 C18.0682547,48.6550212 9.96633209,51.0436054 15.9317121,53.0565717" id="Path-209" stroke="#B3EEEC" transform="translate(15.567376, 44.317881) rotate(-86.000000) translate(-15.567376, -44.317881) "></path>
            </g>
            <g id="Group-106" transform="translate(16.000000, 17.000000)" stroke="#D9F9F8" stroke-linecap="round" stroke-width="5">
                <path d="M0.202015688,5.14971054 C22.931167,-1.04215917 41.1474071,-3.21320563 62.0901981,8.13971364" id="Path-210"></path>
                <path d="M5.06290643,17.6467031 C23.1305407,14.2222023 39.3240203,12.2113525 56.0613755,20.7221348" id="Path-211"></path>
                <path d="M12.4695712,30.3487244 C36.1278014,29.3529665 26.1472803,27.5604214 42.8065088,32.604041" id="Path-212"></path>
            </g>
            <path d="M124,2.75268817 L124,141.247312" id="Line-24" stroke="#26B9B4" stroke-width="2" stroke-linecap="square"></path>
            <path d="M138,2.75268817 L138,141.247312" id="Line-24" stroke="#26B9B4" stroke-width="2" stroke-linecap="square"></path>
            <path d="M123.5,13.5 L137.535669,13.5" id="Line-25" stroke="#26B9B4" stroke-linecap="square"></path>
            <path d="M123.5,23.5 L137.535669,23.5" id="Line-25" stroke="#26B9B4" stroke-linecap="square"></path>
            <path d="M123.5,33.5 L137.535669,33.5" id="Line-25" stroke="#26B9B4" stroke-linecap="square"></path>
            <path d="M123.5,43.5 L137.535669,43.5" id="Line-25" stroke="#26B9B4" stroke-linecap="square"></path>
            <path d="M123.5,53.5 L137.535669,53.5" id="Line-25" stroke="#26B9B4" stroke-linecap="square"></path>
            <path d="M123.5,63.5 L137.535669,63.5" id="Line-25" stroke="#26B9B4" stroke-linecap="square"></path>
            <path d="M123.5,73.5 L137.535669,73.5" id="Line-25" stroke="#26B9B4" stroke-linecap="square"></path>
            <path d="M123.5,83.5 L137.535669,83.5" id="Line-25" stroke="#26B9B4" stroke-linecap="square"></path>
            <path d="M123.5,93.5 L137.535669,93.5" id="Line-25" stroke="#26B9B4" stroke-linecap="square"></path>
            <path d="M123.5,103.5 L137.535669,103.5" id="Line-25" stroke="#26B9B4" stroke-linecap="square"></path>
            <path d="M123.5,113.5 L137.535669,113.5" id="Line-25" stroke="#26B9B4" stroke-linecap="square"></path>
            <path d="M123.5,123.5 L137.535669,123.5" id="Line-25" stroke="#26B9B4" stroke-linecap="square"></path>
            <g id="Group-61" transform="translate(160.000000, 50.000000)">
                <g id="Group-56">
                    <path d="M13.5090034,17.9302105 C16.9175429,17.9302105 22.4695833,16.409757 24.8464088,14.8064276 C27.6721221,12.900293 29,12.1195307 29,9 C29,3.25650173 21.002574,0 13.5417574,0 C6.0809408,0 0,1.78718867 0,7.53068695 C0,9.78658472 0.933063157,11.8747164 2.51830308,13.5788494 C2.98838566,14.0841882 0.992719555,17.4980434 1.57017522,17.9302105 C2.2542336,18.442159 5.53158835,15.9565274 6.34386902,16.3485089 C8.42075826,17.3507512 10.8769774,17.9302105 13.5090034,17.9302105 Z" id="Oval-7" fill="#4BCCC7"></path>
                    <path d="M4.14285714,11.5120955 C4.38674201,9.57528773 5.49240681,3.04460488 9.45502132,5.35223681 C12.2761957,6.9951501 9.26165359,12.5334615 9.07572921,12.1424563 C7.69120558,9.23075662 12.7951748,4.08489444 15.0942688,6.89745449 C15.8912139,7.87238465 16.4881102,11.6262369 15.8442092,10.5512122 L15.0769811,11.7839177 C13.2817784,8.7867377 17.7365323,4.91541437 20.6581419,6.7336941 C21.0050167,6.94957358 21.8268216,10.687631 20.8752754,11.058169 C20.4954494,11.2060756 20.2846,7.40890416 22.5843373,6.62529873 C23.6424276,6.26476827 24.7900172,6.22529202 25.8928571,6.02528867" id="Path-44" stroke="#B3EEEC"></path>
                </g>
            </g>
            <g id="Group-92" transform="translate(80.000000, 19.000000)">
                <g id="Group-29" transform="translate(38.000000, 69.000000) scale(-1, 1) translate(-38.000000, -69.000000) translate(1.000000, 40.000000)" fill="#BAFFFC">
                    <path d="M9.87385351,12.5745362 C15.9893729,19.3975461 14.446174,16.0662038 22.4399985,21.2810567 C23.6352949,22.0608205 29.337355,26.1868067 30.5641219,28.5162357 C34.603283,36.18594 40.6721041,51.9947902 48.300265,50.7472855 C48.3074292,50.7461139 49.3069373,50.236435 49.0210131,49.4250511 C47.5242331,45.1775511 42.9449997,30.7756792 39.4954869,26.1406554 C38.6486337,25.0027601 37.9201045,22.5146065 37.0935709,21.3621159 C36.2463136,20.1807287 34.161071,19.675774 33.1729228,18.6073885 C32.2681025,17.6290971 24.4329196,7.31757808 23.8047105,7.48424558 C22.5833588,7.80827724 20.6006594,12.3276045 19.3380244,12.2629517 C16.6526159,12.1254461 14.0428591,11.3184965 11.376091,10.9764569 C10.5502729,10.8705375 9.71110487,10.9397707 8.87861183,10.9214277" id="Path-48" transform="translate(28.975520, 29.149625) rotate(-300.000000) translate(-28.975520, -29.149625) "></path>
                    <path d="M34.0458253,13.8199177 C40.1613447,20.6429276 38.6181459,17.3115853 46.6119703,22.5264382 C47.8072667,23.306202 48.6493105,24.5327399 49.5099461,25.6660803 C49.8304891,26.088192 49.6594725,26.8548311 50.1114411,27.1347665 C51.0779128,27.7333693 52.4725055,27.4118543 53.3964136,28.0732384 C58.580443,31.7842508 62.5272645,53.6190616 72.4722368,51.992667 C72.479401,51.9914954 73.4789091,51.4818165 73.1929849,50.6704326 C71.696205,46.4229326 65.514354,32.862939 62.0648412,28.2279152 C61.217988,27.0900198 60.6106438,25.7908624 59.7841103,24.6383718 C58.9368529,23.4569846 58.0392813,22.3053544 57.0511331,21.2369689 C56.1463128,20.2586776 54.8932378,19.5981918 54.1201576,18.5145081 C52.69498,16.5167315 46.363154,8.78769369 45.7349449,8.95436119 C44.5135932,9.27839286 44.7726312,13.572986 43.5099963,13.5083332 C40.8245877,13.3708276 38.2148309,12.563878 35.5480628,12.2218384 C34.7222448,12.115919 33.8830767,12.1851523 33.0505837,12.1668092" id="Path-48"></path>
                </g>
                <path d="M0,53.6359918 C5.70074081,53.6359918 9.96066587,55.1561392 12.6436199,54.9868403 C15.326574,54.8175414 13.9670684,36.2488108 17.2472419,32.5154813 C17.7387274,31.9560969 24.0656446,29.1066813 27.8665439,31 C32.2607998,33.1888838 46.2833885,15.6076548 42.2939442,7.85847716 C39.909511,3.22690564 38.6373702,18.5930647 30.988314,23.9726682 C25.8395768,27.5937901 13.2571712,21.5663499 12.6436199,21.1972192 C11.9766703,20.7959624 5.57437872,20.0155218 4.65093437,21.1972192 C2.85320764,23.4977032 2.32218858,26.2859819 2.32218858,29.1952106 C2.32218858,31.2141263 0.961553234,34.3683506 0.554482622,36.0156964 C0.212000491,37.4016636 0.184827541,38.8483381 0,40.2646589 L0,53.6359918 Z" id="Path-50" fill="#4BCCC7" transform="translate(21.500000, 31.000000) scale(-1, 1) translate(-21.500000, -31.000000) "></path>
                <path d="M58.7190455,20.3944694 C53.1276068,18.5173061 49.8445592,15.4535767 46.9533322,10.1930092 C43.179368,3.32630749 45.3732653,3.37264285 41.3157323,0.300108481 C41.1262384,0.156615749 40.8587362,-0.0879312143 40.6533407,0.0321661991 C38.0996309,1.52535346 37.1982245,4.33266871 38.7970578,6.85519521 C45.2296537,17.0040917 49.1572098,21.0364326 59,27" id="Path-79" stroke="#B3EEEC" fill="#4BCCC7" transform="translate(48.500000, 13.500000) scale(-1, 1) translate(-48.500000, -13.500000) "></path>
            </g>
            <path d="M136.27586,20.6166425 C136.589834,19.2925678 137.378639,18.124975 137.669123,17.1797604 C138.859014,13.307947 139.311489,14.174123 139.062565,15.0327064 C138.689206,16.3204886 138.312977,17.2263681 139.062565,16.7101394 C140.135828,15.9710004 140.278136,15.0327064 140.621025,14.1804834 C140.710309,13.9585759 140.860458,13 141.290441,13 C141.720425,13 140.786403,15.3516785 141.068139,15.4294761 C141.171496,15.4580167 141.319607,15.2518458 141.486171,14.8817859 C141.768657,14.2541772 142.094343,13.3146706 142.273041,13.4080859 C142.635523,13.5975747 142.084762,15.6908571 142.273041,15.8079539 C142.483061,15.9385717 142.859915,14.9512401 143.094332,15.0327064 C143.3508,15.1218359 142.887708,15.9637703 143.094332,16.146354 C143.290283,16.319506 143.603977,15.7513322 143.833473,15.8079539 C144.294876,15.9217924 142.523669,18.6758257 142.273041,18.8277363 C140.231753,20.0650017 140.442713,20.2134763 138.688439,22.3471503" id="Path-78" fill="#0B8681"></path>
            <g id="Group-33" transform="translate(136.792687, 119.095104) scale(-1, 1) rotate(77.000000) translate(-136.792687, -119.095104) translate(129.292687, 115.595104)">
                <path d="M0.0800897401,0.49448587 C0.365177012,1.75067497 4.25809932,8.06461346 5.97054648,2.79201709 C6.32976491,1.6859895 4.51840937,0.96766216 3.79234082,0.0554846977" id="Path-89" fill="#0B8681"></path>
                <path d="M2.03192213,3.56757114 L3.00221405,6.93400056 L14.3552971,2.65008346 L14.3552971,1.818729 L6.50206319,1.818729 C6.17545664,2.74647363 5.70779066,3.32942101 5.09906525,3.56757114 C4.49033985,3.80572126 3.46795881,3.80572126 2.03192213,3.56757114 Z" id="Line-5" fill="#00615D"></path>
            </g>
            <g id="Group-93" transform="translate(80.070503, 115.500000) rotate(63.000000) translate(-80.070503, -115.500000) translate(74.570503, 107.000000)">
                <g id="Group-33" transform="translate(5.222183, 8.095104) scale(-1, 1) rotate(77.000000) translate(-5.222183, -8.095104) translate(-2.277817, 4.595104)">
                    <path d="M0.0800897401,0.49448587 C0.365177012,1.75067497 4.25809932,8.06461346 5.97054648,2.79201709 C6.32976491,1.6859895 4.51840937,0.96766216 3.79234082,0.0554846977" id="Path-89" fill="#0B8681"></path>
                    <path d="M2.03192213,3.56757114 L3.00221405,6.93400056 L14.3552971,2.65008346 L14.3552971,1.818729 L6.50206319,1.818729 C6.17545664,2.74647363 5.70779066,3.32942101 5.09906525,3.56757114 C4.49033985,3.80572126 3.46795881,3.80572126 2.03192213,3.56757114 Z" id="Line-5" fill="#00615D"></path>
                </g>
            </g>
            <g id="Group-27" transform="translate(99.570503, 21.000000)" fill="#0B8681">
                <g id="Group-24" transform="translate(10.077382, 10.906308) scale(-1, 1) rotate(-25.000000) translate(-10.077382, -10.906308) translate(3.577382, 1.906308)">
                    <path d="M1.75360409,9.53658389 C3.91689951,5.5811976 1.75360409,5.27143174 2.70647168,2.4973264 C3.76009919,-0.570123588 10.1477281,-0.325723786 11.1004118,2.47717401 C11.4679701,3.55857007 11.1140386,4.87075631 11.7056227,5.84869649 C11.8922021,6.15712847 12.1438408,6.7848761 12.1258692,7.16397905 C12.1098177,7.50257871 11.6606443,7.04605267 11.3448259,7.29020871 C10.7913262,7.71811381 11.561539,9.42417383 11.0213989,9.86868424 C10.2141588,10.5330057 8.90157993,10.2062245 8.00587933,10.7465555 C3.93809968,13.2004416 3.61502414,20.8483078 0.00447462291,15.0566661 L1.75360409,9.53658389 Z" id="Path-55"></path>
                </g>
            </g>
            <path d="M111.298402,17.5097987 C112.220278,17.448564 111.655914,19.8293787 112.491421,21.4393726 C113.343105,23.0805404 115.313759,24.9702267 116.107766,26.5400579 C116.747818,27.8055051 116.346903,28.8182126 116.107766,29.6711785 C115.286426,32.6007764 111.652131,32.0925317 109.530665,29.6711785 C109.202231,29.2963183 110.207695,26.8882519 109.894234,26.5400579 C108.864366,25.3960761 107.224173,25.241684 107.144394,24.8375766 C106.721122,21.4522774 110.195569,17.5830534 111.298402,17.5097987 Z" id="Path-184" fill="#1AAAA4"></path>
            <path d="M75.5705032,27.41457 C75.8844766,26.0904953 76.6732818,24.9229024 76.9637663,23.9776879 C78.1536568,20.1058745 78.6061315,20.9720504 78.3572076,21.8306339 C77.9838487,23.118416 77.6076203,24.0242956 78.3572076,23.5080669 C79.4304709,22.7689279 79.572779,21.8306339 79.9156682,20.9784109 C80.004952,20.7565034 80.1551004,19.7979275 80.5850841,19.7979275 C81.0150678,19.7979275 80.0810455,22.149606 80.362782,22.2274036 C80.466139,22.2559442 80.6142498,22.0497733 80.7808137,21.6797133 C81.0633002,21.0521047 81.388986,20.1125981 81.5676842,20.2060134 C81.9301655,20.3955021 81.3794044,22.4887846 81.5676842,22.6058814 C81.7777043,22.7364992 82.1545579,21.7491675 82.388975,21.8306339 C82.6454424,21.9197634 82.1823504,22.7616978 82.388975,22.9442815 C82.5849259,23.1174334 82.8986199,22.5492597 83.1281158,22.6058814 C83.5895192,22.7197199 81.8183121,25.4737532 81.5676842,25.6256638 C79.5263961,26.8629291 79.7373556,27.0114038 77.9830818,29.1450777" id="Path-78" fill="#0B8681" transform="translate(79.387467, 24.471503) scale(-1, 1) translate(-79.387467, -24.471503) "></path>
            <path d="M102.724646,52.7676478 C104.729285,51.4051955 106.733925,50.0427431 108.738564,48.6802908" id="Path-182" stroke="#B3EEEC" transform="translate(105.731605, 50.723969) rotate(23.000000) translate(-105.731605, -50.723969) "></path>
            <rect id="Rectangle-82" fill="#4BCCC7" x="21" y="162" width="40" height="64" rx="2"></rect>
            <g id="Group-106" transform="translate(30.000000, 190.000000)" stroke="#D9F9F8" stroke-linecap="round" stroke-width="2">
                <g id="Group-107">
                    <path d="M0,1.88956125 C7.71249307,-0.409998943 13.8936577,-1.21629046 21,3" id="Path-210"></path>
                    <path d="M2,5.97867802 C8.3770035,4.8414335 14.0925208,4.17364918 20,7" id="Path-211"></path>
                    <path d="M5,10.3358521 C13.5783389,10.0426204 9.95945904,9.51474991 16,11" id="Path-212"></path>
                </g>
            </g>
            <rect id="Rectangle-83" fill="#B3EEEC" x="28" y="211" width="25" height="6"></rect>
            <path d="M34.5691509,179.230865 C36.6133437,175.694873 38.6575364,172.15888 40.7017291,168.622888" id="Path-213" stroke="#008A85"></path>
            <path d="M37.2068008,182.392501 C39.778636,177.917946 42.3504713,173.443392 44.9223065,168.968837" id="Path-214" stroke="#008A85"></path>
            <path d="M43.2060621,180.433248 C43.9530869,178.83232 44.7001116,177.231392 45.4471364,175.630464" id="Path-215" stroke="#008A85"></path>
            <rect id="Rectangle-82" fill="#4BCCC7" x="71" y="162" width="40" height="64" rx="2"></rect>
            <g id="Group-106" transform="translate(80.000000, 190.000000)" stroke="#D9F9F8" stroke-linecap="round" stroke-width="2">
                <g id="Group-107">
                    <path d="M0,1.88956125 C7.71249307,-0.409998943 13.8936577,-1.21629046 21,3" id="Path-210"></path>
                    <path d="M2,5.97867802 C8.3770035,4.8414335 14.0925208,4.17364918 20,7" id="Path-211"></path>
                    <path d="M5,10.3358521 C13.5783389,10.0426204 9.95945904,9.51474991 16,11" id="Path-212"></path>
                </g>
            </g>
            <rect id="Rectangle-83" fill="#B3EEEC" x="78" y="211" width="25" height="6"></rect>
            <path d="M84.5691509,179.230865 C86.6133437,175.694873 88.6575364,172.15888 90.7017291,168.622888" id="Path-213" stroke="#008A85"></path>
            <path d="M87.2068008,182.392501 C89.778636,177.917946 92.3504713,173.443392 94.9223065,168.968837" id="Path-214" stroke="#008A85"></path>
            <path d="M93.2060621,180.433248 C93.9530869,178.83232 94.7001116,177.231392 95.4471364,175.630464" id="Path-215" stroke="#008A85"></path>
            <rect id="Rectangle-82" fill="#4BCCC7" x="121" y="162" width="40" height="64" rx="2"></rect>
            <g id="Group-106" transform="translate(130.000000, 190.000000)" stroke="#D9F9F8" stroke-linecap="round" stroke-width="2">
                <g id="Group-107">
                    <path d="M0,1.88956125 C7.71249307,-0.409998943 13.8936577,-1.21629046 21,3" id="Path-210"></path>
                    <path d="M2,5.97867802 C8.3770035,4.8414335 14.0925208,4.17364918 20,7" id="Path-211"></path>
                    <path d="M5,10.3358521 C13.5783389,10.0426204 9.95945904,9.51474991 16,11" id="Path-212"></path>
                </g>
            </g>
            <rect id="Rectangle-83" fill="#B3EEEC" x="128" y="211" width="25" height="6"></rect>
            <path d="M134.569151,179.230865 C136.613344,175.694873 138.657536,172.15888 140.701729,168.622888" id="Path-213" stroke="#008A85"></path>
            <path d="M137.206801,182.392501 C139.778636,177.917946 142.350471,173.443392 144.922306,168.968837" id="Path-214" stroke="#008A85"></path>
            <path d="M143.206062,180.433248 C143.953087,178.83232 144.700112,177.231392 145.447136,175.630464" id="Path-215" stroke="#008A85"></path>
            <path d="M173,162 L199.907614,162 L199.907614,226 L173,226 C171.895431,226 171,225.104569 171,224 L171,164 C171,162.895431 171.895431,162 173,162 Z" id="Rectangle-82" fill="#4BCCC7"></path>
            <g id="Group-106" transform="translate(180.000000, 189.000000)" stroke="#D9F9F8" stroke-linecap="round" stroke-width="2">
                <g id="Group-107">
                    <path d="M0,2.88956125 C7.71249307,0.590001057 12.0068636,-0.378826174 19.2341997,2.88956125" id="Path-210"></path>
                    <path d="M2,6.97867802 C8.3770035,5.8414335 12.9045847,4.96679871 18.8120639,7.79314953" id="Path-211"></path>
                    <path d="M5,11.3358521 C13.5783389,11.0426204 9.95945904,10.5147499 16,12" id="Path-212"></path>
                </g>
            </g>
            <rect id="Rectangle-83" fill="#B3EEEC" x="178" y="211" width="22" height="6"></rect>
            <path d="M184.569151,179.230865 C186.613344,175.694873 188.657536,172.15888 190.701729,168.622888" id="Path-213" stroke="#008A85"></path>
            <path d="M187.206801,182.392501 C189.778636,177.917946 192.350471,173.443392 194.922306,168.968837" id="Path-214" stroke="#008A85"></path>
            <path d="M193.206062,180.433248 C193.953087,178.83232 194.700112,177.231392 195.447136,175.630464" id="Path-215" stroke="#008A85"></path>
            <path d="M1,273.864138 C3.46772103,263.457375 9.66745282,254.280505 11.9505591,246.85145 C21.3026809,216.420356 24.8589729,223.228195 22.9025186,229.976359 C19.9680491,240.097875 17.0110253,247.21777 22.9025186,243.160394 C31.3379916,237.351021 32.4564833,229.976359 35.1514723,223.278186 C35.8532116,221.53407 37.0333251,214 40.4128463,214 C43.7923674,214 36.4512796,232.483368 38.6656302,233.09483 C39.4779797,233.319149 41.579545,230.08925 42.888679,227.180709 C45.1089243,222.247926 45.6638203,209.565087 47.0683254,210.299298 C48.6029602,211.101536 49.0089483,216.606917 48.1357382,223.278186 C47.3878755,228.991808 45.3688473,236.028074 46.0515414,236.452662 C47.7022255,237.479272 52.7483599,219.686379 54.5907958,220.326676 C56.6065395,221.027203 51.1082705,240.006499 52.732267,241.441543 C54.2723728,242.802456 56.2521256,229.531332 58.0558828,229.976359 C59.5794072,230.352247 60.0593193,235.548631 58.0558828,241.441543 C55.2905077,249.575622 41.5551365,260.591691 40.4128463,261.284056 C24.3690385,271.008528 14.7879765,276.404995 1,293.174924" id="Path-78" fill="#15A09B"></path>
            <path d="M38.5,96.5 L38.5,81.5" id="Line-40" stroke="#26B9B4" stroke-linecap="square"></path>
            <polyline id="Line-41" stroke="#26B9B4" stroke-linecap="square" points="36.5 95.5 38.5 97.5 41.1403615 95.5"></polyline>
            <polyline id="Line-41" stroke="#26B9B4" stroke-linecap="square" transform="translate(24.820181, 71.500000) rotate(-90.000000) translate(-24.820181, -71.500000) " points="22.5 70.5 24.5 72.5 27.1403615 70.5"></polyline>
            <circle id="Oval-37" fill="#6AD5D1" cx="38.5" cy="71.5" r="10.5"></circle>
            <path d="M37.9220211,65.2296326 C41.5074232,66.995274 39.2982976,66.6668146 37.6272356,69.284982 C37.1754771,69.9927831 40.2654164,71.7399055 40.4988697,72.9009162 C40.7988476,74.392768 35.1212723,76.0666135 39.301625,77.4772376" id="Path-209" stroke="#B3EEEC" transform="translate(39.046310, 71.353435) rotate(-86.000000) translate(-39.046310, -71.353435) "></path>
            <rect id="Rectangle-84" fill="#2EB0AB" x="158" y="238" width="21" height="11" rx="2"></rect>
            <rect id="Rectangle-85" fill="#B3EEEC" x="160" y="243" width="1" height="1"></rect>
            <rect id="Rectangle-85" fill="#B3EEEC" x="162" y="243" width="1" height="1"></rect>
            <rect id="Rectangle-85" fill="#B3EEEC" x="164" y="243" width="1" height="1"></rect>
            <rect id="Rectangle-85" fill="#B3EEEC" x="166" y="243" width="1" height="1"></rect>
            <rect id="Rectangle-85" fill="#B3EEEC" x="170" y="243" width="1" height="1"></rect>
            <rect id="Rectangle-85" fill="#B3EEEC" x="172" y="243" width="1" height="1"></rect>
            <rect id="Rectangle-85" fill="#B3EEEC" x="174" y="243" width="1" height="1"></rect>
            <rect id="Rectangle-86" fill="#B3EEEC" x="158" y="240" width="21" height="2"></rect>
            <rect id="Rectangle-84" fill="#2EB0AB" x="138" y="277" width="21" height="11" rx="2"></rect>
            <rect id="Rectangle-85" fill="#B3EEEC" x="142" y="282" width="1" height="1"></rect>
            <rect id="Rectangle-85" fill="#B3EEEC" x="144" y="282" width="1" height="1"></rect>
            <rect id="Rectangle-85" fill="#B3EEEC" x="146" y="282" width="1" height="1"></rect>
            <rect id="Rectangle-85" fill="#B3EEEC" x="150" y="282" width="1" height="1"></rect>
            <rect id="Rectangle-85" fill="#B3EEEC" x="152" y="282" width="1" height="1"></rect>
            <rect id="Rectangle-85" fill="#B3EEEC" x="154" y="282" width="1" height="1"></rect>
            <rect id="Rectangle-86" fill="#B3EEEC" x="138" y="279" width="21" height="2"></rect>
            <rect id="Rectangle-84" fill="#2EB0AB" x="88" y="258" width="21" height="11" rx="2"></rect>
            <rect id="Rectangle-85" fill="#B3EEEC" x="92" y="263" width="1" height="1"></rect>
            <rect id="Rectangle-85" fill="#B3EEEC" x="94" y="263" width="1" height="1"></rect>
            <rect id="Rectangle-85" fill="#B3EEEC" x="96" y="263" width="1" height="1"></rect>
            <rect id="Rectangle-85" fill="#B3EEEC" x="100" y="263" width="1" height="1"></rect>
            <rect id="Rectangle-85" fill="#B3EEEC" x="102" y="263" width="1" height="1"></rect>
            <rect id="Rectangle-85" fill="#B3EEEC" x="104" y="263" width="1" height="1"></rect>
            <rect id="Rectangle-86" fill="#B3EEEC" x="88" y="260" width="21" height="2"></rect>
            <rect id="Rectangle-84" fill="#2EB0AB" x="99" y="308" width="21" height="11" rx="2"></rect>
            <rect id="Rectangle-85" fill="#B3EEEC" x="103" y="313" width="1" height="1"></rect>
            <rect id="Rectangle-85" fill="#B3EEEC" x="105" y="313" width="1" height="1"></rect>
            <rect id="Rectangle-85" fill="#B3EEEC" x="107" y="313" width="1" height="1"></rect>
            <rect id="Rectangle-85" fill="#B3EEEC" x="111" y="313" width="1" height="1"></rect>
            <rect id="Rectangle-85" fill="#B3EEEC" x="113" y="313" width="1" height="1"></rect>
            <rect id="Rectangle-85" fill="#B3EEEC" x="115" y="313" width="1" height="1"></rect>
            <rect id="Rectangle-86" fill="#B3EEEC" x="99" y="310" width="21" height="2"></rect>
        </g>
    </g>
</svg>