<?xml version="1.0" encoding="UTF-8"?>
<svg width="199px" height="327px" viewBox="0 0 199 327" version="1.1" xmlns="http://www.w3.org/2000/svg" xmlns:xlink="http://www.w3.org/1999/xlink">
    <!-- Generator: Sketch 49.1 (51147) - http://www.bohemiancoding.com/sketch -->
    <title>Rectangle 18</title>
    <desc>Created with Sketch.</desc>
    <defs></defs>
    <g id="Page-1" stroke="none" stroke-width="1" fill="none" fill-rule="evenodd">
        <rect id="Rectangle-18" fill="#DEDDDD" x="0" y="0" width="199" height="327" rx="3"></rect>
        <path d="M75.4804688,166.345703 L68.4638672,166.345703 L67.6289062,168.279297 C67.3554674,168.923831 67.21875,169.456053 67.21875,169.875977 C67.21875,170.43262 67.4433571,170.842772 67.8925781,171.106445 C68.1562513,171.262696 68.8056589,171.379882 69.8408203,171.458008 L69.8408203,172 L63.234375,172 L63.234375,171.458008 C63.9472692,171.350585 64.5332008,171.055178 64.9921875,170.571777 C65.4511742,170.088376 66.0175748,169.089851 66.6914062,167.576172 L73.7958984,151.726562 L74.0742188,151.726562 L81.2373047,168.015625 C81.9209019,169.558601 82.4824197,170.530271 82.921875,170.930664 C83.2539079,171.2334 83.7226532,171.409179 84.328125,171.458008 L84.328125,172 L74.71875,172 L74.71875,171.458008 L75.1142578,171.458008 C75.885746,171.458008 76.4277328,171.350587 76.7402344,171.135742 C76.9550792,170.979491 77.0625,170.754884 77.0625,170.461914 C77.0625,170.286132 77.0332034,170.10547 76.9746094,169.919922 C76.955078,169.832031 76.8085951,169.465824 76.5351562,168.821289 L75.4804688,166.345703 Z M74.9824219,165.261719 L72.0234375,158.420898 L68.9765625,165.261719 L74.9824219,165.261719 Z M92.765625,163.005859 L92.765625,168.513672 C92.765625,169.587896 92.8315423,170.264159 92.9633789,170.54248 C93.0952155,170.820802 93.3295882,171.042968 93.6665039,171.208984 C94.0034197,171.375001 94.6210893,171.458008 95.5195312,171.458008 L95.5195312,172 L85.4267578,172 L85.4267578,171.458008 C86.3447312,171.458008 86.9672835,171.372559 87.2944336,171.20166 C87.6215837,171.030761 87.8510736,170.808595 87.9829102,170.535156 C88.1147468,170.261717 88.1806641,169.587896 88.1806641,168.513672 L88.1806641,155.623047 C88.1806641,154.548823 88.1147468,153.87256 87.9829102,153.594238 C87.8510736,153.315917 87.6191423,153.093751 87.2871094,152.927734 C86.9550765,152.761718 86.3349655,152.678711 85.4267578,152.678711 L85.4267578,152.136719 L94.0839844,152.136719 C96.9355611,152.136719 98.9814391,152.644526 100.22168,153.660156 C101.46192,154.675786 102.082031,155.945305 102.082031,157.46875 C102.082031,158.757819 101.681645,159.861324 100.880859,160.779297 C100.080074,161.69727 98.9765695,162.322264 97.5703125,162.654297 C96.6230421,162.888673 95.0214957,163.005859 92.765625,163.005859 Z M92.765625,153.279297 L92.765625,161.863281 C93.0878922,161.882813 93.3320304,161.892578 93.4980469,161.892578 C94.6894591,161.892578 95.6074187,161.538578 96.2519531,160.830566 C96.8964876,160.122555 97.21875,159.026375 97.21875,157.541992 C97.21875,156.067375 96.8964876,154.988285 96.2519531,154.304688 C95.6074187,153.62109 94.6455142,153.279297 93.3662109,153.279297 L92.765625,153.279297 Z M111.09082,163.005859 L111.09082,168.513672 C111.09082,169.587896 111.156738,170.264159 111.288574,170.54248 C111.420411,170.820802 111.654783,171.042968 111.991699,171.208984 C112.328615,171.375001 112.946285,171.458008 113.844727,171.458008 L113.844727,172 L103.751953,172 L103.751953,171.458008 C104.669926,171.458008 105.292479,171.372559 105.619629,171.20166 C105.946779,171.030761 106.176269,170.808595 106.308105,170.535156 C106.439942,170.261717 106.505859,169.587896 106.505859,168.513672 L106.505859,155.623047 C106.505859,154.548823 106.439942,153.87256 106.308105,153.594238 C106.176269,153.315917 105.944338,153.093751 105.612305,152.927734 C105.280272,152.761718 104.660161,152.678711 103.751953,152.678711 L103.751953,152.136719 L112.40918,152.136719 C115.260756,152.136719 117.306634,152.644526 118.546875,153.660156 C119.787116,154.675786 120.407227,155.945305 120.407227,157.46875 C120.407227,158.757819 120.00684,159.861324 119.206055,160.779297 C118.405269,161.69727 117.301765,162.322264 115.895508,162.654297 C114.948237,162.888673 113.346691,163.005859 111.09082,163.005859 Z M111.09082,153.279297 L111.09082,161.863281 C111.413088,161.882813 111.657226,161.892578 111.823242,161.892578 C113.014654,161.892578 113.932614,161.538578 114.577148,160.830566 C115.221683,160.122555 115.543945,159.026375 115.543945,157.541992 C115.543945,156.067375 115.221683,154.988285 114.577148,154.304688 C113.932614,153.62109 112.97071,153.279297 111.691406,153.279297 L111.09082,153.279297 Z M135.407227,151.682617 L135.568359,158.303711 L134.967773,158.303711 C134.684569,156.643546 133.988775,155.308111 132.880371,154.297363 C131.771967,153.286616 130.573249,152.78125 129.28418,152.78125 C128.288081,152.78125 127.499515,153.047361 126.918457,153.57959 C126.337399,154.111819 126.046875,154.724606 126.046875,155.417969 C126.046875,155.857424 126.149413,156.248045 126.354492,156.589844 C126.637697,157.04883 127.091794,157.502927 127.716797,157.952148 C128.175784,158.274416 129.235343,158.845699 130.895508,159.666016 C133.219738,160.808599 134.787105,161.88769 135.597656,162.90332 C136.398442,163.91895 136.798828,165.081048 136.798828,166.389648 C136.798828,168.049813 136.151862,169.478021 134.85791,170.674316 C133.563958,171.870611 131.920908,172.46875 129.928711,172.46875 C129.303708,172.46875 128.712893,172.405274 128.15625,172.27832 C127.599607,172.151367 126.901371,171.912111 126.061523,171.560547 C125.592771,171.365233 125.207033,171.267578 124.904297,171.267578 C124.650389,171.267578 124.381837,171.365233 124.098633,171.560547 C123.815428,171.75586 123.585938,172.053709 123.410156,172.454102 L122.868164,172.454102 L122.868164,164.954102 L123.410156,164.954102 C123.839846,167.063487 124.667474,168.672358 125.893066,169.780762 C127.118658,170.889166 128.439446,171.443359 129.855469,171.443359 C130.949224,171.443359 131.820798,171.145511 132.470215,170.549805 C133.119632,169.954099 133.444336,169.260746 133.444336,168.469727 C133.444336,168.000974 133.319825,167.546877 133.070801,167.107422 C132.821776,166.667967 132.443362,166.25049 131.935547,165.85498 C131.427732,165.459471 130.529303,164.944339 129.240234,164.30957 C127.433585,163.420894 126.13477,162.664066 125.34375,162.039062 C124.55273,161.414059 123.944826,160.715824 123.52002,159.944336 C123.095213,159.172848 122.882812,158.323247 122.882812,157.395508 C122.882812,155.813469 123.463861,154.465826 124.625977,153.352539 C125.788092,152.239252 127.252921,151.682617 129.020508,151.682617 C129.665042,151.682617 130.290036,151.760741 130.895508,151.916992 C131.354494,152.03418 131.913571,152.251463 132.572754,152.568848 C133.231937,152.886232 133.693358,153.044922 133.957031,153.044922 C134.210939,153.044922 134.411132,152.966798 134.557617,152.810547 C134.704102,152.654296 134.84082,152.278323 134.967773,151.682617 L135.407227,151.682617 Z" id="APPS" fill="#BAB7B7"></path>
    </g>
</svg>