<?xml version="1.0" encoding="UTF-8"?>
<svg width="199px" height="327px" viewBox="0 0 199 327" version="1.1" xmlns="http://www.w3.org/2000/svg" xmlns:xlink="http://www.w3.org/1999/xlink">
    <!-- Generator: Sketch 49.1 (51147) - http://www.bohemiancoding.com/sketch -->
    <title>Rectangle 18</title>
    <desc>Created with Sketch.</desc>
    <defs></defs>
    <g id="Page-1" stroke="none" stroke-width="1" fill="none" fill-rule="evenodd">
        <rect id="Rectangle-18" fill="#FEEAFE" x="0" y="0" width="199" height="327" rx="3"></rect>
        <path d="M21.4707031,153.136719 L31.2705078,165.456055 L31.2705078,156.916016 C31.2705078,155.724603 31.0996111,154.918947 30.7578125,154.499023 C30.2890602,153.932614 29.5029352,153.65918 28.3994141,153.678711 L28.3994141,153.136719 L34.9619141,153.136719 L34.9619141,153.678711 C34.1220661,153.786133 33.5581069,153.925292 33.2700195,154.096191 C32.9819322,154.267091 32.757325,154.545408 32.5961914,154.931152 C32.4350578,155.316896 32.3544922,155.978511 32.3544922,156.916016 L32.3544922,173.454102 L31.8564453,173.454102 L18.4238281,156.916016 L18.4238281,169.542969 C18.4238281,170.685553 18.685056,171.457029 19.2075195,171.857422 C19.7299831,172.257815 20.3281216,172.458008 21.0019531,172.458008 L21.4707031,172.458008 L21.4707031,173 L14.4248047,173 L14.4248047,172.458008 C15.5185602,172.448242 16.2802713,172.223635 16.7099609,171.78418 C17.1396506,171.344724 17.3544922,170.597662 17.3544922,169.542969 L17.3544922,155.524414 L16.9296875,154.99707 C16.5097635,154.469724 16.1386735,154.123048 15.8164062,153.957031 C15.494139,153.791015 15.0302765,153.698242 14.4248047,153.678711 L14.4248047,153.136719 L21.4707031,153.136719 Z M36.3681641,153.136719 L46.6220703,153.136719 L46.6220703,153.678711 L46.109375,153.678711 C45.3378868,153.678711 44.8081069,153.759277 44.5200195,153.92041 C44.2319322,154.081544 44.0268561,154.30371 43.9047852,154.586914 C43.7827142,154.870119 43.7216797,155.578119 43.7216797,156.710938 L43.7216797,166.4375 C43.7216797,168.214853 43.8559557,169.391599 44.1245117,169.967773 C44.3930677,170.543948 44.8349579,171.022459 45.4501953,171.40332 C46.0654328,171.784182 46.8417922,171.974609 47.7792969,171.974609 C48.853521,171.974609 49.7690392,171.732913 50.5258789,171.249512 C51.2827186,170.766111 51.8491192,170.099614 52.2250977,169.25 C52.6010761,168.400386 52.7890625,166.920909 52.7890625,164.811523 L52.7890625,156.710938 C52.7890625,155.822261 52.69629,155.187502 52.5107422,154.806641 C52.3251944,154.425779 52.0908217,154.16211 51.8076172,154.015625 C51.3681619,153.791015 50.7480509,153.678711 49.9472656,153.678711 L49.9472656,153.136719 L56.8173828,153.136719 L56.8173828,153.678711 L56.4072266,153.678711 C55.8505832,153.678711 55.3867206,153.791015 55.015625,154.015625 C54.6445294,154.240235 54.3759774,154.577146 54.2099609,155.026367 C54.0830072,155.338869 54.0195312,155.900387 54.0195312,156.710938 L54.0195312,164.254883 C54.0195312,166.588879 53.8657242,168.273432 53.5581055,169.308594 C53.2504867,170.343755 52.5009825,171.295894 51.3095703,172.165039 C50.1181581,173.034184 48.4921978,173.46875 46.4316406,173.46875 C44.712882,173.46875 43.3847703,173.23926 42.4472656,172.780273 C41.1679624,172.15527 40.2646511,171.354497 39.7373047,170.37793 C39.2099583,169.401362 38.9462891,168.087899 38.9462891,166.4375 L38.9462891,156.710938 C38.9462891,155.568354 38.8828131,154.857912 38.7558594,154.57959 C38.6289056,154.301268 38.4091813,154.079102 38.0966797,153.913086 C37.7841781,153.747069 37.208012,153.668945 36.3681641,153.678711 L36.3681641,153.136719 Z M76.2558594,153.136719 L76.2558594,158.512695 L75.7285156,158.512695 C75.4160141,157.272455 75.0693378,156.38135 74.6884766,155.839355 C74.3076153,155.297361 73.7851596,154.865236 73.1210938,154.542969 C72.7499981,154.367187 72.1005906,154.279297 71.1728516,154.279297 L69.6933594,154.279297 L69.6933594,169.601562 C69.6933594,170.617193 69.7495112,171.251952 69.8618164,171.505859 C69.9741217,171.759767 70.193846,171.981933 70.5209961,172.172363 C70.8481462,172.362794 71.294919,172.458008 71.8613281,172.458008 L72.5205078,172.458008 L72.5205078,173 L62.1201172,173 L62.1201172,172.458008 L62.7792969,172.458008 C63.3554716,172.458008 63.8193342,172.35547 64.1708984,172.150391 C64.424806,172.013671 64.6249993,171.779299 64.7714844,171.447266 C64.8789068,171.212889 64.9326172,170.597661 64.9326172,169.601562 L64.9326172,154.279297 L63.4970703,154.279297 C62.159173,154.279297 61.187503,154.562497 60.5820312,155.128906 C59.7324176,155.919926 59.1953136,157.047844 58.9707031,158.512695 L58.4140625,158.512695 L58.4140625,153.136719 L76.2558594,153.136719 Z M85.3085938,163.947266 L85.3085938,169.513672 C85.3085938,170.587896 85.3745111,171.264159 85.5063477,171.54248 C85.6381843,171.820802 85.8701155,172.042968 86.2021484,172.208984 C86.5341813,172.375001 87.1542923,172.458008 88.0625,172.458008 L88.0625,173 L77.8964844,173 L77.8964844,172.458008 C78.8144577,172.458008 79.4370101,172.372559 79.7641602,172.20166 C80.0913102,172.030761 80.3208001,171.808595 80.4526367,171.535156 C80.5844733,171.261717 80.6503906,170.587896 80.6503906,169.513672 L80.6503906,156.623047 C80.6503906,155.548823 80.5844733,154.87256 80.4526367,154.594238 C80.3208001,154.315917 80.0888688,154.093751 79.7568359,153.927734 C79.424803,153.761718 78.804692,153.678711 77.8964844,153.678711 L77.8964844,153.136719 L87.125,153.136719 C89.5273558,153.136719 91.2851507,153.302733 92.3984375,153.634766 C93.5117243,153.966799 94.4199184,154.579585 95.1230469,155.473145 C95.8261754,156.366704 96.1777344,157.414056 96.1777344,158.615234 C96.1777344,160.080085 95.6503959,161.291011 94.5957031,162.248047 C93.9218716,162.853519 92.9794982,163.307616 91.7685547,163.610352 L96.5439453,170.333984 C97.1689484,171.203129 97.6132799,171.745116 97.8769531,171.959961 C98.2773458,172.262697 98.7412083,172.428711 99.2685547,172.458008 L99.2685547,173 L93.0136719,173 L86.6123047,163.947266 L85.3085938,163.947266 Z M85.3085938,154.206055 L85.3085938,162.907227 L86.1435547,162.907227 C87.5009833,162.907227 88.5165982,162.782716 89.1904297,162.533691 C89.8642612,162.284667 90.394041,161.835452 90.7797852,161.186035 C91.1655293,160.536618 91.3583984,159.689458 91.3583984,158.644531 C91.3583984,157.130852 91.0043981,156.012699 90.2963867,155.290039 C89.5883754,154.567379 88.44825,154.206055 86.8759766,154.206055 L85.3085938,154.206055 Z M109.991211,172.458008 L109.991211,173 L99.6054688,173 L99.6054688,172.458008 L100.264648,172.458008 C100.840823,172.458008 101.304686,172.35547 101.65625,172.150391 C101.910158,172.013671 102.105468,171.779299 102.242188,171.447266 C102.34961,171.212889 102.40332,170.597661 102.40332,169.601562 L102.40332,156.535156 C102.40332,155.519526 102.34961,154.884767 102.242188,154.630859 C102.134765,154.376952 101.917482,154.154786 101.590332,153.964355 C101.263182,153.773925 100.821292,153.678711 100.264648,153.678711 L99.6054688,153.678711 L99.6054688,153.136719 L109.991211,153.136719 L109.991211,153.678711 L109.332031,153.678711 C108.755856,153.678711 108.291994,153.781249 107.94043,153.986328 C107.686522,154.123048 107.486329,154.35742 107.339844,154.689453 C107.232421,154.923829 107.178711,155.539058 107.178711,156.535156 L107.178711,169.601562 C107.178711,170.617193 107.234863,171.251952 107.347168,171.505859 C107.459473,171.759767 107.679198,171.981933 108.006348,172.172363 C108.333498,172.362794 108.775388,172.458008 109.332031,172.458008 L109.991211,172.458008 Z M129.605469,153.136719 L129.605469,158.512695 L129.078125,158.512695 C128.765623,157.272455 128.418947,156.38135 128.038086,155.839355 C127.657225,155.297361 127.134769,154.865236 126.470703,154.542969 C126.099608,154.367187 125.4502,154.279297 124.522461,154.279297 L123.042969,154.279297 L123.042969,169.601562 C123.042969,170.617193 123.099121,171.251952 123.211426,171.505859 C123.323731,171.759767 123.543455,171.981933 123.870605,172.172363 C124.197756,172.362794 124.644528,172.458008 125.210938,172.458008 L125.870117,172.458008 L125.870117,173 L115.469727,173 L115.469727,172.458008 L116.128906,172.458008 C116.705081,172.458008 117.168944,172.35547 117.520508,172.150391 C117.774415,172.013671 117.974609,171.779299 118.121094,171.447266 C118.228516,171.212889 118.282227,170.597661 118.282227,169.601562 L118.282227,154.279297 L116.84668,154.279297 C115.508782,154.279297 114.537112,154.562497 113.931641,155.128906 C113.082027,155.919926 112.544923,157.047844 112.320312,158.512695 L111.763672,158.512695 L111.763672,153.136719 L129.605469,153.136719 Z M141.675781,172.458008 L141.675781,173 L131.290039,173 L131.290039,172.458008 L131.949219,172.458008 C132.525394,172.458008 132.989256,172.35547 133.34082,172.150391 C133.594728,172.013671 133.790038,171.779299 133.926758,171.447266 C134.03418,171.212889 134.087891,170.597661 134.087891,169.601562 L134.087891,156.535156 C134.087891,155.519526 134.03418,154.884767 133.926758,154.630859 C133.819335,154.376952 133.602052,154.154786 133.274902,153.964355 C132.947752,153.773925 132.505862,153.678711 131.949219,153.678711 L131.290039,153.678711 L131.290039,153.136719 L141.675781,153.136719 L141.675781,153.678711 L141.016602,153.678711 C140.440427,153.678711 139.976564,153.781249 139.625,153.986328 C139.371092,154.123048 139.170899,154.35742 139.024414,154.689453 C138.916992,154.923829 138.863281,155.539058 138.863281,156.535156 L138.863281,169.601562 C138.863281,170.617193 138.919433,171.251952 139.031738,171.505859 C139.144044,171.759767 139.363768,171.981933 139.690918,172.172363 C140.018068,172.362794 140.459958,172.458008 141.016602,172.458008 L141.675781,172.458008 Z M153.951172,152.858398 C157.11525,152.74121 159.686025,153.664053 161.663574,155.626953 C163.641123,157.589854 164.629883,160.045884 164.629883,162.995117 C164.629883,165.514661 163.892585,167.731436 162.417969,169.645508 C160.464834,172.184583 157.706073,173.454102 154.141602,173.454102 C150.567365,173.454102 147.803721,172.243176 145.850586,169.821289 C144.307609,167.907217 143.536133,165.636732 143.536133,163.009766 C143.536133,160.060532 144.539541,157.602061 146.546387,155.634277 C148.553233,153.666494 151.02147,152.74121 153.951172,152.858398 Z M154.126953,153.795898 C152.310538,153.795898 150.928716,154.723624 149.981445,156.579102 C149.209957,158.102547 148.824219,160.290025 148.824219,163.141602 C148.824219,166.53029 149.419916,169.035148 150.611328,170.65625 C151.44141,171.789068 152.603508,172.355469 154.097656,172.355469 C155.103521,172.355469 155.943356,172.111331 156.617188,171.623047 C157.476567,170.998044 158.145505,169.999519 158.624023,168.627441 C159.102541,167.255364 159.341797,165.465831 159.341797,163.258789 C159.341797,160.631823 159.097659,158.66651 158.609375,157.362793 C158.121091,156.059076 157.498539,155.138675 156.741699,154.601562 C155.984859,154.06445 155.113286,153.795898 154.126953,153.795898 Z M173.169922,153.136719 L182.969727,165.456055 L182.969727,156.916016 C182.969727,155.724603 182.79883,154.918947 182.457031,154.499023 C181.988279,153.932614 181.202154,153.65918 180.098633,153.678711 L180.098633,153.136719 L186.661133,153.136719 L186.661133,153.678711 C185.821285,153.786133 185.257326,153.925292 184.969238,154.096191 C184.681151,154.267091 184.456544,154.545408 184.29541,154.931152 C184.134277,155.316896 184.053711,155.978511 184.053711,156.916016 L184.053711,173.454102 L183.555664,173.454102 L170.123047,156.916016 L170.123047,169.542969 C170.123047,170.685553 170.384275,171.457029 170.906738,171.857422 C171.429202,172.257815 172.02734,172.458008 172.701172,172.458008 L173.169922,172.458008 L173.169922,173 L166.124023,173 L166.124023,172.458008 C167.217779,172.448242 167.97949,172.223635 168.40918,171.78418 C168.838869,171.344724 169.053711,170.597662 169.053711,169.542969 L169.053711,155.524414 L168.628906,154.99707 C168.208982,154.469724 167.837892,154.123048 167.515625,153.957031 C167.193358,153.791015 166.729495,153.698242 166.124023,153.678711 L166.124023,153.136719 L173.169922,153.136719 Z" id="NUTRITION" fill="#E7C0E7"></path>
    </g>
</svg>