<?xml version="1.0" encoding="UTF-8"?>
<svg width="199px" height="327px" viewBox="0 0 199 327" version="1.1" xmlns="http://www.w3.org/2000/svg" xmlns:xlink="http://www.w3.org/1999/xlink">
    <!-- Generator: Sketch 49.1 (51147) - http://www.bohemiancoding.com/sketch -->
    <title>Rectangle 18</title>
    <desc>Created with Sketch.</desc>
    <defs></defs>
    <g id="Page-1" stroke="none" stroke-width="1" fill="none" fill-rule="evenodd">
        <rect id="Rectangle-18" fill="#C8BAEC" x="0" y="0" width="199" height="327" rx="3"></rect>
        <path d="M58.96875,162.947266 L58.96875,168.513672 C58.96875,169.587896 59.0346673,170.264159 59.1665039,170.54248 C59.2983405,170.820802 59.5302718,171.042968 59.8623047,171.208984 C60.1943376,171.375001 60.8144486,171.458008 61.7226562,171.458008 L61.7226562,172 L51.5566406,172 L51.5566406,171.458008 C52.474614,171.458008 53.0971663,171.372559 53.4243164,171.20166 C53.7514665,171.030761 53.9809564,170.808595 54.112793,170.535156 C54.2446296,170.261717 54.3105469,169.587896 54.3105469,168.513672 L54.3105469,155.623047 C54.3105469,154.548823 54.2446296,153.87256 54.112793,153.594238 C53.9809564,153.315917 53.7490251,153.093751 53.4169922,152.927734 C53.0849593,152.761718 52.4648483,152.678711 51.5566406,152.678711 L51.5566406,152.136719 L60.7851562,152.136719 C63.187512,152.136719 64.9453069,152.302733 66.0585938,152.634766 C67.1718806,152.966799 68.0800746,153.579585 68.7832031,154.473145 C69.4863316,155.366704 69.8378906,156.414056 69.8378906,157.615234 C69.8378906,159.080085 69.3105521,160.291011 68.2558594,161.248047 C67.5820279,161.853519 66.6396545,162.307616 65.4287109,162.610352 L70.2041016,169.333984 C70.8291047,170.203129 71.2734362,170.745116 71.5371094,170.959961 C71.937502,171.262697 72.4013646,171.428711 72.9287109,171.458008 L72.9287109,172 L66.6738281,172 L60.2724609,162.947266 L58.96875,162.947266 Z M58.96875,153.206055 L58.96875,161.907227 L59.8037109,161.907227 C61.1611396,161.907227 62.1767544,161.782716 62.8505859,161.533691 C63.5244174,161.284667 64.0541973,160.835452 64.4399414,160.186035 C64.8256855,159.536618 65.0185547,158.689458 65.0185547,157.644531 C65.0185547,156.130852 64.6645543,155.012699 63.956543,154.290039 C63.2485316,153.567379 62.1084063,153.206055 60.5361328,153.206055 L58.96875,153.206055 Z M85.1455078,166.345703 L78.1289062,166.345703 L77.2939453,168.279297 C77.0205064,168.923831 76.8837891,169.456053 76.8837891,169.875977 C76.8837891,170.43262 77.1083962,170.842772 77.5576172,171.106445 C77.8212904,171.262696 78.4706979,171.379882 79.5058594,171.458008 L79.5058594,172 L72.8994141,172 L72.8994141,171.458008 C73.6123083,171.350585 74.1982399,171.055178 74.6572266,170.571777 C75.1162132,170.088376 75.6826138,169.089851 76.3564453,167.576172 L83.4609375,151.726562 L83.7392578,151.726562 L90.9023438,168.015625 C91.5859409,169.558601 92.1474587,170.530271 92.5869141,170.930664 C92.918947,171.2334 93.3876923,171.409179 93.9931641,171.458008 L93.9931641,172 L84.3837891,172 L84.3837891,171.458008 L84.7792969,171.458008 C85.5507851,171.458008 86.0927719,171.350587 86.4052734,171.135742 C86.6201183,170.979491 86.7275391,170.754884 86.7275391,170.461914 C86.7275391,170.286132 86.6982425,170.10547 86.6396484,169.919922 C86.6201171,169.832031 86.4736342,169.465824 86.2001953,168.821289 L85.1455078,166.345703 Z M84.6474609,165.261719 L81.6884766,158.420898 L78.6416016,165.261719 L84.6474609,165.261719 Z M114.354492,151.682617 L114.354492,158.567383 L113.783203,158.567383 C113.353513,156.770499 112.55274,155.393559 111.380859,154.436523 C110.208979,153.479487 108.880867,153.000977 107.396484,153.000977 C106.156244,153.000977 105.01856,153.357418 103.983398,154.070312 C102.948237,154.783207 102.191409,155.715815 101.712891,156.868164 C101.097653,158.342781 100.790039,159.983389 100.790039,161.790039 C100.790039,163.567392 101.014646,165.186028 101.463867,166.645996 C101.913088,168.105964 102.616206,169.209469 103.573242,169.956543 C104.530278,170.703617 105.7705,171.077148 107.293945,171.077148 C108.543952,171.077148 109.68896,170.803714 110.729004,170.256836 C111.769048,169.709958 112.865229,168.767585 114.017578,167.429688 L114.017578,169.143555 C112.904291,170.30567 111.744635,171.147947 110.538574,171.67041 C109.332514,172.192874 107.923836,172.454102 106.3125,172.454102 C104.193349,172.454102 102.311043,172.029301 100.665527,171.179688 C99.0200113,170.330074 97.7504927,169.109383 96.8569336,167.517578 C95.9633744,165.925773 95.5166016,164.231454 95.5166016,162.43457 C95.5166016,160.54003 96.0122021,158.743173 97.003418,157.043945 C97.9946339,155.344718 99.3325111,154.026372 101.01709,153.088867 C102.701669,152.151362 104.491201,151.682617 106.385742,151.682617 C107.782234,151.682617 109.256828,151.985349 110.80957,152.59082 C111.708012,152.942385 112.279296,153.118164 112.523438,153.118164 C112.835939,153.118164 113.106932,153.003419 113.336426,152.773926 C113.565919,152.544432 113.714843,152.180667 113.783203,151.682617 L114.354492,151.682617 Z M124.168945,153.279297 L124.168945,161.365234 L124.564453,161.365234 C125.824225,161.365234 126.737302,160.969731 127.303711,160.178711 C127.87012,159.387691 128.231445,158.220711 128.387695,156.677734 L128.944336,156.677734 L128.944336,167.078125 L128.387695,167.078125 C128.270507,165.945307 128.023928,165.017582 127.647949,164.294922 C127.271971,163.572262 126.834963,163.086427 126.336914,162.837402 C125.838865,162.588378 125.116216,162.463867 124.168945,162.463867 L124.168945,168.05957 C124.168945,169.153326 124.215332,169.822264 124.308105,170.066406 C124.400879,170.310548 124.574217,170.510741 124.828125,170.666992 C125.082033,170.823243 125.492185,170.901367 126.058594,170.901367 L127.245117,170.901367 C129.100595,170.901367 130.587397,170.471684 131.705566,169.612305 C132.823736,168.752925 133.626951,167.444345 134.115234,165.686523 L134.657227,165.686523 L133.763672,172 L116.595703,172 L116.595703,171.458008 L117.254883,171.458008 C117.831058,171.458008 118.29492,171.35547 118.646484,171.150391 C118.900392,171.013671 119.095702,170.779299 119.232422,170.447266 C119.339844,170.212889 119.393555,169.597661 119.393555,168.601562 L119.393555,155.535156 C119.393555,154.636714 119.369141,154.084962 119.320312,153.879883 C119.222656,153.538084 119.041994,153.274415 118.77832,153.088867 C118.407225,152.815428 117.899417,152.678711 117.254883,152.678711 L116.595703,152.678711 L116.595703,152.136719 L133.22168,152.136719 L133.22168,158.010742 L132.665039,158.010742 C132.381835,156.575188 131.983889,155.544925 131.471191,154.919922 C130.958494,154.294919 130.233403,153.835939 129.295898,153.542969 C128.749021,153.367187 127.72364,153.279297 126.219727,153.279297 L124.168945,153.279297 Z M150.09668,151.682617 L150.257812,158.303711 L149.657227,158.303711 C149.374022,156.643546 148.678228,155.308111 147.569824,154.297363 C146.46142,153.286616 145.262702,152.78125 143.973633,152.78125 C142.977534,152.78125 142.188968,153.047361 141.60791,153.57959 C141.026853,154.111819 140.736328,154.724606 140.736328,155.417969 C140.736328,155.857424 140.838866,156.248045 141.043945,156.589844 C141.32715,157.04883 141.781247,157.502927 142.40625,157.952148 C142.865237,158.274416 143.924796,158.845699 145.584961,159.666016 C147.909191,160.808599 149.476558,161.88769 150.287109,162.90332 C151.087895,163.91895 151.488281,165.081048 151.488281,166.389648 C151.488281,168.049813 150.841315,169.478021 149.547363,170.674316 C148.253411,171.870611 146.610362,172.46875 144.618164,172.46875 C143.993161,172.46875 143.402347,172.405274 142.845703,172.27832 C142.28906,172.151367 141.590825,171.912111 140.750977,171.560547 C140.282224,171.365233 139.896486,171.267578 139.59375,171.267578 C139.339842,171.267578 139.07129,171.365233 138.788086,171.560547 C138.504881,171.75586 138.275392,172.053709 138.099609,172.454102 L137.557617,172.454102 L137.557617,164.954102 L138.099609,164.954102 C138.529299,167.063487 139.356927,168.672358 140.58252,169.780762 C141.808112,170.889166 143.128899,171.443359 144.544922,171.443359 C145.638677,171.443359 146.510251,171.145511 147.159668,170.549805 C147.809085,169.954099 148.133789,169.260746 148.133789,168.469727 C148.133789,168.000974 148.009279,167.546877 147.760254,167.107422 C147.511229,166.667967 147.132815,166.25049 146.625,165.85498 C146.117185,165.459471 145.218756,164.944339 143.929688,164.30957 C142.123038,163.420894 140.824223,162.664066 140.033203,162.039062 C139.242184,161.414059 138.634279,160.715824 138.209473,159.944336 C137.784666,159.172848 137.572266,158.323247 137.572266,157.395508 C137.572266,155.813469 138.153315,154.465826 139.31543,153.352539 C140.477545,152.239252 141.942374,151.682617 143.709961,151.682617 C144.354495,151.682617 144.979489,151.760741 145.584961,151.916992 C146.043948,152.03418 146.603024,152.251463 147.262207,152.568848 C147.92139,152.886232 148.382811,153.044922 148.646484,153.044922 C148.900392,153.044922 149.100585,152.966798 149.24707,152.810547 C149.393555,152.654296 149.530273,152.278323 149.657227,151.682617 L150.09668,151.682617 Z" id="RACES" fill="#9B83DA"></path>
    </g>
</svg>