<?xml version="1.0" encoding="UTF-8"?>
<svg width="201px" height="327px" viewBox="0 0 201 327" version="1.1" xmlns="http://www.w3.org/2000/svg" xmlns:xlink="http://www.w3.org/1999/xlink">
    <!-- Generator: Sketch 49.1 (51147) - http://www.bohemiancoding.com/sketch -->
    <title>Group 98</title>
    <desc>Created with Sketch.</desc>
    <defs></defs>
    <g id="Page-1" stroke="none" stroke-width="1" fill="none" fill-rule="evenodd">
        <g id="Group-98">
            <rect id="Rectangle-18" fill="#CFFFE9" x="1" y="0" width="199" height="327" rx="3"></rect>
            <g id="Group-94" transform="translate(147.087768, 251.547530) scale(-1, 1) rotate(-5.000000) translate(-147.087768, -251.547530) translate(115.587768, 199.547530)">
                <g id="Group-32" transform="translate(27.940264, 93.216845) rotate(58.000000) translate(-27.940264, -93.216845) translate(18.440264, 88.216845)">
                    <path d="M0.207454914,0.925708451 C0.61345518,2.7914673 6.15746802,12.1692645 8.59620897,4.33812399 C9.10778137,2.695393 6.5281824,1.62849504 5.49416911,0.273680565" id="Path-89" fill="#25BCAF"></path>
                    <path d="M1.38181818,4.74033049 L2.76363636,9.74033049 L18.9318599,3.377629 L18.9318599,2.14285714 L7.7478634,2.14285714 C7.28273443,3.52079281 6.61671904,4.38661726 5.74981721,4.74033049 C4.88291538,5.09404371 3.4269157,5.09404371 1.38181818,4.74033049 Z" id="Line-5" fill="#3EA375"></path>
                </g>
                <path d="M44.4402643,84.947509 C44.8724268,87.0382832 50.7736902,97.547067 53.3695811,88.7714707 C53.9141187,86.9306221 51.168293,85.7350534 50.0676489,84.2168448" id="Path-89" fill="#25BCAF"></path>
                <path d="M27.5287138,51.2837861 C32.0496651,52.9282575 33.9292506,53.4420079 38.9852934,57.8159838 C45.9730747,63.8611042 36.030095,77.3153245 34.0045802,81.9980514 C32.9892927,84.3452641 32.2829419,86.8300679 31.347289,89.2141352 C31.0980874,89.8491072 30.8746323,90.5237886 30.4532711,91.0468776 C30.3171872,91.2158157 29.921627,91.299979 29.8265192,91.1020589 L25.8252125,85.6716776 C23.3787245,80.580513 33.4897559,71.6712459 31.0390364,64.8764745 C26.1250118,51.252037 19.036631,55.593738 18.50592,46.7137898" id="Path-49" fill="#55BD8E"></path>
                <path d="M1.88185925,52.0119639 C10.7401117,61.8251441 8.50480773,57.0338477 20.0837614,64.5340994 C21.8151332,65.6555932 23.0348229,67.4196588 24.2814427,69.0496833 C24.7457453,69.6567846 24.4980298,70.7594018 25.1527006,71.1620183 C26.5526227,72.0229575 28.5726726,71.5605393 29.9109418,72.5117736 C37.4199428,77.8491298 37.0341006,87.1869685 51.4392674,84.8478098 C51.5039683,84.8373034 48.4181023,80.6739917 42.4670496,72.7342372 C41.2403934,71.0976615 40.360663,69.229151 39.1634396,67.5715836 C37.9361981,65.8724559 36.6360769,64.2161261 35.2047567,62.6795228 C33.894136,61.2724972 32.0790728,60.3225549 30.9592758,58.763949 C28.8949241,55.8906508 20.7925246,48.2850615 20.0837614,48.4403026 C19.1642776,48.641698 20.3578664,50.4926848 19.4479135,50.732394 C17.6788009,51.1984319 17.419502,51.6568148 15.5905912,51.563828 C11.7008108,51.366061 7.9206111,50.2054673 4.0578312,49.7135295 C2.86164422,49.5611912 1.6461199,49.6607657 0.440264252,49.6343838" id="Path-48" fill="#68C99D"></path>
                <path d="M25.4402643,66.2168448 C26.5916734,73.3550281 26.4339281,65.0383195 30.4402643,70.2168448" id="Path-86" stroke="#CFFFE9"></path>
                <g id="Group-67" transform="translate(0.440264, 0.216845)">
                    <path d="M17.3156169,11.1157336 C19.9609077,6.36332137 17.3156169,5.99113646 18.4807892,2.65803797 C19.7691713,-1.02751529 27.5800028,-0.733867965 28.7449502,2.63382479 C29.1944028,3.93312642 28.7616132,5.50972336 29.4850058,6.68472234 C29.7131562,7.05530457 30.0208615,7.80954583 29.9988857,8.26503952 C29.9792578,8.67186835 29.4300059,8.12335051 29.0438213,8.41670496 C28.3669985,8.93083462 29.3088193,10.9806725 28.6483328,11.5147535 C27.6612346,12.3129383 26.0562052,11.9203095 24.9609371,12.5695192 C19.9868314,15.517873 21.4150019,18.8343097 17,11.8756293 L17.3156169,11.1157336 Z" id="Path-55" fill="#25BCAF"></path>
                    <path d="M2.15847479,36.8973655 C3.2784255,40.867676 -1.35275958,48.6812211 0.982883602,50.9537186 C5.95394514,55.790384 13.6650916,52.5007317 15.9910143,52.3565273 C20.9231535,52.0507405 19.9327844,47.9520673 21.2886746,42.2129271 C22.1951193,38.3761762 25.9403852,33.1959986 26.5871127,30.1816321 C26.8785803,28.8231154 24.1502542,26.5143506 24.7895645,25.7994367 C27.0768979,23.2416074 30.6494558,25.4235046 36.9492717,24.1701678 C43.2490876,22.9168309 44.0389538,19.5956189 45.6223546,16.9929691 C47.1727937,14.4444987 43.5418574,12.7230956 42.0868324,12.0196292 C41.0711787,11.5285873 39.8227367,13.2895236 39.4528893,13.502664 C37.397713,14.6870471 35.3523355,15.9600914 33.1022753,16.7177455 C25.1638399,19.3908243 25.1403902,15.3041656 18.9234017,11.6292117 C18.0735414,11.1268467 16.8853982,10.7644888 15.9910143,11.1836114 C14.2747093,11.9878995 12.9478513,13.5014102 11.7711528,14.9808703 C9.48040048,17.8610277 7.4161496,20.9391594 5.66207036,24.1701678 C4.64635762,26.0411074 4.03753441,28.1191899 3.5188249,30.1816321 C3.08241722,31.9168337 3.04779211,33.7280396 2.81227571,35.5012434 L2.15847479,36.8973655 Z" id="Path-50" fill="#9BE0C0"></path>
                    <path d="M26,25 C19.2404729,23.1792872 22.2934772,24.7656582 17,20" id="Path-54" stroke="#CFFFE9" stroke-linecap="round"></path>
                    <path d="M42,13.1486253 C42.2879008,11.7320709 43.0112028,10.4829278 43.2775652,9.4716949 C44.3686461,5.32945554 44.7835468,6.25612934 44.5552938,7.17468039 C44.2129391,8.55240741 43.8679529,9.52155789 44.5552938,8.96927336 C45.5394324,8.17850929 45.669923,7.17468039 45.9843384,6.26293405 C46.066208,6.02552743 46.2038879,5 46.5981654,5 C46.9924429,5 46.1359826,7.51593098 46.3943235,7.59916239 C46.4890976,7.6296964 46.6249091,7.40912548 46.7776414,7.0132188 C47.03667,6.34177496 47.3353105,5.3366487 47.4991695,5.43658858 C47.83155,5.63931214 47.3265246,7.87879949 47.4991695,8.00407489 C47.6917493,8.14381563 48.0373087,7.08752402 48.2522595,7.17468039 C48.4874296,7.27003509 48.0627933,8.17077424 48.2522595,8.36611043 C48.4319385,8.55135616 48.719583,7.94349841 48.9300213,8.00407489 C49.3531094,8.12586443 47.728985,11.0722526 47.4991695,11.2347733 C45.6273919,12.5584552 45.8208331,12.7173 44.2122358,15" id="Path-78" fill="#25BCAF"></path>
                </g>
                <path d="M45.4402643,88.9519366 L46.7787744,94.2168448 L62.4402643,87.5170369 L62.4402643,86.2168448 L51.6067891,86.2168448 C51.1562379,87.6677858 50.5110963,88.5794831 49.6713643,88.9519366 C48.8316324,89.3243901 47.4212657,89.3243901 45.4402643,88.9519366 Z" id="Line-5" fill="#3EA375"></path>
            </g>
            <g id="Group-94" transform="translate(57.087768, 251.547530) rotate(-5.000000) translate(-57.087768, -251.547530) translate(25.587768, 199.547530)">
                <g id="Group-32" transform="translate(27.940264, 93.216845) rotate(58.000000) translate(-27.940264, -93.216845) translate(18.440264, 88.216845)">
                    <path d="M0.207454914,0.925708451 C0.61345518,2.7914673 6.15746802,12.1692645 8.59620897,4.33812399 C9.10778137,2.695393 6.5281824,1.62849504 5.49416911,0.273680565" id="Path-89" fill="#25BCAF"></path>
                    <path d="M1.38181818,4.74033049 L2.76363636,9.74033049 L18.9318599,3.377629 L18.9318599,2.14285714 L7.7478634,2.14285714 C7.28273443,3.52079281 6.61671904,4.38661726 5.74981721,4.74033049 C4.88291538,5.09404371 3.4269157,5.09404371 1.38181818,4.74033049 Z" id="Line-5" fill="#3EA375"></path>
                </g>
                <path d="M44.4402643,84.947509 C44.8724268,87.0382832 50.7736902,97.547067 53.3695811,88.7714707 C53.9141187,86.9306221 51.168293,85.7350534 50.0676489,84.2168448" id="Path-89" fill="#25BCAF"></path>
                <path d="M27.5287138,51.2837861 C32.0496651,52.9282575 33.9292506,53.4420079 38.9852934,57.8159838 C45.9730747,63.8611042 36.030095,77.3153245 34.0045802,81.9980514 C32.9892927,84.3452641 32.2829419,86.8300679 31.347289,89.2141352 C31.0980874,89.8491072 30.8746323,90.5237886 30.4532711,91.0468776 C30.3171872,91.2158157 29.921627,91.299979 29.8265192,91.1020589 L25.8252125,85.6716776 C23.3787245,80.580513 33.4897559,71.6712459 31.0390364,64.8764745 C26.1250118,51.252037 19.036631,55.593738 18.50592,46.7137898" id="Path-49" fill="#55BD8E"></path>
                <path d="M1.88185925,52.0119639 C10.7401117,61.8251441 8.50480773,57.0338477 20.0837614,64.5340994 C21.8151332,65.6555932 23.0348229,67.4196588 24.2814427,69.0496833 C24.7457453,69.6567846 24.4980298,70.7594018 25.1527006,71.1620183 C26.5526227,72.0229575 28.5726726,71.5605393 29.9109418,72.5117736 C37.4199428,77.8491298 37.0341006,87.1869685 51.4392674,84.8478098 C51.5039683,84.8373034 48.4181023,80.6739917 42.4670496,72.7342372 C41.2403934,71.0976615 40.360663,69.229151 39.1634396,67.5715836 C37.9361981,65.8724559 36.6360769,64.2161261 35.2047567,62.6795228 C33.894136,61.2724972 32.0790728,60.3225549 30.9592758,58.763949 C28.8949241,55.8906508 20.7925246,48.2850615 20.0837614,48.4403026 C19.1642776,48.641698 20.3578664,50.4926848 19.4479135,50.732394 C17.6788009,51.1984319 17.419502,51.6568148 15.5905912,51.563828 C11.7008108,51.366061 7.9206111,50.2054673 4.0578312,49.7135295 C2.86164422,49.5611912 1.6461199,49.6607657 0.440264252,49.6343838" id="Path-48" fill="#68C99D"></path>
                <path d="M25.4402643,66.2168448 C26.5916734,73.3550281 26.4339281,65.0383195 30.4402643,70.2168448" id="Path-86" stroke="#CFFFE9"></path>
                <g id="Group-67" transform="translate(0.440264, 0.216845)">
                    <path d="M17.3156169,11.1157336 C19.9609077,6.36332137 17.3156169,5.99113646 18.4807892,2.65803797 C19.7691713,-1.02751529 27.5800028,-0.733867965 28.7449502,2.63382479 C29.1944028,3.93312642 28.7616132,5.50972336 29.4850058,6.68472234 C29.7131562,7.05530457 30.0208615,7.80954583 29.9988857,8.26503952 C29.9792578,8.67186835 29.4300059,8.12335051 29.0438213,8.41670496 C28.3669985,8.93083462 29.3088193,10.9806725 28.6483328,11.5147535 C27.6612346,12.3129383 26.0562052,11.9203095 24.9609371,12.5695192 C19.9868314,15.517873 21.4150019,18.8343097 17,11.8756293 L17.3156169,11.1157336 Z" id="Path-55" fill="#25BCAF"></path>
                    <path d="M2.15847479,36.8973655 C3.2784255,40.867676 -1.35275958,48.6812211 0.982883602,50.9537186 C5.95394514,55.790384 13.6650916,52.5007317 15.9910143,52.3565273 C20.9231535,52.0507405 19.9327844,47.9520673 21.2886746,42.2129271 C22.1951193,38.3761762 25.9403852,33.1959986 26.5871127,30.1816321 C26.8785803,28.8231154 24.1502542,26.5143506 24.7895645,25.7994367 C27.0768979,23.2416074 30.6494558,25.4235046 36.9492717,24.1701678 C43.2490876,22.9168309 44.0389538,19.5956189 45.6223546,16.9929691 C47.1727937,14.4444987 43.5418574,12.7230956 42.0868324,12.0196292 C41.0711787,11.5285873 39.8227367,13.2895236 39.4528893,13.502664 C37.397713,14.6870471 35.3523355,15.9600914 33.1022753,16.7177455 C25.1638399,19.3908243 25.1403902,15.3041656 18.9234017,11.6292117 C18.0735414,11.1268467 16.8853982,10.7644888 15.9910143,11.1836114 C14.2747093,11.9878995 12.9478513,13.5014102 11.7711528,14.9808703 C9.48040048,17.8610277 7.4161496,20.9391594 5.66207036,24.1701678 C4.64635762,26.0411074 4.03753441,28.1191899 3.5188249,30.1816321 C3.08241722,31.9168337 3.04779211,33.7280396 2.81227571,35.5012434 L2.15847479,36.8973655 Z" id="Path-50" fill="#9BE0C0"></path>
                    <path d="M26,25 C19.2404729,23.1792872 22.2934772,24.7656582 17,20" id="Path-54" stroke="#CFFFE9" stroke-linecap="round"></path>
                    <path d="M42,13.1486253 C42.2879008,11.7320709 43.0112028,10.4829278 43.2775652,9.4716949 C44.3686461,5.32945554 44.7835468,6.25612934 44.5552938,7.17468039 C44.2129391,8.55240741 43.8679529,9.52155789 44.5552938,8.96927336 C45.5394324,8.17850929 45.669923,7.17468039 45.9843384,6.26293405 C46.066208,6.02552743 46.2038879,5 46.5981654,5 C46.9924429,5 46.1359826,7.51593098 46.3943235,7.59916239 C46.4890976,7.6296964 46.6249091,7.40912548 46.7776414,7.0132188 C47.03667,6.34177496 47.3353105,5.3366487 47.4991695,5.43658858 C47.83155,5.63931214 47.3265246,7.87879949 47.4991695,8.00407489 C47.6917493,8.14381563 48.0373087,7.08752402 48.2522595,7.17468039 C48.4874296,7.27003509 48.0627933,8.17077424 48.2522595,8.36611043 C48.4319385,8.55135616 48.719583,7.94349841 48.9300213,8.00407489 C49.3531094,8.12586443 47.728985,11.0722526 47.4991695,11.2347733 C45.6273919,12.5584552 45.8208331,12.7173 44.2122358,15" id="Path-78" fill="#25BCAF"></path>
                </g>
                <path d="M45.4402643,88.9519366 L46.7787744,94.2168448 L62.4402643,87.5170369 L62.4402643,86.2168448 L51.6067891,86.2168448 C51.1562379,87.6677858 50.5110963,88.5794831 49.6713643,88.9519366 C48.8316324,89.3243901 47.4212657,89.3243901 45.4402643,88.9519366 Z" id="Line-5" fill="#3EA375"></path>
            </g>
            <g id="Group-61" transform="translate(79.000000, 73.000000)" fill="#3CBF84">
                <g id="Group-56">
                    <path d="M13.5090034,17.9302105 C16.9175429,17.9302105 22.4695833,16.409757 24.8464088,14.8064276 C27.6721221,12.900293 29,12.1195307 29,9 C29,3.25650173 21.002574,0 13.5417574,0 C6.0809408,0 0,1.78718867 0,7.53068695 C0,9.78658472 0.933063157,11.8747164 2.51830308,13.5788494 C2.98838566,14.0841882 0.992719555,17.4980434 1.57017522,17.9302105 C2.2542336,18.442159 5.53158835,15.9565274 6.34386902,16.3485089 C8.42075826,17.3507512 10.8769774,17.9302105 13.5090034,17.9302105 Z" id="Oval-7"></path>
                </g>
            </g>
            <g id="Group-61" transform="translate(49.000000, 103.000000)">
                <g id="Group-56">
                    <path d="M13.5090034,17.9302105 C16.9175429,17.9302105 22.4695833,16.409757 24.8464088,14.8064276 C27.6721221,12.900293 29,12.1195307 29,9 C29,3.25650173 21.002574,0 13.5417574,0 C6.0809408,0 0,1.78718867 0,7.53068695 C0,9.78658472 0.933063157,11.8747164 2.51830308,13.5788494 C2.98838566,14.0841882 0.992719555,17.4980434 1.57017522,17.9302105 C2.2542336,18.442159 5.53158835,15.9565274 6.34386902,16.3485089 C8.42075826,17.3507512 10.8769774,17.9302105 13.5090034,17.9302105 Z" id="Oval-7" fill="#3CBF84"></path>
                    <path d="M4.14285714,11.5120955 C4.38674201,9.57528773 5.49240681,3.04460488 9.45502132,5.35223681 C12.2761957,6.9951501 9.26165359,12.5334615 9.07572921,12.1424563 C7.69120558,9.23075662 12.7951748,4.08489444 15.0942688,6.89745449 C15.8912139,7.87238465 16.4881102,11.6262369 15.8442092,10.5512122 L15.0769811,11.7839177 C13.2817784,8.7867377 17.7365323,4.91541437 20.6581419,6.7336941 C21.0050167,6.94957358 21.8268216,10.687631 20.8752754,11.058169 C20.4954494,11.2060756 20.2846,7.40890416 22.5843373,6.62529873 C23.6424276,6.26476827 24.7900172,6.22529202 25.8928571,6.02528867" id="Path-44" stroke="#CFFFE9"></path>
                </g>
            </g>
            <g id="Group-46" transform="translate(91.000000, 133.000000)">
                <path d="M3.90071734,9.08147792 C3.55425573,10.3410802 3.70657089,11.0476846 3.31163488,11.8739869 C2.95024323,12.6301062 2.95116609,13.6439489 2.8418035,14.854424 C2.77278553,15.6183463 2.56321921,16.9931243 2.45300743,17.684347 C2.26250733,18.8791194 3.1584538,19.6621597 2.8418035,20.9115656 C2.66417087,21.61245 2.0477861,22.1323985 2.01396723,23 C1.96179048,24.3385612 2.16927335,26.811585 2.01396723,28.1499892 C1.8859403,29.2533056 2.67929476,30.0170599 2.71347828,31.0697612 C2.74486293,32.0362699 3.19953882,34.5623381 3.90071734,35.670682 C5.38990253,38.0246178 7.8189337,38.6633484 8.45723809,37.2705541 C9.08299977,35.9051282 10.6929716,34.7329015 11.129997,33.2760687 C11.6250391,31.6258361 10.9484764,29.8669585 11.129997,28.1499892 C11.2504275,27.0108598 11.9773532,25.8668581 11.9994098,24.7272905 C12.0239286,23.4605134 11.2771385,22.1518225 11.129997,20.9115656 C11.0164479,19.954459 11.3456491,19.1101109 11.129997,17.684347 C10.9143449,16.258583 10.6435474,16.3320191 10.4776544,14.854424 C10.3117614,13.3768288 10.806758,12.6376605 10.4776544,11.8739869 C10.0334489,10.8432231 8.72855425,8.94802212 7.85970338,8.18762403 C7.08273653,7.5076407 6.59761467,8.95320531 5.7924188,8.18762403 L3.90071734,9.08147792 Z" id="Path-15" fill="#64BB93"></path>
                <path d="M7.64038406,35 C2.00717258,32.6267344 10.9360882,32.8142818 8.60150582,28.5277528 C7.83919504,27.1280732 6.01543942,26.924294 5.09865164,25.6539588 C4.3002106,24.5476093 8.60271972,21.3694373 8.86961249,19.6040389 C9.7836702,13.55788 2.49858483,21.4872777 6.7617254,11" id="Path-16" stroke="#CFFFE9"></path>
                <rect id="Rectangle-29" fill="#85D9B3" x="6" y="38" width="1" height="5"></rect>
                <rect id="Rectangle-30" fill="#85D9B3" x="3" y="41" width="8" height="2" rx="1"></rect>
                <path d="M3,7 C2,5.66666667 1,4.33333333 0,3" id="Path-17" stroke="#85D9B3" stroke-linecap="round"></path>
                <path d="M6.41067302,6 C6.27378201,4 6.13689101,2 6,0" id="Path-18" stroke="#85D9B3" stroke-linecap="round"></path>
                <path d="M9,6 C9.66666667,4.66666667 10.3333333,3.33333333 11,2" id="Path-19" stroke="#85D9B3" stroke-linecap="round"></path>
            </g>
            <g id="Group-46" transform="translate(112.000000, 130.000000)">
                <path d="M5.90071734,13.0814779 C5.55425573,14.3410802 5.70657089,15.0476846 5.31163488,15.8739869 C4.95024323,16.6301062 4.95116609,17.6439489 4.8418035,18.854424 C4.77278553,19.6183463 4.56321921,20.9931243 4.45300743,21.684347 C4.26250733,22.8791194 5.1584538,23.6621597 4.8418035,24.9115656 C4.66417087,25.61245 4.0477861,26.1323985 4.01396723,27 C3.96179048,28.3385612 4.16927335,30.811585 4.01396723,32.1499892 C3.8859403,33.2533056 4.67929476,34.0170599 4.71347828,35.0697612 C4.74486293,36.0362699 5.19953882,38.5623381 5.90071734,39.670682 C7.38990253,42.0246178 9.8189337,42.6633484 10.4572381,41.2705541 C11.0829998,39.9051282 12.6929716,38.7329015 13.129997,37.2760687 C13.6250391,35.6258361 12.9484764,33.8669585 13.129997,32.1499892 C13.2504275,31.0108598 13.9773532,29.8668581 13.9994098,28.7272905 C14.0239286,27.4605134 13.2771385,26.1518225 13.129997,24.9115656 C13.0164479,23.954459 13.3456491,23.1101109 13.129997,21.684347 C12.9143449,20.258583 12.6435474,20.3320191 12.4776544,18.854424 C12.3117614,17.3768288 12.806758,16.6376605 12.4776544,15.8739869 C12.0334489,14.8432231 10.7285543,12.9480221 9.85970338,12.187624 C9.08273653,11.5076407 8.59761467,12.9532053 7.7924188,12.187624 L5.90071734,13.0814779 Z" id="Path-15" fill="#68C99D" transform="translate(9.000000, 27.000000) rotate(15.000000) translate(-9.000000, -27.000000) "></path>
                <path d="M9.64038406,39 C4.00717258,36.6267344 12.9360882,36.8142818 10.6015058,32.5277528 C9.83919504,31.1280732 8.01543942,30.924294 7.09865164,29.6539588 C6.3002106,28.5476093 10.6027197,25.3694373 10.8696125,23.6040389 C11.7836702,17.55788 4.49858483,25.4872777 8.7617254,15" id="Path-16" stroke="#CFFFE9" transform="translate(9.000000, 27.000000) rotate(-345.000000) translate(-9.000000, -27.000000) "></path>
                <rect id="Rectangle-29" fill="#85D9B3" x="5" y="41" width="1" height="5"></rect>
                <rect id="Rectangle-30" fill="#85D9B3" x="2" y="44" width="8" height="2" rx="1"></rect>
                <g id="Group-96" transform="translate(14.500000, 6.500000) rotate(29.000000) translate(-14.500000, -6.500000) translate(9.000000, 3.000000)" stroke="#6ECBA1" stroke-linecap="round">
                    <path d="M3,7 C2,5.66666667 1,4.33333333 0,3" id="Path-17"></path>
                    <path d="M6.41067302,6 C6.27378201,4 6.13689101,2 6,0" id="Path-18"></path>
                    <path d="M9,6 C9.66666667,4.66666667 10.3333333,3.33333333 11,2" id="Path-19"></path>
                </g>
            </g>
            <g id="Group-46" transform="translate(134.000000, 137.000000)">
                <path d="M10.9007173,9.08147792 C10.5542557,10.3410802 10.7065709,11.0476846 10.3116349,11.8739869 C9.95024323,12.6301062 9.95116609,13.6439489 9.8418035,14.854424 C9.77278553,15.6183463 9.56321921,16.9931243 9.45300743,17.684347 C9.26250733,18.8791194 10.1584538,19.6621597 9.8418035,20.9115656 C9.66417087,21.61245 9.0477861,22.1323985 9.01396723,23 C8.96179048,24.3385612 9.16927335,26.811585 9.01396723,28.1499892 C8.8859403,29.2533056 9.67929476,30.0170599 9.71347828,31.0697612 C9.74486293,32.0362699 10.1995388,34.5623381 10.9007173,35.670682 C12.3899025,38.0246178 14.8189337,38.6633484 15.4572381,37.2705541 C16.0829998,35.9051282 17.6929716,34.7329015 18.129997,33.2760687 C18.6250391,31.6258361 17.9484764,29.8669585 18.129997,28.1499892 C18.2504275,27.0108598 18.9773532,25.8668581 18.9994098,24.7272905 C19.0239286,23.4605134 18.2771385,22.1518225 18.129997,20.9115656 C18.0164479,19.954459 18.3456491,19.1101109 18.129997,17.684347 C17.9143449,16.258583 17.6435474,16.3320191 17.4776544,14.854424 C17.3117614,13.3768288 17.806758,12.6376605 17.4776544,11.8739869 C17.0334489,10.8432231 15.7285543,8.94802212 14.8597034,8.18762403 C14.0827365,7.5076407 13.5976147,8.95320531 12.7924188,8.18762403 L10.9007173,9.08147792 Z" id="Path-15" fill="#68C99D" transform="translate(14.000000, 23.000000) rotate(41.000000) translate(-14.000000, -23.000000) "></path>
                <path d="M14.6403841,35 C9.00717258,32.6267344 17.9360882,32.8142818 15.6015058,28.5277528 C14.839195,27.1280732 13.0154394,26.924294 12.0986516,25.6539588 C11.3002106,24.5476093 15.6027197,21.3694373 15.8696125,19.6040389 C16.7836702,13.55788 9.49858483,21.4872777 13.7617254,11" id="Path-16" stroke="#CFFFE9" transform="translate(14.000000, 23.000000) rotate(-315.000000) translate(-14.000000, -23.000000) "></path>
                <rect id="Rectangle-29" fill="#85D9B3" x="6" y="34" width="1" height="5"></rect>
                <rect id="Rectangle-30" fill="#85D9B3" x="3" y="37" width="8" height="2" rx="1"></rect>
                <g id="Group-96" transform="translate(26.705532, 7.872050) rotate(41.000000) translate(-26.705532, -7.872050) translate(20.705532, 3.872050)" stroke="#6ECBA1" stroke-linecap="round">
                    <path d="M3.13986441,7.27424175 C2.13986441,5.94090841 1.13986441,4.60757508 0.139864413,3.27424175" id="Path-17"></path>
                    <path d="M6.55053743,6.27424175 C6.41364643,4.27424175 6.27675542,2.27424175 6.13986441,0.274241748" id="Path-18"></path>
                    <path d="M9.13986441,6.27424175 C9.80653108,4.94090841 10.4731977,3.60757508 11.1398644,2.27424175" id="Path-19"></path>
                </g>
            </g>
            <g id="Group-46" transform="translate(44.000000, 156.500000) scale(-1, 1) translate(-44.000000, -156.500000) translate(27.000000, 137.000000)">
                <path d="M10.9007173,9.08147792 C10.5542557,10.3410802 10.7065709,11.0476846 10.3116349,11.8739869 C9.95024323,12.6301062 9.95116609,13.6439489 9.8418035,14.854424 C9.77278553,15.6183463 9.56321921,16.9931243 9.45300743,17.684347 C9.26250733,18.8791194 10.1584538,19.6621597 9.8418035,20.9115656 C9.66417087,21.61245 9.0477861,22.1323985 9.01396723,23 C8.96179048,24.3385612 9.16927335,26.811585 9.01396723,28.1499892 C8.8859403,29.2533056 9.67929476,30.0170599 9.71347828,31.0697612 C9.74486293,32.0362699 10.1995388,34.5623381 10.9007173,35.670682 C12.3899025,38.0246178 14.8189337,38.6633484 15.4572381,37.2705541 C16.0829998,35.9051282 17.6929716,34.7329015 18.129997,33.2760687 C18.6250391,31.6258361 17.9484764,29.8669585 18.129997,28.1499892 C18.2504275,27.0108598 18.9773532,25.8668581 18.9994098,24.7272905 C19.0239286,23.4605134 18.2771385,22.1518225 18.129997,20.9115656 C18.0164479,19.954459 18.3456491,19.1101109 18.129997,17.684347 C17.9143449,16.258583 17.6435474,16.3320191 17.4776544,14.854424 C17.3117614,13.3768288 17.806758,12.6376605 17.4776544,11.8739869 C17.0334489,10.8432231 15.7285543,8.94802212 14.8597034,8.18762403 C14.0827365,7.5076407 13.5976147,8.95320531 12.7924188,8.18762403 L10.9007173,9.08147792 Z" id="Path-15" fill="#68C99D" transform="translate(14.000000, 23.000000) rotate(41.000000) translate(-14.000000, -23.000000) "></path>
                <path d="M14.6403841,35 C9.00717258,32.6267344 17.9360882,32.8142818 15.6015058,28.5277528 C14.839195,27.1280732 13.0154394,26.924294 12.0986516,25.6539588 C11.3002106,24.5476093 15.6027197,21.3694373 15.8696125,19.6040389 C16.7836702,13.55788 9.49858483,21.4872777 13.7617254,11" id="Path-16" stroke="#CFFFE9" transform="translate(14.000000, 23.000000) rotate(-315.000000) translate(-14.000000, -23.000000) "></path>
                <rect id="Rectangle-29" fill="#85D9B3" x="6" y="34" width="1" height="5"></rect>
                <rect id="Rectangle-30" fill="#85D9B3" x="3" y="37" width="8" height="2" rx="1"></rect>
                <g id="Group-96" transform="translate(26.705532, 7.872050) rotate(41.000000) translate(-26.705532, -7.872050) translate(20.705532, 3.872050)" stroke="#6ECBA1" stroke-linecap="round">
                    <path d="M3.13986441,7.27424175 C2.13986441,5.94090841 1.13986441,4.60757508 0.139864413,3.27424175" id="Path-17"></path>
                    <path d="M6.55053743,6.27424175 C6.41364643,4.27424175 6.27675542,2.27424175 6.13986441,0.274241748" id="Path-18"></path>
                    <path d="M9.13986441,6.27424175 C9.80653108,4.94090841 10.4731977,3.60757508 11.1398644,2.27424175" id="Path-19"></path>
                </g>
            </g>
            <g id="Group-46" transform="translate(71.000000, 153.000000) scale(-1, 1) translate(-71.000000, -153.000000) translate(60.000000, 130.000000)">
                <path d="M5.90071734,13.0814779 C5.55425573,14.3410802 5.70657089,15.0476846 5.31163488,15.8739869 C4.95024323,16.6301062 4.95116609,17.6439489 4.8418035,18.854424 C4.77278553,19.6183463 4.56321921,20.9931243 4.45300743,21.684347 C4.26250733,22.8791194 5.1584538,23.6621597 4.8418035,24.9115656 C4.66417087,25.61245 4.0477861,26.1323985 4.01396723,27 C3.96179048,28.3385612 4.16927335,30.811585 4.01396723,32.1499892 C3.8859403,33.2533056 4.67929476,34.0170599 4.71347828,35.0697612 C4.74486293,36.0362699 5.19953882,38.5623381 5.90071734,39.670682 C7.38990253,42.0246178 9.8189337,42.6633484 10.4572381,41.2705541 C11.0829998,39.9051282 12.6929716,38.7329015 13.129997,37.2760687 C13.6250391,35.6258361 12.9484764,33.8669585 13.129997,32.1499892 C13.2504275,31.0108598 13.9773532,29.8668581 13.9994098,28.7272905 C14.0239286,27.4605134 13.2771385,26.1518225 13.129997,24.9115656 C13.0164479,23.954459 13.3456491,23.1101109 13.129997,21.684347 C12.9143449,20.258583 12.6435474,20.3320191 12.4776544,18.854424 C12.3117614,17.3768288 12.806758,16.6376605 12.4776544,15.8739869 C12.0334489,14.8432231 10.7285543,12.9480221 9.85970338,12.187624 C9.08273653,11.5076407 8.59761467,12.9532053 7.7924188,12.187624 L5.90071734,13.0814779 Z" id="Path-15" fill="#68C99D" transform="translate(9.000000, 27.000000) rotate(15.000000) translate(-9.000000, -27.000000) "></path>
                <path d="M9.64038406,39 C4.00717258,36.6267344 12.9360882,36.8142818 10.6015058,32.5277528 C9.83919504,31.1280732 8.01543942,30.924294 7.09865164,29.6539588 C6.3002106,28.5476093 10.6027197,25.3694373 10.8696125,23.6040389 C11.7836702,17.55788 4.49858483,25.4872777 8.7617254,15" id="Path-16" stroke="#CFFFE9" transform="translate(9.000000, 27.000000) rotate(-345.000000) translate(-9.000000, -27.000000) "></path>
                <rect id="Rectangle-29" fill="#85D9B3" x="5" y="41" width="1" height="5"></rect>
                <rect id="Rectangle-30" fill="#85D9B3" x="2" y="44" width="8" height="2" rx="1"></rect>
                <g id="Group-96" transform="translate(14.500000, 6.500000) rotate(29.000000) translate(-14.500000, -6.500000) translate(9.000000, 3.000000)" stroke="#6ECBA1" stroke-linecap="round">
                    <path d="M3,7 C2,5.66666667 1,4.33333333 0,3" id="Path-17"></path>
                    <path d="M6.41067302,6 C6.27378201,4 6.13689101,2 6,0" id="Path-18"></path>
                    <path d="M9,6 C9.66666667,4.66666667 10.3333333,3.33333333 11,2" id="Path-19"></path>
                </g>
            </g>
            <g id="Group-69" transform="translate(2.000000, 17.000000)">
                <polyline id="Line-13" stroke="#AAF0D0" stroke-width="2" stroke-linecap="square" points="0.659444243 26.1154455 31.1390371 5.5 152 5.5"></polyline>
                <g id="Group-46" transform="translate(168.566757, 21.566757) rotate(-225.000000) translate(-168.566757, -21.566757) translate(161.566757, -1.933243)">
                    <path d="M2.65622848,1.45537574 C2.17205276,3.15045855 2.38491127,4.10135626 1.83299318,5.21333485 C1.32795292,6.2308662 1.32924261,7.59522336 1.17640976,9.22419425 C1.07995803,10.2522263 0.787091737,12.1023043 0.633072164,13.0325025 C0.366850678,14.6403419 1.61892456,15.6941016 1.17640976,17.3754629 C0.928170405,18.3186631 0.0667804703,19.0183726 0.0195190278,20.1859287 C-0.0533973204,21.9872688 0.236557364,25.3152876 0.0195190278,27.1164164 C-0.159396994,28.6011809 0.949305857,29.6289868 0.997076881,31.045637 C1.04093653,32.3462954 1.67634035,35.7456976 2.65622848,37.2372276 C4.73734598,40.4049864 8.13188637,41.2645444 9.0239087,39.3902212 C9.89840275,37.5527286 12.1483181,35.9752296 12.7590555,34.0147281 C13.4508706,31.7939629 12.5053828,29.426991 12.7590555,27.1164164 C12.9273556,25.5834574 13.943225,24.0439416 13.974049,22.5103929 C14.0083137,20.8056548 12.9646839,19.044512 12.7590555,17.3754629 C12.600372,16.0874571 13.0604266,14.9511938 12.7590555,13.0325025 C12.4576845,11.1138112 12.0792484,11.2126363 11.847415,9.22419425 C11.6155816,7.23575222 12.3073331,6.24103227 11.847415,5.21333485 C11.2266434,3.82620663 9.40306961,1.27578046 8.18886149,0.252491023 C7.10306012,-0.662581984 6.42510844,1.28275564 5.29985739,0.252491023 L2.65622848,1.45537574 Z" id="Path-15" fill="#85D9B3"></path>
                    <path d="M7.55728053,36.748742 C0.268075057,33.5754436 11.8218221,33.8262137 8.80094306,28.0946866 C7.81453594,26.2231721 5.45465126,25.9506985 4.26835556,24.2521306 C3.23519699,22.7728283 8.80251381,18.5232879 9.14786499,16.1627699 C10.3306281,8.07843807 0.903947668,18.6808525 6.42032277,4.65829124" id="Path-16" stroke="#CFFFE9" stroke-width="2"></path>
                    <rect id="Rectangle-29" fill="#AAF0D0" x="6.21105499" y="40.3718575" width="1.55276375" height="6.21105499"></rect>
                </g>
            </g>
            <polyline id="Path-196" stroke="#85D9B3" stroke-width="2" stroke-linecap="round" points="181.04025 62.2205178 181.04025 63.7413972 181.04025 65.9302383 181.04025 69.5327549 181.04025 74.6231652 181.04025 75.927281 181.04025 79.1869813 181.04025 79.7430271 181.04025 80.2755115 181.04025 80.3532637"></polyline>
            <path d="M186.902291,61.8718112 C188.435737,64.9068942 189.969182,67.9419772 191.502627,70.9770602" id="Path-197" stroke="#85D9B3" stroke-width="2" stroke-linecap="round"></path>
            <polyline id="Path-198" stroke="#85D9B3" stroke-width="2" stroke-linecap="round" points="191.025512 58.4000595 192.763155 58.4000595 194.73052 58.4000595 195.69771 58.4000595 196.058197 58.4000595 196.230194 58.4000595"></polyline>
            <path d="M29.4801503,59.3475869 C29.3917641,59.3546946 29.306858,59.3851794 29.2341364,59.435916 C29.0076654,59.5939207 28.9521626,59.9055999 29.1101673,60.1320709 L35.0869846,68.6987474 C35.1487129,68.7872235 35.2374017,68.8533618 35.33981,68.8872876 C35.6019426,68.974127 35.8848404,68.8320237 35.9716798,68.5698911 L39.0509094,59.2749562 C39.0719522,59.2114367 39.0800311,59.1443395 39.0746674,59.0776405 C39.0525323,58.8023867 38.811451,58.5971934 38.5361973,58.6193285 L29.4801503,59.3475869 Z" id="Rectangle-72" stroke="#83D4AF"></path>
            <path d="M39.4801503,39.3475869 C39.3917641,39.3546946 39.306858,39.3851794 39.2341364,39.435916 C39.0076654,39.5939207 38.9521626,39.9055999 39.1101673,40.1320709 L45.0869846,48.6987474 C45.1487129,48.7872235 45.2374017,48.8533618 45.33981,48.8872876 C45.6019426,48.974127 45.8848404,48.8320237 45.9716798,48.5698911 L49.0509094,39.2749562 C49.0719522,39.2114367 49.0800311,39.1443395 49.0746674,39.0776405 C49.0525323,38.8023867 48.811451,38.5971934 48.5361973,38.6193285 L39.4801503,39.3475869 Z" id="Rectangle-72" stroke="#83D4AF" transform="translate(43.851464, 44.310727) rotate(33.000000) translate(-43.851464, -44.310727) "></path>
            <path d="M49.4801503,59.3475869 C49.3917641,59.3546946 49.306858,59.3851794 49.2341364,59.435916 C49.0076654,59.5939207 48.9521626,59.9055999 49.1101673,60.1320709 L55.0869846,68.6987474 C55.1487129,68.7872235 55.2374017,68.8533618 55.33981,68.8872876 C55.6019426,68.974127 55.8848404,68.8320237 55.9716798,68.5698911 L59.0509094,59.2749562 C59.0719522,59.2114367 59.0800311,59.1443395 59.0746674,59.0776405 C59.0525323,58.8023867 58.811451,58.5971934 58.5361973,58.6193285 L49.4801503,59.3475869 Z" id="Rectangle-72" stroke="#83D4AF" transform="translate(53.851464, 64.310727) rotate(33.000000) translate(-53.851464, -64.310727) "></path>
            <path d="M137,327 C137,308.222319 121.777681,293 103,293 C84.2223185,293 69,308.222319 69,327" id="Oval-26" stroke="#68C99D" stroke-width="3"></path>
            <path d="M96.5,308.5 L96.5,325.5" id="Line-26" stroke="#91E5BF" stroke-width="3" stroke-linecap="square"></path>
            <path d="M108.5,308.5 L108.5,325.5" id="Line-26" stroke="#91E5BF" stroke-width="3" stroke-linecap="square"></path>
            <path d="M193.5,98.5 L172.703366,98.5" id="Line-27" stroke="#A0F5CE" stroke-width="2" stroke-linecap="round"></path>
            <circle id="Oval-27" stroke="#3CBF84" fill="#4ACF93" cx="168" cy="98" r="4"></circle>
            <path d="M163.5,98.5 L107.277229,98.5" id="Line-27" stroke="#3CBF84" stroke-width="2" stroke-linecap="round"></path>
            <path d="M193.5,112.5 L151.996988,112.5" id="Line-27" stroke="#A0F5CE" stroke-width="2" stroke-linecap="round"></path>
            <path d="M145.003314,112.5 L107.277229,112.5" id="Line-27" stroke="#3CBF84" stroke-width="2" stroke-linecap="round"></path>
            <circle id="Oval-27" stroke="#3CBF84" fill="#4ACF93" cx="148" cy="112" r="4"></circle>
            <g id="Group-97" transform="translate(0.000000, 262.000000)">
                <circle id="Oval-28" fill="#8AF1C2" cx="24.5" cy="10.5" r="10.5"></circle>
                <path d="M14,10.5 C14,16.2989899 18.7010101,21 24.5,21 C30.2989899,21 35,16.2989899 35,10.5 C35,4.70101013 30.2989899,0 24.5,0" id="Oval-28" stroke="#68C99D" stroke-width="2"></path>
                <circle id="Oval-28" fill="#8AF1C2" cx="34.5" cy="40.5" r="10.5"></circle>
                <path d="M0.5,42 C6.29898987,42 11,37.2989899 11,31.5 C11,25.7010101 6.29898987,21 0.5,21" id="Oval-28" fill="#8AF1C2"></path>
                <path d="M34.5,51 C40.2989899,51 45,46.2989899 45,40.5 C45,34.7010101 40.2989899,30 34.5,30" id="Oval-28" stroke="#68C99D" stroke-width="2"></path>
            </g>
            <g id="Group-97" transform="translate(178.500000, 287.500000) scale(-1, 1) translate(-178.500000, -287.500000) translate(156.000000, 262.000000)" fill="#8AF1C2">
                <circle id="Oval-28" cx="24.5" cy="10.5" r="10.5"></circle>
                <circle id="Oval-28" cx="34.5" cy="40.5" r="10.5"></circle>
                <path d="M0.5,42 C6.29898987,42 11,37.2989899 11,31.5 C11,25.7010101 6.29898987,21 0.5,21" id="Oval-28"></path>
            </g>
            <path d="M166.5,313 C172.29899,313 177,308.29899 177,302.5 C177,296.70101 172.29899,292 166.5,292" id="Oval-28" stroke="#68C99D" stroke-width="2"></path>
            <path d="M166,272.5 C166,278.29899 170.70101,283 176.5,283 C182.29899,283 187,278.29899 187,272.5 C187,266.70101 182.29899,262 176.5,262" id="Oval-28" stroke="#68C99D" stroke-width="2"></path>
            <polyline id="Line-28" stroke="#91E5BF" stroke-linecap="round" points="64.5 242.256839 69.567466 242.256839 73.9020226 236.67968 78.5015936 248.027388 81.4203143 236.67968 82.6683035 242.353534 86.0828469 242.353534 87.4309001 238.241353 90.4294471 246.037351 91.7673814 240.816034 95.5034788 240.816034 95.5034788 238.241353 100.937291 246.037351 104.039275 239.414014 107.773124 242.353534 110.86274 236.67968 115.662439 249.364198 118.400145 235.501399 121.631426 242.432798 123.874433 236.67968 125.847605 240.816034 130.582094 240.816034 132.993749 236.67968 137.27289 242.432798 140.215221 239.414014 143 239.414014"></polyline>
            <path d="M11.4326009,81.1515812 C20.7651253,87.8581128 21.0533321,84.7188116 11.7314245,90.6043682" id="Path-201" stroke="#A0F5CE"></path>
            <path d="M16.3551485,80.0134265 C23.6798834,87.80461 24.1366374,84.1775326 17.4094801,90.9298001" id="Path-202" stroke="#A0F5CE"></path>
            <circle id="Oval-29" fill="#CFFFE9" cx="88" cy="82" r="2"></circle>
            <circle id="Oval-29" fill="#CFFFE9" cx="94" cy="80" r="2"></circle>
            <circle id="Oval-29" fill="#CFFFE9" cx="100" cy="82" r="2"></circle>
            <path d="M158.284637,193.198245 C159.343324,193.127923 158.695205,195.862064 159.654706,197.71099 C160.632785,199.595716 162.895895,201.765843 163.807737,203.568646 C164.542777,205.021892 164.082363,206.184891 163.807737,207.164442 C162.864506,210.528809 158.690861,209.945138 156.254557,207.164442 C155.877382,206.733951 157.032062,203.968514 156.672082,203.568646 C155.489376,202.254891 153.605769,202.077586 153.514151,201.613507 C153.028062,197.72581 157.018137,193.282372 158.284637,193.198245 Z" id="Path-184" fill="#0C854D" transform="translate(158.838846, 201.335465) rotate(-41.000000) translate(-158.838846, -201.335465) "></path>
            <path d="M163.374997,200.618423 C170.419902,183.905866 187.006791,189.858439 164.482644,200.901609" id="Path-199" fill="#0C854D"></path>
            <path d="M82.0852297,59.5268349 C84.5387747,54.6558038 86.7477197,47.4512112 91.8765835,44.0186684 C104.059076,35.8654147 109.220983,49.7327093 104.849282,59.4965872 C104.625337,59.9967517 103.435533,59.4696607 103.303092,58.9378946 C99.2674035,42.7341684 126.580264,23.7296479 124.837665,49.0308879 C124.604557,52.4154409 125.340708,60.2701779 122.248819,58.8738407 C118.967648,57.3920217 121.344408,51.4023704 122.741678,48.0843132 C129.700419,31.5595932 142.61657,36.0281989 140.829794,54.0181975 C140.603672,56.2948876 140.292703,60.350439 138.006084,60.2741306 C131.929951,60.0713598 143.385462,45.8850672 143.93463,45.6093408 C146.768736,44.1863927 149.992471,43.7304258 153.021391,42.7909682" id="Path-200" stroke="#AAF0D0"></path>
            <rect id="Rectangle-73" fill="#A0F5CE" x="48" y="180" width="98" height="5" rx="2.5"></rect>
        </g>
        <g id="Group-99" transform="translate(9.000000, 99.000000)">
            <path d="M3,16.8608735 C3.17582401,10.0149868 3.71464162,3.78151228 10.8927561,0.661442001 C13.8149532,-0.608732823 23.2898649,-0.328143889 24.3539543,3.99622595 C25.3906413,8.2092344 24.7846514,12.6654087 25,17" id="Path-27" stroke="#6FD9A9" stroke-width="3"></path>
            <path d="M24.5182702,16.000008 L24.5182702,16.000008 C26.0331552,16.0000104 27.3691362,16.9925229 27.8065331,18.4428885 C28.6021877,21.0811237 29.0000042,22.8610072 29.0000042,23.7825325 C29.0000042,24.6762607 28.6258254,26.2696631 27.8774678,28.5627397 L27.8774617,28.5627377 C27.4030445,30.0164211 26.0474096,31.000004 24.5182702,31.000004 L24.5182702,31.000004 C23.1274703,31.000004 22.0000042,29.8725379 22.0000042,28.481738 L22.0000042,18.51827 C22.0000042,17.1274723 23.1274685,16.000008 24.5182662,16.000008 C24.5182676,16.000008 24.5182689,16.000008 24.5182702,16.000008 Z" id="Rectangle-41" fill="#3CBF84"></path>
            <path d="M3.74612314,16 L3.74612314,16 C4.99090496,16 6,17.009095 6,18.2538769 L6,28.7461231 C6,29.9909026 4.99090687,30.9999957 3.74612742,30.9999957 C3.74612599,30.9999957 3.74612457,30.9999957 3.74612314,30.9999957 L3.74612314,30.9999957 C2.41707916,30.9999932 1.26562034,30.0786436 0.974127194,28.7819595 C0.324712685,25.8930399 0,23.9368519 0,22.9133932 C0,21.948834 0.288414032,20.3825639 0.865242095,18.2145828 L0.865260171,18.2145876 C1.21268421,16.9088107 2.3949175,16 3.74612314,16 Z" id="Rectangle-41" fill="#3CBF84"></path>
            <path d="M8,3 C13.2932607,0.457329726 16.8873209,0.385315099 21,2.52082575" id="Path-28" stroke="#3CBF84"></path>
        </g>
    </g>
</svg>