<?xml version="1.0" encoding="UTF-8"?>
<svg width="199px" height="327px" viewBox="0 0 199 327" version="1.1" xmlns="http://www.w3.org/2000/svg" xmlns:xlink="http://www.w3.org/1999/xlink">
    <!-- Generator: Sketch 49.1 (51147) - http://www.bohemiancoding.com/sketch -->
    <title>Group 105</title>
    <desc>Created with Sketch.</desc>
    <defs></defs>
    <g id="Page-1" stroke="none" stroke-width="1" fill="none" fill-rule="evenodd">
        <g id="Group-105">
            <rect id="Rectangle-18" fill="#FED0D0" x="0" y="0" width="199" height="327" rx="3"></rect>
            <path d="M56.5,116.5 L78.5227155,116.5" id="Line-39" stroke="#F97777" stroke-linecap="square"></path>
            <path d="M4.36379267,95.5604019 C20.3042135,98.6662597 4.33224589,105.108817 2.6426166,110.687073 C2.40727088,111.464059 2.15913108,112.516998 2.7005732,113.121924 C7.74348685,118.756119 10.1502944,116.132868 11.334084,122.731262 C11.7218154,124.892461 12.6257894,127.387394 11.5726495,129.314053 C8.95205441,134.10828 0.13451608,131.397961 7.05675255,137.849846" id="Path-208" stroke="#979797"></path>
            <g id="Group-62" transform="translate(26.000000, 147.000000)">
                <g id="Group-53" transform="translate(49.000000, 0.000000)">
                    <g id="Group-57">
                        <rect id="Rectangle-56" fill="#FFA4A4" x="0" y="0" width="116" height="180" rx="7"></rect>
                        <rect id="Rectangle-57" fill="#FED0D0" x="6.75728155" y="10.125" width="103.61165" height="144"></rect>
                    </g>
                    <ellipse id="Oval-14" fill="#F37777" cx="57.5735294" cy="166.839623" rx="7.25" ry="7.21698113"></ellipse>
                    <g id="Group-104" transform="translate(29.000000, 32.000000) rotate(8.000000) translate(-29.000000, -32.000000) translate(15.000000, 18.000000)">
                        <rect id="Rectangle-58" fill="#F97777" x="0.5" y="0.528301887" width="27.2941176" height="27.1698113" rx="2"></rect>
                        <path d="M12.1758556,22.9330437 C7.78396394,21.2139381 6.69698618,18.7936765 7.06712734,17.0206808 C7.50973776,14.9005535 9.8021706,13.3686304 12.0030095,10.4716919 C12.8273735,9.38659124 12.4366671,7.9173225 10.8308903,6.06388565 C15.1830825,5.27459343 23.5591411,11.9563488 21.7472679,17.4054364 C21.4298631,18.36001 20.776467,20.1390105 19.7045505,21.2456205 C18.9899395,21.9833604 18.0327886,22.3943729 16.8330976,22.478658 C17.8496201,20.8775729 18.2082436,19.6589796 18.0365219,19.0001164 C17.9676434,18.7358426 17.841145,17.9067482 17.4181386,17.1963529 C17.2314314,16.8827975 16.8339417,16.4286081 16.2256697,15.8337846 C15.5895605,15.8337846 17.1502764,19.8942581 13.2395554,19.4171145 C12.6803285,19.3488837 11.9654251,18.1985464 11.7083053,18.7017231 C11.5558283,19.0001164 11.5263791,19.6736374 11.5558283,20.7916424 L12.1758556,22.9330437 Z" id="Path-203" fill="#FEA2A2"></path>
                    </g>
                </g>
                <g id="Group-60" transform="translate(0.000000, 12.000000)">
                    <g id="Group-59" transform="translate(84.362122, 140.473147) rotate(28.000000) translate(-84.362122, -140.473147) translate(75.362122, 135.973147)">
                        <path d="M0,0.574575332 C0.38062525,2.21870594 5.57813729,10.4825411 7.86445693,3.58163965 C8.34405605,2.13404404 5.92568202,1.19387988 4.95629456,0" id="Path-89" fill="#FF3D3D"></path>
                        <path d="M1.29545455,3.86252113 L2.59090909,8.26858522 L17.7486187,2.66169111 L17.7486187,1.57359432 L7.26362193,1.57359432 C6.82756353,2.78784889 6.2031741,3.5508245 5.39045363,3.86252113 C4.57773316,4.17421776 3.21273347,4.17421776 1.29545455,3.86252113 Z" id="Line-5" fill="#B01B1B"></path>
                    </g>
                    <g id="Group-33" transform="translate(22.214853, 153.690911) rotate(77.000000) translate(-22.214853, -153.690911) translate(12.214853, 148.690911)">
                        <path d="M0.107353605,0.662816993 C0.489489273,2.34663352 5.70762636,10.8099405 8.0030187,3.74246562 C8.48452099,2.25992805 6.05655023,1.29707027 5.083316,0.0743726013" id="Path-89" fill="#FF3D3D"></path>
                        <path d="M2.72362185,4.78203102 L4.02421708,9.29444839 L19.2420763,3.55221545 L19.2420763,2.43785426 L8.71547244,2.43785426 C8.27768365,3.68141843 7.65081647,4.46281068 6.83487093,4.78203102 C6.01892538,5.10125137 4.64850902,5.10125137 2.72362185,4.78203102 Z" id="Line-5" fill="#B01B1B"></path>
                    </g>
                    <path d="M84.8214286,39.057057 C85.135402,37.7329823 85.9242072,36.5653895 86.2146917,35.6201749 C87.4045822,31.7483615 87.8570568,32.6145375 87.6081329,33.4731209 C87.2347741,34.7609031 86.8585456,35.6667826 87.6081329,35.150554 C88.6813962,34.4114149 88.8237043,33.4731209 89.1665936,32.6208979 C89.2558774,32.3989904 89.4060257,31.4404145 89.8360095,31.4404145 C90.2659932,31.4404145 89.3319708,33.792093 89.6137074,33.8698906 C89.7170644,33.8984312 89.8651751,33.6922603 90.031739,33.3222004 C90.3142256,32.6945917 90.6399113,31.7550851 90.8186095,31.8485004 C91.1810909,32.0379892 90.6303298,34.1312717 90.8186095,34.2483685 C91.0286296,34.3789862 91.4054833,33.3916546 91.6399004,33.4731209 C91.8963678,33.5622504 91.4332758,34.4041848 91.6399004,34.5867685 C91.8358513,34.7599205 92.1495452,34.1917467 92.3790411,34.2483685 C92.8404446,34.362207 91.0692374,37.1162403 90.8186095,37.2681508 C88.7773215,38.5054162 88.988281,38.6538908 87.2340072,40.7875648" id="Path-78" fill="#FF3D3D"></path>
                    <path d="M16.1160714,32.2591296 C16.4300449,30.9350549 17.21885,29.767462 17.5093345,28.8222475 C18.699225,24.9504341 19.1516997,25.81661 18.9027758,26.6751935 C18.529417,27.9629756 18.1531885,28.8688551 18.9027758,28.3526265 C19.9760391,27.6134874 20.1183472,26.6751935 20.4612364,25.8229705 C20.5505202,25.6010629 20.7006686,24.642487 21.1306523,24.642487 C21.560636,24.642487 20.6266137,26.9941655 20.9083503,27.0719632 C21.0117072,27.1005038 21.159818,26.8943328 21.3263819,26.5242729 C21.6088685,25.8966643 21.9345542,24.9571576 22.1132524,25.0505729 C22.4757337,25.2400617 21.9249727,27.3333442 22.1132524,27.450441 C22.3232725,27.5810588 22.7001261,26.5937271 22.9345432,26.6751935 C23.1910106,26.764323 22.7279187,27.6062574 22.9345432,27.788841 C23.1304942,27.961993 23.4441881,27.3938192 23.673684,27.450441 C24.1350874,27.5642795 22.3638803,30.3183128 22.1132524,30.4702234 C20.0719644,31.7074887 20.2829239,31.8559633 18.5286501,33.9896373" id="Path-78" fill="#FF3D3D" transform="translate(19.933036, 29.316062) scale(-1, 1) translate(-19.933036, -29.316062) "></path>
                    <g id="Group-29" transform="translate(0.848214, 81.575130)" fill="#FAA3A3">
                        <path d="M37.3867962,10.3672717 C44.5215688,18.3873009 42.7211702,14.4715125 52.0472987,20.6012519 C53.4418112,21.5178164 54.4241955,22.9595364 55.4282705,24.2917084 C55.8022373,24.7878748 55.6027179,25.689012 56.1300146,26.0180589 C57.2575649,26.7216797 58.8845898,26.3437586 59.9624826,27.1211749 C66.0105169,31.4832422 70.6151419,57.1487216 82.2176096,55.2369946 C82.2259678,55.2356174 83.3920607,54.6365212 83.0584824,53.6827892 C81.3122391,48.6901138 74.1000797,32.7511739 70.0756481,27.3029881 C69.0876527,25.9654619 68.3790844,24.4383821 67.4147953,23.0837002 C66.4263284,21.6950521 65.3791615,20.3413815 64.2263219,19.08556 C63.1706983,17.9356385 61.7087775,17.1592781 60.8068505,15.8854744 C59.1441434,13.5372107 54.3723734,4.18804022 53.6394627,4.38394763 C52.2145524,4.76482695 49.9014031,10.0770186 48.428329,10.0010232 C45.2953523,9.8393939 42.250636,8.89087418 39.1394066,8.48882762 C38.1759522,8.36432587 37.1969228,8.44570528 36.2256809,8.42414411" id="Path-48"></path>
                        <path d="M11.5194958,13.6051566 C18.6542683,21.6251858 16.8538697,17.7093974 26.1799982,23.8391368 C27.5745107,24.7557013 34.2269142,29.6055447 35.6581422,32.3436455 C40.3704968,41.358912 47.4507881,59.9412446 56.3503092,58.4748795 C56.3586674,58.4735023 57.5247602,57.8744061 57.1911819,56.9206741 C55.4449387,51.9279987 50.1024997,34.9994826 46.0780681,29.5512967 C45.0900727,28.2137706 44.2401219,25.2890989 43.2758328,23.9344169 C42.2873659,22.5457688 39.8545828,21.9522256 38.7017432,20.696404 C37.6461196,19.5464826 28.5050729,7.42592511 27.7721623,7.62183253 C26.3472519,8.00271185 24.0341026,13.3149035 22.5610285,13.2389081 C19.4280518,13.0772788 16.3833356,12.1287591 13.2721061,11.7267125 C12.3086517,11.6022108 11.3296223,11.6835902 10.3583805,11.662029" id="Path-48" transform="translate(33.804774, 33.088156) rotate(-300.000000) translate(-33.804774, -33.088156) "></path>
                    </g>
                    <g id="Group-27" transform="translate(52.812500, 43.740933) scale(-1, 1) translate(-52.812500, -43.740933) translate(39.312500, 29.740933)">
                        <g id="Group-24" transform="translate(13.408676, 13.855382) scale(-1, 1) rotate(-25.000000) translate(-13.408676, -13.855382) translate(4.408676, 2.855382)">
                            <path d="M1.88849671,12.6902423 C4.21819947,8.33931736 1.88849671,7.99857491 2.91466181,4.94705904 C4.04933759,1.57286405 10.9283225,1.84170383 11.9542896,4.92489141 C12.3501217,6.11442708 11.9689647,7.55783194 12.6060552,8.63356614 C12.8069869,8.97284131 13.0779824,9.66336371 13.0586283,10.080377 C13.0413421,10.4528366 12.557617,9.95065794 12.2175048,10.2192296 C11.6214282,10.6899252 12.4508881,12.5665912 11.8691988,13.0555527 C10.9998633,13.7863063 9.58631685,13.426847 8.6217162,14.021211 C4.24103042,16.7204857 3.89310292,25.1331386 0.00481882467,18.7623327 L1.88849671,12.6902423 Z" id="Path-55" fill="#FF3D3D"></path>
                            <path d="M12.4456433,5.89467372 C12.4456433,2.99972111 10.2103561,0.652898327 7.45298957,0.652898327 C4.69562307,0.652898327 2.46033586,2.99972111 2.46033586,5.89467372" id="Oval-8" fill="#BE1515" transform="translate(7.452990, 3.273786) rotate(-5.000000) translate(-7.452990, -3.273786) "></path>
                            <path d="M12.5621609,5.12175538 C13.3064904,4.93874419 14.8843431,4.51548001 17.6373795,5.12175538" id="Path-56" stroke="#BE1515" stroke-width="2" stroke-linecap="round"></path>
                        </g>
                    </g>
                    <path d="M37.3214286,91.8778039 C44.0685678,91.8778039 49.1104227,93.6539347 52.2858459,93.4561269 C55.4612691,93.2583191 53.8522197,71.5627298 57.7344848,67.2007307 C58.3161849,66.5471495 65.8044382,63.21791 70.3030108,65.4300518 C75.5038536,67.98753 92.100356,47.4457314 87.37863,38.3916404 C84.5565225,32.980141 83.0508742,50.9338657 73.9977968,57.219361 C67.9039841,61.4502573 53.0120174,54.4078337 52.2858459,53.9765437 C51.4964743,53.5077178 43.9190114,52.5958558 42.8260644,53.9765437 C40.6983562,56.6644149 40.069866,59.9222224 40.069866,63.3213471 C40.069866,65.6802357 38.4594795,69.3656117 37.9776891,71.2903603 C37.5723428,72.9097157 37.5401821,74.6000012 37.3214286,76.2548217 L37.3214286,91.8778039 Z" id="Path-50" fill="#DC6868"></path>
                    <path d="M52.5892857,67.1295337 C54.5790764,63.8755383 54.2631782,63.1382612 57.6785714,62.880829" id="Path-58" stroke="#FED0D0" stroke-linecap="round" transform="translate(55.133929, 65.005181) scale(-1, 1) translate(-55.133929, -65.005181) "></path>
                    <path d="M42.9298343,53.2815838 C36.3803387,51.0366247 32.5347621,47.3726137 29.1481421,41.0813344 C24.7275335,32.8692282 27.297341,32.9246422 22.5445759,29.250101 C22.3226134,29.0784934 22.0092765,28.786032 21.7686878,28.9296603 C18.7774164,30.7154102 17.7215598,34.0727675 19.5943428,37.0895368 C27.1291224,49.2269237 31.7296399,54.0493279 43.2589286,61.1813472" id="Path-79" stroke="#FED0D0" fill="#DC6868"></path>
                    <path d="M8.21696599,9.23208127 C14.7759097,7.18483359 17.7766455,15.2864824 9.01628139,14.4557545 C6.04138752,14.1736512 5.52179276,8.77515489 6.11811172,7.00915118 C7.07728489,4.16855164 10.1073921,4.1445477 12.3646522,4.47488337 C14.9377163,4.85143496 15.9718297,9.61614241 16.1986566,11.2977486 C17.0645444,17.7171048 14.5501173,22.4272577 7.5218638,21.0406004 C1.54098762,19.8605881 -1.99756054,12.9778354 1.20862688,7.22804391 C4.33332337,1.6243936 7.98278809,-0.351913394 14.1321084,0.0502749213 C21.2398241,0.515145842 22.8214779,11.4453576 21.7490527,16.6457444 C20.9446957,20.5462196 17.6124049,21.153761 15.0867015,23.9138332 C13.2135832,25.9607647 12.7022643,28.5494068 15.8495423,27.954848 C16.3027581,27.8692301 16.6943641,27.5786926 17.116775,27.3906148" id="Path-77" stroke="#F97777"></path>
                    <path d="M57.6785714,105.367876 C58.4606294,108.754215 56.9141175,103.862442 61.2477054,106.29836 C62.2482053,106.860743 62.1067685,108.557728 62.9141265,109.389734 C63.2842774,109.771185 63.947566,109.538671 64.4642857,109.61314" id="Path-85" stroke="#FED0D0"></path>
                </g>
            </g>
            <path d="M0.888212664,283.284687 C11.7986382,267.884831 16.9483987,255.657516 15.8798836,236.102694 C15.7993925,234.629631 11.9817978,227.147513 8.45380419,229.651518 C-0.186850966,235.784251 11.5046709,254.577962 20.828362,249.69252 C28.3697286,245.740982 30.5705668,239.11462 34.9829602,231.986245" id="Path-108" stroke="#FFA4A4" stroke-linecap="round" stroke-dasharray="4"></path>
            <polygon id="Line-11" fill="#F97777" transform="translate(40.629827, 226.784091) rotate(18.000000) translate(-40.629827, -226.784091) " points="36.5 230.5 42.5 233.5 44.7596537 220.068183"></polygon>
            <polygon id="Line-11" fill="#F97777" transform="translate(38.846278, 223.389429) rotate(45.000000) translate(-38.846278, -223.389429) " points="35.2975435 230.380323 40.1353583 229.830353 42.395012 216.398536"></polygon>
            <circle id="Oval-32" fill="#FFA3A3" cx="176" cy="61" r="4"></circle>
            <circle id="Oval-32" fill="#F97777" cx="176" cy="61" r="3"></circle>
            <path d="M101.46568,144.732637 C113.491788,140.639928 149.508721,118.456015 133.236256,101.371852 C123.074096,90.7027865 118.982537,134.480367 142.581374,124.621546 C155.180463,119.358059 154.945311,87.7480525 156.329019,83.0237503 C156.898884,81.0780984 158.979539,79.3457598 160.99451,79.1217038 C165.044821,78.6713267 168.974283,81.2600493 173.04844,81.1646231 C174.033014,81.1415621 174.532823,79.7408748 174.817085,78.7979471 C175.687841,75.90956 175.902872,72.8628777 176.445766,69.8953431" id="Path-207" stroke="#F97777" stroke-dasharray="4"></path>
            <polygon id="Line-30" fill="#FFA4A4" points="176.5 67.5 172.5 70.5 176.5 59.9222646 181.001296 70.5"></polygon>
            <rect id="Rectangle-76" fill="#EFBABA" x="79" y="33" width="120" height="6"></rect>
            <circle id="Oval-33" fill="#F97777" cx="82" cy="36" r="1"></circle>
            <circle id="Oval-33" fill="#F97777" cx="86" cy="36" r="1"></circle>
            <circle id="Oval-33" fill="#F97777" cx="90" cy="36" r="1"></circle>
            <path d="M101.5,65.5 L137.996575,65.5" id="Line-31" stroke="#EFBABA" stroke-width="4" stroke-linecap="round"></path>
            <path d="M101.5,75.5 L161,75.5" id="Line-31" stroke="#EFBABA" stroke-width="4" stroke-linecap="round"></path>
            <circle id="Oval-32" fill="#FFA3A3" cx="146" cy="72" r="4"></circle>
            <circle id="Oval-32" fill="#F97777" cx="146" cy="72" r="3"></circle>
            <circle id="Oval-32" fill="#FFA3A3" cx="146" cy="92" r="4"></circle>
            <circle id="Oval-32" fill="#F97777" cx="146" cy="92" r="3"></circle>
            <circle id="Oval-32" fill="#FFA3A3" cx="142" cy="97" r="4"></circle>
            <circle id="Oval-32" fill="#F97777" cx="142" cy="97" r="3"></circle>
            <rect id="Rectangle-77" fill="#F97777" x="100" y="85" width="41" height="11" rx="5.5"></rect>
            <path d="M107.5,90.5 L132.519992,90.5" id="Line-32" stroke="#FED0D0" stroke-linecap="round"></path>
            <polyline id="Line-33" stroke="#EFBABA" stroke-linecap="square" points="79.5 38.5 79.5 139.5 198.342107 139.5"></polyline>
            <rect id="Rectangle-78" fill="#F97777" x="0" y="89" width="16" height="65"></rect>
            <path d="M5.0691927,99.2814016 C14.6696044,104.009151 8.75436387,103.129656 4.27986355,110.140162 C3.07021738,112.035398 11.3439588,116.713561 11.9690622,119.822328 C12.7722948,123.816968 -2.43020093,128.298922 8.76327355,132.076063" id="Path-209" stroke="#FED0D0"></path>
            <path d="M2.1569996,141.476956 C2.8675524,141.445405 3.73119447,141.445405 4.74792582,141.476956 C5.90187704,141.512765 7.98271442,141.516263 10.990438,141.487451 L10.990438,141.487459 C11.5426931,141.482169 11.9946729,141.925571 11.9999632,142.477826 C11.9999938,142.481018 12.0000091,142.48421 12.0000091,142.487402 L12.0000387,148.453293 C12.0000406,149.005578 11.5523269,149.453295 11.0000422,149.453297 C11.0000391,149.453297 11.0000361,149.453297 11.0000331,149.453297 L5.06539549,149.453269 C4.5198461,149.453265 4.07496958,149.016014 4.0655364,148.470546 C4.01461324,145.525946 3.91495794,143.872913 3.76657052,143.511447 C3.60241125,143.111561 3.06588761,142.433397 2.1569996,141.476956 Z" id="Rectangle-79" fill="#FED0D0"></path>
            <circle id="Oval-34" fill="#F97777" cx="6.5" cy="144.5" r="1"></circle>
            <circle id="Oval-34" fill="#F97777" cx="9.5" cy="144.5" r="1"></circle>
            <path d="M7.27737407,149.222626 C8.38194357,149.222626 8.72262593,147.86234 8.72262593,147.222626 C8.72262593,146.582911 8.38194357,145.222626 7.27737407,145.222626" id="Oval-35" fill="#F97777" transform="translate(8.000000, 147.222626) rotate(-270.000000) translate(-8.000000, -147.222626) "></path>
            <rect id="Rectangle-80" fill="#FFA4A4" x="16" y="33" width="51" height="19" rx="2"></rect>
            <path d="M17.5,34.5 L66.5,50.5" id="Line-34" stroke="#F97777" stroke-linecap="square"></path>
            <path d="M17.3421634,49.9994063 L66.6578366,35.0005937" id="Line-34" stroke="#F97777" stroke-linecap="square"></path>
            <circle id="Oval-36" fill="#F97777" cx="66.5" cy="34.5" r="2.5"></circle>
            <circle id="Oval-36" fill="#F97777" cx="16.5" cy="33.5" r="2.5"></circle>
            <circle id="Oval-36" fill="#F97777" cx="16.5" cy="50.5" r="2.5"></circle>
            <circle id="Oval-36" fill="#F97777" cx="66.5" cy="50.5" r="2.5"></circle>
            <path d="M16.5,58.5 L60.5,58.5" id="Line-35" stroke="#EFBABA" stroke-width="2" stroke-linecap="round"></path>
            <path d="M16.5,63.5 L66,63.5" id="Line-35" stroke="#EFBABA" stroke-width="2" stroke-linecap="round"></path>
            <polyline id="Line-36" stroke="#F97777" stroke-linecap="square" points="0.5 13.5 40.5 13.5 40.5 25.0246698"></polyline>
            <polyline id="Line-37" stroke="#F97777" stroke-linecap="square" points="37.5 22.5 40.5 25.5 43.8383442 22.5"></polyline>
            <path d="M41.5,72.5 L41.5,102.679862" id="Line-38" stroke="#F97777" stroke-linecap="square"></path>
            <rect id="Rectangle-81" fill="#FFA4A4" transform="translate(41.500000, 116.500000) rotate(-315.000000) translate(-41.500000, -116.500000) " x="31" y="106" width="21" height="21"></rect>
            <path d="M39.9630119,107.57919 C45.079395,110.098768 41.9269638,109.630055 39.5423517,113.36619 C38.8976905,114.376225 43.3070463,116.869376 43.640185,118.526143 C44.0682547,120.655021 35.9663321,123.043605 41.9317121,125.056572" id="Path-209" stroke="#FED0D0" transform="translate(41.567376, 116.317881) rotate(-86.000000) translate(-41.567376, -116.317881) "></path>
        </g>
    </g>
</svg>