<?xml version="1.0" encoding="UTF-8"?>
<svg width="37px" height="37px" viewBox="0 0 37 37" version="1.1" xmlns="http://www.w3.org/2000/svg" xmlns:xlink="http://www.w3.org/1999/xlink">
    <!-- Generator: Sketch 49.1 (51147) - http://www.bohemiancoding.com/sketch -->
    <title>Group 101</title>
    <desc>Created with Sketch.</desc>
    <defs></defs>
    <g id="Page-1" stroke="none" stroke-width="1" fill="none" fill-rule="evenodd">
        <g id="Group-101">
            <path d="M13.6923577,19.0451697 C3.68471008,5.73095312 9.33992201,-1.49339862 16.1165631,6.2560363 C21.9030227,12.8731481 29.3189503,23.148061 29.1404617,32.9190481 C29.1188646,34.1013355 26.9866176,34.2045133 25.8064253,34.1309188 C24.735436,34.0641339 23.7453435,33.3179245 23.0096578,32.5367428 C20.6649485,30.0470327 17.5591818,25.5498417 13.6923577,19.0451697 Z" id="Path-204" stroke="#4F5E71" stroke-width="2" transform="translate(18.705706, 18.611082) rotate(-13.000000) translate(-18.705706, -18.611082) "></path>
            <path d="M13.6923577,19.0451697 C3.68471008,5.73095312 9.33992201,-1.49339862 16.1165631,6.2560363 C21.9030227,12.8731481 29.3189503,23.148061 29.1404617,32.9190481 C29.1188646,34.1013355 26.9866176,34.2045133 25.8064253,34.1309188 C24.735436,34.0641339 23.7453435,33.3179245 23.0096578,32.5367428 C20.6649485,30.0470327 17.5591818,25.5498417 13.6923577,19.0451697 Z" id="Path-204" stroke="#4F5E71" stroke-width="2" transform="translate(18.705706, 18.611082) rotate(50.000000) translate(-18.705706, -18.611082) "></path>
            <path d="M13.6923577,19.0451697 C3.68471008,5.73095312 9.33992201,-1.49339862 16.1165631,6.2560363 C21.9030227,12.8731481 29.3189503,23.148061 29.1404617,32.9190481 C29.1188646,34.1013355 26.9866176,34.2045133 25.8064253,34.1309188 C24.735436,34.0641339 23.7453435,33.3179245 23.0096578,32.5367428 C20.6649485,30.0470327 17.5591818,25.5498417 13.6923577,19.0451697 Z" id="Path-204" stroke="#4F5E71" stroke-width="2" transform="translate(18.705706, 18.611082) rotate(-75.000000) translate(-18.705706, -18.611082) "></path>
            <circle id="Oval-30" fill="#4F5E71" cx="19" cy="18" r="2"></circle>
        </g>
    </g>
</svg>