<?xml version="1.0" encoding="UTF-8"?>
<svg width="36px" height="40px" viewBox="0 0 36 40" version="1.1" xmlns="http://www.w3.org/2000/svg" xmlns:xlink="http://www.w3.org/1999/xlink">
    <!-- Generator: Sketch 49.1 (51147) - http://www.bohemiancoding.com/sketch -->
    <title>Path 203</title>
    <desc>Created with Sketch.</desc>
    <defs></defs>
    <g id="Page-1" stroke="none" stroke-width="1" fill="none" fill-rule="evenodd">
        <path d="M12.8439854,39.1764338 C2.7271745,35.2164394 0.223299319,29.6413179 1.07592694,25.5571866 C2.09548897,20.6734307 7.37615424,17.1446148 12.4458311,10.4714585 C14.34477,7.97190734 13.4447699,4.58741719 9.74583077,0.317988043 C19.7711933,-1.5001625 39.0656131,13.8913957 34.8919267,26.4434789 C34.1607784,28.6423583 32.6556672,32.740322 30.186486,35.2894203 C28.5403652,36.9888192 26.3355486,37.9355948 23.5720363,38.1297471 C25.9136164,34.4416152 26.7397129,31.6345612 26.3441485,30.1168564 C26.1854854,29.5080963 25.8940938,27.5982607 24.91969,25.9618507 C24.4896062,25.2395697 23.5739808,24.1933352 22.1728139,22.8231472 C20.7075236,22.8231472 24.3026641,32.1765299 15.2942395,31.0774198 C14.006049,30.9202488 12.3592545,28.2704237 11.7669738,29.4295013 C11.4157401,30.1168564 11.3479034,31.6683255 11.4157401,34.2436727 L12.8439854,39.1764338 Z" id="Path-203" fill="#E62A40"></path>
    </g>
</svg>