<?xml version="1.0" encoding="UTF-8"?>
<svg width="53px" height="41px" viewBox="0 0 53 41" version="1.1" xmlns="http://www.w3.org/2000/svg" xmlns:xlink="http://www.w3.org/1999/xlink">
    <!-- Generator: Sketch 49.1 (51147) - http://www.bohemiancoding.com/sketch -->
    <title>Group 23</title>
    <desc>Created with Sketch.</desc>
    <defs></defs>
    <g id="Icons" stroke="none" stroke-width="1" fill="none" fill-rule="evenodd">
        <g id="Group-23" fill="#74D7E7">
            <path d="M1.16422649,0.193828513 L26,4.32866057 L26,35.8933716 L1.19272661,40.765738 C0.650795822,40.872178 0.125187475,40.5191429 0.0187475075,39.9772121 C0.00627859634,39.9137276 1.78427999e-15,39.8491829 1.77635684e-15,39.7844855 L0,1.18025117 C-6.76353751e-17,0.62796642 0.44771525,0.18025117 1,0.18025117 C1.05502247,0.18025117 1.10995108,0.184792365 1.16422649,0.193828513 Z" id="Rectangle-25"></path>
            <path d="M28.1642265,0.193828513 L53,4.32866057 L53,35.8933716 L28.1927266,40.765738 C27.6507958,40.872178 27.1251875,40.5191429 27.0187475,39.9772121 C27.0062786,39.9137276 27,39.8491829 27,39.7844855 L27,1.18025117 C27,0.62796642 27.4477153,0.18025117 28,0.18025117 C28.0550225,0.18025117 28.1099511,0.184792365 28.1642265,0.193828513 Z" id="Rectangle-25" transform="translate(40.000000, 20.500000) scale(-1, 1) translate(-40.000000, -20.500000) "></path>
        </g>
    </g>
</svg>