<?xml version="1.0" encoding="UTF-8"?>
<svg width="55px" height="71px" viewBox="0 0 55 71" version="1.1" xmlns="http://www.w3.org/2000/svg" xmlns:xlink="http://www.w3.org/1999/xlink">
    <!-- Generator: Sketch 49.1 (51147) - http://www.bohemiancoding.com/sketch -->
    <title>Group 10</title>
    <desc>Created with Sketch.</desc>
    <defs></defs>
    <g id="Icons" stroke="none" stroke-width="1" fill="none" fill-rule="evenodd">
        <g id="Group-10" transform="translate(0.000000, -1.000000)">
            <g id="Group-9">
                <path d="M0.5,2.32275307 L0.5,31.1676232 C0.5,31.7199079 0.94771525,32.1676232 1.5,32.1676232 C1.69035405,32.1676232 1.8767539,32.1132929 2.03729717,32.0110162 L24.6761297,17.5885811 C25.1419228,17.2918401 25.2789666,16.673684 24.9822256,16.207891 C24.9037664,16.0847339 24.7992868,15.9802543 24.6761297,15.9017951 L2.03729717,1.47936007 C1.57150408,1.18261904 0.953348037,1.3196628 0.656607003,1.78545589 C0.55433031,1.94599917 0.5,2.13239902 0.5,2.32275307 Z" id="Line-4" fill="#F9903C"></path>
                <path d="M43.5,17.5 L43.5,43.5" id="Line-5" stroke="#F9903C" stroke-width="3" stroke-linecap="round"></path>
                <path d="M53.5,17.5 L53.5,43.5" id="Line-5" stroke="#F9903C" stroke-width="3" stroke-linecap="round"></path>
            </g>
            <rect id="Rectangle-3" fill="#F9903C" x="5" y="47" width="24" height="25" rx="2"></rect>
        </g>
    </g>
</svg>