<?xml version="1.0" encoding="UTF-8"?>
<svg width="34px" height="54px" viewBox="0 0 34 54" version="1.1" xmlns="http://www.w3.org/2000/svg" xmlns:xlink="http://www.w3.org/1999/xlink">
    <!-- Generator: Sketch 49.1 (51147) - http://www.bohemiancoding.com/sketch -->
    <title>Group 2</title>
    <desc>Created with Sketch.</desc>
    <defs></defs>
    <g id="Icons" stroke="none" stroke-width="1" fill="none" fill-rule="evenodd">
        <g id="Group-2" fill="#E7C0E7">
            <path d="M8.96686713,21.8137659 L13.8957264,48.4367676 C13.9706144,48.8412718 13.9189451,49.2590292 13.747761,49.6330985 C12.6650184,51.9990953 10.4158971,53.1820936 7.00039715,53.1820936 C3.58495402,53.1820936 1.33562606,51.9991347 0.252413283,49.6332167 L0.252433782,49.6332073 C0.0811295284,49.2590501 0.0294104385,48.8411589 0.104330323,48.4365285 L5.03371142,21.8137259 C5.23481139,20.727617 6.27830036,20.0101755 7.36440928,20.2112755 C8.17886113,20.3620764 8.81608274,20.999311 8.96686713,21.8137659 Z" id="Rectangle-18" transform="translate(7.000025, 36.679795) rotate(-360.000000) translate(-7.000025, -36.679795) "></path>
            <path d="M28.9875968,4.23504 L33.9455626,48.5139829 C33.9847608,48.8640559 33.9308024,49.218272 33.7891463,49.5407951 C32.7229442,51.9683275 30.4600278,53.1820936 27.0003972,53.1820936 C23.5408261,53.1820936 21.2776976,51.9683693 20.2110116,49.5409205 L20.211007,49.5409225 C20.0692421,49.2183092 20.015232,48.8639668 20.0544445,48.5137682 L22.5505543,26.2215745 C24.4295764,25.0421497 25.3971916,24.2014453 25.4533999,23.6994612 C25.5096083,23.1974772 24.7521181,22.1616021 23.1809295,20.5918359 C25.0075675,19.6457658 25.9481946,18.9288487 26.0028107,18.4410845 C26.0574268,17.9533202 25.2768677,17.2407071 23.6611332,16.3032452 L26.0028107,14.3594777 L24.1110312,12.2853074 L26.0028107,10.2492689 L24.5228446,8.60749463 L26.3296913,6.40119318 L24.9195557,5.06455759 L25.0124389,4.23503844 C25.1353521,3.13732895 26.1248622,2.34710036 27.2225717,2.4700135 C28.1509133,2.5739621 28.8836489,3.30669835 28.9875968,4.23504 Z" id="Rectangle-18" transform="translate(27.000003, 27.819754) rotate(-360.000000) translate(-27.000003, -27.819754) "></path>
            <path d="M8.9701908,1.81376588 L13.8601059,28.2264883 C13.9542763,28.7351456 13.8476953,29.2605055 13.5627434,29.6922493 C12.5970122,31.1554735 11.7570764,32.0580185 11.0429359,32.3998841 C10.5197428,32.6503415 9.33379235,24.4927501 8.69199752,24.6229157 C7.9975221,24.7637658 7.83706751,33.1820936 7.00372082,33.1820936 C6.13050132,33.1820936 5.93931239,24.7775666 5.21854176,24.6229157 C4.48651841,24.4658504 3.22731197,32.556228 2.65253472,32.2396453 C2.03454107,31.8992593 1.29125333,31.0467855 0.422671518,29.6822237 L0.422654189,29.6822347 C0.150999352,29.2554588 0.0511695388,28.741592 0.14327449,28.2441479 L5.03703508,1.81372594 C5.23813505,0.727617018 6.28162403,0.0101755114 7.36773294,0.21127548 C8.18218479,0.362076415 8.8194064,0.999310974 8.9701908,1.81376588 Z" id="Rectangle-18" transform="translate(7.001687, 16.679795) rotate(-180.000000) translate(-7.001687, -16.679795) "></path>
        </g>
    </g>
</svg>