<?xml version="1.0" encoding="UTF-8"?>
<svg width="36px" height="35px" viewBox="0 0 36 35" version="1.1" xmlns="http://www.w3.org/2000/svg" xmlns:xlink="http://www.w3.org/1999/xlink">
    <!-- Generator: Sketch 49.1 (51147) - http://www.bohemiancoding.com/sketch -->
    <title>Star</title>
    <desc>Created with Sketch.</desc>
    <defs></defs>
    <g id="Page-1" stroke="none" stroke-width="1" fill="none" fill-rule="evenodd">
        <path d="M18,28.3208265 L9.48308299,33.9043876 C8.5593282,34.5099872 7.31954151,34.2520714 6.71394193,33.3283166 C6.39986246,32.8492337 6.30629457,32.2584693 6.45695713,31.7057785 L9.13536724,21.8802938 L1.19321294,15.5056396 C0.331797582,14.8142372 0.193974893,13.5554296 0.885377349,12.6940143 C1.24395639,12.2472622 1.77689266,11.9757176 2.34909017,11.9482153 L12.5213557,11.459293 L16.1297514,1.93597892 C16.5211222,0.903069117 17.6757298,0.382999021 18.7086396,0.774369848 C19.2443331,0.977344793 19.6672737,1.40028541 19.8702486,1.93597892 L23.4786443,11.459293 L33.6509098,11.9482153 C34.7542057,12.0012444 35.6056151,12.938631 35.552586,14.0419268 C35.5250837,14.6141243 35.2535391,15.1470606 34.8067871,15.5056396 L26.8646328,21.8802938 L29.5430429,31.7057785 C29.8335464,32.7714621 29.2051387,33.8708689 28.1394552,34.1613724 C27.5867643,34.312035 26.9959999,34.2184671 26.516917,33.9043876 L18,28.3208265 Z" id="Star" fill="#F97777"></path>
    </g>
</svg>