<?xml version="1.0" encoding="UTF-8"?>
<svg width="29px" height="18px" viewBox="0 0 29 18" version="1.1" xmlns="http://www.w3.org/2000/svg" xmlns:xlink="http://www.w3.org/1999/xlink">
    <!-- Generator: Sketch 49.1 (51147) - http://www.bohemiancoding.com/sketch -->
    <title>Group 61</title>
    <desc>Created with Sketch.</desc>
    <defs></defs>
    <g id="Page-1" stroke="none" stroke-width="1" fill="none" fill-rule="evenodd">
        <g id="Group-61">
            <g id="Group-56">
                <path d="M13.5090034,17.9302105 C16.9175429,17.9302105 22.4695833,16.409757 24.8464088,14.8064276 C27.6721221,12.900293 29,12.1195307 29,9 C29,3.25650173 21.002574,0 13.5417574,0 C6.0809408,0 0,1.78718867 0,7.53068695 C0,9.78658472 0.933063157,11.8747164 2.51830308,13.5788494 C2.98838566,14.0841882 0.992719555,17.4980434 1.57017522,17.9302105 C2.2542336,18.442159 5.53158835,15.9565274 6.34386902,16.3485089 C8.42075826,17.3507512 10.8769774,17.9302105 13.5090034,17.9302105 Z" id="Oval-7" fill="#3177DC"></path>
                <path d="M4.14285714,11.5120955 C4.38674201,9.57528773 5.49240681,3.04460488 9.45502132,5.35223681 C12.2761957,6.9951501 9.26165359,12.5334615 9.07572921,12.1424563 C7.69120558,9.23075662 12.7951748,4.08489444 15.0942688,6.89745449 C15.8912139,7.87238465 16.4881102,11.6262369 15.8442092,10.5512122 L15.0769811,11.7839177 C13.2817784,8.7867377 17.7365323,4.91541437 20.6581419,6.7336941 C21.0050167,6.94957358 21.8268216,10.687631 20.8752754,11.058169 C20.4954494,11.2060756 20.2846,7.40890416 22.5843373,6.62529873 C23.6424276,6.26476827 24.7900172,6.22529202 25.8928571,6.02528867" id="Path-44" stroke="#C5D5F6"></path>
            </g>
        </g>
    </g>
</svg>